{
  "asset" : {
    "generator" : "UE Viewer (umodel) build 1590",
    "version" : "2.0"
  },
  "scene" : 0,
  "scenes" : [
    {
      "nodes" : [ 0 ]
    }
  ],
  "nodes" : [
    {
      "name" : "SM_parkingSpotTruck_01",
      "mesh" : 0
    }
  ],
  "materials" : [
    {
      "name" : "dummy_material_0",
      "pbrMetallicRoughness" : {
        "baseColorFactor" : [ 0.3, 0.3, 0.3, 1.0 ],
        "metallicFactor" : 0.1,
        "roughnessFactor" : 0.5
      }
    }
  ],
  "meshes" : [
    {
      "primitives" : [
        {
          "attributes" : {
            "POSITION" : 1,
            "NORMAL" : 2,
            "TANGENT" : 3,
            "TEXCOORD_0" : 4
          },
          "indices" : 0,
          "material" : 0
        }
      ],
      "name" : "SM_parkingSpotTruck_01"
    }
  ],
  "buffers" : [
    {
      "uri" : "SM_parkingSpotTruck_01.bin",
      "byteLength" : 2100
    }
  ],
  "bufferViews" : [
    {
      "buffer" : 0,
      "byteOffset" : 0,
      "byteLength" : 84
    },
    {
      "buffer" : 0,
      "byteOffset" : 84,
      "byteLength" : 504
    },
    {
      "buffer" : 0,
      "byteOffset" : 588,
      "byteLength" : 504
    },
    {
      "buffer" : 0,
      "byteOffset" : 1092,
      "byteLength" : 672
    },
    {
      "buffer" : 0,
      "byteOffset" : 1764,
      "byteLength" : 336
    }
  ],
  "accessors" : [
    {
      "bufferView" : 0,
      "componentType" : 5123,
      "count" : 42,
      "type" : "SCALAR"
    },
    {
      "bufferView" : 1,
      "min" : [ 1.2207e-06, -9.79717e-16, -0 ],
      "max" : [ 4, 0.12, 16 ],
      "componentType" : 5126,
      "count" : 42,
      "type" : "VEC3"
    },
    {
      "bufferView" : 2,
      "componentType" : 5126,
      "count" : 42,
      "type" : "VEC3"
    },
    {
      "bufferView" : 3,
      "componentType" : 5126,
      "count" : 42,
      "type" : "VEC4"
    },
    {
      "bufferView" : 4,
      "componentType" : 5126,
      "count" : 42,
      "type" : "VEC2"
    }
  ]
}
