{
  "asset" : {
    "generator" : "UE Viewer (umodel) build 1590",
    "version" : "2.0"
  },
  "scene" : 0,
  "scenes" : [
    {
      "nodes" : [ 0 ]
    }
  ],
  "nodes" : [
    {
      "name" : "SM_parcel_baseballPitch",
      "mesh" : 0
    }
  ],
  "materials" : [
    {
      "name" : "dummy_material_0",
      "pbrMetallicRoughness" : {
        "baseColorFactor" : [ 0.3, 0.3, 0.3, 1.0 ],
        "metallicFactor" : 0.1,
        "roughnessFactor" : 0.5
      }
    }
  ],
  "meshes" : [
    {
      "primitives" : [
        {
          "attributes" : {
            "POSITION" : 1,
            "NORMAL" : 2,
            "TANGENT" : 3,
            "TEXCOORD_0" : 4,
            "TEXCOORD_1" : 5
          },
          "indices" : 0,
          "material" : 0
        }
      ],
      "name" : "SM_parcel_baseballPitch"
    }
  ],
  "buffers" : [
    {
      "uri" : "SM_parcel_baseballPitch.bin",
      "byteLength" : 80040
    }
  ],
  "bufferViews" : [
    {
      "buffer" : 0,
      "byteOffset" : 0,
      "byteLength" : 2760
    },
    {
      "buffer" : 0,
      "byteOffset" : 2760,
      "byteLength" : 16560
    },
    {
      "buffer" : 0,
      "byteOffset" : 19320,
      "byteLength" : 16560
    },
    {
      "buffer" : 0,
      "byteOffset" : 35880,
      "byteLength" : 22080
    },
    {
      "buffer" : 0,
      "byteOffset" : 57960,
      "byteLength" : 11040
    },
    {
      "buffer" : 0,
      "byteOffset" : 69000,
      "byteLength" : 11040
    }
  ],
  "accessors" : [
    {
      "bufferView" : 0,
      "componentType" : 5123,
      "count" : 1380,
      "type" : "SCALAR"
    },
    {
      "bufferView" : 1,
      "min" : [ -1.2207e-06, -1.00908e-21, -48 ],
      "max" : [ 48, 0.02, 1.64795e-05 ],
      "componentType" : 5126,
      "count" : 1380,
      "type" : "VEC3"
    },
    {
      "bufferView" : 2,
      "componentType" : 5126,
      "count" : 1380,
      "type" : "VEC3"
    },
    {
      "bufferView" : 3,
      "componentType" : 5126,
      "count" : 1380,
      "type" : "VEC4"
    },
    {
      "bufferView" : 4,
      "componentType" : 5126,
      "count" : 1380,
      "type" : "VEC2"
    },
    {
      "bufferView" : 5,
      "componentType" : 5126,
      "count" : 1380,
      "type" : "VEC2"
    }
  ]
}
