{
  "asset" : {
    "generator" : "UE Viewer (umodel) build 1590",
    "version" : "2.0"
  },
  "scene" : 0,
  "scenes" : [
    {
      "nodes" : [ 0 ]
    }
  ],
  "nodes" : [
    {
      "name" : "SM_sidewalk_01_trim",
      "mesh" : 0
    }
  ],
  "materials" : [
    {
      "name" : "dummy_material_0",
      "pbrMetallicRoughness" : {
        "baseColorFactor" : [ 0.3, 0.3, 0.3, 1.0 ],
        "metallicFactor" : 0.1,
        "roughnessFactor" : 0.5
      }
    }
  ],
  "meshes" : [
    {
      "primitives" : [
        {
          "attributes" : {
            "POSITION" : 1,
            "NORMAL" : 2,
            "TANGENT" : 3,
            "TEXCOORD_0" : 4
          },
          "indices" : 0,
          "material" : 0
        }
      ],
      "name" : "SM_sidewalk_01_trim"
    }
  ],
  "buffers" : [
    {
      "uri" : "SM_sidewalk_01_trim.bin",
      "byteLength" : 67200
    }
  ],
  "bufferViews" : [
    {
      "buffer" : 0,
      "byteOffset" : 0,
      "byteLength" : 2688
    },
    {
      "buffer" : 0,
      "byteOffset" : 2688,
      "byteLength" : 16128
    },
    {
      "buffer" : 0,
      "byteOffset" : 18816,
      "byteLength" : 16128
    },
    {
      "buffer" : 0,
      "byteOffset" : 34944,
      "byteLength" : 21504
    },
    {
      "buffer" : 0,
      "byteOffset" : 56448,
      "byteLength" : 10752
    }
  ],
  "accessors" : [
    {
      "bufferView" : 0,
      "componentType" : 5123,
      "count" : 1344,
      "type" : "SCALAR"
    },
    {
      "bufferView" : 1,
      "min" : [ 0, -0.2, -9.5399e-08 ],
      "max" : [ 8, 0.035078, 4 ],
      "componentType" : 5126,
      "count" : 1344,
      "type" : "VEC3"
    },
    {
      "bufferView" : 2,
      "componentType" : 5126,
      "count" : 1344,
      "type" : "VEC3"
    },
    {
      "bufferView" : 3,
      "componentType" : 5126,
      "count" : 1344,
      "type" : "VEC4"
    },
    {
      "bufferView" : 4,
      "componentType" : 5126,
      "count" : 1344,
      "type" : "VEC2"
    }
  ]
}
