{
  "asset" : {
    "generator" : "UE Viewer (umodel) build 1590",
    "version" : "2.0"
  },
  "scene" : 0,
  "scenes" : [
    {
      "nodes" : [ 0 ]
    }
  ],
  "nodes" : [
    {
      "name" : "SM_buildingBarn_01",
      "mesh" : 0
    }
  ],
  "materials" : [
    {
      "name" : "dummy_material_0",
      "pbrMetallicRoughness" : {
        "baseColorFactor" : [ 0.3, 0.3, 0.3, 1.0 ],
        "metallicFactor" : 0.1,
        "roughnessFactor" : 0.5
      }
    },
    {
      "name" : "dummy_material_1",
      "pbrMetallicRoughness" : {
        "baseColorFactor" : [ 0.9, 0.3, 0.3, 1.0 ],
        "metallicFactor" : 0.1,
        "roughnessFactor" : 0.5
      }
    }
  ],
  "meshes" : [
    {
      "primitives" : [
        {
          "attributes" : {
            "POSITION" : 1,
            "NORMAL" : 2,
            "TANGENT" : 3,
            "TEXCOORD_0" : 4,
            "TEXCOORD_1" : 5
          },
          "indices" : 0,
          "material" : 0
        },
        {
          "attributes" : {
            "POSITION" : 7,
            "NORMAL" : 8,
            "TANGENT" : 9,
            "TEXCOORD_0" : 10,
            "TEXCOORD_1" : 11
          },
          "indices" : 6,
          "material" : 1
        }
      ],
      "name" : "SM_buildingBarn_01"
    }
  ],
  "buffers" : [
    {
      "uri" : "SM_buildingBarn_01.bin",
      "byteLength" : 491028
    }
  ],
  "bufferViews" : [
    {
      "buffer" : 0,
      "byteOffset" : 0,
      "byteLength" : 16236
    },
    {
      "buffer" : 0,
      "byteOffset" : 16236,
      "byteLength" : 97416
    },
    {
      "buffer" : 0,
      "byteOffset" : 113652,
      "byteLength" : 97416
    },
    {
      "buffer" : 0,
      "byteOffset" : 211068,
      "byteLength" : 129888
    },
    {
      "buffer" : 0,
      "byteOffset" : 340956,
      "byteLength" : 64944
    },
    {
      "buffer" : 0,
      "byteOffset" : 405900,
      "byteLength" : 64944
    },
    {
      "buffer" : 0,
      "byteOffset" : 470844,
      "byteLength" : 696
    },
    {
      "buffer" : 0,
      "byteOffset" : 471540,
      "byteLength" : 4176
    },
    {
      "buffer" : 0,
      "byteOffset" : 475716,
      "byteLength" : 4176
    },
    {
      "buffer" : 0,
      "byteOffset" : 479892,
      "byteLength" : 5568
    },
    {
      "buffer" : 0,
      "byteOffset" : 485460,
      "byteLength" : 2784
    },
    {
      "buffer" : 0,
      "byteOffset" : 488244,
      "byteLength" : 2784
    }
  ],
  "accessors" : [
    {
      "bufferView" : 0,
      "componentType" : 5123,
      "count" : 8118,
      "type" : "SCALAR"
    },
    {
      "bufferView" : 1,
      "min" : [ -11.4631, -0.0353562, -6.47849 ],
      "max" : [ 10.5866, 11.036, 11.8785 ],
      "componentType" : 5126,
      "count" : 8118,
      "type" : "VEC3"
    },
    {
      "bufferView" : 2,
      "componentType" : 5126,
      "count" : 8118,
      "type" : "VEC3"
    },
    {
      "bufferView" : 3,
      "componentType" : 5126,
      "count" : 8118,
      "type" : "VEC4"
    },
    {
      "bufferView" : 4,
      "componentType" : 5126,
      "count" : 8118,
      "type" : "VEC2"
    },
    {
      "bufferView" : 5,
      "componentType" : 5126,
      "count" : 8118,
      "type" : "VEC2"
    },
    {
      "bufferView" : 6,
      "componentType" : 5123,
      "count" : 348,
      "type" : "SCALAR"
    },
    {
      "bufferView" : 7,
      "min" : [ -10.2877, -9.77524e-07, -6 ],
      "max" : [ 10.2877, 10.8631, 11 ],
      "componentType" : 5126,
      "count" : 348,
      "type" : "VEC3"
    },
    {
      "bufferView" : 8,
      "componentType" : 5126,
      "count" : 348,
      "type" : "VEC3"
    },
    {
      "bufferView" : 9,
      "componentType" : 5126,
      "count" : 348,
      "type" : "VEC4"
    },
    {
      "bufferView" : 10,
      "componentType" : 5126,
      "count" : 348,
      "type" : "VEC2"
    },
    {
      "bufferView" : 11,
      "componentType" : 5126,
      "count" : 348,
      "type" : "VEC2"
    }
  ]
}
