{
  "asset" : {
    "generator" : "UE Viewer (umodel) build 1590",
    "version" : "2.0"
  },
  "scene" : 0,
  "scenes" : [
    {
      "nodes" : [ 0 ]
    }
  ],
  "nodes" : [
    {
      "name" : "SM_Bicycle_02",
      "mesh" : 0
    }
  ],
  "materials" : [
    {
      "name" : "dummy_material_0",
      "pbrMetallicRoughness" : {
        "baseColorFactor" : [ 0.3, 0.3, 0.3, 1.0 ],
        "metallicFactor" : 0.1,
        "roughnessFactor" : 0.5
      }
    }
  ],
  "meshes" : [
    {
      "primitives" : [
        {
          "attributes" : {
            "POSITION" : 1,
            "NORMAL" : 2,
            "TANGENT" : 3,
            "TEXCOORD_0" : 4,
            "TEXCOORD_1" : 5
          },
          "indices" : 0,
          "material" : 0
        }
      ],
      "name" : "SM_Bicycle_02"
    }
  ],
  "buffers" : [
    {
      "uri" : "SM_Bicycle_02.bin",
      "byteLength" : 817800
    }
  ],
  "bufferViews" : [
    {
      "buffer" : 0,
      "byteOffset" : 0,
      "byteLength" : 28200
    },
    {
      "buffer" : 0,
      "byteOffset" : 28200,
      "byteLength" : 169200
    },
    {
      "buffer" : 0,
      "byteOffset" : 197400,
      "byteLength" : 169200
    },
    {
      "buffer" : 0,
      "byteOffset" : 366600,
      "byteLength" : 225600
    },
    {
      "buffer" : 0,
      "byteOffset" : 592200,
      "byteLength" : 112800
    },
    {
      "buffer" : 0,
      "byteOffset" : 705000,
      "byteLength" : 112800
    }
  ],
  "accessors" : [
    {
      "bufferView" : 0,
      "componentType" : 5123,
      "count" : 14100,
      "type" : "SCALAR"
    },
    {
      "bufferView" : 1,
      "min" : [ -0.959927, 0.00369514, -0.349015 ],
      "max" : [ 1.183, 1.19482, 0.349015 ],
      "componentType" : 5126,
      "count" : 14100,
      "type" : "VEC3"
    },
    {
      "bufferView" : 2,
      "componentType" : 5126,
      "count" : 14100,
      "type" : "VEC3"
    },
    {
      "bufferView" : 3,
      "componentType" : 5126,
      "count" : 14100,
      "type" : "VEC4"
    },
    {
      "bufferView" : 4,
      "componentType" : 5126,
      "count" : 14100,
      "type" : "VEC2"
    },
    {
      "bufferView" : 5,
      "componentType" : 5126,
      "count" : 14100,
      "type" : "VEC2"
    }
  ]
}
