{
  "asset" : {
    "generator" : "UE Viewer (umodel) build 1590",
    "version" : "2.0"
  },
  "scene" : 0,
  "scenes" : [
    {
      "nodes" : [ 0 ]
    }
  ],
  "nodes" : [
    {
      "name" : "SM_billboard_GunsAmmo",
      "mesh" : 0
    }
  ],
  "materials" : [
    {
      "name" : "dummy_material_0",
      "pbrMetallicRoughness" : {
        "baseColorFactor" : [ 0.3, 0.3, 0.3, 1.0 ],
        "metallicFactor" : 0.1,
        "roughnessFactor" : 0.5
      }
    }
  ],
  "meshes" : [
    {
      "primitives" : [
        {
          "attributes" : {
            "POSITION" : 1,
            "NORMAL" : 2,
            "TANGENT" : 3,
            "TEXCOORD_0" : 4
          },
          "indices" : 0,
          "material" : 0
        }
      ],
      "name" : "SM_billboard_GunsAmmo"
    }
  ],
  "buffers" : [
    {
      "uri" : "SM_billboard_GunsAmmo.bin",
      "byteLength" : 90900
    }
  ],
  "bufferViews" : [
    {
      "buffer" : 0,
      "byteOffset" : 0,
      "byteLength" : 3636
    },
    {
      "buffer" : 0,
      "byteOffset" : 3636,
      "byteLength" : 21816
    },
    {
      "buffer" : 0,
      "byteOffset" : 25452,
      "byteLength" : 21816
    },
    {
      "buffer" : 0,
      "byteOffset" : 47268,
      "byteLength" : 29088
    },
    {
      "buffer" : 0,
      "byteOffset" : 76356,
      "byteLength" : 14544
    }
  ],
  "accessors" : [
    {
      "bufferView" : 0,
      "componentType" : 5123,
      "count" : 1818,
      "type" : "SCALAR"
    },
    {
      "bufferView" : 1,
      "min" : [ -1.03734e-07, -0.351287, -2.69889 ],
      "max" : [ 0.1, 0.351287, 2.69888 ],
      "componentType" : 5126,
      "count" : 1818,
      "type" : "VEC3"
    },
    {
      "bufferView" : 2,
      "componentType" : 5126,
      "count" : 1818,
      "type" : "VEC3"
    },
    {
      "bufferView" : 3,
      "componentType" : 5126,
      "count" : 1818,
      "type" : "VEC4"
    },
    {
      "bufferView" : 4,
      "componentType" : 5126,
      "count" : 1818,
      "type" : "VEC2"
    }
  ]
}
