{
  "asset" : {
    "generator" : "UE Viewer (umodel) build 1590",
    "version" : "2.0"
  },
  "scene" : 0,
  "scenes" : [
    {
      "nodes" : [ 0 ]
    }
  ],
  "nodes" : [
    {
      "name" : "SM_box_tray",
      "mesh" : 0
    }
  ],
  "materials" : [
    {
      "name" : "dummy_material_0",
      "pbrMetallicRoughness" : {
        "baseColorFactor" : [ 0.3, 0.3, 0.3, 1.0 ],
        "metallicFactor" : 0.1,
        "roughnessFactor" : 0.5
      }
    }
  ],
  "meshes" : [
    {
      "primitives" : [
        {
          "attributes" : {
            "POSITION" : 1,
            "NORMAL" : 2,
            "TANGENT" : 3,
            "TEXCOORD_0" : 4,
            "TEXCOORD_1" : 5
          },
          "indices" : 0,
          "material" : 0
        }
      ],
      "name" : "SM_box_tray"
    }
  ],
  "buffers" : [
    {
      "uri" : "SM_box_tray.bin",
      "byteLength" : 175392
    }
  ],
  "bufferViews" : [
    {
      "buffer" : 0,
      "byteOffset" : 0,
      "byteLength" : 6048
    },
    {
      "buffer" : 0,
      "byteOffset" : 6048,
      "byteLength" : 36288
    },
    {
      "buffer" : 0,
      "byteOffset" : 42336,
      "byteLength" : 36288
    },
    {
      "buffer" : 0,
      "byteOffset" : 78624,
      "byteLength" : 48384
    },
    {
      "buffer" : 0,
      "byteOffset" : 127008,
      "byteLength" : 24192
    },
    {
      "buffer" : 0,
      "byteOffset" : 151200,
      "byteLength" : 24192
    }
  ],
  "accessors" : [
    {
      "bufferView" : 0,
      "componentType" : 5123,
      "count" : 3024,
      "type" : "SCALAR"
    },
    {
      "bufferView" : 1,
      "min" : [ -0.497234, -0.00372622, -0.728825 ],
      "max" : [ 0.407752, 1.41602, 0.931047 ],
      "componentType" : 5126,
      "count" : 3024,
      "type" : "VEC3"
    },
    {
      "bufferView" : 2,
      "componentType" : 5126,
      "count" : 3024,
      "type" : "VEC3"
    },
    {
      "bufferView" : 3,
      "componentType" : 5126,
      "count" : 3024,
      "type" : "VEC4"
    },
    {
      "bufferView" : 4,
      "componentType" : 5126,
      "count" : 3024,
      "type" : "VEC2"
    },
    {
      "bufferView" : 5,
      "componentType" : 5126,
      "count" : 3024,
      "type" : "VEC2"
    }
  ]
}
