{
  "asset" : {
    "generator" : "UE Viewer (umodel) build 1590",
    "version" : "2.0"
  },
  "scene" : 0,
  "scenes" : [
    {
      "nodes" : [ 0 ]
    }
  ],
  "nodes" : [
    {
      "name" : "SM_billboard_forRent_standing",
      "mesh" : 0
    }
  ],
  "materials" : [
    {
      "name" : "dummy_material_0",
      "pbrMetallicRoughness" : {
        "baseColorFactor" : [ 0.3, 0.3, 0.3, 1.0 ],
        "metallicFactor" : 0.1,
        "roughnessFactor" : 0.5
      }
    }
  ],
  "meshes" : [
    {
      "primitives" : [
        {
          "attributes" : {
            "POSITION" : 1,
            "NORMAL" : 2,
            "TANGENT" : 3,
            "TEXCOORD_0" : 4,
            "TEXCOORD_1" : 5
          },
          "indices" : 0,
          "material" : 0
        }
      ],
      "name" : "SM_billboard_forRent_standing"
    }
  ],
  "buffers" : [
    {
      "uri" : "SM_billboard_forRent_standing.bin",
      "byteLength" : 30800
    }
  ],
  "bufferViews" : [
    {
      "buffer" : 0,
      "byteOffset" : 0,
      "byteLength" : 1064
    },
    {
      "buffer" : 0,
      "byteOffset" : 1064,
      "byteLength" : 6372
    },
    {
      "buffer" : 0,
      "byteOffset" : 7436,
      "byteLength" : 6372
    },
    {
      "buffer" : 0,
      "byteOffset" : 13808,
      "byteLength" : 8496
    },
    {
      "buffer" : 0,
      "byteOffset" : 22304,
      "byteLength" : 4248
    },
    {
      "buffer" : 0,
      "byteOffset" : 26552,
      "byteLength" : 4248
    }
  ],
  "accessors" : [
    {
      "bufferView" : 0,
      "componentType" : 5123,
      "count" : 531,
      "type" : "SCALAR"
    },
    {
      "bufferView" : 1,
      "min" : [ -0.133005, 6.86645e-07, -1.125 ],
      "max" : [ 0.0825, 2.27748, 1.125 ],
      "componentType" : 5126,
      "count" : 531,
      "type" : "VEC3"
    },
    {
      "bufferView" : 2,
      "componentType" : 5126,
      "count" : 531,
      "type" : "VEC3"
    },
    {
      "bufferView" : 3,
      "componentType" : 5126,
      "count" : 531,
      "type" : "VEC4"
    },
    {
      "bufferView" : 4,
      "componentType" : 5126,
      "count" : 531,
      "type" : "VEC2"
    },
    {
      "bufferView" : 5,
      "componentType" : 5126,
      "count" : 531,
      "type" : "VEC2"
    }
  ]
}
