{
  "asset" : {
    "generator" : "UE Viewer (umodel) build 1590",
    "version" : "2.0"
  },
  "scene" : 0,
  "scenes" : [
    {
      "nodes" : [ 0 ]
    }
  ],
  "nodes" : [
    {
      "name" : "SM_billboard_GasStationOld",
      "mesh" : 0
    }
  ],
  "materials" : [
    {
      "name" : "dummy_material_0",
      "pbrMetallicRoughness" : {
        "baseColorFactor" : [ 0.3, 0.3, 0.3, 1.0 ],
        "metallicFactor" : 0.1,
        "roughnessFactor" : 0.5
      }
    }
  ],
  "meshes" : [
    {
      "primitives" : [
        {
          "attributes" : {
            "POSITION" : 1,
            "NORMAL" : 2,
            "TANGENT" : 3,
            "TEXCOORD_0" : 4,
            "TEXCOORD_1" : 5
          },
          "indices" : 0,
          "material" : 0
        }
      ],
      "name" : "SM_billboard_GasStationOld"
    }
  ],
  "buffers" : [
    {
      "uri" : "SM_billboard_GasStationOld.bin",
      "byteLength" : 390456
    }
  ],
  "bufferViews" : [
    {
      "buffer" : 0,
      "byteOffset" : 0,
      "byteLength" : 13464
    },
    {
      "buffer" : 0,
      "byteOffset" : 13464,
      "byteLength" : 80784
    },
    {
      "buffer" : 0,
      "byteOffset" : 94248,
      "byteLength" : 80784
    },
    {
      "buffer" : 0,
      "byteOffset" : 175032,
      "byteLength" : 107712
    },
    {
      "buffer" : 0,
      "byteOffset" : 282744,
      "byteLength" : 53856
    },
    {
      "buffer" : 0,
      "byteOffset" : 336600,
      "byteLength" : 53856
    }
  ],
  "accessors" : [
    {
      "bufferView" : 0,
      "componentType" : 5123,
      "count" : 6732,
      "type" : "SCALAR"
    },
    {
      "bufferView" : 1,
      "min" : [ -0.934439, -0.0158789, -2.05952 ],
      "max" : [ 0.171578, 1.40914, 2.05951 ],
      "componentType" : 5126,
      "count" : 6732,
      "type" : "VEC3"
    },
    {
      "bufferView" : 2,
      "componentType" : 5126,
      "count" : 6732,
      "type" : "VEC3"
    },
    {
      "bufferView" : 3,
      "componentType" : 5126,
      "count" : 6732,
      "type" : "VEC4"
    },
    {
      "bufferView" : 4,
      "componentType" : 5126,
      "count" : 6732,
      "type" : "VEC2"
    },
    {
      "bufferView" : 5,
      "componentType" : 5126,
      "count" : 6732,
      "type" : "VEC2"
    }
  ]
}
