{
  "asset" : {
    "generator" : "UE Viewer (umodel) build 1590",
    "version" : "2.0"
  },
  "scene" : 0,
  "scenes" : [
    {
      "nodes" : [ 0 ]
    }
  ],
  "nodes" : [
    {
      "name" : "SM_bench_02",
      "mesh" : 0
    }
  ],
  "materials" : [
    {
      "name" : "dummy_material_0",
      "pbrMetallicRoughness" : {
        "baseColorFactor" : [ 0.3, 0.3, 0.3, 1.0 ],
        "metallicFactor" : 0.1,
        "roughnessFactor" : 0.5
      }
    }
  ],
  "meshes" : [
    {
      "primitives" : [
        {
          "attributes" : {
            "POSITION" : 1,
            "NORMAL" : 2,
            "TANGENT" : 3,
            "TEXCOORD_0" : 4
          },
          "indices" : 0,
          "material" : 0
        }
      ],
      "name" : "SM_bench_02"
    }
  ],
  "buffers" : [
    {
      "uri" : "SM_bench_02.bin",
      "byteLength" : 67800
    }
  ],
  "bufferViews" : [
    {
      "buffer" : 0,
      "byteOffset" : 0,
      "byteLength" : 2712
    },
    {
      "buffer" : 0,
      "byteOffset" : 2712,
      "byteLength" : 16272
    },
    {
      "buffer" : 0,
      "byteOffset" : 18984,
      "byteLength" : 16272
    },
    {
      "buffer" : 0,
      "byteOffset" : 35256,
      "byteLength" : 21696
    },
    {
      "buffer" : 0,
      "byteOffset" : 56952,
      "byteLength" : 10848
    }
  ],
  "accessors" : [
    {
      "bufferView" : 0,
      "componentType" : 5123,
      "count" : 1356,
      "type" : "SCALAR"
    },
    {
      "bufferView" : 1,
      "min" : [ -0.339114, -9.96319e-05, -0.750001 ],
      "max" : [ 0.339114, 0.924322, 0.75 ],
      "componentType" : 5126,
      "count" : 1356,
      "type" : "VEC3"
    },
    {
      "bufferView" : 2,
      "componentType" : 5126,
      "count" : 1356,
      "type" : "VEC3"
    },
    {
      "bufferView" : 3,
      "componentType" : 5126,
      "count" : 1356,
      "type" : "VEC4"
    },
    {
      "bufferView" : 4,
      "componentType" : 5126,
      "count" : 1356,
      "type" : "VEC2"
    }
  ]
}
