{
  "asset" : {
    "generator" : "UE Viewer (umodel) build 1590",
    "version" : "2.0"
  },
  "scene" : 0,
  "scenes" : [
    {
      "nodes" : [ 0 ]
    }
  ],
  "nodes" : [
    {
      "name" : "SM_barrel_2",
      "mesh" : 0
    }
  ],
  "materials" : [
    {
      "name" : "dummy_material_0",
      "pbrMetallicRoughness" : {
        "baseColorFactor" : [ 0.3, 0.3, 0.3, 1.0 ],
        "metallicFactor" : 0.1,
        "roughnessFactor" : 0.5
      }
    }
  ],
  "meshes" : [
    {
      "primitives" : [
        {
          "attributes" : {
            "POSITION" : 1,
            "NORMAL" : 2,
            "TANGENT" : 3,
            "TEXCOORD_0" : 4,
            "TEXCOORD_1" : 5
          },
          "indices" : 0,
          "material" : 0
        }
      ],
      "name" : "SM_barrel_2"
    }
  ],
  "buffers" : [
    {
      "uri" : "SM_barrel_2.bin",
      "byteLength" : 110664
    }
  ],
  "bufferViews" : [
    {
      "buffer" : 0,
      "byteOffset" : 0,
      "byteLength" : 3816
    },
    {
      "buffer" : 0,
      "byteOffset" : 3816,
      "byteLength" : 22896
    },
    {
      "buffer" : 0,
      "byteOffset" : 26712,
      "byteLength" : 22896
    },
    {
      "buffer" : 0,
      "byteOffset" : 49608,
      "byteLength" : 30528
    },
    {
      "buffer" : 0,
      "byteOffset" : 80136,
      "byteLength" : 15264
    },
    {
      "buffer" : 0,
      "byteOffset" : 95400,
      "byteLength" : 15264
    }
  ],
  "accessors" : [
    {
      "bufferView" : 0,
      "componentType" : 5123,
      "count" : 1908,
      "type" : "SCALAR"
    },
    {
      "bufferView" : 1,
      "min" : [ -0.359345, -1.83213e-17, -0.359345 ],
      "max" : [ 0.359345, 1.06061, 0.359345 ],
      "componentType" : 5126,
      "count" : 1908,
      "type" : "VEC3"
    },
    {
      "bufferView" : 2,
      "componentType" : 5126,
      "count" : 1908,
      "type" : "VEC3"
    },
    {
      "bufferView" : 3,
      "componentType" : 5126,
      "count" : 1908,
      "type" : "VEC4"
    },
    {
      "bufferView" : 4,
      "componentType" : 5126,
      "count" : 1908,
      "type" : "VEC2"
    },
    {
      "bufferView" : 5,
      "componentType" : 5126,
      "count" : 1908,
      "type" : "VEC2"
    }
  ]
}
