{
  "asset" : {
    "generator" : "UE Viewer (umodel) build 1590",
    "version" : "2.0"
  },
  "scene" : 0,
  "scenes" : [
    {
      "nodes" : [ 0 ]
    }
  ],
  "nodes" : [
    {
      "name" : "SM_bench",
      "mesh" : 0
    }
  ],
  "materials" : [
    {
      "name" : "dummy_material_0",
      "pbrMetallicRoughness" : {
        "baseColorFactor" : [ 0.3, 0.3, 0.3, 1.0 ],
        "metallicFactor" : 0.1,
        "roughnessFactor" : 0.5
      }
    }
  ],
  "meshes" : [
    {
      "primitives" : [
        {
          "attributes" : {
            "POSITION" : 1,
            "NORMAL" : 2,
            "TANGENT" : 3,
            "TEXCOORD_0" : 4
          },
          "indices" : 0,
          "material" : 0
        }
      ],
      "name" : "SM_bench"
    }
  ],
  "buffers" : [
    {
      "uri" : "SM_bench.bin",
      "byteLength" : 83700
    }
  ],
  "bufferViews" : [
    {
      "buffer" : 0,
      "byteOffset" : 0,
      "byteLength" : 3348
    },
    {
      "buffer" : 0,
      "byteOffset" : 3348,
      "byteLength" : 20088
    },
    {
      "buffer" : 0,
      "byteOffset" : 23436,
      "byteLength" : 20088
    },
    {
      "buffer" : 0,
      "byteOffset" : 43524,
      "byteLength" : 26784
    },
    {
      "buffer" : 0,
      "byteOffset" : 70308,
      "byteLength" : 13392
    }
  ],
  "accessors" : [
    {
      "bufferView" : 0,
      "componentType" : 5123,
      "count" : 1674,
      "type" : "SCALAR"
    },
    {
      "bufferView" : 1,
      "min" : [ -0.341433, -0.000635132, -1.16319 ],
      "max" : [ 0.329553, 1.01447, 1.16319 ],
      "componentType" : 5126,
      "count" : 1674,
      "type" : "VEC3"
    },
    {
      "bufferView" : 2,
      "componentType" : 5126,
      "count" : 1674,
      "type" : "VEC3"
    },
    {
      "bufferView" : 3,
      "componentType" : 5126,
      "count" : 1674,
      "type" : "VEC4"
    },
    {
      "bufferView" : 4,
      "componentType" : 5126,
      "count" : 1674,
      "type" : "VEC2"
    }
  ]
}
