{
  "asset" : {
    "generator" : "UE Viewer (umodel) build 1590",
    "version" : "2.0"
  },
  "scene" : 0,
  "scenes" : [
    {
      "nodes" : [ 0 ]
    }
  ],
  "nodes" : [
    {
      "name" : "SM_billboard_forSale",
      "mesh" : 0
    }
  ],
  "materials" : [
    {
      "name" : "dummy_material_0",
      "pbrMetallicRoughness" : {
        "baseColorFactor" : [ 0.3, 0.3, 0.3, 1.0 ],
        "metallicFactor" : 0.1,
        "roughnessFactor" : 0.5
      }
    }
  ],
  "meshes" : [
    {
      "primitives" : [
        {
          "attributes" : {
            "POSITION" : 1,
            "NORMAL" : 2,
            "TANGENT" : 3,
            "TEXCOORD_0" : 4,
            "TEXCOORD_1" : 5
          },
          "indices" : 0,
          "material" : 0
        }
      ],
      "name" : "SM_billboard_forSale"
    }
  ],
  "buffers" : [
    {
      "uri" : "SM_billboard_forSale.bin",
      "byteLength" : 30104
    }
  ],
  "bufferViews" : [
    {
      "buffer" : 0,
      "byteOffset" : 0,
      "byteLength" : 1040
    },
    {
      "buffer" : 0,
      "byteOffset" : 1040,
      "byteLength" : 6228
    },
    {
      "buffer" : 0,
      "byteOffset" : 7268,
      "byteLength" : 6228
    },
    {
      "buffer" : 0,
      "byteOffset" : 13496,
      "byteLength" : 8304
    },
    {
      "buffer" : 0,
      "byteOffset" : 21800,
      "byteLength" : 4152
    },
    {
      "buffer" : 0,
      "byteOffset" : 25952,
      "byteLength" : 4152
    }
  ],
  "accessors" : [
    {
      "bufferView" : 0,
      "componentType" : 5123,
      "count" : 519,
      "type" : "SCALAR"
    },
    {
      "bufferView" : 1,
      "min" : [ -1.32768e-07, -0.7875, -1.125 ],
      "max" : [ 0.0825, 0.7875, 1.125 ],
      "componentType" : 5126,
      "count" : 519,
      "type" : "VEC3"
    },
    {
      "bufferView" : 2,
      "componentType" : 5126,
      "count" : 519,
      "type" : "VEC3"
    },
    {
      "bufferView" : 3,
      "componentType" : 5126,
      "count" : 519,
      "type" : "VEC4"
    },
    {
      "bufferView" : 4,
      "componentType" : 5126,
      "count" : 519,
      "type" : "VEC2"
    },
    {
      "bufferView" : 5,
      "componentType" : 5126,
      "count" : 519,
      "type" : "VEC2"
    }
  ]
}
