{
  "asset" : {
    "generator" : "UE Viewer (umodel) build 1590",
    "version" : "2.0"
  },
  "scene" : 0,
  "scenes" : [
    {
      "nodes" : [ 0 ]
    }
  ],
  "nodes" : [
    {
      "name" : "SM_billboard_PawnShop",
      "mesh" : 0
    }
  ],
  "materials" : [
    {
      "name" : "dummy_material_0",
      "pbrMetallicRoughness" : {
        "baseColorFactor" : [ 0.3, 0.3, 0.3, 1.0 ],
        "metallicFactor" : 0.1,
        "roughnessFactor" : 0.5
      }
    }
  ],
  "meshes" : [
    {
      "primitives" : [
        {
          "attributes" : {
            "POSITION" : 1,
            "NORMAL" : 2,
            "TANGENT" : 3,
            "TEXCOORD_0" : 4,
            "TEXCOORD_1" : 5
          },
          "indices" : 0,
          "material" : 0
        }
      ],
      "name" : "SM_billboard_PawnShop"
    }
  ],
  "buffers" : [
    {
      "uri" : "SM_billboard_PawnShop.bin",
      "byteLength" : 44720
    }
  ],
  "bufferViews" : [
    {
      "buffer" : 0,
      "byteOffset" : 0,
      "byteLength" : 1544
    },
    {
      "buffer" : 0,
      "byteOffset" : 1544,
      "byteLength" : 9252
    },
    {
      "buffer" : 0,
      "byteOffset" : 10796,
      "byteLength" : 9252
    },
    {
      "buffer" : 0,
      "byteOffset" : 20048,
      "byteLength" : 12336
    },
    {
      "buffer" : 0,
      "byteOffset" : 32384,
      "byteLength" : 6168
    },
    {
      "buffer" : 0,
      "byteOffset" : 38552,
      "byteLength" : 6168
    }
  ],
  "accessors" : [
    {
      "bufferView" : 0,
      "componentType" : 5123,
      "count" : 771,
      "type" : "SCALAR"
    },
    {
      "bufferView" : 1,
      "min" : [ -1.43051e-08, -0.496891, -2.48445 ],
      "max" : [ 0.105581, 0.496891, 2.48445 ],
      "componentType" : 5126,
      "count" : 771,
      "type" : "VEC3"
    },
    {
      "bufferView" : 2,
      "componentType" : 5126,
      "count" : 771,
      "type" : "VEC3"
    },
    {
      "bufferView" : 3,
      "componentType" : 5126,
      "count" : 771,
      "type" : "VEC4"
    },
    {
      "bufferView" : 4,
      "componentType" : 5126,
      "count" : 771,
      "type" : "VEC2"
    },
    {
      "bufferView" : 5,
      "componentType" : 5126,
      "count" : 771,
      "type" : "VEC2"
    }
  ]
}
