{
  "asset" : {
    "generator" : "UE Viewer (umodel) build 1590",
    "version" : "2.0"
  },
  "scene" : 0,
  "scenes" : [
    {
      "nodes" : [ 0 ]
    }
  ],
  "nodes" : [
    {
      "name" : "SM_billboard_AmericanBank_02",
      "mesh" : 0
    }
  ],
  "materials" : [
    {
      "name" : "dummy_material_0",
      "pbrMetallicRoughness" : {
        "baseColorFactor" : [ 0.3, 0.3, 0.3, 1.0 ],
        "metallicFactor" : 0.1,
        "roughnessFactor" : 0.5
      }
    }
  ],
  "meshes" : [
    {
      "primitives" : [
        {
          "attributes" : {
            "POSITION" : 1,
            "NORMAL" : 2,
            "TANGENT" : 3,
            "TEXCOORD_0" : 4,
            "TEXCOORD_1" : 5
          },
          "indices" : 0,
          "material" : 0
        }
      ],
      "name" : "SM_billboard_AmericanBank_02"
    }
  ],
  "buffers" : [
    {
      "uri" : "SM_billboard_AmericanBank_02.bin",
      "byteLength" : 230900
    }
  ],
  "bufferViews" : [
    {
      "buffer" : 0,
      "byteOffset" : 0,
      "byteLength" : 7964
    },
    {
      "buffer" : 0,
      "byteOffset" : 7964,
      "byteLength" : 47772
    },
    {
      "buffer" : 0,
      "byteOffset" : 55736,
      "byteLength" : 47772
    },
    {
      "buffer" : 0,
      "byteOffset" : 103508,
      "byteLength" : 63696
    },
    {
      "buffer" : 0,
      "byteOffset" : 167204,
      "byteLength" : 31848
    },
    {
      "buffer" : 0,
      "byteOffset" : 199052,
      "byteLength" : 31848
    }
  ],
  "accessors" : [
    {
      "bufferView" : 0,
      "componentType" : 5123,
      "count" : 3981,
      "type" : "SCALAR"
    },
    {
      "bufferView" : 1,
      "min" : [ -1.48203e-07, -0.00999993, -3.3905 ],
      "max" : [ 0.1, 0.612, 3.3905 ],
      "componentType" : 5126,
      "count" : 3981,
      "type" : "VEC3"
    },
    {
      "bufferView" : 2,
      "componentType" : 5126,
      "count" : 3981,
      "type" : "VEC3"
    },
    {
      "bufferView" : 3,
      "componentType" : 5126,
      "count" : 3981,
      "type" : "VEC4"
    },
    {
      "bufferView" : 4,
      "componentType" : 5126,
      "count" : 3981,
      "type" : "VEC2"
    },
    {
      "bufferView" : 5,
      "componentType" : 5126,
      "count" : 3981,
      "type" : "VEC2"
    }
  ]
}
