{
  "asset" : {
    "generator" : "UE Viewer (umodel) build 1590",
    "version" : "2.0"
  },
  "scene" : 0,
  "scenes" : [
    {
      "nodes" : [ 0 ]
    }
  ],
  "nodes" : [
    {
      "name" : "SM_crate_4_set",
      "mesh" : 0
    }
  ],
  "materials" : [
    {
      "name" : "dummy_material_0",
      "pbrMetallicRoughness" : {
        "baseColorFactor" : [ 0.3, 0.3, 0.3, 1.0 ],
        "metallicFactor" : 0.1,
        "roughnessFactor" : 0.5
      }
    }
  ],
  "meshes" : [
    {
      "primitives" : [
        {
          "attributes" : {
            "POSITION" : 1,
            "NORMAL" : 2,
            "TANGENT" : 3,
            "TEXCOORD_0" : 4,
            "TEXCOORD_1" : 5
          },
          "indices" : 0,
          "material" : 0
        }
      ],
      "name" : "SM_crate_4_set"
    }
  ],
  "buffers" : [
    {
      "uri" : "SM_crate_4_set.bin",
      "byteLength" : 227940
    }
  ],
  "bufferViews" : [
    {
      "buffer" : 0,
      "byteOffset" : 0,
      "byteLength" : 7860
    },
    {
      "buffer" : 0,
      "byteOffset" : 7860,
      "byteLength" : 47160
    },
    {
      "buffer" : 0,
      "byteOffset" : 55020,
      "byteLength" : 47160
    },
    {
      "buffer" : 0,
      "byteOffset" : 102180,
      "byteLength" : 62880
    },
    {
      "buffer" : 0,
      "byteOffset" : 165060,
      "byteLength" : 31440
    },
    {
      "buffer" : 0,
      "byteOffset" : 196500,
      "byteLength" : 31440
    }
  ],
  "accessors" : [
    {
      "bufferView" : 0,
      "componentType" : 5123,
      "count" : 3930,
      "type" : "SCALAR"
    },
    {
      "bufferView" : 1,
      "min" : [ -0.420548, -0.00512578, -0.602465 ],
      "max" : [ 0.394133, 1.25086, 1.18207 ],
      "componentType" : 5126,
      "count" : 3930,
      "type" : "VEC3"
    },
    {
      "bufferView" : 2,
      "componentType" : 5126,
      "count" : 3930,
      "type" : "VEC3"
    },
    {
      "bufferView" : 3,
      "componentType" : 5126,
      "count" : 3930,
      "type" : "VEC4"
    },
    {
      "bufferView" : 4,
      "componentType" : 5126,
      "count" : 3930,
      "type" : "VEC2"
    },
    {
      "bufferView" : 5,
      "componentType" : 5126,
      "count" : 3930,
      "type" : "VEC2"
    }
  ]
}
