{
  "asset" : {
    "generator" : "UE Viewer (umodel) build 1590",
    "version" : "2.0"
  },
  "scene" : 0,
  "scenes" : [
    {
      "nodes" : [ 0 ]
    }
  ],
  "nodes" : [
    {
      "name" : "SM_carton_box_2",
      "mesh" : 0
    }
  ],
  "materials" : [
    {
      "name" : "dummy_material_0",
      "pbrMetallicRoughness" : {
        "baseColorFactor" : [ 0.3, 0.3, 0.3, 1.0 ],
        "metallicFactor" : 0.1,
        "roughnessFactor" : 0.5
      }
    }
  ],
  "meshes" : [
    {
      "primitives" : [
        {
          "attributes" : {
            "POSITION" : 1,
            "NORMAL" : 2,
            "TANGENT" : 3,
            "TEXCOORD_0" : 4,
            "TEXCOORD_1" : 5
          },
          "indices" : 0,
          "material" : 0
        }
      ],
      "name" : "SM_carton_box_2"
    }
  ],
  "buffers" : [
    {
      "uri" : "SM_carton_box_2.bin",
      "byteLength" : 37236
    }
  ],
  "bufferViews" : [
    {
      "buffer" : 0,
      "byteOffset" : 0,
      "byteLength" : 1284
    },
    {
      "buffer" : 0,
      "byteOffset" : 1284,
      "byteLength" : 7704
    },
    {
      "buffer" : 0,
      "byteOffset" : 8988,
      "byteLength" : 7704
    },
    {
      "buffer" : 0,
      "byteOffset" : 16692,
      "byteLength" : 10272
    },
    {
      "buffer" : 0,
      "byteOffset" : 26964,
      "byteLength" : 5136
    },
    {
      "buffer" : 0,
      "byteOffset" : 32100,
      "byteLength" : 5136
    }
  ],
  "accessors" : [
    {
      "bufferView" : 0,
      "componentType" : 5123,
      "count" : 642,
      "type" : "SCALAR"
    },
    {
      "bufferView" : 1,
      "min" : [ -0.210033, -1.63949e-17, -0.268935 ],
      "max" : [ 0.212109, 0.393064, 0.267748 ],
      "componentType" : 5126,
      "count" : 642,
      "type" : "VEC3"
    },
    {
      "bufferView" : 2,
      "componentType" : 5126,
      "count" : 642,
      "type" : "VEC3"
    },
    {
      "bufferView" : 3,
      "componentType" : 5126,
      "count" : 642,
      "type" : "VEC4"
    },
    {
      "bufferView" : 4,
      "componentType" : 5126,
      "count" : 642,
      "type" : "VEC2"
    },
    {
      "bufferView" : 5,
      "componentType" : 5126,
      "count" : 642,
      "type" : "VEC2"
    }
  ]
}
