{
  "asset" : {
    "generator" : "UE Viewer (umodel) build 1590",
    "version" : "2.0"
  },
  "scene" : 0,
  "scenes" : [
    {
      "nodes" : [ 0 ]
    }
  ],
  "nodes" : [
    {
      "name" : "SM_clothes_bin_2",
      "mesh" : 0
    }
  ],
  "materials" : [
    {
      "name" : "dummy_material_0",
      "pbrMetallicRoughness" : {
        "baseColorFactor" : [ 0.3, 0.3, 0.3, 1.0 ],
        "metallicFactor" : 0.1,
        "roughnessFactor" : 0.5
      }
    }
  ],
  "meshes" : [
    {
      "primitives" : [
        {
          "attributes" : {
            "POSITION" : 1,
            "NORMAL" : 2,
            "TANGENT" : 3,
            "TEXCOORD_0" : 4,
            "TEXCOORD_1" : 5
          },
          "indices" : 0,
          "material" : 0
        }
      ],
      "name" : "SM_clothes_bin_2"
    }
  ],
  "buffers" : [
    {
      "uri" : "SM_clothes_bin_2.bin",
      "byteLength" : 92220
    }
  ],
  "bufferViews" : [
    {
      "buffer" : 0,
      "byteOffset" : 0,
      "byteLength" : 3180
    },
    {
      "buffer" : 0,
      "byteOffset" : 3180,
      "byteLength" : 19080
    },
    {
      "buffer" : 0,
      "byteOffset" : 22260,
      "byteLength" : 19080
    },
    {
      "buffer" : 0,
      "byteOffset" : 41340,
      "byteLength" : 25440
    },
    {
      "buffer" : 0,
      "byteOffset" : 66780,
      "byteLength" : 12720
    },
    {
      "buffer" : 0,
      "byteOffset" : 79500,
      "byteLength" : 12720
    }
  ],
  "accessors" : [
    {
      "bufferView" : 0,
      "componentType" : 5123,
      "count" : 1590,
      "type" : "SCALAR"
    },
    {
      "bufferView" : 1,
      "min" : [ -0.687789, -1.00241e-07, -0.687789 ],
      "max" : [ 0.78597, 2.58086, 0.687788 ],
      "componentType" : 5126,
      "count" : 1590,
      "type" : "VEC3"
    },
    {
      "bufferView" : 2,
      "componentType" : 5126,
      "count" : 1590,
      "type" : "VEC3"
    },
    {
      "bufferView" : 3,
      "componentType" : 5126,
      "count" : 1590,
      "type" : "VEC4"
    },
    {
      "bufferView" : 4,
      "componentType" : 5126,
      "count" : 1590,
      "type" : "VEC2"
    },
    {
      "bufferView" : 5,
      "componentType" : 5126,
      "count" : 1590,
      "type" : "VEC2"
    }
  ]
}
