{
  "asset" : {
    "generator" : "UE Viewer (umodel) build 1590",
    "version" : "2.0"
  },
  "scene" : 0,
  "scenes" : [
    {
      "nodes" : [ 0 ]
    }
  ],
  "nodes" : [
    {
      "name" : "SM_crate_3",
      "mesh" : 0
    }
  ],
  "materials" : [
    {
      "name" : "dummy_material_0",
      "pbrMetallicRoughness" : {
        "baseColorFactor" : [ 0.3, 0.3, 0.3, 1.0 ],
        "metallicFactor" : 0.1,
        "roughnessFactor" : 0.5
      }
    }
  ],
  "meshes" : [
    {
      "primitives" : [
        {
          "attributes" : {
            "POSITION" : 1,
            "NORMAL" : 2,
            "TANGENT" : 3,
            "TEXCOORD_0" : 4,
            "TEXCOORD_1" : 5
          },
          "indices" : 0,
          "material" : 0
        }
      ],
      "name" : "SM_crate_3"
    }
  ],
  "buffers" : [
    {
      "uri" : "SM_crate_3.bin",
      "byteLength" : 36540
    }
  ],
  "bufferViews" : [
    {
      "buffer" : 0,
      "byteOffset" : 0,
      "byteLength" : 1260
    },
    {
      "buffer" : 0,
      "byteOffset" : 1260,
      "byteLength" : 7560
    },
    {
      "buffer" : 0,
      "byteOffset" : 8820,
      "byteLength" : 7560
    },
    {
      "buffer" : 0,
      "byteOffset" : 16380,
      "byteLength" : 10080
    },
    {
      "buffer" : 0,
      "byteOffset" : 26460,
      "byteLength" : 5040
    },
    {
      "buffer" : 0,
      "byteOffset" : 31500,
      "byteLength" : 5040
    }
  ],
  "accessors" : [
    {
      "bufferView" : 0,
      "componentType" : 5123,
      "count" : 630,
      "type" : "SCALAR"
    },
    {
      "bufferView" : 1,
      "min" : [ -0.335007, -3.0703e-17, -0.503951 ],
      "max" : [ 0.335007, 0.326248, 0.503951 ],
      "componentType" : 5126,
      "count" : 630,
      "type" : "VEC3"
    },
    {
      "bufferView" : 2,
      "componentType" : 5126,
      "count" : 630,
      "type" : "VEC3"
    },
    {
      "bufferView" : 3,
      "componentType" : 5126,
      "count" : 630,
      "type" : "VEC4"
    },
    {
      "bufferView" : 4,
      "componentType" : 5126,
      "count" : 630,
      "type" : "VEC2"
    },
    {
      "bufferView" : 5,
      "componentType" : 5126,
      "count" : 630,
      "type" : "VEC2"
    }
  ]
}
