{
  "asset" : {
    "generator" : "UE Viewer (umodel) build 1590",
    "version" : "2.0"
  },
  "scene" : 0,
  "scenes" : [
    {
      "nodes" : [ 0 ]
    }
  ],
  "nodes" : [
    {
      "name" : "SM_crate_3_set",
      "mesh" : 0
    }
  ],
  "materials" : [
    {
      "name" : "dummy_material_0",
      "pbrMetallicRoughness" : {
        "baseColorFactor" : [ 0.3, 0.3, 0.3, 1.0 ],
        "metallicFactor" : 0.1,
        "roughnessFactor" : 0.5
      }
    }
  ],
  "meshes" : [
    {
      "primitives" : [
        {
          "attributes" : {
            "POSITION" : 1,
            "NORMAL" : 2,
            "TANGENT" : 3,
            "TEXCOORD_0" : 4,
            "TEXCOORD_1" : 5
          },
          "indices" : 0,
          "material" : 0
        }
      ],
      "name" : "SM_crate_3_set"
    }
  ],
  "buffers" : [
    {
      "uri" : "SM_crate_3_set.bin",
      "byteLength" : 146160
    }
  ],
  "bufferViews" : [
    {
      "buffer" : 0,
      "byteOffset" : 0,
      "byteLength" : 5040
    },
    {
      "buffer" : 0,
      "byteOffset" : 5040,
      "byteLength" : 30240
    },
    {
      "buffer" : 0,
      "byteOffset" : 35280,
      "byteLength" : 30240
    },
    {
      "buffer" : 0,
      "byteOffset" : 65520,
      "byteLength" : 40320
    },
    {
      "buffer" : 0,
      "byteOffset" : 105840,
      "byteLength" : 20160
    },
    {
      "buffer" : 0,
      "byteOffset" : 126000,
      "byteLength" : 20160
    }
  ],
  "accessors" : [
    {
      "bufferView" : 0,
      "componentType" : 5123,
      "count" : 2520,
      "type" : "SCALAR"
    },
    {
      "bufferView" : 1,
      "min" : [ -0.410261, -3.0703e-17, -0.592371 ],
      "max" : [ 0.409912, 1.53901, 0.548611 ],
      "componentType" : 5126,
      "count" : 2520,
      "type" : "VEC3"
    },
    {
      "bufferView" : 2,
      "componentType" : 5126,
      "count" : 2520,
      "type" : "VEC3"
    },
    {
      "bufferView" : 3,
      "componentType" : 5126,
      "count" : 2520,
      "type" : "VEC4"
    },
    {
      "bufferView" : 4,
      "componentType" : 5126,
      "count" : 2520,
      "type" : "VEC2"
    },
    {
      "bufferView" : 5,
      "componentType" : 5126,
      "count" : 2520,
      "type" : "VEC2"
    }
  ]
}
