{
  "asset" : {
    "generator" : "UE Viewer (umodel) build 1590",
    "version" : "2.0"
  },
  "scene" : 0,
  "scenes" : [
    {
      "nodes" : [ 0 ]
    }
  ],
  "nodes" : [
    {
      "name" : "SM_column_1",
      "mesh" : 0
    }
  ],
  "materials" : [
    {
      "name" : "dummy_material_0",
      "pbrMetallicRoughness" : {
        "baseColorFactor" : [ 0.3, 0.3, 0.3, 1.0 ],
        "metallicFactor" : 0.1,
        "roughnessFactor" : 0.5
      }
    }
  ],
  "meshes" : [
    {
      "primitives" : [
        {
          "attributes" : {
            "POSITION" : 1,
            "NORMAL" : 2,
            "TANGENT" : 3,
            "TEXCOORD_0" : 4,
            "TEXCOORD_1" : 5
          },
          "indices" : 0,
          "material" : 0
        }
      ],
      "name" : "SM_column_1"
    }
  ],
  "buffers" : [
    {
      "uri" : "SM_column_1.bin",
      "byteLength" : 60900
    }
  ],
  "bufferViews" : [
    {
      "buffer" : 0,
      "byteOffset" : 0,
      "byteLength" : 2100
    },
    {
      "buffer" : 0,
      "byteOffset" : 2100,
      "byteLength" : 12600
    },
    {
      "buffer" : 0,
      "byteOffset" : 14700,
      "byteLength" : 12600
    },
    {
      "buffer" : 0,
      "byteOffset" : 27300,
      "byteLength" : 16800
    },
    {
      "buffer" : 0,
      "byteOffset" : 44100,
      "byteLength" : 8400
    },
    {
      "buffer" : 0,
      "byteOffset" : 52500,
      "byteLength" : 8400
    }
  ],
  "accessors" : [
    {
      "bufferView" : 0,
      "componentType" : 5123,
      "count" : 1050,
      "type" : "SCALAR"
    },
    {
      "bufferView" : 1,
      "min" : [ -0.147665, -9.0419e-18, -0.147665 ],
      "max" : [ 0.147665, 0.935591, 0.147665 ],
      "componentType" : 5126,
      "count" : 1050,
      "type" : "VEC3"
    },
    {
      "bufferView" : 2,
      "componentType" : 5126,
      "count" : 1050,
      "type" : "VEC3"
    },
    {
      "bufferView" : 3,
      "componentType" : 5126,
      "count" : 1050,
      "type" : "VEC4"
    },
    {
      "bufferView" : 4,
      "componentType" : 5126,
      "count" : 1050,
      "type" : "VEC2"
    },
    {
      "bufferView" : 5,
      "componentType" : 5126,
      "count" : 1050,
      "type" : "VEC2"
    }
  ]
}
