{
  "asset" : {
    "generator" : "UE Viewer (umodel) build 1590",
    "version" : "2.0"
  },
  "scene" : 0,
  "scenes" : [
    {
      "nodes" : [ 0 ]
    }
  ],
  "nodes" : [
    {
      "name" : "SM_fence_104end",
      "mesh" : 0
    }
  ],
  "materials" : [
    {
      "name" : "dummy_material_0",
      "pbrMetallicRoughness" : {
        "baseColorFactor" : [ 0.3, 0.3, 0.3, 1.0 ],
        "metallicFactor" : 0.1,
        "roughnessFactor" : 0.5
      }
    }
  ],
  "meshes" : [
    {
      "primitives" : [
        {
          "attributes" : {
            "POSITION" : 1,
            "NORMAL" : 2,
            "TANGENT" : 3,
            "TEXCOORD_0" : 4
          },
          "indices" : 0,
          "material" : 0
        }
      ],
      "name" : "SM_fence_104end"
    }
  ],
  "buffers" : [
    {
      "uri" : "SM_fence_104end.bin",
      "byteLength" : 2400
    }
  ],
  "bufferViews" : [
    {
      "buffer" : 0,
      "byteOffset" : 0,
      "byteLength" : 96
    },
    {
      "buffer" : 0,
      "byteOffset" : 96,
      "byteLength" : 576
    },
    {
      "buffer" : 0,
      "byteOffset" : 672,
      "byteLength" : 576
    },
    {
      "buffer" : 0,
      "byteOffset" : 1248,
      "byteLength" : 768
    },
    {
      "buffer" : 0,
      "byteOffset" : 2016,
      "byteLength" : 384
    }
  ],
  "accessors" : [
    {
      "bufferView" : 0,
      "componentType" : 5123,
      "count" : 48,
      "type" : "SCALAR"
    },
    {
      "bufferView" : 1,
      "min" : [ -0.04, -2.12116e-18, -0.0346411 ],
      "max" : [ 0.04, 2.5, 0.0346411 ],
      "componentType" : 5126,
      "count" : 48,
      "type" : "VEC3"
    },
    {
      "bufferView" : 2,
      "componentType" : 5126,
      "count" : 48,
      "type" : "VEC3"
    },
    {
      "bufferView" : 3,
      "componentType" : 5126,
      "count" : 48,
      "type" : "VEC4"
    },
    {
      "bufferView" : 4,
      "componentType" : 5126,
      "count" : 48,
      "type" : "VEC2"
    }
  ]
}
