{
  "asset" : {
    "generator" : "UE Viewer (umodel) build 1590",
    "version" : "2.0"
  },
  "scene" : 0,
  "scenes" : [
    {
      "nodes" : [ 0 ]
    }
  ],
  "nodes" : [
    {
      "name" : "SM_Flagpole",
      "mesh" : 0
    }
  ],
  "materials" : [
    {
      "name" : "dummy_material_0",
      "pbrMetallicRoughness" : {
        "baseColorFactor" : [ 0.3, 0.3, 0.3, 1.0 ],
        "metallicFactor" : 0.1,
        "roughnessFactor" : 0.5
      }
    }
  ],
  "meshes" : [
    {
      "primitives" : [
        {
          "attributes" : {
            "POSITION" : 1,
            "NORMAL" : 2,
            "TANGENT" : 3,
            "TEXCOORD_0" : 4
          },
          "indices" : 0,
          "material" : 0
        }
      ],
      "name" : "SM_Flagpole"
    }
  ],
  "buffers" : [
    {
      "uri" : "SM_Flagpole.bin",
      "byteLength" : 114000
    }
  ],
  "bufferViews" : [
    {
      "buffer" : 0,
      "byteOffset" : 0,
      "byteLength" : 4560
    },
    {
      "buffer" : 0,
      "byteOffset" : 4560,
      "byteLength" : 27360
    },
    {
      "buffer" : 0,
      "byteOffset" : 31920,
      "byteLength" : 27360
    },
    {
      "buffer" : 0,
      "byteOffset" : 59280,
      "byteLength" : 36480
    },
    {
      "buffer" : 0,
      "byteOffset" : 95760,
      "byteLength" : 18240
    }
  ],
  "accessors" : [
    {
      "bufferView" : 0,
      "componentType" : 5123,
      "count" : 2280,
      "type" : "SCALAR"
    },
    {
      "bufferView" : 1,
      "min" : [ -0.207614, -0.028421, -0.644723 ],
      "max" : [ 0.423091, 4.29091, 0.468688 ],
      "componentType" : 5126,
      "count" : 2280,
      "type" : "VEC3"
    },
    {
      "bufferView" : 2,
      "componentType" : 5126,
      "count" : 2280,
      "type" : "VEC3"
    },
    {
      "bufferView" : 3,
      "componentType" : 5126,
      "count" : 2280,
      "type" : "VEC4"
    },
    {
      "bufferView" : 4,
      "componentType" : 5126,
      "count" : 2280,
      "type" : "VEC2"
    }
  ]
}
