{
  "asset" : {
    "generator" : "UE Viewer (umodel) build 1590",
    "version" : "2.0"
  },
  "scene" : 0,
  "scenes" : [
    {
      "nodes" : [ 0 ]
    }
  ],
  "nodes" : [
    {
      "name" : "SM_fence_101",
      "mesh" : 0
    }
  ],
  "materials" : [
    {
      "name" : "dummy_material_0",
      "pbrMetallicRoughness" : {
        "baseColorFactor" : [ 0.3, 0.3, 0.3, 1.0 ],
        "metallicFactor" : 0.1,
        "roughnessFactor" : 0.5
      }
    }
  ],
  "meshes" : [
    {
      "primitives" : [
        {
          "attributes" : {
            "POSITION" : 1,
            "NORMAL" : 2,
            "TANGENT" : 3,
            "TEXCOORD_0" : 4
          },
          "indices" : 0,
          "material" : 0
        }
      ],
      "name" : "SM_fence_101"
    }
  ],
  "buffers" : [
    {
      "uri" : "SM_fence_101.bin",
      "byteLength" : 43500
    }
  ],
  "bufferViews" : [
    {
      "buffer" : 0,
      "byteOffset" : 0,
      "byteLength" : 1740
    },
    {
      "buffer" : 0,
      "byteOffset" : 1740,
      "byteLength" : 10440
    },
    {
      "buffer" : 0,
      "byteOffset" : 12180,
      "byteLength" : 10440
    },
    {
      "buffer" : 0,
      "byteOffset" : 22620,
      "byteLength" : 13920
    },
    {
      "buffer" : 0,
      "byteOffset" : 36540,
      "byteLength" : 6960
    }
  ],
  "accessors" : [
    {
      "bufferView" : 0,
      "componentType" : 5123,
      "count" : 870,
      "type" : "SCALAR"
    },
    {
      "bufferView" : 1,
      "min" : [ -0.15, -6.12323e-18, -4 ],
      "max" : [ 0.15, 1.65, 0.15 ],
      "componentType" : 5126,
      "count" : 870,
      "type" : "VEC3"
    },
    {
      "bufferView" : 2,
      "componentType" : 5126,
      "count" : 870,
      "type" : "VEC3"
    },
    {
      "bufferView" : 3,
      "componentType" : 5126,
      "count" : 870,
      "type" : "VEC4"
    },
    {
      "bufferView" : 4,
      "componentType" : 5126,
      "count" : 870,
      "type" : "VEC2"
    }
  ]
}
