{
  "asset" : {
    "generator" : "UE Viewer (umodel) build 1590",
    "version" : "2.0"
  },
  "scene" : 0,
  "scenes" : [
    {
      "nodes" : [ 0 ]
    }
  ],
  "nodes" : [
    {
      "name" : "SM_fence_101gate",
      "mesh" : 0
    }
  ],
  "materials" : [
    {
      "name" : "dummy_material_0",
      "pbrMetallicRoughness" : {
        "baseColorFactor" : [ 0.3, 0.3, 0.3, 1.0 ],
        "metallicFactor" : 0.1,
        "roughnessFactor" : 0.5
      }
    }
  ],
  "meshes" : [
    {
      "primitives" : [
        {
          "attributes" : {
            "POSITION" : 1,
            "NORMAL" : 2,
            "TANGENT" : 3,
            "TEXCOORD_0" : 4
          },
          "indices" : 0,
          "material" : 0
        }
      ],
      "name" : "SM_fence_101gate"
    }
  ],
  "buffers" : [
    {
      "uri" : "SM_fence_101gate.bin",
      "byteLength" : 20100
    }
  ],
  "bufferViews" : [
    {
      "buffer" : 0,
      "byteOffset" : 0,
      "byteLength" : 804
    },
    {
      "buffer" : 0,
      "byteOffset" : 804,
      "byteLength" : 4824
    },
    {
      "buffer" : 0,
      "byteOffset" : 5628,
      "byteLength" : 4824
    },
    {
      "buffer" : 0,
      "byteOffset" : 10452,
      "byteLength" : 6432
    },
    {
      "buffer" : 0,
      "byteOffset" : 16884,
      "byteLength" : 3216
    }
  ],
  "accessors" : [
    {
      "bufferView" : 0,
      "componentType" : 5123,
      "count" : 402,
      "type" : "SCALAR"
    },
    {
      "bufferView" : 1,
      "min" : [ -0.0553906, 0.05, 0.12162 ],
      "max" : [ 0.0250024, 1.4, 1.88014 ],
      "componentType" : 5126,
      "count" : 402,
      "type" : "VEC3"
    },
    {
      "bufferView" : 2,
      "componentType" : 5126,
      "count" : 402,
      "type" : "VEC3"
    },
    {
      "bufferView" : 3,
      "componentType" : 5126,
      "count" : 402,
      "type" : "VEC4"
    },
    {
      "bufferView" : 4,
      "componentType" : 5126,
      "count" : 402,
      "type" : "VEC2"
    }
  ]
}
