{
  "asset" : {
    "generator" : "UE Viewer (umodel) build 1590",
    "version" : "2.0"
  },
  "scene" : 0,
  "scenes" : [
    {
      "nodes" : [ 0 ]
    }
  ],
  "nodes" : [
    {
      "name" : "SM_gasPumpsOld",
      "mesh" : 0
    }
  ],
  "materials" : [
    {
      "name" : "dummy_material_0",
      "pbrMetallicRoughness" : {
        "baseColorFactor" : [ 0.3, 0.3, 0.3, 1.0 ],
        "metallicFactor" : 0.1,
        "roughnessFactor" : 0.5
      }
    }
  ],
  "meshes" : [
    {
      "primitives" : [
        {
          "attributes" : {
            "POSITION" : 1,
            "NORMAL" : 2,
            "TANGENT" : 3,
            "TEXCOORD_0" : 4
          },
          "indices" : 0,
          "material" : 0
        }
      ],
      "name" : "SM_gasPumpsOld"
    }
  ],
  "buffers" : [
    {
      "uri" : "SM_gasPumpsOld.bin",
      "byteLength" : 171900
    }
  ],
  "bufferViews" : [
    {
      "buffer" : 0,
      "byteOffset" : 0,
      "byteLength" : 6876
    },
    {
      "buffer" : 0,
      "byteOffset" : 6876,
      "byteLength" : 41256
    },
    {
      "buffer" : 0,
      "byteOffset" : 48132,
      "byteLength" : 41256
    },
    {
      "buffer" : 0,
      "byteOffset" : 89388,
      "byteLength" : 55008
    },
    {
      "buffer" : 0,
      "byteOffset" : 144396,
      "byteLength" : 27504
    }
  ],
  "accessors" : [
    {
      "bufferView" : 0,
      "componentType" : 5123,
      "count" : 3438,
      "type" : "SCALAR"
    },
    {
      "bufferView" : 1,
      "min" : [ -0.612637, 1.15395e-06, -1.82959 ],
      "max" : [ 0.615314, 1.84162, 1.8296 ],
      "componentType" : 5126,
      "count" : 3438,
      "type" : "VEC3"
    },
    {
      "bufferView" : 2,
      "componentType" : 5126,
      "count" : 3438,
      "type" : "VEC3"
    },
    {
      "bufferView" : 3,
      "componentType" : 5126,
      "count" : 3438,
      "type" : "VEC4"
    },
    {
      "bufferView" : 4,
      "componentType" : 5126,
      "count" : 3438,
      "type" : "VEC2"
    }
  ]
}
