{
  "asset" : {
    "generator" : "UE Viewer (umodel) build 1590",
    "version" : "2.0"
  },
  "scene" : 0,
  "scenes" : [
    {
      "nodes" : [ 0 ]
    }
  ],
  "nodes" : [
    {
      "name" : "SM_grassCutter",
      "mesh" : 0
    }
  ],
  "materials" : [
    {
      "name" : "dummy_material_0",
      "pbrMetallicRoughness" : {
        "baseColorFactor" : [ 0.3, 0.3, 0.3, 1.0 ],
        "metallicFactor" : 0.1,
        "roughnessFactor" : 0.5
      }
    }
  ],
  "meshes" : [
    {
      "primitives" : [
        {
          "attributes" : {
            "POSITION" : 1,
            "NORMAL" : 2,
            "TANGENT" : 3,
            "TEXCOORD_0" : 4,
            "TEXCOORD_1" : 5
          },
          "indices" : 0,
          "material" : 0
        }
      ],
      "name" : "SM_grassCutter"
    }
  ],
  "buffers" : [
    {
      "uri" : "SM_grassCutter.bin",
      "byteLength" : 68556
    }
  ],
  "bufferViews" : [
    {
      "buffer" : 0,
      "byteOffset" : 0,
      "byteLength" : 2364
    },
    {
      "buffer" : 0,
      "byteOffset" : 2364,
      "byteLength" : 14184
    },
    {
      "buffer" : 0,
      "byteOffset" : 16548,
      "byteLength" : 14184
    },
    {
      "buffer" : 0,
      "byteOffset" : 30732,
      "byteLength" : 18912
    },
    {
      "buffer" : 0,
      "byteOffset" : 49644,
      "byteLength" : 9456
    },
    {
      "buffer" : 0,
      "byteOffset" : 59100,
      "byteLength" : 9456
    }
  ],
  "accessors" : [
    {
      "bufferView" : 0,
      "componentType" : 5123,
      "count" : 1182,
      "type" : "SCALAR"
    },
    {
      "bufferView" : 1,
      "min" : [ -0.566394, -0.00320936, -0.314468 ],
      "max" : [ 0.441803, 1.02413, 0.312146 ],
      "componentType" : 5126,
      "count" : 1182,
      "type" : "VEC3"
    },
    {
      "bufferView" : 2,
      "componentType" : 5126,
      "count" : 1182,
      "type" : "VEC3"
    },
    {
      "bufferView" : 3,
      "componentType" : 5126,
      "count" : 1182,
      "type" : "VEC4"
    },
    {
      "bufferView" : 4,
      "componentType" : 5126,
      "count" : 1182,
      "type" : "VEC2"
    },
    {
      "bufferView" : 5,
      "componentType" : 5126,
      "count" : 1182,
      "type" : "VEC2"
    }
  ]
}
