{
  "asset" : {
    "generator" : "UE Viewer (umodel) build 1590",
    "version" : "2.0"
  },
  "scene" : 0,
  "scenes" : [
    {
      "nodes" : [ 0 ]
    }
  ],
  "nodes" : [
    {
      "name" : "SM_gasStationCarPort_01",
      "mesh" : 0
    }
  ],
  "materials" : [
    {
      "name" : "dummy_material_0",
      "pbrMetallicRoughness" : {
        "baseColorFactor" : [ 0.3, 0.3, 0.3, 1.0 ],
        "metallicFactor" : 0.1,
        "roughnessFactor" : 0.5
      }
    },
    {
      "name" : "dummy_material_1",
      "pbrMetallicRoughness" : {
        "baseColorFactor" : [ 0.9, 0.3, 0.3, 1.0 ],
        "metallicFactor" : 0.1,
        "roughnessFactor" : 0.5
      }
    },
    {
      "name" : "dummy_material_2",
      "pbrMetallicRoughness" : {
        "baseColorFactor" : [ 0.3, 0.9, 0.3, 1.0 ],
        "metallicFactor" : 0.1,
        "roughnessFactor" : 0.5
      }
    },
    {
      "name" : "dummy_material_3",
      "pbrMetallicRoughness" : {
        "baseColorFactor" : [ 0.3, 0.3, 0.9, 1.0 ],
        "metallicFactor" : 0.1,
        "roughnessFactor" : 0.5
      }
    }
  ],
  "meshes" : [
    {
      "primitives" : [
        {
          "attributes" : {
            "POSITION" : 1,
            "NORMAL" : 2,
            "TANGENT" : 3,
            "TEXCOORD_0" : 4,
            "TEXCOORD_1" : 5
          },
          "indices" : 0,
          "material" : 0
        },
        {
          "attributes" : {
            "POSITION" : 7,
            "NORMAL" : 8,
            "TANGENT" : 9,
            "TEXCOORD_0" : 10,
            "TEXCOORD_1" : 11
          },
          "indices" : 6,
          "material" : 1
        },
        {
          "attributes" : {
            "POSITION" : 13,
            "NORMAL" : 14,
            "TANGENT" : 15,
            "TEXCOORD_0" : 16,
            "TEXCOORD_1" : 17
          },
          "indices" : 12,
          "material" : 2
        },
        {
          "attributes" : {
            "POSITION" : 19,
            "NORMAL" : 20,
            "TANGENT" : 21,
            "TEXCOORD_0" : 22,
            "TEXCOORD_1" : 23
          },
          "indices" : 18,
          "material" : 3
        }
      ],
      "name" : "SM_gasStationCarPort_01"
    }
  ],
  "buffers" : [
    {
      "uri" : "SM_gasStationCarPort_01.bin",
      "byteLength" : 65076
    }
  ],
  "bufferViews" : [
    {
      "buffer" : 0,
      "byteOffset" : 0,
      "byteLength" : 108
    },
    {
      "buffer" : 0,
      "byteOffset" : 108,
      "byteLength" : 648
    },
    {
      "buffer" : 0,
      "byteOffset" : 756,
      "byteLength" : 648
    },
    {
      "buffer" : 0,
      "byteOffset" : 1404,
      "byteLength" : 864
    },
    {
      "buffer" : 0,
      "byteOffset" : 2268,
      "byteLength" : 432
    },
    {
      "buffer" : 0,
      "byteOffset" : 2700,
      "byteLength" : 432
    },
    {
      "buffer" : 0,
      "byteOffset" : 3132,
      "byteLength" : 156
    },
    {
      "buffer" : 0,
      "byteOffset" : 3288,
      "byteLength" : 936
    },
    {
      "buffer" : 0,
      "byteOffset" : 4224,
      "byteLength" : 936
    },
    {
      "buffer" : 0,
      "byteOffset" : 5160,
      "byteLength" : 1248
    },
    {
      "buffer" : 0,
      "byteOffset" : 6408,
      "byteLength" : 624
    },
    {
      "buffer" : 0,
      "byteOffset" : 7032,
      "byteLength" : 624
    },
    {
      "buffer" : 0,
      "byteOffset" : 7656,
      "byteLength" : 96
    },
    {
      "buffer" : 0,
      "byteOffset" : 7752,
      "byteLength" : 576
    },
    {
      "buffer" : 0,
      "byteOffset" : 8328,
      "byteLength" : 576
    },
    {
      "buffer" : 0,
      "byteOffset" : 8904,
      "byteLength" : 768
    },
    {
      "buffer" : 0,
      "byteOffset" : 9672,
      "byteLength" : 384
    },
    {
      "buffer" : 0,
      "byteOffset" : 10056,
      "byteLength" : 384
    },
    {
      "buffer" : 0,
      "byteOffset" : 10440,
      "byteLength" : 1884
    },
    {
      "buffer" : 0,
      "byteOffset" : 12324,
      "byteLength" : 11304
    },
    {
      "buffer" : 0,
      "byteOffset" : 23628,
      "byteLength" : 11304
    },
    {
      "buffer" : 0,
      "byteOffset" : 34932,
      "byteLength" : 15072
    },
    {
      "buffer" : 0,
      "byteOffset" : 50004,
      "byteLength" : 7536
    },
    {
      "buffer" : 0,
      "byteOffset" : 57540,
      "byteLength" : 7536
    }
  ],
  "accessors" : [
    {
      "bufferView" : 0,
      "componentType" : 5123,
      "count" : 54,
      "type" : "SCALAR"
    },
    {
      "bufferView" : 1,
      "min" : [ -4.03014, 3.71758, -4.03013 ],
      "max" : [ 4, 4.33867, 4.03014 ],
      "componentType" : 5126,
      "count" : 54,
      "type" : "VEC3"
    },
    {
      "bufferView" : 2,
      "componentType" : 5126,
      "count" : 54,
      "type" : "VEC3"
    },
    {
      "bufferView" : 3,
      "componentType" : 5126,
      "count" : 54,
      "type" : "VEC4"
    },
    {
      "bufferView" : 4,
      "componentType" : 5126,
      "count" : 54,
      "type" : "VEC2"
    },
    {
      "bufferView" : 5,
      "componentType" : 5126,
      "count" : 54,
      "type" : "VEC2"
    },
    {
      "bufferView" : 6,
      "componentType" : 5123,
      "count" : 78,
      "type" : "SCALAR"
    },
    {
      "bufferView" : 7,
      "min" : [ -4.03014, 3.71758, -4.03013 ],
      "max" : [ 4, 4.20295, 4.03014 ],
      "componentType" : 5126,
      "count" : 78,
      "type" : "VEC3"
    },
    {
      "bufferView" : 8,
      "componentType" : 5126,
      "count" : 78,
      "type" : "VEC3"
    },
    {
      "bufferView" : 9,
      "componentType" : 5126,
      "count" : 78,
      "type" : "VEC4"
    },
    {
      "bufferView" : 10,
      "componentType" : 5126,
      "count" : 78,
      "type" : "VEC2"
    },
    {
      "bufferView" : 11,
      "componentType" : 5126,
      "count" : 78,
      "type" : "VEC2"
    },
    {
      "bufferView" : 12,
      "componentType" : 5123,
      "count" : 48,
      "type" : "SCALAR"
    },
    {
      "bufferView" : 13,
      "min" : [ -4.03014, 4.19236, -4.03013 ],
      "max" : [ 4, 4.33867, 4.03014 ],
      "componentType" : 5126,
      "count" : 48,
      "type" : "VEC3"
    },
    {
      "bufferView" : 14,
      "componentType" : 5126,
      "count" : 48,
      "type" : "VEC3"
    },
    {
      "bufferView" : 15,
      "componentType" : 5126,
      "count" : 48,
      "type" : "VEC4"
    },
    {
      "bufferView" : 16,
      "componentType" : 5126,
      "count" : 48,
      "type" : "VEC2"
    },
    {
      "bufferView" : 17,
      "componentType" : 5126,
      "count" : 48,
      "type" : "VEC2"
    },
    {
      "bufferView" : 18,
      "componentType" : 5123,
      "count" : 942,
      "type" : "SCALAR"
    },
    {
      "bufferView" : 19,
      "min" : [ -3.89455, 5.73926e-08, -3.89452 ],
      "max" : [ 3.86439, 4.15303, 3.89455 ],
      "componentType" : 5126,
      "count" : 942,
      "type" : "VEC3"
    },
    {
      "bufferView" : 20,
      "componentType" : 5126,
      "count" : 942,
      "type" : "VEC3"
    },
    {
      "bufferView" : 21,
      "componentType" : 5126,
      "count" : 942,
      "type" : "VEC4"
    },
    {
      "bufferView" : 22,
      "componentType" : 5126,
      "count" : 942,
      "type" : "VEC2"
    },
    {
      "bufferView" : 23,
      "componentType" : 5126,
      "count" : 942,
      "type" : "VEC2"
    }
  ]
}
