{
  "asset" : {
    "generator" : "UE Viewer (umodel) build 1590",
    "version" : "2.0"
  },
  "scene" : 0,
  "scenes" : [
    {
      "nodes" : [ 0 ]
    }
  ],
  "nodes" : [
    {
      "name" : "SM_gas_can",
      "mesh" : 0
    }
  ],
  "materials" : [
    {
      "name" : "dummy_material_0",
      "pbrMetallicRoughness" : {
        "baseColorFactor" : [ 0.3, 0.3, 0.3, 1.0 ],
        "metallicFactor" : 0.1,
        "roughnessFactor" : 0.5
      }
    }
  ],
  "meshes" : [
    {
      "primitives" : [
        {
          "attributes" : {
            "POSITION" : 1,
            "NORMAL" : 2,
            "TANGENT" : 3,
            "TEXCOORD_0" : 4,
            "TEXCOORD_1" : 5
          },
          "indices" : 0,
          "material" : 0
        }
      ],
      "name" : "SM_gas_can"
    }
  ],
  "buffers" : [
    {
      "uri" : "SM_gas_can.bin",
      "byteLength" : 66120
    }
  ],
  "bufferViews" : [
    {
      "buffer" : 0,
      "byteOffset" : 0,
      "byteLength" : 2280
    },
    {
      "buffer" : 0,
      "byteOffset" : 2280,
      "byteLength" : 13680
    },
    {
      "buffer" : 0,
      "byteOffset" : 15960,
      "byteLength" : 13680
    },
    {
      "buffer" : 0,
      "byteOffset" : 29640,
      "byteLength" : 18240
    },
    {
      "buffer" : 0,
      "byteOffset" : 47880,
      "byteLength" : 9120
    },
    {
      "buffer" : 0,
      "byteOffset" : 57000,
      "byteLength" : 9120
    }
  ],
  "accessors" : [
    {
      "bufferView" : 0,
      "componentType" : 5123,
      "count" : 1140,
      "type" : "SCALAR"
    },
    {
      "bufferView" : 1,
      "min" : [ -0.0983623, -1.07063e-17, -0.174847 ],
      "max" : [ 0.0983623, 0.46288, 0.174847 ],
      "componentType" : 5126,
      "count" : 1140,
      "type" : "VEC3"
    },
    {
      "bufferView" : 2,
      "componentType" : 5126,
      "count" : 1140,
      "type" : "VEC3"
    },
    {
      "bufferView" : 3,
      "componentType" : 5126,
      "count" : 1140,
      "type" : "VEC4"
    },
    {
      "bufferView" : 4,
      "componentType" : 5126,
      "count" : 1140,
      "type" : "VEC2"
    },
    {
      "bufferView" : 5,
      "componentType" : 5126,
      "count" : 1140,
      "type" : "VEC2"
    }
  ]
}
