{
  "asset" : {
    "generator" : "UE Viewer (umodel) build 1590",
    "version" : "2.0"
  },
  "scene" : 0,
  "scenes" : [
    {
      "nodes" : [ 0 ]
    }
  ],
  "nodes" : [
    {
      "name" : "SM_grill",
      "mesh" : 0
    }
  ],
  "materials" : [
    {
      "name" : "dummy_material_0",
      "pbrMetallicRoughness" : {
        "baseColorFactor" : [ 0.3, 0.3, 0.3, 1.0 ],
        "metallicFactor" : 0.1,
        "roughnessFactor" : 0.5
      }
    }
  ],
  "meshes" : [
    {
      "primitives" : [
        {
          "attributes" : {
            "POSITION" : 1,
            "NORMAL" : 2,
            "TANGENT" : 3,
            "TEXCOORD_0" : 4,
            "TEXCOORD_1" : 5
          },
          "indices" : 0,
          "material" : 0
        }
      ],
      "name" : "SM_grill"
    }
  ],
  "buffers" : [
    {
      "uri" : "SM_grill.bin",
      "byteLength" : 128064
    }
  ],
  "bufferViews" : [
    {
      "buffer" : 0,
      "byteOffset" : 0,
      "byteLength" : 4416
    },
    {
      "buffer" : 0,
      "byteOffset" : 4416,
      "byteLength" : 26496
    },
    {
      "buffer" : 0,
      "byteOffset" : 30912,
      "byteLength" : 26496
    },
    {
      "buffer" : 0,
      "byteOffset" : 57408,
      "byteLength" : 35328
    },
    {
      "buffer" : 0,
      "byteOffset" : 92736,
      "byteLength" : 17664
    },
    {
      "buffer" : 0,
      "byteOffset" : 110400,
      "byteLength" : 17664
    }
  ],
  "accessors" : [
    {
      "bufferView" : 0,
      "componentType" : 5123,
      "count" : 2208,
      "type" : "SCALAR"
    },
    {
      "bufferView" : 1,
      "min" : [ -0.354152, -0.000870228, -0.387307 ],
      "max" : [ 0.322909, 1.24905, 0.386216 ],
      "componentType" : 5126,
      "count" : 2208,
      "type" : "VEC3"
    },
    {
      "bufferView" : 2,
      "componentType" : 5126,
      "count" : 2208,
      "type" : "VEC3"
    },
    {
      "bufferView" : 3,
      "componentType" : 5126,
      "count" : 2208,
      "type" : "VEC4"
    },
    {
      "bufferView" : 4,
      "componentType" : 5126,
      "count" : 2208,
      "type" : "VEC2"
    },
    {
      "bufferView" : 5,
      "componentType" : 5126,
      "count" : 2208,
      "type" : "VEC2"
    }
  ]
}
