{
  "asset" : {
    "generator" : "UE Viewer (umodel) build 1590",
    "version" : "2.0"
  },
  "scene" : 0,
  "scenes" : [
    {
      "nodes" : [ 0 ]
    }
  ],
  "nodes" : [
    {
      "name" : "SM_handTruck_01",
      "mesh" : 0
    }
  ],
  "materials" : [
    {
      "name" : "dummy_material_0",
      "pbrMetallicRoughness" : {
        "baseColorFactor" : [ 0.3, 0.3, 0.3, 1.0 ],
        "metallicFactor" : 0.1,
        "roughnessFactor" : 0.5
      }
    }
  ],
  "meshes" : [
    {
      "primitives" : [
        {
          "attributes" : {
            "POSITION" : 1,
            "NORMAL" : 2,
            "TANGENT" : 3,
            "TEXCOORD_0" : 4,
            "TEXCOORD_1" : 5
          },
          "indices" : 0,
          "material" : 0
        }
      ],
      "name" : "SM_handTruck_01"
    }
  ],
  "buffers" : [
    {
      "uri" : "SM_handTruck_01.bin",
      "byteLength" : 112404
    }
  ],
  "bufferViews" : [
    {
      "buffer" : 0,
      "byteOffset" : 0,
      "byteLength" : 3876
    },
    {
      "buffer" : 0,
      "byteOffset" : 3876,
      "byteLength" : 23256
    },
    {
      "buffer" : 0,
      "byteOffset" : 27132,
      "byteLength" : 23256
    },
    {
      "buffer" : 0,
      "byteOffset" : 50388,
      "byteLength" : 31008
    },
    {
      "buffer" : 0,
      "byteOffset" : 81396,
      "byteLength" : 15504
    },
    {
      "buffer" : 0,
      "byteOffset" : 96900,
      "byteLength" : 15504
    }
  ],
  "accessors" : [
    {
      "bufferView" : 0,
      "componentType" : 5123,
      "count" : 1938,
      "type" : "SCALAR"
    },
    {
      "bufferView" : 1,
      "min" : [ -0.201708, -3.92969e-08, -0.29231 ],
      "max" : [ 0.482383, 1.33297, 0.29231 ],
      "componentType" : 5126,
      "count" : 1938,
      "type" : "VEC3"
    },
    {
      "bufferView" : 2,
      "componentType" : 5126,
      "count" : 1938,
      "type" : "VEC3"
    },
    {
      "bufferView" : 3,
      "componentType" : 5126,
      "count" : 1938,
      "type" : "VEC4"
    },
    {
      "bufferView" : 4,
      "componentType" : 5126,
      "count" : 1938,
      "type" : "VEC2"
    },
    {
      "bufferView" : 5,
      "componentType" : 5126,
      "count" : 1938,
      "type" : "VEC2"
    }
  ]
}
