{
  "asset" : {
    "generator" : "UE Viewer (umodel) build 1590",
    "version" : "2.0"
  },
  "scene" : 0,
  "scenes" : [
    {
      "nodes" : [ 0 ]
    }
  ],
  "nodes" : [
    {
      "name" : "SM_keg",
      "mesh" : 0
    }
  ],
  "materials" : [
    {
      "name" : "dummy_material_0",
      "pbrMetallicRoughness" : {
        "baseColorFactor" : [ 0.3, 0.3, 0.3, 1.0 ],
        "metallicFactor" : 0.1,
        "roughnessFactor" : 0.5
      }
    }
  ],
  "meshes" : [
    {
      "primitives" : [
        {
          "attributes" : {
            "POSITION" : 1,
            "NORMAL" : 2,
            "TANGENT" : 3,
            "TEXCOORD_0" : 4,
            "TEXCOORD_1" : 5
          },
          "indices" : 0,
          "material" : 0
        }
      ],
      "name" : "SM_keg"
    }
  ],
  "buffers" : [
    {
      "uri" : "SM_keg.bin",
      "byteLength" : 138852
    }
  ],
  "bufferViews" : [
    {
      "buffer" : 0,
      "byteOffset" : 0,
      "byteLength" : 4788
    },
    {
      "buffer" : 0,
      "byteOffset" : 4788,
      "byteLength" : 28728
    },
    {
      "buffer" : 0,
      "byteOffset" : 33516,
      "byteLength" : 28728
    },
    {
      "buffer" : 0,
      "byteOffset" : 62244,
      "byteLength" : 38304
    },
    {
      "buffer" : 0,
      "byteOffset" : 100548,
      "byteLength" : 19152
    },
    {
      "buffer" : 0,
      "byteOffset" : 119700,
      "byteLength" : 19152
    }
  ],
  "accessors" : [
    {
      "bufferView" : 0,
      "componentType" : 5123,
      "count" : 2394,
      "type" : "SCALAR"
    },
    {
      "bufferView" : 1,
      "min" : [ -0.297734, -4.85069e-08, -0.297734 ],
      "max" : [ 0.297734, 0.847387, 0.297734 ],
      "componentType" : 5126,
      "count" : 2394,
      "type" : "VEC3"
    },
    {
      "bufferView" : 2,
      "componentType" : 5126,
      "count" : 2394,
      "type" : "VEC3"
    },
    {
      "bufferView" : 3,
      "componentType" : 5126,
      "count" : 2394,
      "type" : "VEC4"
    },
    {
      "bufferView" : 4,
      "componentType" : 5126,
      "count" : 2394,
      "type" : "VEC2"
    },
    {
      "bufferView" : 5,
      "componentType" : 5126,
      "count" : 2394,
      "type" : "VEC2"
    }
  ]
}
