{
  "asset" : {
    "generator" : "UE Viewer (umodel) build 1590",
    "version" : "2.0"
  },
  "scene" : 0,
  "scenes" : [
    {
      "nodes" : [ 0 ]
    }
  ],
  "nodes" : [
    {
      "name" : "SM_ladder_small",
      "mesh" : 0
    }
  ],
  "materials" : [
    {
      "name" : "dummy_material_0",
      "pbrMetallicRoughness" : {
        "baseColorFactor" : [ 0.3, 0.3, 0.3, 1.0 ],
        "metallicFactor" : 0.1,
        "roughnessFactor" : 0.5
      }
    }
  ],
  "meshes" : [
    {
      "primitives" : [
        {
          "attributes" : {
            "POSITION" : 1,
            "NORMAL" : 2,
            "TANGENT" : 3,
            "TEXCOORD_0" : 4,
            "TEXCOORD_1" : 5
          },
          "indices" : 0,
          "material" : 0
        }
      ],
      "name" : "SM_ladder_small"
    }
  ],
  "buffers" : [
    {
      "uri" : "SM_ladder_small.bin",
      "byteLength" : 68208
    }
  ],
  "bufferViews" : [
    {
      "buffer" : 0,
      "byteOffset" : 0,
      "byteLength" : 2352
    },
    {
      "buffer" : 0,
      "byteOffset" : 2352,
      "byteLength" : 14112
    },
    {
      "buffer" : 0,
      "byteOffset" : 16464,
      "byteLength" : 14112
    },
    {
      "buffer" : 0,
      "byteOffset" : 30576,
      "byteLength" : 18816
    },
    {
      "buffer" : 0,
      "byteOffset" : 49392,
      "byteLength" : 9408
    },
    {
      "buffer" : 0,
      "byteOffset" : 58800,
      "byteLength" : 9408
    }
  ],
  "accessors" : [
    {
      "bufferView" : 0,
      "componentType" : 5123,
      "count" : 1176,
      "type" : "SCALAR"
    },
    {
      "bufferView" : 1,
      "min" : [ -0.487197, -0.167387, -0.369927 ],
      "max" : [ 0.0680076, 0.679321, 0.369343 ],
      "componentType" : 5126,
      "count" : 1176,
      "type" : "VEC3"
    },
    {
      "bufferView" : 2,
      "componentType" : 5126,
      "count" : 1176,
      "type" : "VEC3"
    },
    {
      "bufferView" : 3,
      "componentType" : 5126,
      "count" : 1176,
      "type" : "VEC4"
    },
    {
      "bufferView" : 4,
      "componentType" : 5126,
      "count" : 1176,
      "type" : "VEC2"
    },
    {
      "bufferView" : 5,
      "componentType" : 5126,
      "count" : 1176,
      "type" : "VEC2"
    }
  ]
}
