{
  "asset" : {
    "generator" : "UE Viewer (umodel) build 1590",
    "version" : "2.0"
  },
  "scene" : 0,
  "scenes" : [
    {
      "nodes" : [ 0 ]
    }
  ],
  "nodes" : [
    {
      "name" : "SM_lantern",
      "mesh" : 0
    }
  ],
  "materials" : [
    {
      "name" : "dummy_material_0",
      "pbrMetallicRoughness" : {
        "baseColorFactor" : [ 0.3, 0.3, 0.3, 1.0 ],
        "metallicFactor" : 0.1,
        "roughnessFactor" : 0.5
      }
    }
  ],
  "meshes" : [
    {
      "primitives" : [
        {
          "attributes" : {
            "POSITION" : 1,
            "NORMAL" : 2,
            "TANGENT" : 3,
            "TEXCOORD_0" : 4,
            "TEXCOORD_1" : 5
          },
          "indices" : 0,
          "material" : 0
        }
      ],
      "name" : "SM_lantern"
    }
  ],
  "buffers" : [
    {
      "uri" : "SM_lantern.bin",
      "byteLength" : 78996
    }
  ],
  "bufferViews" : [
    {
      "buffer" : 0,
      "byteOffset" : 0,
      "byteLength" : 2724
    },
    {
      "buffer" : 0,
      "byteOffset" : 2724,
      "byteLength" : 16344
    },
    {
      "buffer" : 0,
      "byteOffset" : 19068,
      "byteLength" : 16344
    },
    {
      "buffer" : 0,
      "byteOffset" : 35412,
      "byteLength" : 21792
    },
    {
      "buffer" : 0,
      "byteOffset" : 57204,
      "byteLength" : 10896
    },
    {
      "buffer" : 0,
      "byteOffset" : 68100,
      "byteLength" : 10896
    }
  ],
  "accessors" : [
    {
      "bufferView" : 0,
      "componentType" : 5123,
      "count" : 1362,
      "type" : "SCALAR"
    },
    {
      "bufferView" : 1,
      "min" : [ -0.267429, -1.63753e-17, -0.267429 ],
      "max" : [ 2.433, 6.17364, 0.267429 ],
      "componentType" : 5126,
      "count" : 1362,
      "type" : "VEC3"
    },
    {
      "bufferView" : 2,
      "componentType" : 5126,
      "count" : 1362,
      "type" : "VEC3"
    },
    {
      "bufferView" : 3,
      "componentType" : 5126,
      "count" : 1362,
      "type" : "VEC4"
    },
    {
      "bufferView" : 4,
      "componentType" : 5126,
      "count" : 1362,
      "type" : "VEC2"
    },
    {
      "bufferView" : 5,
      "componentType" : 5126,
      "count" : 1362,
      "type" : "VEC2"
    }
  ]
}
