{
  "asset" : {
    "generator" : "UE Viewer (umodel) build 1590",
    "version" : "2.0"
  },
  "scene" : 0,
  "scenes" : [
    {
      "nodes" : [ 0 ]
    }
  ],
  "nodes" : [
    {
      "name" : "SM_motel_sign",
      "mesh" : 0
    }
  ],
  "materials" : [
    {
      "name" : "dummy_material_0",
      "pbrMetallicRoughness" : {
        "baseColorFactor" : [ 0.3, 0.3, 0.3, 1.0 ],
        "metallicFactor" : 0.1,
        "roughnessFactor" : 0.5
      }
    }
  ],
  "meshes" : [
    {
      "primitives" : [
        {
          "attributes" : {
            "POSITION" : 1,
            "NORMAL" : 2,
            "TANGENT" : 3,
            "TEXCOORD_0" : 4,
            "TEXCOORD_1" : 5
          },
          "indices" : 0,
          "material" : 0
        }
      ],
      "name" : "SM_motel_sign"
    }
  ],
  "buffers" : [
    {
      "uri" : "SM_motel_sign.bin",
      "byteLength" : 2639580
    }
  ],
  "bufferViews" : [
    {
      "buffer" : 0,
      "byteOffset" : 0,
      "byteLength" : 91020
    },
    {
      "buffer" : 0,
      "byteOffset" : 91020,
      "byteLength" : 546120
    },
    {
      "buffer" : 0,
      "byteOffset" : 637140,
      "byteLength" : 546120
    },
    {
      "buffer" : 0,
      "byteOffset" : 1183260,
      "byteLength" : 728160
    },
    {
      "buffer" : 0,
      "byteOffset" : 1911420,
      "byteLength" : 364080
    },
    {
      "buffer" : 0,
      "byteOffset" : 2275500,
      "byteLength" : 364080
    }
  ],
  "accessors" : [
    {
      "bufferView" : 0,
      "componentType" : 5123,
      "count" : 45510,
      "type" : "SCALAR"
    },
    {
      "bufferView" : 1,
      "min" : [ -0.194668, -0.0370215, -1.62212 ],
      "max" : [ 1.0752, 6.65719, 1.53538 ],
      "componentType" : 5126,
      "count" : 45510,
      "type" : "VEC3"
    },
    {
      "bufferView" : 2,
      "componentType" : 5126,
      "count" : 45510,
      "type" : "VEC3"
    },
    {
      "bufferView" : 3,
      "componentType" : 5126,
      "count" : 45510,
      "type" : "VEC4"
    },
    {
      "bufferView" : 4,
      "componentType" : 5126,
      "count" : 45510,
      "type" : "VEC2"
    },
    {
      "bufferView" : 5,
      "componentType" : 5126,
      "count" : 45510,
      "type" : "VEC2"
    }
  ]
}
