{
  "asset" : {
    "generator" : "UE Viewer (umodel) build 1590",
    "version" : "2.0"
  },
  "scene" : 0,
  "scenes" : [
    {
      "nodes" : [ 0 ]
    }
  ],
  "nodes" : [
    {
      "name" : "SM_metal_box_2",
      "mesh" : 0
    }
  ],
  "materials" : [
    {
      "name" : "dummy_material_0",
      "pbrMetallicRoughness" : {
        "baseColorFactor" : [ 0.3, 0.3, 0.3, 1.0 ],
        "metallicFactor" : 0.1,
        "roughnessFactor" : 0.5
      }
    }
  ],
  "meshes" : [
    {
      "primitives" : [
        {
          "attributes" : {
            "POSITION" : 1,
            "NORMAL" : 2,
            "TANGENT" : 3,
            "TEXCOORD_0" : 4,
            "TEXCOORD_1" : 5
          },
          "indices" : 0,
          "material" : 0
        }
      ],
      "name" : "SM_metal_box_2"
    }
  ],
  "buffers" : [
    {
      "uri" : "SM_metal_box_2.bin",
      "byteLength" : 37584
    }
  ],
  "bufferViews" : [
    {
      "buffer" : 0,
      "byteOffset" : 0,
      "byteLength" : 1296
    },
    {
      "buffer" : 0,
      "byteOffset" : 1296,
      "byteLength" : 7776
    },
    {
      "buffer" : 0,
      "byteOffset" : 9072,
      "byteLength" : 7776
    },
    {
      "buffer" : 0,
      "byteOffset" : 16848,
      "byteLength" : 10368
    },
    {
      "buffer" : 0,
      "byteOffset" : 27216,
      "byteLength" : 5184
    },
    {
      "buffer" : 0,
      "byteOffset" : 32400,
      "byteLength" : 5184
    }
  ],
  "accessors" : [
    {
      "bufferView" : 0,
      "componentType" : 5123,
      "count" : 648,
      "type" : "SCALAR"
    },
    {
      "bufferView" : 1,
      "min" : [ -0.181098, -2.98181e-17, -0.515145 ],
      "max" : [ 0.292966, 1.02748, 0.515145 ],
      "componentType" : 5126,
      "count" : 648,
      "type" : "VEC3"
    },
    {
      "bufferView" : 2,
      "componentType" : 5126,
      "count" : 648,
      "type" : "VEC3"
    },
    {
      "bufferView" : 3,
      "componentType" : 5126,
      "count" : 648,
      "type" : "VEC4"
    },
    {
      "bufferView" : 4,
      "componentType" : 5126,
      "count" : 648,
      "type" : "VEC2"
    },
    {
      "bufferView" : 5,
      "componentType" : 5126,
      "count" : 648,
      "type" : "VEC2"
    }
  ]
}
