{
  "asset" : {
    "generator" : "UE Viewer (umodel) build 1590",
    "version" : "2.0"
  },
  "scene" : 0,
  "scenes" : [
    {
      "nodes" : [ 0 ]
    }
  ],
  "nodes" : [
    {
      "name" : "SM_powerCables_3",
      "mesh" : 0
    }
  ],
  "materials" : [
    {
      "name" : "dummy_material_0",
      "pbrMetallicRoughness" : {
        "baseColorFactor" : [ 0.3, 0.3, 0.3, 1.0 ],
        "metallicFactor" : 0.1,
        "roughnessFactor" : 0.5
      }
    }
  ],
  "meshes" : [
    {
      "primitives" : [
        {
          "attributes" : {
            "POSITION" : 1,
            "NORMAL" : 2,
            "TANGENT" : 3,
            "TEXCOORD_0" : 4
          },
          "indices" : 0,
          "material" : 0
        }
      ],
      "name" : "SM_powerCables_3"
    }
  ],
  "buffers" : [
    {
      "uri" : "SM_powerCables_3.bin",
      "byteLength" : 172800
    }
  ],
  "bufferViews" : [
    {
      "buffer" : 0,
      "byteOffset" : 0,
      "byteLength" : 6912
    },
    {
      "buffer" : 0,
      "byteOffset" : 6912,
      "byteLength" : 41472
    },
    {
      "buffer" : 0,
      "byteOffset" : 48384,
      "byteLength" : 41472
    },
    {
      "buffer" : 0,
      "byteOffset" : 89856,
      "byteLength" : 55296
    },
    {
      "buffer" : 0,
      "byteOffset" : 145152,
      "byteLength" : 27648
    }
  ],
  "accessors" : [
    {
      "bufferView" : 0,
      "componentType" : 5123,
      "count" : 3456,
      "type" : "SCALAR"
    },
    {
      "bufferView" : 1,
      "min" : [ -0.012179, -2.0612, -0.922237 ],
      "max" : [ 24, 1.50859, 0.759115 ],
      "componentType" : 5126,
      "count" : 3456,
      "type" : "VEC3"
    },
    {
      "bufferView" : 2,
      "componentType" : 5126,
      "count" : 3456,
      "type" : "VEC3"
    },
    {
      "bufferView" : 3,
      "componentType" : 5126,
      "count" : 3456,
      "type" : "VEC4"
    },
    {
      "bufferView" : 4,
      "componentType" : 5126,
      "count" : 3456,
      "type" : "VEC2"
    }
  ]
}
