{
  "asset" : {
    "generator" : "UE Viewer (umodel) build 1590",
    "version" : "2.0"
  },
  "scene" : 0,
  "scenes" : [
    {
      "nodes" : [ 0 ]
    }
  ],
  "nodes" : [
    {
      "name" : "SM_public_phone",
      "mesh" : 0
    }
  ],
  "materials" : [
    {
      "name" : "dummy_material_0",
      "pbrMetallicRoughness" : {
        "baseColorFactor" : [ 0.3, 0.3, 0.3, 1.0 ],
        "metallicFactor" : 0.1,
        "roughnessFactor" : 0.5
      }
    }
  ],
  "meshes" : [
    {
      "primitives" : [
        {
          "attributes" : {
            "POSITION" : 1,
            "NORMAL" : 2,
            "TANGENT" : 3,
            "TEXCOORD_0" : 4,
            "TEXCOORD_1" : 5
          },
          "indices" : 0,
          "material" : 0
        }
      ],
      "name" : "SM_public_phone"
    }
  ],
  "buffers" : [
    {
      "uri" : "SM_public_phone.bin",
      "byteLength" : 169824
    }
  ],
  "bufferViews" : [
    {
      "buffer" : 0,
      "byteOffset" : 0,
      "byteLength" : 5856
    },
    {
      "buffer" : 0,
      "byteOffset" : 5856,
      "byteLength" : 35136
    },
    {
      "buffer" : 0,
      "byteOffset" : 40992,
      "byteLength" : 35136
    },
    {
      "buffer" : 0,
      "byteOffset" : 76128,
      "byteLength" : 46848
    },
    {
      "buffer" : 0,
      "byteOffset" : 122976,
      "byteLength" : 23424
    },
    {
      "buffer" : 0,
      "byteOffset" : 146400,
      "byteLength" : 23424
    }
  ],
  "accessors" : [
    {
      "bufferView" : 0,
      "componentType" : 5123,
      "count" : 2928,
      "type" : "SCALAR"
    },
    {
      "bufferView" : 1,
      "min" : [ -0.22934, -2.07183e-17, -0.338355 ],
      "max" : [ 0.195053, 2.10517, 0.338355 ],
      "componentType" : 5126,
      "count" : 2928,
      "type" : "VEC3"
    },
    {
      "bufferView" : 2,
      "componentType" : 5126,
      "count" : 2928,
      "type" : "VEC3"
    },
    {
      "bufferView" : 3,
      "componentType" : 5126,
      "count" : 2928,
      "type" : "VEC4"
    },
    {
      "bufferView" : 4,
      "componentType" : 5126,
      "count" : 2928,
      "type" : "VEC2"
    },
    {
      "bufferView" : 5,
      "componentType" : 5126,
      "count" : 2928,
      "type" : "VEC2"
    }
  ]
}
