{
  "asset" : {
    "generator" : "UE Viewer (umodel) build 1590",
    "version" : "2.0"
  },
  "scene" : 0,
  "scenes" : [
    {
      "nodes" : [ 0 ]
    }
  ],
  "nodes" : [
    {
      "name" : "SM_palette_euro",
      "mesh" : 0
    }
  ],
  "materials" : [
    {
      "name" : "dummy_material_0",
      "pbrMetallicRoughness" : {
        "baseColorFactor" : [ 0.3, 0.3, 0.3, 1.0 ],
        "metallicFactor" : 0.1,
        "roughnessFactor" : 0.5
      }
    }
  ],
  "meshes" : [
    {
      "primitives" : [
        {
          "attributes" : {
            "POSITION" : 1,
            "NORMAL" : 2,
            "TANGENT" : 3,
            "TEXCOORD_0" : 4,
            "TEXCOORD_1" : 5
          },
          "indices" : 0,
          "material" : 0
        }
      ],
      "name" : "SM_palette_euro"
    }
  ],
  "buffers" : [
    {
      "uri" : "SM_palette_euro.bin",
      "byteLength" : 139200
    }
  ],
  "bufferViews" : [
    {
      "buffer" : 0,
      "byteOffset" : 0,
      "byteLength" : 4800
    },
    {
      "buffer" : 0,
      "byteOffset" : 4800,
      "byteLength" : 28800
    },
    {
      "buffer" : 0,
      "byteOffset" : 33600,
      "byteLength" : 28800
    },
    {
      "buffer" : 0,
      "byteOffset" : 62400,
      "byteLength" : 38400
    },
    {
      "buffer" : 0,
      "byteOffset" : 100800,
      "byteLength" : 19200
    },
    {
      "buffer" : 0,
      "byteOffset" : 120000,
      "byteLength" : 19200
    }
  ],
  "accessors" : [
    {
      "bufferView" : 0,
      "componentType" : 5123,
      "count" : 2400,
      "type" : "SCALAR"
    },
    {
      "bufferView" : 1,
      "min" : [ -0.784677, -0.00107946, -0.767682 ],
      "max" : [ 0.784677, 0.199634, 0.767682 ],
      "componentType" : 5126,
      "count" : 2400,
      "type" : "VEC3"
    },
    {
      "bufferView" : 2,
      "componentType" : 5126,
      "count" : 2400,
      "type" : "VEC3"
    },
    {
      "bufferView" : 3,
      "componentType" : 5126,
      "count" : 2400,
      "type" : "VEC4"
    },
    {
      "bufferView" : 4,
      "componentType" : 5126,
      "count" : 2400,
      "type" : "VEC2"
    },
    {
      "bufferView" : 5,
      "componentType" : 5126,
      "count" : 2400,
      "type" : "VEC2"
    }
  ]
}
