{
  "asset" : {
    "generator" : "UE Viewer (umodel) build 1590",
    "version" : "2.0"
  },
  "scene" : 0,
  "scenes" : [
    {
      "nodes" : [ 0 ]
    }
  ],
  "nodes" : [
    {
      "name" : "SM_paint_bucket_2",
      "mesh" : 0
    }
  ],
  "materials" : [
    {
      "name" : "dummy_material_0",
      "pbrMetallicRoughness" : {
        "baseColorFactor" : [ 0.3, 0.3, 0.3, 1.0 ],
        "metallicFactor" : 0.1,
        "roughnessFactor" : 0.5
      }
    }
  ],
  "meshes" : [
    {
      "primitives" : [
        {
          "attributes" : {
            "POSITION" : 1,
            "NORMAL" : 2,
            "TANGENT" : 3,
            "TEXCOORD_0" : 4,
            "TEXCOORD_1" : 5
          },
          "indices" : 0,
          "material" : 0
        }
      ],
      "name" : "SM_paint_bucket_2"
    }
  ],
  "buffers" : [
    {
      "uri" : "SM_paint_bucket_2.bin",
      "byteLength" : 102312
    }
  ],
  "bufferViews" : [
    {
      "buffer" : 0,
      "byteOffset" : 0,
      "byteLength" : 3528
    },
    {
      "buffer" : 0,
      "byteOffset" : 3528,
      "byteLength" : 21168
    },
    {
      "buffer" : 0,
      "byteOffset" : 24696,
      "byteLength" : 21168
    },
    {
      "buffer" : 0,
      "byteOffset" : 45864,
      "byteLength" : 28224
    },
    {
      "buffer" : 0,
      "byteOffset" : 74088,
      "byteLength" : 14112
    },
    {
      "buffer" : 0,
      "byteOffset" : 88200,
      "byteLength" : 14112
    }
  ],
  "accessors" : [
    {
      "bufferView" : 0,
      "componentType" : 5123,
      "count" : 1764,
      "type" : "SCALAR"
    },
    {
      "bufferView" : 1,
      "min" : [ -0.235541, -1.25232e-17, -0.24284 ],
      "max" : [ 0.235541, 0.563776, 0.219917 ],
      "componentType" : 5126,
      "count" : 1764,
      "type" : "VEC3"
    },
    {
      "bufferView" : 2,
      "componentType" : 5126,
      "count" : 1764,
      "type" : "VEC3"
    },
    {
      "bufferView" : 3,
      "componentType" : 5126,
      "count" : 1764,
      "type" : "VEC4"
    },
    {
      "bufferView" : 4,
      "componentType" : 5126,
      "count" : 1764,
      "type" : "VEC2"
    },
    {
      "bufferView" : 5,
      "componentType" : 5126,
      "count" : 1764,
      "type" : "VEC2"
    }
  ]
}
