{
  "asset" : {
    "generator" : "UE Viewer (umodel) build 1590",
    "version" : "2.0"
  },
  "scene" : 0,
  "scenes" : [
    {
      "nodes" : [ 0 ]
    }
  ],
  "nodes" : [
    {
      "name" : "SM_paint_bucket_1",
      "mesh" : 0
    }
  ],
  "materials" : [
    {
      "name" : "dummy_material_0",
      "pbrMetallicRoughness" : {
        "baseColorFactor" : [ 0.3, 0.3, 0.3, 1.0 ],
        "metallicFactor" : 0.1,
        "roughnessFactor" : 0.5
      }
    }
  ],
  "meshes" : [
    {
      "primitives" : [
        {
          "attributes" : {
            "POSITION" : 1,
            "NORMAL" : 2,
            "TANGENT" : 3,
            "TEXCOORD_0" : 4,
            "TEXCOORD_1" : 5
          },
          "indices" : 0,
          "material" : 0
        }
      ],
      "name" : "SM_paint_bucket_1"
    }
  ],
  "buffers" : [
    {
      "uri" : "SM_paint_bucket_1.bin",
      "byteLength" : 79344
    }
  ],
  "bufferViews" : [
    {
      "buffer" : 0,
      "byteOffset" : 0,
      "byteLength" : 2736
    },
    {
      "buffer" : 0,
      "byteOffset" : 2736,
      "byteLength" : 16416
    },
    {
      "buffer" : 0,
      "byteOffset" : 19152,
      "byteLength" : 16416
    },
    {
      "buffer" : 0,
      "byteOffset" : 35568,
      "byteLength" : 21888
    },
    {
      "buffer" : 0,
      "byteOffset" : 57456,
      "byteLength" : 10944
    },
    {
      "buffer" : 0,
      "byteOffset" : 68400,
      "byteLength" : 10944
    }
  ],
  "accessors" : [
    {
      "bufferView" : 0,
      "componentType" : 5123,
      "count" : 1368,
      "type" : "SCALAR"
    },
    {
      "bufferView" : 1,
      "min" : [ -0.224239, -1.37307e-17, -0.224239 ],
      "max" : [ 0.224239, 0.479925, 0.224239 ],
      "componentType" : 5126,
      "count" : 1368,
      "type" : "VEC3"
    },
    {
      "bufferView" : 2,
      "componentType" : 5126,
      "count" : 1368,
      "type" : "VEC3"
    },
    {
      "bufferView" : 3,
      "componentType" : 5126,
      "count" : 1368,
      "type" : "VEC4"
    },
    {
      "bufferView" : 4,
      "componentType" : 5126,
      "count" : 1368,
      "type" : "VEC2"
    },
    {
      "bufferView" : 5,
      "componentType" : 5126,
      "count" : 1368,
      "type" : "VEC2"
    }
  ]
}
