{
  "asset" : {
    "generator" : "UE Viewer (umodel) build 1590",
    "version" : "2.0"
  },
  "scene" : 0,
  "scenes" : [
    {
      "nodes" : [ 0 ]
    }
  ],
  "nodes" : [
    {
      "name" : "SM_press_box_2",
      "mesh" : 0
    }
  ],
  "materials" : [
    {
      "name" : "dummy_material_0",
      "pbrMetallicRoughness" : {
        "baseColorFactor" : [ 0.3, 0.3, 0.3, 1.0 ],
        "metallicFactor" : 0.1,
        "roughnessFactor" : 0.5
      }
    }
  ],
  "meshes" : [
    {
      "primitives" : [
        {
          "attributes" : {
            "POSITION" : 1,
            "NORMAL" : 2,
            "TANGENT" : 3,
            "TEXCOORD_0" : 4,
            "TEXCOORD_1" : 5
          },
          "indices" : 0,
          "material" : 0
        }
      ],
      "name" : "SM_press_box_2"
    }
  ],
  "buffers" : [
    {
      "uri" : "SM_press_box_2.bin",
      "byteLength" : 85956
    }
  ],
  "bufferViews" : [
    {
      "buffer" : 0,
      "byteOffset" : 0,
      "byteLength" : 2964
    },
    {
      "buffer" : 0,
      "byteOffset" : 2964,
      "byteLength" : 17784
    },
    {
      "buffer" : 0,
      "byteOffset" : 20748,
      "byteLength" : 17784
    },
    {
      "buffer" : 0,
      "byteOffset" : 38532,
      "byteLength" : 23712
    },
    {
      "buffer" : 0,
      "byteOffset" : 62244,
      "byteLength" : 11856
    },
    {
      "buffer" : 0,
      "byteOffset" : 74100,
      "byteLength" : 11856
    }
  ],
  "accessors" : [
    {
      "bufferView" : 0,
      "componentType" : 5123,
      "count" : 1482,
      "type" : "SCALAR"
    },
    {
      "bufferView" : 1,
      "min" : [ -0.311842, -5.07035e-08, -0.377228 ],
      "max" : [ 0.311785, 1.41346, 0.377228 ],
      "componentType" : 5126,
      "count" : 1482,
      "type" : "VEC3"
    },
    {
      "bufferView" : 2,
      "componentType" : 5126,
      "count" : 1482,
      "type" : "VEC3"
    },
    {
      "bufferView" : 3,
      "componentType" : 5126,
      "count" : 1482,
      "type" : "VEC4"
    },
    {
      "bufferView" : 4,
      "componentType" : 5126,
      "count" : 1482,
      "type" : "VEC2"
    },
    {
      "bufferView" : 5,
      "componentType" : 5126,
      "count" : 1482,
      "type" : "VEC2"
    }
  ]
}
