{
  "asset" : {
    "generator" : "UE Viewer (umodel) build 1590",
    "version" : "2.0"
  },
  "scene" : 0,
  "scenes" : [
    {
      "nodes" : [ 0 ]
    }
  ],
  "nodes" : [
    {
      "name" : "SM_press_box_3a",
      "mesh" : 0
    }
  ],
  "materials" : [
    {
      "name" : "dummy_material_0",
      "pbrMetallicRoughness" : {
        "baseColorFactor" : [ 0.3, 0.3, 0.3, 1.0 ],
        "metallicFactor" : 0.1,
        "roughnessFactor" : 0.5
      }
    },
    {
      "name" : "dummy_material_1",
      "pbrMetallicRoughness" : {
        "baseColorFactor" : [ 0.9, 0.3, 0.3, 1.0 ],
        "metallicFactor" : 0.1,
        "roughnessFactor" : 0.5
      }
    },
    {
      "name" : "dummy_material_2",
      "pbrMetallicRoughness" : {
        "baseColorFactor" : [ 0.3, 0.9, 0.3, 1.0 ],
        "metallicFactor" : 0.1,
        "roughnessFactor" : 0.5
      }
    }
  ],
  "meshes" : [
    {
      "primitives" : [
        {
          "attributes" : {
            "POSITION" : 1,
            "NORMAL" : 2,
            "TANGENT" : 3,
            "TEXCOORD_0" : 4,
            "TEXCOORD_1" : 5
          },
          "indices" : 0,
          "material" : 0
        },
        {
          "attributes" : {
            "POSITION" : 7,
            "NORMAL" : 8,
            "TANGENT" : 9,
            "TEXCOORD_0" : 10,
            "TEXCOORD_1" : 11
          },
          "indices" : 6,
          "material" : 1
        },
        {
          "attributes" : {
            "POSITION" : 13,
            "NORMAL" : 14,
            "TANGENT" : 15,
            "TEXCOORD_0" : 16,
            "TEXCOORD_1" : 17
          },
          "indices" : 12,
          "material" : 2
        }
      ],
      "name" : "SM_press_box_3a"
    }
  ],
  "buffers" : [
    {
      "uri" : "SM_press_box_3a.bin",
      "byteLength" : 75864
    }
  ],
  "bufferViews" : [
    {
      "buffer" : 0,
      "byteOffset" : 0,
      "byteLength" : 1668
    },
    {
      "buffer" : 0,
      "byteOffset" : 1668,
      "byteLength" : 10008
    },
    {
      "buffer" : 0,
      "byteOffset" : 11676,
      "byteLength" : 10008
    },
    {
      "buffer" : 0,
      "byteOffset" : 21684,
      "byteLength" : 13344
    },
    {
      "buffer" : 0,
      "byteOffset" : 35028,
      "byteLength" : 6672
    },
    {
      "buffer" : 0,
      "byteOffset" : 41700,
      "byteLength" : 6672
    },
    {
      "buffer" : 0,
      "byteOffset" : 48372,
      "byteLength" : 12
    },
    {
      "buffer" : 0,
      "byteOffset" : 48384,
      "byteLength" : 72
    },
    {
      "buffer" : 0,
      "byteOffset" : 48456,
      "byteLength" : 72
    },
    {
      "buffer" : 0,
      "byteOffset" : 48528,
      "byteLength" : 96
    },
    {
      "buffer" : 0,
      "byteOffset" : 48624,
      "byteLength" : 48
    },
    {
      "buffer" : 0,
      "byteOffset" : 48672,
      "byteLength" : 48
    },
    {
      "buffer" : 0,
      "byteOffset" : 48720,
      "byteLength" : 936
    },
    {
      "buffer" : 0,
      "byteOffset" : 49656,
      "byteLength" : 5616
    },
    {
      "buffer" : 0,
      "byteOffset" : 55272,
      "byteLength" : 5616
    },
    {
      "buffer" : 0,
      "byteOffset" : 60888,
      "byteLength" : 7488
    },
    {
      "buffer" : 0,
      "byteOffset" : 68376,
      "byteLength" : 3744
    },
    {
      "buffer" : 0,
      "byteOffset" : 72120,
      "byteLength" : 3744
    }
  ],
  "accessors" : [
    {
      "bufferView" : 0,
      "componentType" : 5123,
      "count" : 834,
      "type" : "SCALAR"
    },
    {
      "bufferView" : 1,
      "min" : [ -0.328261, 0.000134488, -0.345396 ],
      "max" : [ 0.328261, 1.41276, 0.345378 ],
      "componentType" : 5126,
      "count" : 834,
      "type" : "VEC3"
    },
    {
      "bufferView" : 2,
      "componentType" : 5126,
      "count" : 834,
      "type" : "VEC3"
    },
    {
      "bufferView" : 3,
      "componentType" : 5126,
      "count" : 834,
      "type" : "VEC4"
    },
    {
      "bufferView" : 4,
      "componentType" : 5126,
      "count" : 834,
      "type" : "VEC2"
    },
    {
      "bufferView" : 5,
      "componentType" : 5126,
      "count" : 834,
      "type" : "VEC2"
    },
    {
      "bufferView" : 6,
      "componentType" : 5123,
      "count" : 6,
      "type" : "SCALAR"
    },
    {
      "bufferView" : 7,
      "min" : [ 0.261108, 0.841612, -0.22459 ],
      "max" : [ 0.261108, 1.28726, 0.224698 ],
      "componentType" : 5126,
      "count" : 6,
      "type" : "VEC3"
    },
    {
      "bufferView" : 8,
      "componentType" : 5126,
      "count" : 6,
      "type" : "VEC3"
    },
    {
      "bufferView" : 9,
      "componentType" : 5126,
      "count" : 6,
      "type" : "VEC4"
    },
    {
      "bufferView" : 10,
      "componentType" : 5126,
      "count" : 6,
      "type" : "VEC2"
    },
    {
      "bufferView" : 11,
      "componentType" : 5126,
      "count" : 6,
      "type" : "VEC2"
    },
    {
      "bufferView" : 12,
      "componentType" : 5123,
      "count" : 468,
      "type" : "SCALAR"
    },
    {
      "bufferView" : 13,
      "min" : [ -0.328261, 0.000134488, -0.345376 ],
      "max" : [ 0.328261, 1.37994, 0.345395 ],
      "componentType" : 5126,
      "count" : 468,
      "type" : "VEC3"
    },
    {
      "bufferView" : 14,
      "componentType" : 5126,
      "count" : 468,
      "type" : "VEC3"
    },
    {
      "bufferView" : 15,
      "componentType" : 5126,
      "count" : 468,
      "type" : "VEC4"
    },
    {
      "bufferView" : 16,
      "componentType" : 5126,
      "count" : 468,
      "type" : "VEC2"
    },
    {
      "bufferView" : 17,
      "componentType" : 5126,
      "count" : 468,
      "type" : "VEC2"
    }
  ]
}
