{
  "asset" : {
    "generator" : "UE Viewer (umodel) build 1590",
    "version" : "2.0"
  },
  "scene" : 0,
  "scenes" : [
    {
      "nodes" : [ 0 ]
    }
  ],
  "nodes" : [
    {
      "name" : "SM_painting_roll",
      "mesh" : 0
    }
  ],
  "materials" : [
    {
      "name" : "dummy_material_0",
      "pbrMetallicRoughness" : {
        "baseColorFactor" : [ 0.3, 0.3, 0.3, 1.0 ],
        "metallicFactor" : 0.1,
        "roughnessFactor" : 0.5
      }
    }
  ],
  "meshes" : [
    {
      "primitives" : [
        {
          "attributes" : {
            "POSITION" : 1,
            "NORMAL" : 2,
            "TANGENT" : 3,
            "TEXCOORD_0" : 4,
            "TEXCOORD_1" : 5
          },
          "indices" : 0,
          "material" : 0
        }
      ],
      "name" : "SM_painting_roll"
    }
  ],
  "buffers" : [
    {
      "uri" : "SM_painting_roll.bin",
      "byteLength" : 31320
    }
  ],
  "bufferViews" : [
    {
      "buffer" : 0,
      "byteOffset" : 0,
      "byteLength" : 1080
    },
    {
      "buffer" : 0,
      "byteOffset" : 1080,
      "byteLength" : 6480
    },
    {
      "buffer" : 0,
      "byteOffset" : 7560,
      "byteLength" : 6480
    },
    {
      "buffer" : 0,
      "byteOffset" : 14040,
      "byteLength" : 8640
    },
    {
      "buffer" : 0,
      "byteOffset" : 22680,
      "byteLength" : 4320
    },
    {
      "buffer" : 0,
      "byteOffset" : 27000,
      "byteLength" : 4320
    }
  ],
  "accessors" : [
    {
      "bufferView" : 0,
      "componentType" : 5123,
      "count" : 540,
      "type" : "SCALAR"
    },
    {
      "bufferView" : 1,
      "min" : [ -1.16894e-08, -0.0621382, -0.23036 ],
      "max" : [ 0.572021, 0.0601442, 0.205792 ],
      "componentType" : 5126,
      "count" : 540,
      "type" : "VEC3"
    },
    {
      "bufferView" : 2,
      "componentType" : 5126,
      "count" : 540,
      "type" : "VEC3"
    },
    {
      "bufferView" : 3,
      "componentType" : 5126,
      "count" : 540,
      "type" : "VEC4"
    },
    {
      "bufferView" : 4,
      "componentType" : 5126,
      "count" : 540,
      "type" : "VEC2"
    },
    {
      "bufferView" : 5,
      "componentType" : 5126,
      "count" : 540,
      "type" : "VEC2"
    }
  ]
}
