{
  "asset" : {
    "generator" : "UE Viewer (umodel) build 1590",
    "version" : "2.0"
  },
  "scene" : 0,
  "scenes" : [
    {
      "nodes" : [ 0 ]
    }
  ],
  "nodes" : [
    {
      "name" : "SM_road_sign_1",
      "mesh" : 0
    }
  ],
  "materials" : [
    {
      "name" : "dummy_material_0",
      "pbrMetallicRoughness" : {
        "baseColorFactor" : [ 0.3, 0.3, 0.3, 1.0 ],
        "metallicFactor" : 0.1,
        "roughnessFactor" : 0.5
      }
    }
  ],
  "meshes" : [
    {
      "primitives" : [
        {
          "attributes" : {
            "POSITION" : 1,
            "NORMAL" : 2,
            "TANGENT" : 3,
            "TEXCOORD_0" : 4,
            "TEXCOORD_1" : 5
          },
          "indices" : 0,
          "material" : 0
        }
      ],
      "name" : "SM_road_sign_1"
    }
  ],
  "buffers" : [
    {
      "uri" : "SM_road_sign_1.bin",
      "byteLength" : 44892
    }
  ],
  "bufferViews" : [
    {
      "buffer" : 0,
      "byteOffset" : 0,
      "byteLength" : 1548
    },
    {
      "buffer" : 0,
      "byteOffset" : 1548,
      "byteLength" : 9288
    },
    {
      "buffer" : 0,
      "byteOffset" : 10836,
      "byteLength" : 9288
    },
    {
      "buffer" : 0,
      "byteOffset" : 20124,
      "byteLength" : 12384
    },
    {
      "buffer" : 0,
      "byteOffset" : 32508,
      "byteLength" : 6192
    },
    {
      "buffer" : 0,
      "byteOffset" : 38700,
      "byteLength" : 6192
    }
  ],
  "accessors" : [
    {
      "bufferView" : 0,
      "componentType" : 5123,
      "count" : 774,
      "type" : "SCALAR"
    },
    {
      "bufferView" : 1,
      "min" : [ -0.0420078, -2.57223e-18, -0.406806 ],
      "max" : [ 0.0676755, 2.51927, 0.406806 ],
      "componentType" : 5126,
      "count" : 774,
      "type" : "VEC3"
    },
    {
      "bufferView" : 2,
      "componentType" : 5126,
      "count" : 774,
      "type" : "VEC3"
    },
    {
      "bufferView" : 3,
      "componentType" : 5126,
      "count" : 774,
      "type" : "VEC4"
    },
    {
      "bufferView" : 4,
      "componentType" : 5126,
      "count" : 774,
      "type" : "VEC2"
    },
    {
      "bufferView" : 5,
      "componentType" : 5126,
      "count" : 774,
      "type" : "VEC2"
    }
  ]
}
