{
  "asset" : {
    "generator" : "UE Viewer (umodel) build 1590",
    "version" : "2.0"
  },
  "scene" : 0,
  "scenes" : [
    {
      "nodes" : [ 0 ]
    }
  ],
  "nodes" : [
    {
      "name" : "SM_rolledBars_01",
      "mesh" : 0
    }
  ],
  "materials" : [
    {
      "name" : "dummy_material_0",
      "pbrMetallicRoughness" : {
        "baseColorFactor" : [ 0.3, 0.3, 0.3, 1.0 ],
        "metallicFactor" : 0.1,
        "roughnessFactor" : 0.5
      }
    }
  ],
  "meshes" : [
    {
      "primitives" : [
        {
          "attributes" : {
            "POSITION" : 1,
            "NORMAL" : 2,
            "TANGENT" : 3,
            "TEXCOORD_0" : 4
          },
          "indices" : 0,
          "material" : 0
        }
      ],
      "name" : "SM_rolledBars_01"
    }
  ],
  "buffers" : [
    {
      "uri" : "SM_rolledBars_01.bin",
      "byteLength" : 180000
    }
  ],
  "bufferViews" : [
    {
      "buffer" : 0,
      "byteOffset" : 0,
      "byteLength" : 7200
    },
    {
      "buffer" : 0,
      "byteOffset" : 7200,
      "byteLength" : 43200
    },
    {
      "buffer" : 0,
      "byteOffset" : 50400,
      "byteLength" : 43200
    },
    {
      "buffer" : 0,
      "byteOffset" : 93600,
      "byteLength" : 57600
    },
    {
      "buffer" : 0,
      "byteOffset" : 151200,
      "byteLength" : 28800
    }
  ],
  "accessors" : [
    {
      "bufferView" : 0,
      "componentType" : 5123,
      "count" : 3600,
      "type" : "SCALAR"
    },
    {
      "bufferView" : 1,
      "min" : [ 0.131536, 0.55, -0.920434 ],
      "max" : [ 0.174421, 2.7, 0.92043 ],
      "componentType" : 5126,
      "count" : 3600,
      "type" : "VEC3"
    },
    {
      "bufferView" : 2,
      "componentType" : 5126,
      "count" : 3600,
      "type" : "VEC3"
    },
    {
      "bufferView" : 3,
      "componentType" : 5126,
      "count" : 3600,
      "type" : "VEC4"
    },
    {
      "bufferView" : 4,
      "componentType" : 5126,
      "count" : 3600,
      "type" : "VEC2"
    }
  ]
}
