{
  "asset" : {
    "generator" : "UE Viewer (umodel) build 1590",
    "version" : "2.0"
  },
  "scene" : 0,
  "scenes" : [
    {
      "nodes" : [ 0 ]
    }
  ],
  "nodes" : [
    {
      "name" : "SM_road_sign_3",
      "mesh" : 0
    }
  ],
  "materials" : [
    {
      "name" : "dummy_material_0",
      "pbrMetallicRoughness" : {
        "baseColorFactor" : [ 0.3, 0.3, 0.3, 1.0 ],
        "metallicFactor" : 0.1,
        "roughnessFactor" : 0.5
      }
    }
  ],
  "meshes" : [
    {
      "primitives" : [
        {
          "attributes" : {
            "POSITION" : 1,
            "NORMAL" : 2,
            "TANGENT" : 3,
            "TEXCOORD_0" : 4,
            "TEXCOORD_1" : 5
          },
          "indices" : 0,
          "material" : 0
        }
      ],
      "name" : "SM_road_sign_3"
    }
  ],
  "buffers" : [
    {
      "uri" : "SM_road_sign_3.bin",
      "byteLength" : 41588
    }
  ],
  "bufferViews" : [
    {
      "buffer" : 0,
      "byteOffset" : 0,
      "byteLength" : 1436
    },
    {
      "buffer" : 0,
      "byteOffset" : 1436,
      "byteLength" : 8604
    },
    {
      "buffer" : 0,
      "byteOffset" : 10040,
      "byteLength" : 8604
    },
    {
      "buffer" : 0,
      "byteOffset" : 18644,
      "byteLength" : 11472
    },
    {
      "buffer" : 0,
      "byteOffset" : 30116,
      "byteLength" : 5736
    },
    {
      "buffer" : 0,
      "byteOffset" : 35852,
      "byteLength" : 5736
    }
  ],
  "accessors" : [
    {
      "bufferView" : 0,
      "componentType" : 5123,
      "count" : 717,
      "type" : "SCALAR"
    },
    {
      "bufferView" : 1,
      "min" : [ -0.0409374, -1.44303e-18, -0.373223 ],
      "max" : [ 0.046264, 2.0465, 0.360988 ],
      "componentType" : 5126,
      "count" : 717,
      "type" : "VEC3"
    },
    {
      "bufferView" : 2,
      "componentType" : 5126,
      "count" : 717,
      "type" : "VEC3"
    },
    {
      "bufferView" : 3,
      "componentType" : 5126,
      "count" : 717,
      "type" : "VEC4"
    },
    {
      "bufferView" : 4,
      "componentType" : 5126,
      "count" : 717,
      "type" : "VEC2"
    },
    {
      "bufferView" : 5,
      "componentType" : 5126,
      "count" : 717,
      "type" : "VEC2"
    }
  ]
}
