{
  "asset" : {
    "generator" : "UE Viewer (umodel) build 1590",
    "version" : "2.0"
  },
  "scene" : 0,
  "scenes" : [
    {
      "nodes" : [ 0 ]
    }
  ],
  "nodes" : [
    {
      "name" : "SM_road_sign_5",
      "mesh" : 0
    }
  ],
  "materials" : [
    {
      "name" : "dummy_material_0",
      "pbrMetallicRoughness" : {
        "baseColorFactor" : [ 0.3, 0.3, 0.3, 1.0 ],
        "metallicFactor" : 0.1,
        "roughnessFactor" : 0.5
      }
    }
  ],
  "meshes" : [
    {
      "primitives" : [
        {
          "attributes" : {
            "POSITION" : 1,
            "NORMAL" : 2,
            "TANGENT" : 3,
            "TEXCOORD_0" : 4,
            "TEXCOORD_1" : 5
          },
          "indices" : 0,
          "material" : 0
        }
      ],
      "name" : "SM_road_sign_5"
    }
  ],
  "buffers" : [
    {
      "uri" : "SM_road_sign_5.bin",
      "byteLength" : 45068
    }
  ],
  "bufferViews" : [
    {
      "buffer" : 0,
      "byteOffset" : 0,
      "byteLength" : 1556
    },
    {
      "buffer" : 0,
      "byteOffset" : 1556,
      "byteLength" : 9324
    },
    {
      "buffer" : 0,
      "byteOffset" : 10880,
      "byteLength" : 9324
    },
    {
      "buffer" : 0,
      "byteOffset" : 20204,
      "byteLength" : 12432
    },
    {
      "buffer" : 0,
      "byteOffset" : 32636,
      "byteLength" : 6216
    },
    {
      "buffer" : 0,
      "byteOffset" : 38852,
      "byteLength" : 6216
    }
  ],
  "accessors" : [
    {
      "bufferView" : 0,
      "componentType" : 5123,
      "count" : 777,
      "type" : "SCALAR"
    },
    {
      "bufferView" : 1,
      "min" : [ -0.0409374, -1.44303e-18, -0.356178 ],
      "max" : [ 0.0383984, 2.0465, 0.356178 ],
      "componentType" : 5126,
      "count" : 777,
      "type" : "VEC3"
    },
    {
      "bufferView" : 2,
      "componentType" : 5126,
      "count" : 777,
      "type" : "VEC3"
    },
    {
      "bufferView" : 3,
      "componentType" : 5126,
      "count" : 777,
      "type" : "VEC4"
    },
    {
      "bufferView" : 4,
      "componentType" : 5126,
      "count" : 777,
      "type" : "VEC2"
    },
    {
      "bufferView" : 5,
      "componentType" : 5126,
      "count" : 777,
      "type" : "VEC2"
    }
  ]
}
