{
  "asset" : {
    "generator" : "UE Viewer (umodel) build 1590",
    "version" : "2.0"
  },
  "scene" : 0,
  "scenes" : [
    {
      "nodes" : [ 0 ]
    }
  ],
  "nodes" : [
    {
      "name" : "SM_sewerCover",
      "mesh" : 0
    }
  ],
  "materials" : [
    {
      "name" : "dummy_material_0",
      "pbrMetallicRoughness" : {
        "baseColorFactor" : [ 0.3, 0.3, 0.3, 1.0 ],
        "metallicFactor" : 0.1,
        "roughnessFactor" : 0.5
      }
    }
  ],
  "meshes" : [
    {
      "primitives" : [
        {
          "attributes" : {
            "POSITION" : 1,
            "NORMAL" : 2,
            "TANGENT" : 3,
            "TEXCOORD_0" : 4,
            "TEXCOORD_1" : 5
          },
          "indices" : 0,
          "material" : 0
        }
      ],
      "name" : "SM_sewerCover"
    }
  ],
  "buffers" : [
    {
      "uri" : "SM_sewerCover.bin",
      "byteLength" : 50808
    }
  ],
  "bufferViews" : [
    {
      "buffer" : 0,
      "byteOffset" : 0,
      "byteLength" : 1752
    },
    {
      "buffer" : 0,
      "byteOffset" : 1752,
      "byteLength" : 10512
    },
    {
      "buffer" : 0,
      "byteOffset" : 12264,
      "byteLength" : 10512
    },
    {
      "buffer" : 0,
      "byteOffset" : 22776,
      "byteLength" : 14016
    },
    {
      "buffer" : 0,
      "byteOffset" : 36792,
      "byteLength" : 7008
    },
    {
      "buffer" : 0,
      "byteOffset" : 43800,
      "byteLength" : 7008
    }
  ],
  "accessors" : [
    {
      "bufferView" : 0,
      "componentType" : 5123,
      "count" : 876,
      "type" : "SCALAR"
    },
    {
      "bufferView" : 1,
      "min" : [ -0.59885, -3.6669e-17, -0.59885 ],
      "max" : [ 0.59885, 0.0247769, 0.59885 ],
      "componentType" : 5126,
      "count" : 876,
      "type" : "VEC3"
    },
    {
      "bufferView" : 2,
      "componentType" : 5126,
      "count" : 876,
      "type" : "VEC3"
    },
    {
      "bufferView" : 3,
      "componentType" : 5126,
      "count" : 876,
      "type" : "VEC4"
    },
    {
      "bufferView" : 4,
      "componentType" : 5126,
      "count" : 876,
      "type" : "VEC2"
    },
    {
      "bufferView" : 5,
      "componentType" : 5126,
      "count" : 876,
      "type" : "VEC2"
    }
  ]
}
