{
  "asset" : {
    "generator" : "UE Viewer (umodel) build 1590",
    "version" : "2.0"
  },
  "scene" : 0,
  "scenes" : [
    {
      "nodes" : [ 0 ]
    }
  ],
  "nodes" : [
    {
      "name" : "SM_spray_Can",
      "mesh" : 0
    }
  ],
  "materials" : [
    {
      "name" : "dummy_material_0",
      "pbrMetallicRoughness" : {
        "baseColorFactor" : [ 0.3, 0.3, 0.3, 1.0 ],
        "metallicFactor" : 0.1,
        "roughnessFactor" : 0.5
      }
    }
  ],
  "meshes" : [
    {
      "primitives" : [
        {
          "attributes" : {
            "POSITION" : 1,
            "NORMAL" : 2,
            "TANGENT" : 3,
            "TEXCOORD_0" : 4,
            "TEXCOORD_1" : 5
          },
          "indices" : 0,
          "material" : 0
        }
      ],
      "name" : "SM_spray_Can"
    }
  ],
  "buffers" : [
    {
      "uri" : "SM_spray_Can.bin",
      "byteLength" : 45240
    }
  ],
  "bufferViews" : [
    {
      "buffer" : 0,
      "byteOffset" : 0,
      "byteLength" : 1560
    },
    {
      "buffer" : 0,
      "byteOffset" : 1560,
      "byteLength" : 9360
    },
    {
      "buffer" : 0,
      "byteOffset" : 10920,
      "byteLength" : 9360
    },
    {
      "buffer" : 0,
      "byteOffset" : 20280,
      "byteLength" : 12480
    },
    {
      "buffer" : 0,
      "byteOffset" : 32760,
      "byteLength" : 6240
    },
    {
      "buffer" : 0,
      "byteOffset" : 39000,
      "byteLength" : 6240
    }
  ],
  "accessors" : [
    {
      "bufferView" : 0,
      "componentType" : 5123,
      "count" : 780,
      "type" : "SCALAR"
    },
    {
      "bufferView" : 1,
      "min" : [ -0.0772206, -0.0127322, -0.0772207 ],
      "max" : [ 0.0772206, 0.31681, 0.0772207 ],
      "componentType" : 5126,
      "count" : 780,
      "type" : "VEC3"
    },
    {
      "bufferView" : 2,
      "componentType" : 5126,
      "count" : 780,
      "type" : "VEC3"
    },
    {
      "bufferView" : 3,
      "componentType" : 5126,
      "count" : 780,
      "type" : "VEC4"
    },
    {
      "bufferView" : 4,
      "componentType" : 5126,
      "count" : 780,
      "type" : "VEC2"
    },
    {
      "bufferView" : 5,
      "componentType" : 5126,
      "count" : 780,
      "type" : "VEC2"
    }
  ]
}
