{
  "asset" : {
    "generator" : "UE Viewer (umodel) build 1590",
    "version" : "2.0"
  },
  "scene" : 0,
  "scenes" : [
    {
      "nodes" : [ 0 ]
    }
  ],
  "nodes" : [
    {
      "name" : "SM_trash_bin_bigOpen",
      "mesh" : 0
    }
  ],
  "materials" : [
    {
      "name" : "dummy_material_0",
      "pbrMetallicRoughness" : {
        "baseColorFactor" : [ 0.3, 0.3, 0.3, 1.0 ],
        "metallicFactor" : 0.1,
        "roughnessFactor" : 0.5
      }
    }
  ],
  "meshes" : [
    {
      "primitives" : [
        {
          "attributes" : {
            "POSITION" : 1,
            "NORMAL" : 2,
            "TANGENT" : 3,
            "TEXCOORD_0" : 4,
            "TEXCOORD_1" : 5
          },
          "indices" : 0,
          "material" : 0
        }
      ],
      "name" : "SM_trash_bin_bigOpen"
    }
  ],
  "buffers" : [
    {
      "uri" : "SM_trash_bin_bigOpen.bin",
      "byteLength" : 385584
    }
  ],
  "bufferViews" : [
    {
      "buffer" : 0,
      "byteOffset" : 0,
      "byteLength" : 13296
    },
    {
      "buffer" : 0,
      "byteOffset" : 13296,
      "byteLength" : 79776
    },
    {
      "buffer" : 0,
      "byteOffset" : 93072,
      "byteLength" : 79776
    },
    {
      "buffer" : 0,
      "byteOffset" : 172848,
      "byteLength" : 106368
    },
    {
      "buffer" : 0,
      "byteOffset" : 279216,
      "byteLength" : 53184
    },
    {
      "buffer" : 0,
      "byteOffset" : 332400,
      "byteLength" : 53184
    }
  ],
  "accessors" : [
    {
      "bufferView" : 0,
      "componentType" : 5123,
      "count" : 6648,
      "type" : "SCALAR"
    },
    {
      "bufferView" : 1,
      "min" : [ -1.26697, 0.000352427, -1.18273 ],
      "max" : [ 0.851585, 1.86164, 1.18273 ],
      "componentType" : 5126,
      "count" : 6648,
      "type" : "VEC3"
    },
    {
      "bufferView" : 2,
      "componentType" : 5126,
      "count" : 6648,
      "type" : "VEC3"
    },
    {
      "bufferView" : 3,
      "componentType" : 5126,
      "count" : 6648,
      "type" : "VEC4"
    },
    {
      "bufferView" : 4,
      "componentType" : 5126,
      "count" : 6648,
      "type" : "VEC2"
    },
    {
      "bufferView" : 5,
      "componentType" : 5126,
      "count" : 6648,
      "type" : "VEC2"
    }
  ]
}
