{
  "asset" : {
    "generator" : "UE Viewer (umodel) build 1590",
    "version" : "2.0"
  },
  "scene" : 0,
  "scenes" : [
    {
      "nodes" : [ 0 ]
    }
  ],
  "nodes" : [
    {
      "name" : "SM_TireSet_01",
      "mesh" : 0
    }
  ],
  "materials" : [
    {
      "name" : "dummy_material_0",
      "pbrMetallicRoughness" : {
        "baseColorFactor" : [ 0.3, 0.3, 0.3, 1.0 ],
        "metallicFactor" : 0.1,
        "roughnessFactor" : 0.5
      }
    }
  ],
  "meshes" : [
    {
      "primitives" : [
        {
          "attributes" : {
            "POSITION" : 1,
            "NORMAL" : 2,
            "TANGENT" : 3,
            "TEXCOORD_0" : 4
          },
          "indices" : 0,
          "material" : 0
        }
      ],
      "name" : "SM_TireSet_01"
    }
  ],
  "buffers" : [
    {
      "uri" : "SM_TireSet_01.bin",
      "byteLength" : 340200
    }
  ],
  "bufferViews" : [
    {
      "buffer" : 0,
      "byteOffset" : 0,
      "byteLength" : 13608
    },
    {
      "buffer" : 0,
      "byteOffset" : 13608,
      "byteLength" : 81648
    },
    {
      "buffer" : 0,
      "byteOffset" : 95256,
      "byteLength" : 81648
    },
    {
      "buffer" : 0,
      "byteOffset" : 176904,
      "byteLength" : 108864
    },
    {
      "buffer" : 0,
      "byteOffset" : 285768,
      "byteLength" : 54432
    }
  ],
  "accessors" : [
    {
      "bufferView" : 0,
      "componentType" : 5123,
      "count" : 6804,
      "type" : "SCALAR"
    },
    {
      "bufferView" : 1,
      "min" : [ -0.388692, -0.0187031, -0.993862 ],
      "max" : [ 0.931161, 1.76175, 1.14492 ],
      "componentType" : 5126,
      "count" : 6804,
      "type" : "VEC3"
    },
    {
      "bufferView" : 2,
      "componentType" : 5126,
      "count" : 6804,
      "type" : "VEC3"
    },
    {
      "bufferView" : 3,
      "componentType" : 5126,
      "count" : 6804,
      "type" : "VEC4"
    },
    {
      "bufferView" : 4,
      "componentType" : 5126,
      "count" : 6804,
      "type" : "VEC2"
    }
  ]
}
