{
  "asset" : {
    "generator" : "UE Viewer (umodel) build 1590",
    "version" : "2.0"
  },
  "scene" : 0,
  "scenes" : [
    {
      "nodes" : [ 0 ]
    }
  ],
  "nodes" : [
    {
      "name" : "SM_trash_bag",
      "mesh" : 0
    }
  ],
  "materials" : [
    {
      "name" : "dummy_material_0",
      "pbrMetallicRoughness" : {
        "baseColorFactor" : [ 0.3, 0.3, 0.3, 1.0 ],
        "metallicFactor" : 0.1,
        "roughnessFactor" : 0.5
      }
    }
  ],
  "meshes" : [
    {
      "primitives" : [
        {
          "attributes" : {
            "POSITION" : 1,
            "NORMAL" : 2,
            "TANGENT" : 3,
            "TEXCOORD_0" : 4,
            "TEXCOORD_1" : 5
          },
          "indices" : 0,
          "material" : 0
        }
      ],
      "name" : "SM_trash_bag"
    }
  ],
  "buffers" : [
    {
      "uri" : "SM_trash_bag.bin",
      "byteLength" : 66468
    }
  ],
  "bufferViews" : [
    {
      "buffer" : 0,
      "byteOffset" : 0,
      "byteLength" : 2292
    },
    {
      "buffer" : 0,
      "byteOffset" : 2292,
      "byteLength" : 13752
    },
    {
      "buffer" : 0,
      "byteOffset" : 16044,
      "byteLength" : 13752
    },
    {
      "buffer" : 0,
      "byteOffset" : 29796,
      "byteLength" : 18336
    },
    {
      "buffer" : 0,
      "byteOffset" : 48132,
      "byteLength" : 9168
    },
    {
      "buffer" : 0,
      "byteOffset" : 57300,
      "byteLength" : 9168
    }
  ],
  "accessors" : [
    {
      "bufferView" : 0,
      "componentType" : 5123,
      "count" : 1146,
      "type" : "SCALAR"
    },
    {
      "bufferView" : 1,
      "min" : [ -0.404088, -0.0063811, -0.420281 ],
      "max" : [ 0.404371, 0.785938, 0.409582 ],
      "componentType" : 5126,
      "count" : 1146,
      "type" : "VEC3"
    },
    {
      "bufferView" : 2,
      "componentType" : 5126,
      "count" : 1146,
      "type" : "VEC3"
    },
    {
      "bufferView" : 3,
      "componentType" : 5126,
      "count" : 1146,
      "type" : "VEC4"
    },
    {
      "bufferView" : 4,
      "componentType" : 5126,
      "count" : 1146,
      "type" : "VEC2"
    },
    {
      "bufferView" : 5,
      "componentType" : 5126,
      "count" : 1146,
      "type" : "VEC2"
    }
  ]
}
