{
  "asset" : {
    "generator" : "UE Viewer (umodel) build 1590",
    "version" : "2.0"
  },
  "scene" : 0,
  "scenes" : [
    {
      "nodes" : [ 0 ]
    }
  ],
  "nodes" : [
    {
      "name" : "SM_traffic_lights_2",
      "mesh" : 0
    }
  ],
  "materials" : [
    {
      "name" : "dummy_material_0",
      "pbrMetallicRoughness" : {
        "baseColorFactor" : [ 0.3, 0.3, 0.3, 1.0 ],
        "metallicFactor" : 0.1,
        "roughnessFactor" : 0.5
      }
    }
  ],
  "meshes" : [
    {
      "primitives" : [
        {
          "attributes" : {
            "POSITION" : 1,
            "NORMAL" : 2,
            "TANGENT" : 3,
            "TEXCOORD_0" : 4,
            "TEXCOORD_1" : 5
          },
          "indices" : 0,
          "material" : 0
        }
      ],
      "name" : "SM_traffic_lights_2"
    }
  ],
  "buffers" : [
    {
      "uri" : "SM_traffic_lights_2.bin",
      "byteLength" : 133112
    }
  ],
  "bufferViews" : [
    {
      "buffer" : 0,
      "byteOffset" : 0,
      "byteLength" : 4592
    },
    {
      "buffer" : 0,
      "byteOffset" : 4592,
      "byteLength" : 27540
    },
    {
      "buffer" : 0,
      "byteOffset" : 32132,
      "byteLength" : 27540
    },
    {
      "buffer" : 0,
      "byteOffset" : 59672,
      "byteLength" : 36720
    },
    {
      "buffer" : 0,
      "byteOffset" : 96392,
      "byteLength" : 18360
    },
    {
      "buffer" : 0,
      "byteOffset" : 114752,
      "byteLength" : 18360
    }
  ],
  "accessors" : [
    {
      "bufferView" : 0,
      "componentType" : 5123,
      "count" : 2295,
      "type" : "SCALAR"
    },
    {
      "bufferView" : 1,
      "min" : [ -0.312965, -2.34892e-08, -0.311124 ],
      "max" : [ 0.312054, 3.90297, 0.564734 ],
      "componentType" : 5126,
      "count" : 2295,
      "type" : "VEC3"
    },
    {
      "bufferView" : 2,
      "componentType" : 5126,
      "count" : 2295,
      "type" : "VEC3"
    },
    {
      "bufferView" : 3,
      "componentType" : 5126,
      "count" : 2295,
      "type" : "VEC4"
    },
    {
      "bufferView" : 4,
      "componentType" : 5126,
      "count" : 2295,
      "type" : "VEC2"
    },
    {
      "bufferView" : 5,
      "componentType" : 5126,
      "count" : 2295,
      "type" : "VEC2"
    }
  ]
}
