{
  "asset" : {
    "generator" : "UE Viewer (umodel) build 1590",
    "version" : "2.0"
  },
  "scene" : 0,
  "scenes" : [
    {
      "nodes" : [ 0 ]
    }
  ],
  "nodes" : [
    {
      "name" : "SM_trash_bin_1a",
      "mesh" : 0
    }
  ],
  "materials" : [
    {
      "name" : "dummy_material_0",
      "pbrMetallicRoughness" : {
        "baseColorFactor" : [ 0.3, 0.3, 0.3, 1.0 ],
        "metallicFactor" : 0.1,
        "roughnessFactor" : 0.5
      }
    }
  ],
  "meshes" : [
    {
      "primitives" : [
        {
          "attributes" : {
            "POSITION" : 1,
            "NORMAL" : 2,
            "TANGENT" : 3,
            "TEXCOORD_0" : 4,
            "TEXCOORD_1" : 5
          },
          "indices" : 0,
          "material" : 0
        }
      ],
      "name" : "SM_trash_bin_1a"
    }
  ],
  "buffers" : [
    {
      "uri" : "SM_trash_bin_1a.bin",
      "byteLength" : 137112
    }
  ],
  "bufferViews" : [
    {
      "buffer" : 0,
      "byteOffset" : 0,
      "byteLength" : 4728
    },
    {
      "buffer" : 0,
      "byteOffset" : 4728,
      "byteLength" : 28368
    },
    {
      "buffer" : 0,
      "byteOffset" : 33096,
      "byteLength" : 28368
    },
    {
      "buffer" : 0,
      "byteOffset" : 61464,
      "byteLength" : 37824
    },
    {
      "buffer" : 0,
      "byteOffset" : 99288,
      "byteLength" : 18912
    },
    {
      "buffer" : 0,
      "byteOffset" : 118200,
      "byteLength" : 18912
    }
  ],
  "accessors" : [
    {
      "bufferView" : 0,
      "componentType" : 5123,
      "count" : 2364,
      "type" : "SCALAR"
    },
    {
      "bufferView" : 1,
      "min" : [ -0.533558, -0.000291417, -0.502789 ],
      "max" : [ 0.47049, 1.24129, 0.437283 ],
      "componentType" : 5126,
      "count" : 2364,
      "type" : "VEC3"
    },
    {
      "bufferView" : 2,
      "componentType" : 5126,
      "count" : 2364,
      "type" : "VEC3"
    },
    {
      "bufferView" : 3,
      "componentType" : 5126,
      "count" : 2364,
      "type" : "VEC4"
    },
    {
      "bufferView" : 4,
      "componentType" : 5126,
      "count" : 2364,
      "type" : "VEC2"
    },
    {
      "bufferView" : 5,
      "componentType" : 5126,
      "count" : 2364,
      "type" : "VEC2"
    }
  ]
}
