{
  "asset" : {
    "generator" : "UE Viewer (umodel) build 1590",
    "version" : "2.0"
  },
  "scene" : 0,
  "scenes" : [
    {
      "nodes" : [ 0 ]
    }
  ],
  "nodes" : [
    {
      "name" : "SM_utility_pole_5",
      "mesh" : 0
    }
  ],
  "materials" : [
    {
      "name" : "dummy_material_0",
      "pbrMetallicRoughness" : {
        "baseColorFactor" : [ 0.3, 0.3, 0.3, 1.0 ],
        "metallicFactor" : 0.1,
        "roughnessFactor" : 0.5
      }
    }
  ],
  "meshes" : [
    {
      "primitives" : [
        {
          "attributes" : {
            "POSITION" : 1,
            "NORMAL" : 2,
            "TANGENT" : 3,
            "TEXCOORD_0" : 4
          },
          "indices" : 0,
          "material" : 0
        }
      ],
      "name" : "SM_utility_pole_5"
    }
  ],
  "buffers" : [
    {
      "uri" : "SM_utility_pole_5.bin",
      "byteLength" : 6000
    }
  ],
  "bufferViews" : [
    {
      "buffer" : 0,
      "byteOffset" : 0,
      "byteLength" : 240
    },
    {
      "buffer" : 0,
      "byteOffset" : 240,
      "byteLength" : 1440
    },
    {
      "buffer" : 0,
      "byteOffset" : 1680,
      "byteLength" : 1440
    },
    {
      "buffer" : 0,
      "byteOffset" : 3120,
      "byteLength" : 1920
    },
    {
      "buffer" : 0,
      "byteOffset" : 5040,
      "byteLength" : 960
    }
  ],
  "accessors" : [
    {
      "bufferView" : 0,
      "componentType" : 5123,
      "count" : 120,
      "type" : "SCALAR"
    },
    {
      "bufferView" : 1,
      "min" : [ -0.125547, 2.28882e-07, -0.108727 ],
      "max" : [ 0.125547, 8, 0.108727 ],
      "componentType" : 5126,
      "count" : 120,
      "type" : "VEC3"
    },
    {
      "bufferView" : 2,
      "componentType" : 5126,
      "count" : 120,
      "type" : "VEC3"
    },
    {
      "bufferView" : 3,
      "componentType" : 5126,
      "count" : 120,
      "type" : "VEC4"
    },
    {
      "bufferView" : 4,
      "componentType" : 5126,
      "count" : 120,
      "type" : "VEC2"
    }
  ]
}
