{
  "asset" : {
    "generator" : "UE Viewer (umodel) build 1590",
    "version" : "2.0"
  },
  "scene" : 0,
  "scenes" : [
    {
      "nodes" : [ 0 ]
    }
  ],
  "nodes" : [
    {
      "name" : "SM_utility_pole_5_line1",
      "mesh" : 0
    }
  ],
  "materials" : [
    {
      "name" : "dummy_material_0",
      "pbrMetallicRoughness" : {
        "baseColorFactor" : [ 0.3, 0.3, 0.3, 1.0 ],
        "metallicFactor" : 0.1,
        "roughnessFactor" : 0.5
      }
    }
  ],
  "meshes" : [
    {
      "primitives" : [
        {
          "attributes" : {
            "POSITION" : 1,
            "NORMAL" : 2,
            "TANGENT" : 3,
            "TEXCOORD_0" : 4
          },
          "indices" : 0,
          "material" : 0
        }
      ],
      "name" : "SM_utility_pole_5_line1"
    }
  ],
  "buffers" : [
    {
      "uri" : "SM_utility_pole_5_line1.bin",
      "byteLength" : 25200
    }
  ],
  "bufferViews" : [
    {
      "buffer" : 0,
      "byteOffset" : 0,
      "byteLength" : 1008
    },
    {
      "buffer" : 0,
      "byteOffset" : 1008,
      "byteLength" : 6048
    },
    {
      "buffer" : 0,
      "byteOffset" : 7056,
      "byteLength" : 6048
    },
    {
      "buffer" : 0,
      "byteOffset" : 13104,
      "byteLength" : 8064
    },
    {
      "buffer" : 0,
      "byteOffset" : 21168,
      "byteLength" : 4032
    }
  ],
  "accessors" : [
    {
      "bufferView" : 0,
      "componentType" : 5123,
      "count" : 504,
      "type" : "SCALAR"
    },
    {
      "bufferView" : 1,
      "min" : [ -0.0121765, 2.28882e-07, -0.108724 ],
      "max" : [ 16.1255, 8, 0.108729 ],
      "componentType" : 5126,
      "count" : 504,
      "type" : "VEC3"
    },
    {
      "bufferView" : 2,
      "componentType" : 5126,
      "count" : 504,
      "type" : "VEC3"
    },
    {
      "bufferView" : 3,
      "componentType" : 5126,
      "count" : 504,
      "type" : "VEC4"
    },
    {
      "bufferView" : 4,
      "componentType" : 5126,
      "count" : 504,
      "type" : "VEC2"
    }
  ]
}
