{
  "asset" : {
    "generator" : "UE Viewer (umodel) build 1590",
    "version" : "2.0"
  },
  "scene" : 0,
  "scenes" : [
    {
      "nodes" : [ 0 ]
    }
  ],
  "nodes" : [
    {
      "name" : "SM_utility_pole_2",
      "mesh" : 0
    }
  ],
  "materials" : [
    {
      "name" : "dummy_material_0",
      "pbrMetallicRoughness" : {
        "baseColorFactor" : [ 0.3, 0.3, 0.3, 1.0 ],
        "metallicFactor" : 0.1,
        "roughnessFactor" : 0.5
      }
    }
  ],
  "meshes" : [
    {
      "primitives" : [
        {
          "attributes" : {
            "POSITION" : 1,
            "NORMAL" : 2,
            "TANGENT" : 3,
            "TEXCOORD_0" : 4
          },
          "indices" : 0,
          "material" : 0
        }
      ],
      "name" : "SM_utility_pole_2"
    }
  ],
  "buffers" : [
    {
      "uri" : "SM_utility_pole_2.bin",
      "byteLength" : 126900
    }
  ],
  "bufferViews" : [
    {
      "buffer" : 0,
      "byteOffset" : 0,
      "byteLength" : 5076
    },
    {
      "buffer" : 0,
      "byteOffset" : 5076,
      "byteLength" : 30456
    },
    {
      "buffer" : 0,
      "byteOffset" : 35532,
      "byteLength" : 30456
    },
    {
      "buffer" : 0,
      "byteOffset" : 65988,
      "byteLength" : 40608
    },
    {
      "buffer" : 0,
      "byteOffset" : 106596,
      "byteLength" : 20304
    }
  ],
  "accessors" : [
    {
      "bufferView" : 0,
      "componentType" : 5123,
      "count" : 2538,
      "type" : "SCALAR"
    },
    {
      "bufferView" : 1,
      "min" : [ -0.647142, -1.26065e-16, -2.13224 ],
      "max" : [ 0.798896, 11.773, 2.05881 ],
      "componentType" : 5126,
      "count" : 2538,
      "type" : "VEC3"
    },
    {
      "bufferView" : 2,
      "componentType" : 5126,
      "count" : 2538,
      "type" : "VEC3"
    },
    {
      "bufferView" : 3,
      "componentType" : 5126,
      "count" : 2538,
      "type" : "VEC4"
    },
    {
      "bufferView" : 4,
      "componentType" : 5126,
      "count" : 2538,
      "type" : "VEC2"
    }
  ]
}
