{
  "asset" : {
    "generator" : "UE Viewer (umodel) build 1590",
    "version" : "2.0"
  },
  "scene" : 0,
  "scenes" : [
    {
      "nodes" : [ 0 ]
    }
  ],
  "nodes" : [
    {
      "name" : "SM_vending_machine_2",
      "mesh" : 0
    }
  ],
  "materials" : [
    {
      "name" : "dummy_material_0",
      "pbrMetallicRoughness" : {
        "baseColorFactor" : [ 0.3, 0.3, 0.3, 1.0 ],
        "metallicFactor" : 0.1,
        "roughnessFactor" : 0.5
      }
    }
  ],
  "meshes" : [
    {
      "primitives" : [
        {
          "attributes" : {
            "POSITION" : 1,
            "NORMAL" : 2,
            "TANGENT" : 3,
            "TEXCOORD_0" : 4,
            "TEXCOORD_1" : 5
          },
          "indices" : 0,
          "material" : 0
        }
      ],
      "name" : "SM_vending_machine_2"
    }
  ],
  "buffers" : [
    {
      "uri" : "SM_vending_machine_2.bin",
      "byteLength" : 91872
    }
  ],
  "bufferViews" : [
    {
      "buffer" : 0,
      "byteOffset" : 0,
      "byteLength" : 3168
    },
    {
      "buffer" : 0,
      "byteOffset" : 3168,
      "byteLength" : 19008
    },
    {
      "buffer" : 0,
      "byteOffset" : 22176,
      "byteLength" : 19008
    },
    {
      "buffer" : 0,
      "byteOffset" : 41184,
      "byteLength" : 25344
    },
    {
      "buffer" : 0,
      "byteOffset" : 66528,
      "byteLength" : 12672
    },
    {
      "buffer" : 0,
      "byteOffset" : 79200,
      "byteLength" : 12672
    }
  ],
  "accessors" : [
    {
      "bufferView" : 0,
      "componentType" : 5123,
      "count" : 1584,
      "type" : "SCALAR"
    },
    {
      "bufferView" : 1,
      "min" : [ -0.485858, -3.6861e-17, -0.602302 ],
      "max" : [ 0.434281, 2.12584, 0.602302 ],
      "componentType" : 5126,
      "count" : 1584,
      "type" : "VEC3"
    },
    {
      "bufferView" : 2,
      "componentType" : 5126,
      "count" : 1584,
      "type" : "VEC3"
    },
    {
      "bufferView" : 3,
      "componentType" : 5126,
      "count" : 1584,
      "type" : "VEC4"
    },
    {
      "bufferView" : 4,
      "componentType" : 5126,
      "count" : 1584,
      "type" : "VEC2"
    },
    {
      "bufferView" : 5,
      "componentType" : 5126,
      "count" : 1584,
      "type" : "VEC2"
    }
  ]
}
