{
  "asset" : {
    "generator" : "UE Viewer (umodel) build 1590",
    "version" : "2.0"
  },
  "scene" : 0,
  "scenes" : [
    {
      "nodes" : [ 0 ]
    }
  ],
  "nodes" : [
    {
      "name" : "SM_Windmill_01",
      "mesh" : 0
    }
  ],
  "materials" : [
    {
      "name" : "dummy_material_0",
      "pbrMetallicRoughness" : {
        "baseColorFactor" : [ 0.3, 0.3, 0.3, 1.0 ],
        "metallicFactor" : 0.1,
        "roughnessFactor" : 0.5
      }
    }
  ],
  "meshes" : [
    {
      "primitives" : [
        {
          "attributes" : {
            "POSITION" : 1,
            "NORMAL" : 2,
            "TANGENT" : 3,
            "TEXCOORD_0" : 4,
            "TEXCOORD_1" : 5
          },
          "indices" : 0,
          "material" : 0
        }
      ],
      "name" : "SM_Windmill_01"
    }
  ],
  "buffers" : [
    {
      "uri" : "SM_Windmill_01.bin",
      "byteLength" : 233508
    }
  ],
  "bufferViews" : [
    {
      "buffer" : 0,
      "byteOffset" : 0,
      "byteLength" : 8052
    },
    {
      "buffer" : 0,
      "byteOffset" : 8052,
      "byteLength" : 48312
    },
    {
      "buffer" : 0,
      "byteOffset" : 56364,
      "byteLength" : 48312
    },
    {
      "buffer" : 0,
      "byteOffset" : 104676,
      "byteLength" : 64416
    },
    {
      "buffer" : 0,
      "byteOffset" : 169092,
      "byteLength" : 32208
    },
    {
      "buffer" : 0,
      "byteOffset" : 201300,
      "byteLength" : 32208
    }
  ],
  "accessors" : [
    {
      "bufferView" : 0,
      "componentType" : 5123,
      "count" : 4026,
      "type" : "SCALAR"
    },
    {
      "bufferView" : 1,
      "min" : [ -0.643135, -0.040923, -2.66549 ],
      "max" : [ 0.643135, 9.07923, 1.40116 ],
      "componentType" : 5126,
      "count" : 4026,
      "type" : "VEC3"
    },
    {
      "bufferView" : 2,
      "componentType" : 5126,
      "count" : 4026,
      "type" : "VEC3"
    },
    {
      "bufferView" : 3,
      "componentType" : 5126,
      "count" : 4026,
      "type" : "VEC4"
    },
    {
      "bufferView" : 4,
      "componentType" : 5126,
      "count" : 4026,
      "type" : "VEC2"
    },
    {
      "bufferView" : 5,
      "componentType" : 5126,
      "count" : 4026,
      "type" : "VEC2"
    }
  ]
}
