{
  "asset" : {
    "generator" : "UE Viewer (umodel) build 1590",
    "version" : "2.0"
  },
  "scene" : 0,
  "scenes" : [
    {
      "nodes" : [ 0 ]
    }
  ],
  "nodes" : [
    {
      "name" : "SM_wheelbarrow",
      "mesh" : 0
    }
  ],
  "materials" : [
    {
      "name" : "dummy_material_0",
      "pbrMetallicRoughness" : {
        "baseColorFactor" : [ 0.3, 0.3, 0.3, 1.0 ],
        "metallicFactor" : 0.1,
        "roughnessFactor" : 0.5
      }
    }
  ],
  "meshes" : [
    {
      "primitives" : [
        {
          "attributes" : {
            "POSITION" : 1,
            "NORMAL" : 2,
            "TANGENT" : 3,
            "TEXCOORD_0" : 4,
            "TEXCOORD_1" : 5
          },
          "indices" : 0,
          "material" : 0
        }
      ],
      "name" : "SM_wheelbarrow"
    }
  ],
  "buffers" : [
    {
      "uri" : "SM_wheelbarrow.bin",
      "byteLength" : 125280
    }
  ],
  "bufferViews" : [
    {
      "buffer" : 0,
      "byteOffset" : 0,
      "byteLength" : 4320
    },
    {
      "buffer" : 0,
      "byteOffset" : 4320,
      "byteLength" : 25920
    },
    {
      "buffer" : 0,
      "byteOffset" : 30240,
      "byteLength" : 25920
    },
    {
      "buffer" : 0,
      "byteOffset" : 56160,
      "byteLength" : 34560
    },
    {
      "buffer" : 0,
      "byteOffset" : 90720,
      "byteLength" : 17280
    },
    {
      "buffer" : 0,
      "byteOffset" : 108000,
      "byteLength" : 17280
    }
  ],
  "accessors" : [
    {
      "bufferView" : 0,
      "componentType" : 5123,
      "count" : 2160,
      "type" : "SCALAR"
    },
    {
      "bufferView" : 1,
      "min" : [ -0.940533, -0.00478378, -0.481012 ],
      "max" : [ 1.06808, 0.811665, 0.481012 ],
      "componentType" : 5126,
      "count" : 2160,
      "type" : "VEC3"
    },
    {
      "bufferView" : 2,
      "componentType" : 5126,
      "count" : 2160,
      "type" : "VEC3"
    },
    {
      "bufferView" : 3,
      "componentType" : 5126,
      "count" : 2160,
      "type" : "VEC4"
    },
    {
      "bufferView" : 4,
      "componentType" : 5126,
      "count" : 2160,
      "type" : "VEC2"
    },
    {
      "bufferView" : 5,
      "componentType" : 5126,
      "count" : 2160,
      "type" : "VEC2"
    }
  ]
}
