{
  "asset" : {
    "generator" : "UE Viewer (umodel) build 1590",
    "version" : "2.0"
  },
  "scene" : 0,
  "scenes" : [
    {
      "nodes" : [ 0 ]
    }
  ],
  "nodes" : [
    {
      "name" : "SM_AntennaBig_01",
      "mesh" : 0
    }
  ],
  "materials" : [
    {
      "name" : "dummy_material_0",
      "pbrMetallicRoughness" : {
        "baseColorFactor" : [ 0.3, 0.3, 0.3, 1.0 ],
        "metallicFactor" : 0.1,
        "roughnessFactor" : 0.5
      }
    }
  ],
  "meshes" : [
    {
      "primitives" : [
        {
          "attributes" : {
            "POSITION" : 1,
            "NORMAL" : 2,
            "TANGENT" : 3,
            "TEXCOORD_0" : 4
          },
          "indices" : 0,
          "material" : 0
        }
      ],
      "name" : "SM_AntennaBig_01"
    }
  ],
  "buffers" : [
    {
      "uri" : "SM_AntennaBig_01.bin",
      "byteLength" : 144000
    }
  ],
  "bufferViews" : [
    {
      "buffer" : 0,
      "byteOffset" : 0,
      "byteLength" : 5760
    },
    {
      "buffer" : 0,
      "byteOffset" : 5760,
      "byteLength" : 34560
    },
    {
      "buffer" : 0,
      "byteOffset" : 40320,
      "byteLength" : 34560
    },
    {
      "buffer" : 0,
      "byteOffset" : 74880,
      "byteLength" : 46080
    },
    {
      "buffer" : 0,
      "byteOffset" : 120960,
      "byteLength" : 23040
    }
  ],
  "accessors" : [
    {
      "bufferView" : 0,
      "componentType" : 5123,
      "count" : 2880,
      "type" : "SCALAR"
    },
    {
      "bufferView" : 1,
      "min" : [ -1.60845, -9.15527e-07, -1.60837 ],
      "max" : [ 1.60844, 9.68091, 1.60837 ],
      "componentType" : 5126,
      "count" : 2880,
      "type" : "VEC3"
    },
    {
      "bufferView" : 2,
      "componentType" : 5126,
      "count" : 2880,
      "type" : "VEC3"
    },
    {
      "bufferView" : 3,
      "componentType" : 5126,
      "count" : 2880,
      "type" : "VEC4"
    },
    {
      "bufferView" : 4,
      "componentType" : 5126,
      "count" : 2880,
      "type" : "VEC2"
    }
  ]
}
