{
  "asset" : {
    "generator" : "UE Viewer (umodel) build 1590",
    "version" : "2.0"
  },
  "scene" : 0,
  "scenes" : [
    {
      "nodes" : [ 0 ]
    }
  ],
  "nodes" : [
    {
      "name" : "SM_airCondition_01",
      "mesh" : 0
    }
  ],
  "materials" : [
    {
      "name" : "dummy_material_0",
      "pbrMetallicRoughness" : {
        "baseColorFactor" : [ 0.3, 0.3, 0.3, 1.0 ],
        "metallicFactor" : 0.1,
        "roughnessFactor" : 0.5
      }
    }
  ],
  "meshes" : [
    {
      "primitives" : [
        {
          "attributes" : {
            "POSITION" : 1,
            "NORMAL" : 2,
            "TANGENT" : 3,
            "TEXCOORD_0" : 4,
            "TEXCOORD_1" : 5
          },
          "indices" : 0,
          "material" : 0
        }
      ],
      "name" : "SM_airCondition_01"
    }
  ],
  "buffers" : [
    {
      "uri" : "SM_airCondition_01.bin",
      "byteLength" : 86304
    }
  ],
  "bufferViews" : [
    {
      "buffer" : 0,
      "byteOffset" : 0,
      "byteLength" : 2976
    },
    {
      "buffer" : 0,
      "byteOffset" : 2976,
      "byteLength" : 17856
    },
    {
      "buffer" : 0,
      "byteOffset" : 20832,
      "byteLength" : 17856
    },
    {
      "buffer" : 0,
      "byteOffset" : 38688,
      "byteLength" : 23808
    },
    {
      "buffer" : 0,
      "byteOffset" : 62496,
      "byteLength" : 11904
    },
    {
      "buffer" : 0,
      "byteOffset" : 74400,
      "byteLength" : 11904
    }
  ],
  "accessors" : [
    {
      "bufferView" : 0,
      "componentType" : 5123,
      "count" : 1488,
      "type" : "SCALAR"
    },
    {
      "bufferView" : 1,
      "min" : [ -2.54023e-06, -0.316457, -0.538857 ],
      "max" : [ 0.424741, 0.316457, 0.538853 ],
      "componentType" : 5126,
      "count" : 1488,
      "type" : "VEC3"
    },
    {
      "bufferView" : 2,
      "componentType" : 5126,
      "count" : 1488,
      "type" : "VEC3"
    },
    {
      "bufferView" : 3,
      "componentType" : 5126,
      "count" : 1488,
      "type" : "VEC4"
    },
    {
      "bufferView" : 4,
      "componentType" : 5126,
      "count" : 1488,
      "type" : "VEC2"
    },
    {
      "bufferView" : 5,
      "componentType" : 5126,
      "count" : 1488,
      "type" : "VEC2"
    }
  ]
}
