{
  "asset" : {
    "generator" : "UE Viewer (umodel) build 1590",
    "version" : "2.0"
  },
  "scene" : 0,
  "scenes" : [
    {
      "nodes" : [ 0 ]
    }
  ],
  "nodes" : [
    {
      "name" : "SM_billboard_AutoService",
      "mesh" : 0
    }
  ],
  "materials" : [
    {
      "name" : "dummy_material_0",
      "pbrMetallicRoughness" : {
        "baseColorFactor" : [ 0.3, 0.3, 0.3, 1.0 ],
        "metallicFactor" : 0.1,
        "roughnessFactor" : 0.5
      }
    }
  ],
  "meshes" : [
    {
      "primitives" : [
        {
          "attributes" : {
            "POSITION" : 1,
            "NORMAL" : 2,
            "TANGENT" : 3,
            "TEXCOORD_0" : 4,
            "TEXCOORD_1" : 5
          },
          "indices" : 0,
          "material" : 0
        }
      ],
      "name" : "SM_billboard_AutoService"
    }
  ],
  "buffers" : [
    {
      "uri" : "SM_billboard_AutoService.bin",
      "byteLength" : 84740
    }
  ],
  "bufferViews" : [
    {
      "buffer" : 0,
      "byteOffset" : 0,
      "byteLength" : 2924
    },
    {
      "buffer" : 0,
      "byteOffset" : 2924,
      "byteLength" : 17532
    },
    {
      "buffer" : 0,
      "byteOffset" : 20456,
      "byteLength" : 17532
    },
    {
      "buffer" : 0,
      "byteOffset" : 37988,
      "byteLength" : 23376
    },
    {
      "buffer" : 0,
      "byteOffset" : 61364,
      "byteLength" : 11688
    },
    {
      "buffer" : 0,
      "byteOffset" : 73052,
      "byteLength" : 11688
    }
  ],
  "accessors" : [
    {
      "bufferView" : 0,
      "componentType" : 5123,
      "count" : 1461,
      "type" : "SCALAR"
    },
    {
      "bufferView" : 1,
      "min" : [ -1.43051e-08, -0.500001, -6.2 ],
      "max" : [ 0.101299, 0.500001, 6.2 ],
      "componentType" : 5126,
      "count" : 1461,
      "type" : "VEC3"
    },
    {
      "bufferView" : 2,
      "componentType" : 5126,
      "count" : 1461,
      "type" : "VEC3"
    },
    {
      "bufferView" : 3,
      "componentType" : 5126,
      "count" : 1461,
      "type" : "VEC4"
    },
    {
      "bufferView" : 4,
      "componentType" : 5126,
      "count" : 1461,
      "type" : "VEC2"
    },
    {
      "bufferView" : 5,
      "componentType" : 5126,
      "count" : 1461,
      "type" : "VEC2"
    }
  ]
}
