{
  "asset" : {
    "generator" : "UE Viewer (umodel) build 1590",
    "version" : "2.0"
  },
  "scene" : 0,
  "scenes" : [
    {
      "nodes" : [ 0 ]
    }
  ],
  "nodes" : [
    {
      "name" : "SM_billboard_countySheriff",
      "mesh" : 0
    }
  ],
  "materials" : [
    {
      "name" : "dummy_material_0",
      "pbrMetallicRoughness" : {
        "baseColorFactor" : [ 0.3, 0.3, 0.3, 1.0 ],
        "metallicFactor" : 0.1,
        "roughnessFactor" : 0.5
      }
    }
  ],
  "meshes" : [
    {
      "primitives" : [
        {
          "attributes" : {
            "POSITION" : 1,
            "NORMAL" : 2,
            "TANGENT" : 3,
            "TEXCOORD_0" : 4,
            "TEXCOORD_1" : 5
          },
          "indices" : 0,
          "material" : 0
        }
      ],
      "name" : "SM_billboard_countySheriff"
    }
  ],
  "buffers" : [
    {
      "uri" : "SM_billboard_countySheriff.bin",
      "byteLength" : 63164
    }
  ],
  "bufferViews" : [
    {
      "buffer" : 0,
      "byteOffset" : 0,
      "byteLength" : 2180
    },
    {
      "buffer" : 0,
      "byteOffset" : 2180,
      "byteLength" : 13068
    },
    {
      "buffer" : 0,
      "byteOffset" : 15248,
      "byteLength" : 13068
    },
    {
      "buffer" : 0,
      "byteOffset" : 28316,
      "byteLength" : 17424
    },
    {
      "buffer" : 0,
      "byteOffset" : 45740,
      "byteLength" : 8712
    },
    {
      "buffer" : 0,
      "byteOffset" : 54452,
      "byteLength" : 8712
    }
  ],
  "accessors" : [
    {
      "bufferView" : 0,
      "componentType" : 5123,
      "count" : 1089,
      "type" : "SCALAR"
    },
    {
      "bufferView" : 1,
      "min" : [ -2.86102e-08, -0.600001, -5.2 ],
      "max" : [ 0.120254, 0.600001, 5.2 ],
      "componentType" : 5126,
      "count" : 1089,
      "type" : "VEC3"
    },
    {
      "bufferView" : 2,
      "componentType" : 5126,
      "count" : 1089,
      "type" : "VEC3"
    },
    {
      "bufferView" : 3,
      "componentType" : 5126,
      "count" : 1089,
      "type" : "VEC4"
    },
    {
      "bufferView" : 4,
      "componentType" : 5126,
      "count" : 1089,
      "type" : "VEC2"
    },
    {
      "bufferView" : 5,
      "componentType" : 5126,
      "count" : 1089,
      "type" : "VEC2"
    }
  ]
}
