{
  "asset" : {
    "generator" : "UE Viewer (umodel) build 1590",
    "version" : "2.0"
  },
  "scene" : 0,
  "scenes" : [
    {
      "nodes" : [ 0 ]
    }
  ],
  "nodes" : [
    {
      "name" : "SM_Bicycle_01",
      "mesh" : 0
    }
  ],
  "materials" : [
    {
      "name" : "dummy_material_0",
      "pbrMetallicRoughness" : {
        "baseColorFactor" : [ 0.3, 0.3, 0.3, 1.0 ],
        "metallicFactor" : 0.1,
        "roughnessFactor" : 0.5
      }
    }
  ],
  "meshes" : [
    {
      "primitives" : [
        {
          "attributes" : {
            "POSITION" : 1,
            "NORMAL" : 2,
            "TANGENT" : 3,
            "TEXCOORD_0" : 4,
            "TEXCOORD_1" : 5
          },
          "indices" : 0,
          "material" : 0
        }
      ],
      "name" : "SM_Bicycle_01"
    }
  ],
  "buffers" : [
    {
      "uri" : "SM_Bicycle_01.bin",
      "byteLength" : 666072
    }
  ],
  "bufferViews" : [
    {
      "buffer" : 0,
      "byteOffset" : 0,
      "byteLength" : 22968
    },
    {
      "buffer" : 0,
      "byteOffset" : 22968,
      "byteLength" : 137808
    },
    {
      "buffer" : 0,
      "byteOffset" : 160776,
      "byteLength" : 137808
    },
    {
      "buffer" : 0,
      "byteOffset" : 298584,
      "byteLength" : 183744
    },
    {
      "buffer" : 0,
      "byteOffset" : 482328,
      "byteLength" : 91872
    },
    {
      "buffer" : 0,
      "byteOffset" : 574200,
      "byteLength" : 91872
    }
  ],
  "accessors" : [
    {
      "bufferView" : 0,
      "componentType" : 5123,
      "count" : 11484,
      "type" : "SCALAR"
    },
    {
      "bufferView" : 1,
      "min" : [ -0.871202, 0.00025619, -0.434626 ],
      "max" : [ 0.982967, 1.23796, 0.434626 ],
      "componentType" : 5126,
      "count" : 11484,
      "type" : "VEC3"
    },
    {
      "bufferView" : 2,
      "componentType" : 5126,
      "count" : 11484,
      "type" : "VEC3"
    },
    {
      "bufferView" : 3,
      "componentType" : 5126,
      "count" : 11484,
      "type" : "VEC4"
    },
    {
      "bufferView" : 4,
      "componentType" : 5126,
      "count" : 11484,
      "type" : "VEC2"
    },
    {
      "bufferView" : 5,
      "componentType" : 5126,
      "count" : 11484,
      "type" : "VEC2"
    }
  ]
}
