{
  "asset" : {
    "generator" : "UE Viewer (umodel) build 1590",
    "version" : "2.0"
  },
  "scene" : 0,
  "scenes" : [
    {
      "nodes" : [ 0 ]
    }
  ],
  "nodes" : [
    {
      "name" : "SM_billboardStand_02_small",
      "mesh" : 0
    }
  ],
  "materials" : [
    {
      "name" : "dummy_material_0",
      "pbrMetallicRoughness" : {
        "baseColorFactor" : [ 0.3, 0.3, 0.3, 1.0 ],
        "metallicFactor" : 0.1,
        "roughnessFactor" : 0.5
      }
    }
  ],
  "meshes" : [
    {
      "primitives" : [
        {
          "attributes" : {
            "POSITION" : 1,
            "NORMAL" : 2,
            "TANGENT" : 3,
            "TEXCOORD_0" : 4
          },
          "indices" : 0,
          "material" : 0
        }
      ],
      "name" : "SM_billboardStand_02_small"
    }
  ],
  "buffers" : [
    {
      "uri" : "SM_billboardStand_02_small.bin",
      "byteLength" : 34200
    }
  ],
  "bufferViews" : [
    {
      "buffer" : 0,
      "byteOffset" : 0,
      "byteLength" : 1368
    },
    {
      "buffer" : 0,
      "byteOffset" : 1368,
      "byteLength" : 8208
    },
    {
      "buffer" : 0,
      "byteOffset" : 9576,
      "byteLength" : 8208
    },
    {
      "buffer" : 0,
      "byteOffset" : 17784,
      "byteLength" : 10944
    },
    {
      "buffer" : 0,
      "byteOffset" : 28728,
      "byteLength" : 5472
    }
  ],
  "accessors" : [
    {
      "bufferView" : 0,
      "componentType" : 5123,
      "count" : 684,
      "type" : "SCALAR"
    },
    {
      "bufferView" : 1,
      "min" : [ -0.143206, -0.0385187, -2.05952 ],
      "max" : [ 0.143203, 0.858423, 2.05952 ],
      "componentType" : 5126,
      "count" : 684,
      "type" : "VEC3"
    },
    {
      "bufferView" : 2,
      "componentType" : 5126,
      "count" : 684,
      "type" : "VEC3"
    },
    {
      "bufferView" : 3,
      "componentType" : 5126,
      "count" : 684,
      "type" : "VEC4"
    },
    {
      "bufferView" : 4,
      "componentType" : 5126,
      "count" : 684,
      "type" : "VEC2"
    }
  ]
}
