{
  "asset" : {
    "generator" : "UE Viewer (umodel) build 1590",
    "version" : "2.0"
  },
  "scene" : 0,
  "scenes" : [
    {
      "nodes" : [ 0 ]
    }
  ],
  "nodes" : [
    {
      "name" : "SM_blibbloardStand_01",
      "mesh" : 0
    }
  ],
  "materials" : [
    {
      "name" : "dummy_material_0",
      "pbrMetallicRoughness" : {
        "baseColorFactor" : [ 0.3, 0.3, 0.3, 1.0 ],
        "metallicFactor" : 0.1,
        "roughnessFactor" : 0.5
      }
    }
  ],
  "meshes" : [
    {
      "primitives" : [
        {
          "attributes" : {
            "POSITION" : 1,
            "NORMAL" : 2,
            "TANGENT" : 3,
            "TEXCOORD_0" : 4
          },
          "indices" : 0,
          "material" : 0
        }
      ],
      "name" : "SM_blibbloardStand_01"
    }
  ],
  "buffers" : [
    {
      "uri" : "SM_blibbloardStand_01.bin",
      "byteLength" : 30600
    }
  ],
  "bufferViews" : [
    {
      "buffer" : 0,
      "byteOffset" : 0,
      "byteLength" : 1224
    },
    {
      "buffer" : 0,
      "byteOffset" : 1224,
      "byteLength" : 7344
    },
    {
      "buffer" : 0,
      "byteOffset" : 8568,
      "byteLength" : 7344
    },
    {
      "buffer" : 0,
      "byteOffset" : 15912,
      "byteLength" : 9792
    },
    {
      "buffer" : 0,
      "byteOffset" : 25704,
      "byteLength" : 4896
    }
  ],
  "accessors" : [
    {
      "bufferView" : 0,
      "componentType" : 5123,
      "count" : 612,
      "type" : "SCALAR"
    },
    {
      "bufferView" : 1,
      "min" : [ -2, -4.52995e-08, -3.15001 ],
      "max" : [ 0.104228, 2.2, 3.15001 ],
      "componentType" : 5126,
      "count" : 612,
      "type" : "VEC3"
    },
    {
      "bufferView" : 2,
      "componentType" : 5126,
      "count" : 612,
      "type" : "VEC3"
    },
    {
      "bufferView" : 3,
      "componentType" : 5126,
      "count" : 612,
      "type" : "VEC4"
    },
    {
      "bufferView" : 4,
      "componentType" : 5126,
      "count" : 612,
      "type" : "VEC2"
    }
  ]
}
