{
  "asset" : {
    "generator" : "UE Viewer (umodel) build 1590",
    "version" : "2.0"
  },
  "scene" : 0,
  "scenes" : [
    {
      "nodes" : [ 0 ]
    }
  ],
  "nodes" : [
    {
      "name" : "SM_billboard_carDealership",
      "mesh" : 0
    }
  ],
  "materials" : [
    {
      "name" : "dummy_material_0",
      "pbrMetallicRoughness" : {
        "baseColorFactor" : [ 0.3, 0.3, 0.3, 1.0 ],
        "metallicFactor" : 0.1,
        "roughnessFactor" : 0.5
      }
    }
  ],
  "meshes" : [
    {
      "primitives" : [
        {
          "attributes" : {
            "POSITION" : 1,
            "NORMAL" : 2,
            "TANGENT" : 3,
            "TEXCOORD_0" : 4,
            "TEXCOORD_1" : 5
          },
          "indices" : 0,
          "material" : 0
        }
      ],
      "name" : "SM_billboard_carDealership"
    }
  ],
  "buffers" : [
    {
      "uri" : "SM_billboard_carDealership.bin",
      "byteLength" : 64556
    }
  ],
  "bufferViews" : [
    {
      "buffer" : 0,
      "byteOffset" : 0,
      "byteLength" : 2228
    },
    {
      "buffer" : 0,
      "byteOffset" : 2228,
      "byteLength" : 13356
    },
    {
      "buffer" : 0,
      "byteOffset" : 15584,
      "byteLength" : 13356
    },
    {
      "buffer" : 0,
      "byteOffset" : 28940,
      "byteLength" : 17808
    },
    {
      "buffer" : 0,
      "byteOffset" : 46748,
      "byteLength" : 8904
    },
    {
      "buffer" : 0,
      "byteOffset" : 55652,
      "byteLength" : 8904
    }
  ],
  "accessors" : [
    {
      "bufferView" : 0,
      "componentType" : 5123,
      "count" : 1113,
      "type" : "SCALAR"
    },
    {
      "bufferView" : 1,
      "min" : [ -2.38419e-08, -0.600001, -4.2 ],
      "max" : [ 0.104683, 0.600001, 4.2 ],
      "componentType" : 5126,
      "count" : 1113,
      "type" : "VEC3"
    },
    {
      "bufferView" : 2,
      "componentType" : 5126,
      "count" : 1113,
      "type" : "VEC3"
    },
    {
      "bufferView" : 3,
      "componentType" : 5126,
      "count" : 1113,
      "type" : "VEC4"
    },
    {
      "bufferView" : 4,
      "componentType" : 5126,
      "count" : 1113,
      "type" : "VEC2"
    },
    {
      "bufferView" : 5,
      "componentType" : 5126,
      "count" : 1113,
      "type" : "VEC2"
    }
  ]
}
