{
  "asset" : {
    "generator" : "UE Viewer (umodel) build 1590",
    "version" : "2.0"
  },
  "scene" : 0,
  "scenes" : [
    {
      "nodes" : [ 0 ]
    }
  ],
  "nodes" : [
    {
      "name" : "SM_billboard_AmericanBank",
      "mesh" : 0
    }
  ],
  "materials" : [
    {
      "name" : "dummy_material_0",
      "pbrMetallicRoughness" : {
        "baseColorFactor" : [ 0.3, 0.3, 0.3, 1.0 ],
        "metallicFactor" : 0.1,
        "roughnessFactor" : 0.5
      }
    }
  ],
  "meshes" : [
    {
      "primitives" : [
        {
          "attributes" : {
            "POSITION" : 1,
            "NORMAL" : 2,
            "TANGENT" : 3,
            "TEXCOORD_0" : 4,
            "TEXCOORD_1" : 5
          },
          "indices" : 0,
          "material" : 0
        }
      ],
      "name" : "SM_billboard_AmericanBank"
    }
  ],
  "buffers" : [
    {
      "uri" : "SM_billboard_AmericanBank.bin",
      "byteLength" : 78824
    }
  ],
  "bufferViews" : [
    {
      "buffer" : 0,
      "byteOffset" : 0,
      "byteLength" : 2720
    },
    {
      "buffer" : 0,
      "byteOffset" : 2720,
      "byteLength" : 16308
    },
    {
      "buffer" : 0,
      "byteOffset" : 19028,
      "byteLength" : 16308
    },
    {
      "buffer" : 0,
      "byteOffset" : 35336,
      "byteLength" : 21744
    },
    {
      "buffer" : 0,
      "byteOffset" : 57080,
      "byteLength" : 10872
    },
    {
      "buffer" : 0,
      "byteOffset" : 67952,
      "byteLength" : 10872
    }
  ],
  "accessors" : [
    {
      "bufferView" : 0,
      "componentType" : 5123,
      "count" : 1359,
      "type" : "SCALAR"
    },
    {
      "bufferView" : 1,
      "min" : [ -3.06162e-17, -0.500001, -4 ],
      "max" : [ 0.12, 0.500001, 4 ],
      "componentType" : 5126,
      "count" : 1359,
      "type" : "VEC3"
    },
    {
      "bufferView" : 2,
      "componentType" : 5126,
      "count" : 1359,
      "type" : "VEC3"
    },
    {
      "bufferView" : 3,
      "componentType" : 5126,
      "count" : 1359,
      "type" : "VEC4"
    },
    {
      "bufferView" : 4,
      "componentType" : 5126,
      "count" : 1359,
      "type" : "VEC2"
    },
    {
      "bufferView" : 5,
      "componentType" : 5126,
      "count" : 1359,
      "type" : "VEC2"
    }
  ]
}
