{
  "asset" : {
    "generator" : "UE Viewer (umodel) build 1590",
    "version" : "2.0"
  },
  "scene" : 0,
  "scenes" : [
    {
      "nodes" : [ 0 ]
    }
  ],
  "nodes" : [
    {
      "name" : "SM_billboard_FruitMarket",
      "mesh" : 0
    }
  ],
  "materials" : [
    {
      "name" : "dummy_material_0",
      "pbrMetallicRoughness" : {
        "baseColorFactor" : [ 0.3, 0.3, 0.3, 1.0 ],
        "metallicFactor" : 0.1,
        "roughnessFactor" : 0.5
      }
    }
  ],
  "meshes" : [
    {
      "primitives" : [
        {
          "attributes" : {
            "POSITION" : 1,
            "NORMAL" : 2,
            "TANGENT" : 3,
            "TEXCOORD_0" : 4,
            "TEXCOORD_1" : 5
          },
          "indices" : 0,
          "material" : 0
        }
      ],
      "name" : "SM_billboard_FruitMarket"
    }
  ],
  "buffers" : [
    {
      "uri" : "SM_billboard_FruitMarket.bin",
      "byteLength" : 116232
    }
  ],
  "bufferViews" : [
    {
      "buffer" : 0,
      "byteOffset" : 0,
      "byteLength" : 4008
    },
    {
      "buffer" : 0,
      "byteOffset" : 4008,
      "byteLength" : 24048
    },
    {
      "buffer" : 0,
      "byteOffset" : 28056,
      "byteLength" : 24048
    },
    {
      "buffer" : 0,
      "byteOffset" : 52104,
      "byteLength" : 32064
    },
    {
      "buffer" : 0,
      "byteOffset" : 84168,
      "byteLength" : 16032
    },
    {
      "buffer" : 0,
      "byteOffset" : 100200,
      "byteLength" : 16032
    }
  ],
  "accessors" : [
    {
      "bufferView" : 0,
      "componentType" : 5123,
      "count" : 2004,
      "type" : "SCALAR"
    },
    {
      "bufferView" : 1,
      "min" : [ -1.43051e-08, -0.8, -3.5 ],
      "max" : [ 0.139033, 0.8, 3.5 ],
      "componentType" : 5126,
      "count" : 2004,
      "type" : "VEC3"
    },
    {
      "bufferView" : 2,
      "componentType" : 5126,
      "count" : 2004,
      "type" : "VEC3"
    },
    {
      "bufferView" : 3,
      "componentType" : 5126,
      "count" : 2004,
      "type" : "VEC4"
    },
    {
      "bufferView" : 4,
      "componentType" : 5126,
      "count" : 2004,
      "type" : "VEC2"
    },
    {
      "bufferView" : 5,
      "componentType" : 5126,
      "count" : 2004,
      "type" : "VEC2"
    }
  ]
}
