{
  "asset" : {
    "generator" : "UE Viewer (umodel) build 1590",
    "version" : "2.0"
  },
  "scene" : 0,
  "scenes" : [
    {
      "nodes" : [ 0 ]
    }
  ],
  "nodes" : [
    {
      "name" : "SM_bottle_1",
      "mesh" : 0
    }
  ],
  "materials" : [
    {
      "name" : "dummy_material_0",
      "pbrMetallicRoughness" : {
        "baseColorFactor" : [ 0.3, 0.3, 0.3, 1.0 ],
        "metallicFactor" : 0.1,
        "roughnessFactor" : 0.5
      }
    }
  ],
  "meshes" : [
    {
      "primitives" : [
        {
          "attributes" : {
            "POSITION" : 1,
            "NORMAL" : 2,
            "TANGENT" : 3,
            "TEXCOORD_0" : 4,
            "TEXCOORD_1" : 5
          },
          "indices" : 0,
          "material" : 0
        }
      ],
      "name" : "SM_bottle_1"
    }
  ],
  "buffers" : [
    {
      "uri" : "SM_bottle_1.bin",
      "byteLength" : 55680
    }
  ],
  "bufferViews" : [
    {
      "buffer" : 0,
      "byteOffset" : 0,
      "byteLength" : 1920
    },
    {
      "buffer" : 0,
      "byteOffset" : 1920,
      "byteLength" : 11520
    },
    {
      "buffer" : 0,
      "byteOffset" : 13440,
      "byteLength" : 11520
    },
    {
      "buffer" : 0,
      "byteOffset" : 24960,
      "byteLength" : 15360
    },
    {
      "buffer" : 0,
      "byteOffset" : 40320,
      "byteLength" : 7680
    },
    {
      "buffer" : 0,
      "byteOffset" : 48000,
      "byteLength" : 7680
    }
  ],
  "accessors" : [
    {
      "bufferView" : 0,
      "componentType" : 5123,
      "count" : 960,
      "type" : "SCALAR"
    },
    {
      "bufferView" : 1,
      "min" : [ -0.0700854, -4.51234e-18, -0.0736921 ],
      "max" : [ 0.0700854, 0.446842, 0.0736921 ],
      "componentType" : 5126,
      "count" : 960,
      "type" : "VEC3"
    },
    {
      "bufferView" : 2,
      "componentType" : 5126,
      "count" : 960,
      "type" : "VEC3"
    },
    {
      "bufferView" : 3,
      "componentType" : 5126,
      "count" : 960,
      "type" : "VEC4"
    },
    {
      "bufferView" : 4,
      "componentType" : 5126,
      "count" : 960,
      "type" : "VEC2"
    },
    {
      "bufferView" : 5,
      "componentType" : 5126,
      "count" : 960,
      "type" : "VEC2"
    }
  ]
}
