{
  "asset" : {
    "generator" : "UE Viewer (umodel) build 1590",
    "version" : "2.0"
  },
  "scene" : 0,
  "scenes" : [
    {
      "nodes" : [ 0 ]
    }
  ],
  "nodes" : [
    {
      "name" : "SM_chimney_01",
      "mesh" : 0
    }
  ],
  "materials" : [
    {
      "name" : "dummy_material_0",
      "pbrMetallicRoughness" : {
        "baseColorFactor" : [ 0.3, 0.3, 0.3, 1.0 ],
        "metallicFactor" : 0.1,
        "roughnessFactor" : 0.5
      }
    },
    {
      "name" : "dummy_material_1",
      "pbrMetallicRoughness" : {
        "baseColorFactor" : [ 0.9, 0.3, 0.3, 1.0 ],
        "metallicFactor" : 0.1,
        "roughnessFactor" : 0.5
      }
    }
  ],
  "meshes" : [
    {
      "primitives" : [
        {
          "attributes" : {
            "POSITION" : 1,
            "NORMAL" : 2,
            "TANGENT" : 3,
            "TEXCOORD_0" : 4,
            "TEXCOORD_1" : 5
          },
          "indices" : 0,
          "material" : 0
        },
        {
          "attributes" : {
            "POSITION" : 7,
            "NORMAL" : 8,
            "TANGENT" : 9,
            "TEXCOORD_0" : 10,
            "TEXCOORD_1" : 11
          },
          "indices" : 6,
          "material" : 1
        }
      ],
      "name" : "SM_chimney_01"
    }
  ],
  "buffers" : [
    {
      "uri" : "SM_chimney_01.bin",
      "byteLength" : 14268
    }
  ],
  "bufferViews" : [
    {
      "buffer" : 0,
      "byteOffset" : 0,
      "byteLength" : 132
    },
    {
      "buffer" : 0,
      "byteOffset" : 132,
      "byteLength" : 792
    },
    {
      "buffer" : 0,
      "byteOffset" : 924,
      "byteLength" : 792
    },
    {
      "buffer" : 0,
      "byteOffset" : 1716,
      "byteLength" : 1056
    },
    {
      "buffer" : 0,
      "byteOffset" : 2772,
      "byteLength" : 528
    },
    {
      "buffer" : 0,
      "byteOffset" : 3300,
      "byteLength" : 528
    },
    {
      "buffer" : 0,
      "byteOffset" : 3828,
      "byteLength" : 360
    },
    {
      "buffer" : 0,
      "byteOffset" : 4188,
      "byteLength" : 2160
    },
    {
      "buffer" : 0,
      "byteOffset" : 6348,
      "byteLength" : 2160
    },
    {
      "buffer" : 0,
      "byteOffset" : 8508,
      "byteLength" : 2880
    },
    {
      "buffer" : 0,
      "byteOffset" : 11388,
      "byteLength" : 1440
    },
    {
      "buffer" : 0,
      "byteOffset" : 12828,
      "byteLength" : 1440
    }
  ],
  "accessors" : [
    {
      "bufferView" : 0,
      "componentType" : 5123,
      "count" : 66,
      "type" : "SCALAR"
    },
    {
      "bufferView" : 1,
      "min" : [ -1.12282, 1.83105e-06, -0.498118 ],
      "max" : [ 1.12282, 3.72298, 0.498101 ],
      "componentType" : 5126,
      "count" : 66,
      "type" : "VEC3"
    },
    {
      "bufferView" : 2,
      "componentType" : 5126,
      "count" : 66,
      "type" : "VEC3"
    },
    {
      "bufferView" : 3,
      "componentType" : 5126,
      "count" : 66,
      "type" : "VEC4"
    },
    {
      "bufferView" : 4,
      "componentType" : 5126,
      "count" : 66,
      "type" : "VEC2"
    },
    {
      "bufferView" : 5,
      "componentType" : 5126,
      "count" : 66,
      "type" : "VEC2"
    },
    {
      "bufferView" : 6,
      "componentType" : 5123,
      "count" : 180,
      "type" : "SCALAR"
    },
    {
      "bufferView" : 7,
      "min" : [ -0.923936, 3.54059, -0.409888 ],
      "max" : [ 0.923935, 4.09034, 0.409875 ],
      "componentType" : 5126,
      "count" : 180,
      "type" : "VEC3"
    },
    {
      "bufferView" : 8,
      "componentType" : 5126,
      "count" : 180,
      "type" : "VEC3"
    },
    {
      "bufferView" : 9,
      "componentType" : 5126,
      "count" : 180,
      "type" : "VEC4"
    },
    {
      "bufferView" : 10,
      "componentType" : 5126,
      "count" : 180,
      "type" : "VEC2"
    },
    {
      "bufferView" : 11,
      "componentType" : 5126,
      "count" : 180,
      "type" : "VEC2"
    }
  ]
}
