{
  "asset" : {
    "generator" : "UE Viewer (umodel) build 1590",
    "version" : "2.0"
  },
  "scene" : 0,
  "scenes" : [
    {
      "nodes" : [ 0 ]
    }
  ],
  "nodes" : [
    {
      "name" : "SM_crate_bottles",
      "mesh" : 0
    }
  ],
  "materials" : [
    {
      "name" : "dummy_material_0",
      "pbrMetallicRoughness" : {
        "baseColorFactor" : [ 0.3, 0.3, 0.3, 1.0 ],
        "metallicFactor" : 0.1,
        "roughnessFactor" : 0.5
      }
    }
  ],
  "meshes" : [
    {
      "primitives" : [
        {
          "attributes" : {
            "POSITION" : 1,
            "NORMAL" : 2,
            "TANGENT" : 3,
            "TEXCOORD_0" : 4,
            "TEXCOORD_1" : 5
          },
          "indices" : 0,
          "material" : 0
        }
      ],
      "name" : "SM_crate_bottles"
    }
  ],
  "buffers" : [
    {
      "uri" : "SM_crate_bottles.bin",
      "byteLength" : 393240
    }
  ],
  "bufferViews" : [
    {
      "buffer" : 0,
      "byteOffset" : 0,
      "byteLength" : 13560
    },
    {
      "buffer" : 0,
      "byteOffset" : 13560,
      "byteLength" : 81360
    },
    {
      "buffer" : 0,
      "byteOffset" : 94920,
      "byteLength" : 81360
    },
    {
      "buffer" : 0,
      "byteOffset" : 176280,
      "byteLength" : 108480
    },
    {
      "buffer" : 0,
      "byteOffset" : 284760,
      "byteLength" : 54240
    },
    {
      "buffer" : 0,
      "byteOffset" : 339000,
      "byteLength" : 54240
    }
  ],
  "accessors" : [
    {
      "bufferView" : 0,
      "componentType" : 5123,
      "count" : 6780,
      "type" : "SCALAR"
    },
    {
      "bufferView" : 1,
      "min" : [ -0.230362, -2.09429e-17, -0.349271 ],
      "max" : [ 0.230362, 0.468055, 0.349271 ],
      "componentType" : 5126,
      "count" : 6780,
      "type" : "VEC3"
    },
    {
      "bufferView" : 2,
      "componentType" : 5126,
      "count" : 6780,
      "type" : "VEC3"
    },
    {
      "bufferView" : 3,
      "componentType" : 5126,
      "count" : 6780,
      "type" : "VEC4"
    },
    {
      "bufferView" : 4,
      "componentType" : 5126,
      "count" : 6780,
      "type" : "VEC2"
    },
    {
      "bufferView" : 5,
      "componentType" : 5126,
      "count" : 6780,
      "type" : "VEC2"
    }
  ]
}
