{
  "asset" : {
    "generator" : "UE Viewer (umodel) build 1590",
    "version" : "2.0"
  },
  "scene" : 0,
  "scenes" : [
    {
      "nodes" : [ 0 ]
    }
  ],
  "nodes" : [
    {
      "name" : "SM_carton_box_tray",
      "mesh" : 0
    }
  ],
  "materials" : [
    {
      "name" : "dummy_material_0",
      "pbrMetallicRoughness" : {
        "baseColorFactor" : [ 0.3, 0.3, 0.3, 1.0 ],
        "metallicFactor" : 0.1,
        "roughnessFactor" : 0.5
      }
    }
  ],
  "meshes" : [
    {
      "primitives" : [
        {
          "attributes" : {
            "POSITION" : 1,
            "NORMAL" : 2,
            "TANGENT" : 3,
            "TEXCOORD_0" : 4,
            "TEXCOORD_1" : 5
          },
          "indices" : 0,
          "material" : 0
        }
      ],
      "name" : "SM_carton_box_tray"
    }
  ],
  "buffers" : [
    {
      "uri" : "SM_carton_box_tray.bin",
      "byteLength" : 345216
    }
  ],
  "bufferViews" : [
    {
      "buffer" : 0,
      "byteOffset" : 0,
      "byteLength" : 11904
    },
    {
      "buffer" : 0,
      "byteOffset" : 11904,
      "byteLength" : 71424
    },
    {
      "buffer" : 0,
      "byteOffset" : 83328,
      "byteLength" : 71424
    },
    {
      "buffer" : 0,
      "byteOffset" : 154752,
      "byteLength" : 95232
    },
    {
      "buffer" : 0,
      "byteOffset" : 249984,
      "byteLength" : 47616
    },
    {
      "buffer" : 0,
      "byteOffset" : 297600,
      "byteLength" : 47616
    }
  ],
  "accessors" : [
    {
      "bufferView" : 0,
      "componentType" : 5123,
      "count" : 5952,
      "type" : "SCALAR"
    },
    {
      "bufferView" : 1,
      "min" : [ -0.46504, -0.00150881, -0.557336 ],
      "max" : [ 0.46504, 1.88817, 0.557336 ],
      "componentType" : 5126,
      "count" : 5952,
      "type" : "VEC3"
    },
    {
      "bufferView" : 2,
      "componentType" : 5126,
      "count" : 5952,
      "type" : "VEC3"
    },
    {
      "bufferView" : 3,
      "componentType" : 5126,
      "count" : 5952,
      "type" : "VEC4"
    },
    {
      "bufferView" : 4,
      "componentType" : 5126,
      "count" : 5952,
      "type" : "VEC2"
    },
    {
      "bufferView" : 5,
      "componentType" : 5126,
      "count" : 5952,
      "type" : "VEC2"
    }
  ]
}
