{
  "asset" : {
    "generator" : "UE Viewer (umodel) build 1590",
    "version" : "2.0"
  },
  "scene" : 0,
  "scenes" : [
    {
      "nodes" : [ 0 ]
    }
  ],
  "nodes" : [
    {
      "name" : "SM_construction_sign",
      "mesh" : 0
    }
  ],
  "materials" : [
    {
      "name" : "dummy_material_0",
      "pbrMetallicRoughness" : {
        "baseColorFactor" : [ 0.3, 0.3, 0.3, 1.0 ],
        "metallicFactor" : 0.1,
        "roughnessFactor" : 0.5
      }
    }
  ],
  "meshes" : [
    {
      "primitives" : [
        {
          "attributes" : {
            "POSITION" : 1,
            "NORMAL" : 2,
            "TANGENT" : 3,
            "TEXCOORD_0" : 4,
            "TEXCOORD_1" : 5
          },
          "indices" : 0,
          "material" : 0
        }
      ],
      "name" : "SM_construction_sign"
    }
  ],
  "buffers" : [
    {
      "uri" : "SM_construction_sign.bin",
      "byteLength" : 18444
    }
  ],
  "bufferViews" : [
    {
      "buffer" : 0,
      "byteOffset" : 0,
      "byteLength" : 636
    },
    {
      "buffer" : 0,
      "byteOffset" : 636,
      "byteLength" : 3816
    },
    {
      "buffer" : 0,
      "byteOffset" : 4452,
      "byteLength" : 3816
    },
    {
      "buffer" : 0,
      "byteOffset" : 8268,
      "byteLength" : 5088
    },
    {
      "buffer" : 0,
      "byteOffset" : 13356,
      "byteLength" : 2544
    },
    {
      "buffer" : 0,
      "byteOffset" : 15900,
      "byteLength" : 2544
    }
  ],
  "accessors" : [
    {
      "bufferView" : 0,
      "componentType" : 5123,
      "count" : 318,
      "type" : "SCALAR"
    },
    {
      "bufferView" : 1,
      "min" : [ -0.401653, -0.000438705, -0.424903 ],
      "max" : [ 0.401653, 2.13644, 0.425116 ],
      "componentType" : 5126,
      "count" : 318,
      "type" : "VEC3"
    },
    {
      "bufferView" : 2,
      "componentType" : 5126,
      "count" : 318,
      "type" : "VEC3"
    },
    {
      "bufferView" : 3,
      "componentType" : 5126,
      "count" : 318,
      "type" : "VEC4"
    },
    {
      "bufferView" : 4,
      "componentType" : 5126,
      "count" : 318,
      "type" : "VEC2"
    },
    {
      "bufferView" : 5,
      "componentType" : 5126,
      "count" : 318,
      "type" : "VEC2"
    }
  ]
}
