{
  "asset" : {
    "generator" : "UE Viewer (umodel) build 1590",
    "version" : "2.0"
  },
  "scene" : 0,
  "scenes" : [
    {
      "nodes" : [ 0 ]
    }
  ],
  "nodes" : [
    {
      "name" : "SM_carton_flat",
      "mesh" : 0
    }
  ],
  "materials" : [
    {
      "name" : "dummy_material_0",
      "pbrMetallicRoughness" : {
        "baseColorFactor" : [ 0.3, 0.3, 0.3, 1.0 ],
        "metallicFactor" : 0.1,
        "roughnessFactor" : 0.5
      }
    }
  ],
  "meshes" : [
    {
      "primitives" : [
        {
          "attributes" : {
            "POSITION" : 1,
            "NORMAL" : 2,
            "TANGENT" : 3,
            "TEXCOORD_0" : 4,
            "TEXCOORD_1" : 5
          },
          "indices" : 0,
          "material" : 0
        }
      ],
      "name" : "SM_carton_flat"
    }
  ],
  "buffers" : [
    {
      "uri" : "SM_carton_flat.bin",
      "byteLength" : 42108
    }
  ],
  "bufferViews" : [
    {
      "buffer" : 0,
      "byteOffset" : 0,
      "byteLength" : 1452
    },
    {
      "buffer" : 0,
      "byteOffset" : 1452,
      "byteLength" : 8712
    },
    {
      "buffer" : 0,
      "byteOffset" : 10164,
      "byteLength" : 8712
    },
    {
      "buffer" : 0,
      "byteOffset" : 18876,
      "byteLength" : 11616
    },
    {
      "buffer" : 0,
      "byteOffset" : 30492,
      "byteLength" : 5808
    },
    {
      "buffer" : 0,
      "byteOffset" : 36300,
      "byteLength" : 5808
    }
  ],
  "accessors" : [
    {
      "bufferView" : 0,
      "componentType" : 5123,
      "count" : 726,
      "type" : "SCALAR"
    },
    {
      "bufferView" : 1,
      "min" : [ -0.558101, -5.28998e-05, -0.438694 ],
      "max" : [ 0.558101, 0.0102862, 0.438694 ],
      "componentType" : 5126,
      "count" : 726,
      "type" : "VEC3"
    },
    {
      "bufferView" : 2,
      "componentType" : 5126,
      "count" : 726,
      "type" : "VEC3"
    },
    {
      "bufferView" : 3,
      "componentType" : 5126,
      "count" : 726,
      "type" : "VEC4"
    },
    {
      "bufferView" : 4,
      "componentType" : 5126,
      "count" : 726,
      "type" : "VEC2"
    },
    {
      "bufferView" : 5,
      "componentType" : 5126,
      "count" : 726,
      "type" : "VEC2"
    }
  ]
}
