{
  "asset" : {
    "generator" : "UE Viewer (umodel) build 1590",
    "version" : "2.0"
  },
  "scene" : 0,
  "scenes" : [
    {
      "nodes" : [ 0 ]
    }
  ],
  "nodes" : [
    {
      "name" : "SM_crate_4",
      "mesh" : 0
    }
  ],
  "materials" : [
    {
      "name" : "dummy_material_0",
      "pbrMetallicRoughness" : {
        "baseColorFactor" : [ 0.3, 0.3, 0.3, 1.0 ],
        "metallicFactor" : 0.1,
        "roughnessFactor" : 0.5
      }
    }
  ],
  "meshes" : [
    {
      "primitives" : [
        {
          "attributes" : {
            "POSITION" : 1,
            "NORMAL" : 2,
            "TANGENT" : 3,
            "TEXCOORD_0" : 4,
            "TEXCOORD_1" : 5
          },
          "indices" : 0,
          "material" : 0
        }
      ],
      "name" : "SM_crate_4"
    }
  ],
  "buffers" : [
    {
      "uri" : "SM_crate_4.bin",
      "byteLength" : 45588
    }
  ],
  "bufferViews" : [
    {
      "buffer" : 0,
      "byteOffset" : 0,
      "byteLength" : 1572
    },
    {
      "buffer" : 0,
      "byteOffset" : 1572,
      "byteLength" : 9432
    },
    {
      "buffer" : 0,
      "byteOffset" : 11004,
      "byteLength" : 9432
    },
    {
      "buffer" : 0,
      "byteOffset" : 20436,
      "byteLength" : 12576
    },
    {
      "buffer" : 0,
      "byteOffset" : 33012,
      "byteLength" : 6288
    },
    {
      "buffer" : 0,
      "byteOffset" : 39300,
      "byteLength" : 6288
    }
  ],
  "accessors" : [
    {
      "bufferView" : 0,
      "componentType" : 5123,
      "count" : 786,
      "type" : "SCALAR"
    },
    {
      "bufferView" : 1,
      "min" : [ -0.352719, -8.77267e-08, -0.541939 ],
      "max" : [ 0.352719, 0.310358, 0.541939 ],
      "componentType" : 5126,
      "count" : 786,
      "type" : "VEC3"
    },
    {
      "bufferView" : 2,
      "componentType" : 5126,
      "count" : 786,
      "type" : "VEC3"
    },
    {
      "bufferView" : 3,
      "componentType" : 5126,
      "count" : 786,
      "type" : "VEC4"
    },
    {
      "bufferView" : 4,
      "componentType" : 5126,
      "count" : 786,
      "type" : "VEC2"
    },
    {
      "bufferView" : 5,
      "componentType" : 5126,
      "count" : 786,
      "type" : "VEC2"
    }
  ]
}
