{
  "asset" : {
    "generator" : "UE Viewer (umodel) build 1590",
    "version" : "2.0"
  },
  "scene" : 0,
  "scenes" : [
    {
      "nodes" : [ 0 ]
    }
  ],
  "nodes" : [
    {
      "name" : "SM_crate_1",
      "mesh" : 0
    }
  ],
  "materials" : [
    {
      "name" : "dummy_material_0",
      "pbrMetallicRoughness" : {
        "baseColorFactor" : [ 0.3, 0.3, 0.3, 1.0 ],
        "metallicFactor" : 0.1,
        "roughnessFactor" : 0.5
      }
    }
  ],
  "meshes" : [
    {
      "primitives" : [
        {
          "attributes" : {
            "POSITION" : 1,
            "NORMAL" : 2,
            "TANGENT" : 3,
            "TEXCOORD_0" : 4
          },
          "indices" : 0,
          "material" : 0
        }
      ],
      "name" : "SM_crate_1"
    }
  ],
  "buffers" : [
    {
      "uri" : "SM_crate_1.bin",
      "byteLength" : 51000
    }
  ],
  "bufferViews" : [
    {
      "buffer" : 0,
      "byteOffset" : 0,
      "byteLength" : 2040
    },
    {
      "buffer" : 0,
      "byteOffset" : 2040,
      "byteLength" : 12240
    },
    {
      "buffer" : 0,
      "byteOffset" : 14280,
      "byteLength" : 12240
    },
    {
      "buffer" : 0,
      "byteOffset" : 26520,
      "byteLength" : 16320
    },
    {
      "buffer" : 0,
      "byteOffset" : 42840,
      "byteLength" : 8160
    }
  ],
  "accessors" : [
    {
      "bufferView" : 0,
      "componentType" : 5123,
      "count" : 1020,
      "type" : "SCALAR"
    },
    {
      "bufferView" : 1,
      "min" : [ -0.230362, -2.09429e-17, -0.349271 ],
      "max" : [ 0.230362, 0.383546, 0.349271 ],
      "componentType" : 5126,
      "count" : 1020,
      "type" : "VEC3"
    },
    {
      "bufferView" : 2,
      "componentType" : 5126,
      "count" : 1020,
      "type" : "VEC3"
    },
    {
      "bufferView" : 3,
      "componentType" : 5126,
      "count" : 1020,
      "type" : "VEC4"
    },
    {
      "bufferView" : 4,
      "componentType" : 5126,
      "count" : 1020,
      "type" : "VEC2"
    }
  ]
}
