{
  "asset" : {
    "generator" : "UE Viewer (umodel) build 1590",
    "version" : "2.0"
  },
  "scene" : 0,
  "scenes" : [
    {
      "nodes" : [ 0 ]
    }
  ],
  "nodes" : [
    {
      "name" : "SM_fence_103a",
      "mesh" : 0
    }
  ],
  "materials" : [
    {
      "name" : "dummy_material_0",
      "pbrMetallicRoughness" : {
        "baseColorFactor" : [ 0.3, 0.3, 0.3, 1.0 ],
        "metallicFactor" : 0.1,
        "roughnessFactor" : 0.5
      }
    },
    {
      "name" : "dummy_material_1",
      "pbrMetallicRoughness" : {
        "baseColorFactor" : [ 0.9, 0.3, 0.3, 1.0 ],
        "metallicFactor" : 0.1,
        "roughnessFactor" : 0.5
      }
    }
  ],
  "meshes" : [
    {
      "primitives" : [
        {
          "attributes" : {
            "POSITION" : 1,
            "NORMAL" : 2,
            "TANGENT" : 3,
            "TEXCOORD_0" : 4
          },
          "indices" : 0,
          "material" : 0
        },
        {
          "attributes" : {
            "POSITION" : 6,
            "NORMAL" : 7,
            "TANGENT" : 8,
            "TEXCOORD_0" : 9
          },
          "indices" : 5,
          "material" : 1
        }
      ],
      "name" : "SM_fence_103a"
    }
  ],
  "buffers" : [
    {
      "uri" : "SM_fence_103a.bin",
      "byteLength" : 13200
    }
  ],
  "bufferViews" : [
    {
      "buffer" : 0,
      "byteOffset" : 0,
      "byteLength" : 480
    },
    {
      "buffer" : 0,
      "byteOffset" : 480,
      "byteLength" : 2880
    },
    {
      "buffer" : 0,
      "byteOffset" : 3360,
      "byteLength" : 2880
    },
    {
      "buffer" : 0,
      "byteOffset" : 6240,
      "byteLength" : 3840
    },
    {
      "buffer" : 0,
      "byteOffset" : 10080,
      "byteLength" : 1920
    },
    {
      "buffer" : 0,
      "byteOffset" : 12000,
      "byteLength" : 48
    },
    {
      "buffer" : 0,
      "byteOffset" : 12048,
      "byteLength" : 288
    },
    {
      "buffer" : 0,
      "byteOffset" : 12336,
      "byteLength" : 288
    },
    {
      "buffer" : 0,
      "byteOffset" : 12624,
      "byteLength" : 384
    },
    {
      "buffer" : 0,
      "byteOffset" : 13008,
      "byteLength" : 192
    }
  ],
  "accessors" : [
    {
      "bufferView" : 0,
      "componentType" : 5123,
      "count" : 240,
      "type" : "SCALAR"
    },
    {
      "bufferView" : 1,
      "min" : [ -0.0661185, -1.85288e-18, -3.99999 ],
      "max" : [ 0.0818622, 1, 0.0302598 ],
      "componentType" : 5126,
      "count" : 240,
      "type" : "VEC3"
    },
    {
      "bufferView" : 2,
      "componentType" : 5126,
      "count" : 240,
      "type" : "VEC3"
    },
    {
      "bufferView" : 3,
      "componentType" : 5126,
      "count" : 240,
      "type" : "VEC4"
    },
    {
      "bufferView" : 4,
      "componentType" : 5126,
      "count" : 240,
      "type" : "VEC2"
    },
    {
      "bufferView" : 5,
      "componentType" : 5123,
      "count" : 24,
      "type" : "SCALAR"
    },
    {
      "bufferView" : 6,
      "min" : [ -0.0358582, 0, -4 ],
      "max" : [ 0.0516028, 0.95, 5.81707e-17 ],
      "componentType" : 5126,
      "count" : 24,
      "type" : "VEC3"
    },
    {
      "bufferView" : 7,
      "componentType" : 5126,
      "count" : 24,
      "type" : "VEC3"
    },
    {
      "bufferView" : 8,
      "componentType" : 5126,
      "count" : 24,
      "type" : "VEC4"
    },
    {
      "bufferView" : 9,
      "componentType" : 5126,
      "count" : 24,
      "type" : "VEC2"
    }
  ]
}
