{
  "asset" : {
    "generator" : "UE Viewer (umodel) build 1590",
    "version" : "2.0"
  },
  "scene" : 0,
  "scenes" : [
    {
      "nodes" : [ 0 ]
    }
  ],
  "nodes" : [
    {
      "name" : "SM_fence_102_long",
      "mesh" : 0
    }
  ],
  "materials" : [
    {
      "name" : "dummy_material_0",
      "pbrMetallicRoughness" : {
        "baseColorFactor" : [ 0.3, 0.3, 0.3, 1.0 ],
        "metallicFactor" : 0.1,
        "roughnessFactor" : 0.5
      }
    },
    {
      "name" : "dummy_material_1",
      "pbrMetallicRoughness" : {
        "baseColorFactor" : [ 0.9, 0.3, 0.3, 1.0 ],
        "metallicFactor" : 0.1,
        "roughnessFactor" : 0.5
      }
    }
  ],
  "meshes" : [
    {
      "primitives" : [
        {
          "attributes" : {
            "POSITION" : 1,
            "NORMAL" : 2,
            "TANGENT" : 3,
            "TEXCOORD_0" : 4,
            "TEXCOORD_1" : 5
          },
          "indices" : 0,
          "material" : 0
        },
        {
          "attributes" : {
            "POSITION" : 7,
            "NORMAL" : 8,
            "TANGENT" : 9,
            "TEXCOORD_0" : 10,
            "TEXCOORD_1" : 11
          },
          "indices" : 6,
          "material" : 1
        }
      ],
      "name" : "SM_fence_102_long"
    }
  ],
  "buffers" : [
    {
      "uri" : "SM_fence_102_long.bin",
      "byteLength" : 38976
    }
  ],
  "bufferViews" : [
    {
      "buffer" : 0,
      "byteOffset" : 0,
      "byteLength" : 264
    },
    {
      "buffer" : 0,
      "byteOffset" : 264,
      "byteLength" : 1584
    },
    {
      "buffer" : 0,
      "byteOffset" : 1848,
      "byteLength" : 1584
    },
    {
      "buffer" : 0,
      "byteOffset" : 3432,
      "byteLength" : 2112
    },
    {
      "buffer" : 0,
      "byteOffset" : 5544,
      "byteLength" : 1056
    },
    {
      "buffer" : 0,
      "byteOffset" : 6600,
      "byteLength" : 1056
    },
    {
      "buffer" : 0,
      "byteOffset" : 7656,
      "byteLength" : 1080
    },
    {
      "buffer" : 0,
      "byteOffset" : 8736,
      "byteLength" : 6480
    },
    {
      "buffer" : 0,
      "byteOffset" : 15216,
      "byteLength" : 6480
    },
    {
      "buffer" : 0,
      "byteOffset" : 21696,
      "byteLength" : 8640
    },
    {
      "buffer" : 0,
      "byteOffset" : 30336,
      "byteLength" : 4320
    },
    {
      "buffer" : 0,
      "byteOffset" : 34656,
      "byteLength" : 4320
    }
  ],
  "accessors" : [
    {
      "bufferView" : 0,
      "componentType" : 5123,
      "count" : 132,
      "type" : "SCALAR"
    },
    {
      "bufferView" : 1,
      "min" : [ -0.0747266, -4.57569e-18, -4 ],
      "max" : [ 0.0747266, 1.2, 0.0747267 ],
      "componentType" : 5126,
      "count" : 132,
      "type" : "VEC3"
    },
    {
      "bufferView" : 2,
      "componentType" : 5126,
      "count" : 132,
      "type" : "VEC3"
    },
    {
      "bufferView" : 3,
      "componentType" : 5126,
      "count" : 132,
      "type" : "VEC4"
    },
    {
      "bufferView" : 4,
      "componentType" : 5126,
      "count" : 132,
      "type" : "VEC2"
    },
    {
      "bufferView" : 5,
      "componentType" : 5126,
      "count" : 132,
      "type" : "VEC2"
    },
    {
      "bufferView" : 6,
      "componentType" : 5123,
      "count" : 540,
      "type" : "SCALAR"
    },
    {
      "bufferView" : 7,
      "min" : [ -0.0747266, -0.00351723, -16 ],
      "max" : [ 0.0747266, 1.20352, -3.92527 ],
      "componentType" : 5126,
      "count" : 540,
      "type" : "VEC3"
    },
    {
      "bufferView" : 8,
      "componentType" : 5126,
      "count" : 540,
      "type" : "VEC3"
    },
    {
      "bufferView" : 9,
      "componentType" : 5126,
      "count" : 540,
      "type" : "VEC4"
    },
    {
      "bufferView" : 10,
      "componentType" : 5126,
      "count" : 540,
      "type" : "VEC2"
    },
    {
      "bufferView" : 11,
      "componentType" : 5126,
      "count" : 540,
      "type" : "VEC2"
    }
  ]
}
