{
  "asset" : {
    "generator" : "UE Viewer (umodel) build 1590",
    "version" : "2.0"
  },
  "scene" : 0,
  "scenes" : [
    {
      "nodes" : [ 0 ]
    }
  ],
  "nodes" : [
    {
      "name" : "SM_fence_107a",
      "mesh" : 0
    }
  ],
  "materials" : [
    {
      "name" : "dummy_material_0",
      "pbrMetallicRoughness" : {
        "baseColorFactor" : [ 0.3, 0.3, 0.3, 1.0 ],
        "metallicFactor" : 0.1,
        "roughnessFactor" : 0.5
      }
    }
  ],
  "meshes" : [
    {
      "primitives" : [
        {
          "attributes" : {
            "POSITION" : 1,
            "NORMAL" : 2,
            "TANGENT" : 3,
            "TEXCOORD_0" : 4,
            "TEXCOORD_1" : 5
          },
          "indices" : 0,
          "material" : 0
        }
      ],
      "name" : "SM_fence_107a"
    }
  ],
  "buffers" : [
    {
      "uri" : "SM_fence_107a.bin",
      "byteLength" : 28536
    }
  ],
  "bufferViews" : [
    {
      "buffer" : 0,
      "byteOffset" : 0,
      "byteLength" : 984
    },
    {
      "buffer" : 0,
      "byteOffset" : 984,
      "byteLength" : 5904
    },
    {
      "buffer" : 0,
      "byteOffset" : 6888,
      "byteLength" : 5904
    },
    {
      "buffer" : 0,
      "byteOffset" : 12792,
      "byteLength" : 7872
    },
    {
      "buffer" : 0,
      "byteOffset" : 20664,
      "byteLength" : 3936
    },
    {
      "buffer" : 0,
      "byteOffset" : 24600,
      "byteLength" : 3936
    }
  ],
  "accessors" : [
    {
      "bufferView" : 0,
      "componentType" : 5123,
      "count" : 492,
      "type" : "SCALAR"
    },
    {
      "bufferView" : 1,
      "min" : [ -0.165672, -0.00249096, -5.92936 ],
      "max" : [ 0.0838121, 2.13883, -0.0306445 ],
      "componentType" : 5126,
      "count" : 492,
      "type" : "VEC3"
    },
    {
      "bufferView" : 2,
      "componentType" : 5126,
      "count" : 492,
      "type" : "VEC3"
    },
    {
      "bufferView" : 3,
      "componentType" : 5126,
      "count" : 492,
      "type" : "VEC4"
    },
    {
      "bufferView" : 4,
      "componentType" : 5126,
      "count" : 492,
      "type" : "VEC2"
    },
    {
      "bufferView" : 5,
      "componentType" : 5126,
      "count" : 492,
      "type" : "VEC2"
    }
  ]
}
