{
  "asset" : {
    "generator" : "UE Viewer (umodel) build 1590",
    "version" : "2.0"
  },
  "scene" : 0,
  "scenes" : [
    {
      "nodes" : [ 0 ]
    }
  ],
  "nodes" : [
    {
      "name" : "SM_fence_104gate",
      "mesh" : 0
    }
  ],
  "materials" : [
    {
      "name" : "dummy_material_0",
      "pbrMetallicRoughness" : {
        "baseColorFactor" : [ 0.3, 0.3, 0.3, 1.0 ],
        "metallicFactor" : 0.1,
        "roughnessFactor" : 0.5
      }
    },
    {
      "name" : "dummy_material_1",
      "pbrMetallicRoughness" : {
        "baseColorFactor" : [ 0.9, 0.3, 0.3, 1.0 ],
        "metallicFactor" : 0.1,
        "roughnessFactor" : 0.5
      }
    },
    {
      "name" : "dummy_material_2",
      "pbrMetallicRoughness" : {
        "baseColorFactor" : [ 0.3, 0.9, 0.3, 1.0 ],
        "metallicFactor" : 0.1,
        "roughnessFactor" : 0.5
      }
    }
  ],
  "meshes" : [
    {
      "primitives" : [
        {
          "attributes" : {
            "POSITION" : 1,
            "NORMAL" : 2,
            "TANGENT" : 3,
            "TEXCOORD_0" : 4,
            "TEXCOORD_1" : 5
          },
          "indices" : 0,
          "material" : 0
        },
        {
          "attributes" : {
            "POSITION" : 7,
            "NORMAL" : 8,
            "TANGENT" : 9,
            "TEXCOORD_0" : 10,
            "TEXCOORD_1" : 11
          },
          "indices" : 6,
          "material" : 1
        },
        {
          "attributes" : {
            "POSITION" : 13,
            "NORMAL" : 14,
            "TANGENT" : 15,
            "TEXCOORD_0" : 16,
            "TEXCOORD_1" : 17
          },
          "indices" : 12,
          "material" : 2
        }
      ],
      "name" : "SM_fence_104gate"
    }
  ],
  "buffers" : [
    {
      "uri" : "SM_fence_104gate.bin",
      "byteLength" : 20532
    }
  ],
  "bufferViews" : [
    {
      "buffer" : 0,
      "byteOffset" : 0,
      "byteLength" : 48
    },
    {
      "buffer" : 0,
      "byteOffset" : 48,
      "byteLength" : 288
    },
    {
      "buffer" : 0,
      "byteOffset" : 336,
      "byteLength" : 288
    },
    {
      "buffer" : 0,
      "byteOffset" : 624,
      "byteLength" : 384
    },
    {
      "buffer" : 0,
      "byteOffset" : 1008,
      "byteLength" : 192
    },
    {
      "buffer" : 0,
      "byteOffset" : 1200,
      "byteLength" : 192
    },
    {
      "buffer" : 0,
      "byteOffset" : 1392,
      "byteLength" : 12
    },
    {
      "buffer" : 0,
      "byteOffset" : 1404,
      "byteLength" : 72
    },
    {
      "buffer" : 0,
      "byteOffset" : 1476,
      "byteLength" : 72
    },
    {
      "buffer" : 0,
      "byteOffset" : 1548,
      "byteLength" : 96
    },
    {
      "buffer" : 0,
      "byteOffset" : 1644,
      "byteLength" : 48
    },
    {
      "buffer" : 0,
      "byteOffset" : 1692,
      "byteLength" : 48
    },
    {
      "buffer" : 0,
      "byteOffset" : 1740,
      "byteLength" : 648
    },
    {
      "buffer" : 0,
      "byteOffset" : 2388,
      "byteLength" : 3888
    },
    {
      "buffer" : 0,
      "byteOffset" : 6276,
      "byteLength" : 3888
    },
    {
      "buffer" : 0,
      "byteOffset" : 10164,
      "byteLength" : 5184
    },
    {
      "buffer" : 0,
      "byteOffset" : 15348,
      "byteLength" : 2592
    },
    {
      "buffer" : 0,
      "byteOffset" : 17940,
      "byteLength" : 2592
    }
  ],
  "accessors" : [
    {
      "bufferView" : 0,
      "componentType" : 5123,
      "count" : 24,
      "type" : "SCALAR"
    },
    {
      "bufferView" : 1,
      "min" : [ -0.0308491, -2.02032e-08, -1.96143 ],
      "max" : [ 0.0308491, 2.13934, -0.09729 ],
      "componentType" : 5126,
      "count" : 24,
      "type" : "VEC3"
    },
    {
      "bufferView" : 2,
      "componentType" : 5126,
      "count" : 24,
      "type" : "VEC3"
    },
    {
      "bufferView" : 3,
      "componentType" : 5126,
      "count" : 24,
      "type" : "VEC4"
    },
    {
      "bufferView" : 4,
      "componentType" : 5126,
      "count" : 24,
      "type" : "VEC2"
    },
    {
      "bufferView" : 5,
      "componentType" : 5126,
      "count" : 24,
      "type" : "VEC2"
    },
    {
      "bufferView" : 6,
      "componentType" : 5123,
      "count" : 6,
      "type" : "SCALAR"
    },
    {
      "bufferView" : 7,
      "min" : [ -6.10352e-07, 0.0999997, -1.856 ],
      "max" : [ -6.10352e-07, 2.06385, -0.180635 ],
      "componentType" : 5126,
      "count" : 6,
      "type" : "VEC3"
    },
    {
      "bufferView" : 8,
      "componentType" : 5126,
      "count" : 6,
      "type" : "VEC3"
    },
    {
      "bufferView" : 9,
      "componentType" : 5126,
      "count" : 6,
      "type" : "VEC4"
    },
    {
      "bufferView" : 10,
      "componentType" : 5126,
      "count" : 6,
      "type" : "VEC2"
    },
    {
      "bufferView" : 11,
      "componentType" : 5126,
      "count" : 6,
      "type" : "VEC2"
    },
    {
      "bufferView" : 12,
      "componentType" : 5123,
      "count" : 324,
      "type" : "SCALAR"
    },
    {
      "bufferView" : 13,
      "min" : [ -0.0308491, -2.02032e-08, -1.99479 ],
      "max" : [ 0.0388684, 2.13934, -0.0213569 ],
      "componentType" : 5126,
      "count" : 324,
      "type" : "VEC3"
    },
    {
      "bufferView" : 14,
      "componentType" : 5126,
      "count" : 324,
      "type" : "VEC3"
    },
    {
      "bufferView" : 15,
      "componentType" : 5126,
      "count" : 324,
      "type" : "VEC4"
    },
    {
      "bufferView" : 16,
      "componentType" : 5126,
      "count" : 324,
      "type" : "VEC2"
    },
    {
      "bufferView" : 17,
      "componentType" : 5126,
      "count" : 324,
      "type" : "VEC2"
    }
  ]
}
