{
  "asset" : {
    "generator" : "UE Viewer (umodel) build 1590",
    "version" : "2.0"
  },
  "scene" : 0,
  "scenes" : [
    {
      "nodes" : [ 0 ]
    }
  ],
  "nodes" : [
    {
      "name" : "SM_fence_105",
      "mesh" : 0
    }
  ],
  "materials" : [
    {
      "name" : "dummy_material_0",
      "pbrMetallicRoughness" : {
        "baseColorFactor" : [ 0.3, 0.3, 0.3, 1.0 ],
        "metallicFactor" : 0.1,
        "roughnessFactor" : 0.5
      }
    },
    {
      "name" : "dummy_material_1",
      "pbrMetallicRoughness" : {
        "baseColorFactor" : [ 0.9, 0.3, 0.3, 1.0 ],
        "metallicFactor" : 0.1,
        "roughnessFactor" : 0.5
      }
    }
  ],
  "meshes" : [
    {
      "primitives" : [
        {
          "attributes" : {
            "POSITION" : 1,
            "NORMAL" : 2,
            "TANGENT" : 3,
            "TEXCOORD_0" : 4
          },
          "indices" : 0,
          "material" : 0
        },
        {
          "attributes" : {
            "POSITION" : 6,
            "NORMAL" : 7,
            "TANGENT" : 8,
            "TEXCOORD_0" : 9
          },
          "indices" : 5,
          "material" : 1
        }
      ],
      "name" : "SM_fence_105"
    }
  ],
  "buffers" : [
    {
      "uri" : "SM_fence_105.bin",
      "byteLength" : 9900
    }
  ],
  "bufferViews" : [
    {
      "buffer" : 0,
      "byteOffset" : 0,
      "byteLength" : 384
    },
    {
      "buffer" : 0,
      "byteOffset" : 384,
      "byteLength" : 2304
    },
    {
      "buffer" : 0,
      "byteOffset" : 2688,
      "byteLength" : 2304
    },
    {
      "buffer" : 0,
      "byteOffset" : 4992,
      "byteLength" : 3072
    },
    {
      "buffer" : 0,
      "byteOffset" : 8064,
      "byteLength" : 1536
    },
    {
      "buffer" : 0,
      "byteOffset" : 9600,
      "byteLength" : 12
    },
    {
      "buffer" : 0,
      "byteOffset" : 9612,
      "byteLength" : 72
    },
    {
      "buffer" : 0,
      "byteOffset" : 9684,
      "byteLength" : 72
    },
    {
      "buffer" : 0,
      "byteOffset" : 9756,
      "byteLength" : 96
    },
    {
      "buffer" : 0,
      "byteOffset" : 9852,
      "byteLength" : 48
    }
  ],
  "accessors" : [
    {
      "bufferView" : 0,
      "componentType" : 5123,
      "count" : 192,
      "type" : "SCALAR"
    },
    {
      "bufferView" : 1,
      "min" : [ -0.04, -2.12115e-18, -4 ],
      "max" : [ 0.04, 4, 0.034641 ],
      "componentType" : 5126,
      "count" : 192,
      "type" : "VEC3"
    },
    {
      "bufferView" : 2,
      "componentType" : 5126,
      "count" : 192,
      "type" : "VEC3"
    },
    {
      "bufferView" : 3,
      "componentType" : 5126,
      "count" : 192,
      "type" : "VEC4"
    },
    {
      "bufferView" : 4,
      "componentType" : 5126,
      "count" : 192,
      "type" : "VEC2"
    },
    {
      "bufferView" : 5,
      "componentType" : 5123,
      "count" : 6,
      "type" : "SCALAR"
    },
    {
      "bufferView" : 6,
      "min" : [ -6.10352e-07, 0.1, -3.92257 ],
      "max" : [ -6.10352e-07, 3.80359, -0.0806055 ],
      "componentType" : 5126,
      "count" : 6,
      "type" : "VEC3"
    },
    {
      "bufferView" : 7,
      "componentType" : 5126,
      "count" : 6,
      "type" : "VEC3"
    },
    {
      "bufferView" : 8,
      "componentType" : 5126,
      "count" : 6,
      "type" : "VEC4"
    },
    {
      "bufferView" : 9,
      "componentType" : 5126,
      "count" : 6,
      "type" : "VEC2"
    }
  ]
}
