{
  "asset" : {
    "generator" : "UE Viewer (umodel) build 1590",
    "version" : "2.0"
  },
  "scene" : 0,
  "scenes" : [
    {
      "nodes" : [ 0 ]
    }
  ],
  "nodes" : [
    {
      "name" : "SM_fence_104gateFrame",
      "mesh" : 0
    }
  ],
  "materials" : [
    {
      "name" : "dummy_material_0",
      "pbrMetallicRoughness" : {
        "baseColorFactor" : [ 0.3, 0.3, 0.3, 1.0 ],
        "metallicFactor" : 0.1,
        "roughnessFactor" : 0.5
      }
    },
    {
      "name" : "dummy_material_1",
      "pbrMetallicRoughness" : {
        "baseColorFactor" : [ 0.9, 0.3, 0.3, 1.0 ],
        "metallicFactor" : 0.1,
        "roughnessFactor" : 0.5
      }
    }
  ],
  "meshes" : [
    {
      "primitives" : [
        {
          "attributes" : {
            "POSITION" : 1,
            "NORMAL" : 2,
            "TANGENT" : 3,
            "TEXCOORD_0" : 4
          },
          "indices" : 0,
          "material" : 0
        },
        {
          "attributes" : {
            "POSITION" : 6,
            "NORMAL" : 7,
            "TANGENT" : 8,
            "TEXCOORD_0" : 9
          },
          "indices" : 5,
          "material" : 1
        }
      ],
      "name" : "SM_fence_104gateFrame"
    }
  ],
  "buffers" : [
    {
      "uri" : "SM_fence_104gateFrame.bin",
      "byteLength" : 13200
    }
  ],
  "bufferViews" : [
    {
      "buffer" : 0,
      "byteOffset" : 0,
      "byteLength" : 264
    },
    {
      "buffer" : 0,
      "byteOffset" : 264,
      "byteLength" : 1584
    },
    {
      "buffer" : 0,
      "byteOffset" : 1848,
      "byteLength" : 1584
    },
    {
      "buffer" : 0,
      "byteOffset" : 3432,
      "byteLength" : 2112
    },
    {
      "buffer" : 0,
      "byteOffset" : 5544,
      "byteLength" : 1056
    },
    {
      "buffer" : 0,
      "byteOffset" : 6600,
      "byteLength" : 264
    },
    {
      "buffer" : 0,
      "byteOffset" : 6864,
      "byteLength" : 1584
    },
    {
      "buffer" : 0,
      "byteOffset" : 8448,
      "byteLength" : 1584
    },
    {
      "buffer" : 0,
      "byteOffset" : 10032,
      "byteLength" : 2112
    },
    {
      "buffer" : 0,
      "byteOffset" : 12144,
      "byteLength" : 1056
    }
  ],
  "accessors" : [
    {
      "bufferView" : 0,
      "componentType" : 5123,
      "count" : 132,
      "type" : "SCALAR"
    },
    {
      "bufferView" : 1,
      "min" : [ -0.04, -2.12115e-18, -4 ],
      "max" : [ 0.04, 2.5, 0.034641 ],
      "componentType" : 5126,
      "count" : 132,
      "type" : "VEC3"
    },
    {
      "bufferView" : 2,
      "componentType" : 5126,
      "count" : 132,
      "type" : "VEC3"
    },
    {
      "bufferView" : 3,
      "componentType" : 5126,
      "count" : 132,
      "type" : "VEC4"
    },
    {
      "bufferView" : 4,
      "componentType" : 5126,
      "count" : 132,
      "type" : "VEC2"
    },
    {
      "bufferView" : 5,
      "componentType" : 5123,
      "count" : 132,
      "type" : "SCALAR"
    },
    {
      "bufferView" : 6,
      "min" : [ -2.44416e-06, 2.27222, -3.74837 ],
      "max" : [ -2.43866e-06, 2.47852, -0.140078 ],
      "componentType" : 5126,
      "count" : 132,
      "type" : "VEC3"
    },
    {
      "bufferView" : 7,
      "componentType" : 5126,
      "count" : 132,
      "type" : "VEC3"
    },
    {
      "bufferView" : 8,
      "componentType" : 5126,
      "count" : 132,
      "type" : "VEC4"
    },
    {
      "bufferView" : 9,
      "componentType" : 5126,
      "count" : 132,
      "type" : "VEC2"
    }
  ]
}
