{
  "asset" : {
    "generator" : "UE Viewer (umodel) build 1590",
    "version" : "2.0"
  },
  "scene" : 0,
  "scenes" : [
    {
      "nodes" : [ 0 ]
    }
  ],
  "nodes" : [
    {
      "name" : "SM_fence_107b",
      "mesh" : 0
    }
  ],
  "materials" : [
    {
      "name" : "dummy_material_0",
      "pbrMetallicRoughness" : {
        "baseColorFactor" : [ 0.3, 0.3, 0.3, 1.0 ],
        "metallicFactor" : 0.1,
        "roughnessFactor" : 0.5
      }
    }
  ],
  "meshes" : [
    {
      "primitives" : [
        {
          "attributes" : {
            "POSITION" : 1,
            "NORMAL" : 2,
            "TANGENT" : 3,
            "TEXCOORD_0" : 4,
            "TEXCOORD_1" : 5
          },
          "indices" : 0,
          "material" : 0
        }
      ],
      "name" : "SM_fence_107b"
    }
  ],
  "buffers" : [
    {
      "uri" : "SM_fence_107b.bin",
      "byteLength" : 30624
    }
  ],
  "bufferViews" : [
    {
      "buffer" : 0,
      "byteOffset" : 0,
      "byteLength" : 1056
    },
    {
      "buffer" : 0,
      "byteOffset" : 1056,
      "byteLength" : 6336
    },
    {
      "buffer" : 0,
      "byteOffset" : 7392,
      "byteLength" : 6336
    },
    {
      "buffer" : 0,
      "byteOffset" : 13728,
      "byteLength" : 8448
    },
    {
      "buffer" : 0,
      "byteOffset" : 22176,
      "byteLength" : 4224
    },
    {
      "buffer" : 0,
      "byteOffset" : 26400,
      "byteLength" : 4224
    }
  ],
  "accessors" : [
    {
      "bufferView" : 0,
      "componentType" : 5123,
      "count" : 528,
      "type" : "SCALAR"
    },
    {
      "bufferView" : 1,
      "min" : [ -0.0381839, -0.00113809, -5.96935 ],
      "max" : [ 0.175638, 2.08185, -0.0306494 ],
      "componentType" : 5126,
      "count" : 528,
      "type" : "VEC3"
    },
    {
      "bufferView" : 2,
      "componentType" : 5126,
      "count" : 528,
      "type" : "VEC3"
    },
    {
      "bufferView" : 3,
      "componentType" : 5126,
      "count" : 528,
      "type" : "VEC4"
    },
    {
      "bufferView" : 4,
      "componentType" : 5126,
      "count" : 528,
      "type" : "VEC2"
    },
    {
      "bufferView" : 5,
      "componentType" : 5126,
      "count" : 528,
      "type" : "VEC2"
    }
  ]
}
