{
  "asset" : {
    "generator" : "UE Viewer (umodel) build 1590",
    "version" : "2.0"
  },
  "scene" : 0,
  "scenes" : [
    {
      "nodes" : [ 0 ]
    }
  ],
  "nodes" : [
    {
      "name" : "SM_gas_can_2",
      "mesh" : 0
    }
  ],
  "materials" : [
    {
      "name" : "dummy_material_0",
      "pbrMetallicRoughness" : {
        "baseColorFactor" : [ 0.3, 0.3, 0.3, 1.0 ],
        "metallicFactor" : 0.1,
        "roughnessFactor" : 0.5
      }
    }
  ],
  "meshes" : [
    {
      "primitives" : [
        {
          "attributes" : {
            "POSITION" : 1,
            "NORMAL" : 2,
            "TANGENT" : 3,
            "TEXCOORD_0" : 4,
            "TEXCOORD_1" : 5
          },
          "indices" : 0,
          "material" : 0
        }
      ],
      "name" : "SM_gas_can_2"
    }
  ],
  "buffers" : [
    {
      "uri" : "SM_gas_can_2.bin",
      "byteLength" : 57768
    }
  ],
  "bufferViews" : [
    {
      "buffer" : 0,
      "byteOffset" : 0,
      "byteLength" : 1992
    },
    {
      "buffer" : 0,
      "byteOffset" : 1992,
      "byteLength" : 11952
    },
    {
      "buffer" : 0,
      "byteOffset" : 13944,
      "byteLength" : 11952
    },
    {
      "buffer" : 0,
      "byteOffset" : 25896,
      "byteLength" : 15936
    },
    {
      "buffer" : 0,
      "byteOffset" : 41832,
      "byteLength" : 7968
    },
    {
      "buffer" : 0,
      "byteOffset" : 49800,
      "byteLength" : 7968
    }
  ],
  "accessors" : [
    {
      "bufferView" : 0,
      "componentType" : 5123,
      "count" : 996,
      "type" : "SCALAR"
    },
    {
      "bufferView" : 1,
      "min" : [ -0.0839635, -2.95781e-08, -0.206549 ],
      "max" : [ 0.0839635, 0.571343, 0.221049 ],
      "componentType" : 5126,
      "count" : 996,
      "type" : "VEC3"
    },
    {
      "bufferView" : 2,
      "componentType" : 5126,
      "count" : 996,
      "type" : "VEC3"
    },
    {
      "bufferView" : 3,
      "componentType" : 5126,
      "count" : 996,
      "type" : "VEC4"
    },
    {
      "bufferView" : 4,
      "componentType" : 5126,
      "count" : 996,
      "type" : "VEC2"
    },
    {
      "bufferView" : 5,
      "componentType" : 5126,
      "count" : 996,
      "type" : "VEC2"
    }
  ]
}
