{
  "asset" : {
    "generator" : "UE Viewer (umodel) build 1590",
    "version" : "2.0"
  },
  "scene" : 0,
  "scenes" : [
    {
      "nodes" : [ 0 ]
    }
  ],
  "nodes" : [
    {
      "name" : "SM_hose_01",
      "mesh" : 0
    }
  ],
  "materials" : [
    {
      "name" : "dummy_material_0",
      "pbrMetallicRoughness" : {
        "baseColorFactor" : [ 0.3, 0.3, 0.3, 1.0 ],
        "metallicFactor" : 0.1,
        "roughnessFactor" : 0.5
      }
    }
  ],
  "meshes" : [
    {
      "primitives" : [
        {
          "attributes" : {
            "POSITION" : 1,
            "NORMAL" : 2,
            "TANGENT" : 3,
            "TEXCOORD_0" : 4
          },
          "indices" : 0,
          "material" : 0
        }
      ],
      "name" : "SM_hose_01"
    }
  ],
  "buffers" : [
    {
      "uri" : "SM_hose_01.bin",
      "byteLength" : 65100
    }
  ],
  "bufferViews" : [
    {
      "buffer" : 0,
      "byteOffset" : 0,
      "byteLength" : 2604
    },
    {
      "buffer" : 0,
      "byteOffset" : 2604,
      "byteLength" : 15624
    },
    {
      "buffer" : 0,
      "byteOffset" : 18228,
      "byteLength" : 15624
    },
    {
      "buffer" : 0,
      "byteOffset" : 33852,
      "byteLength" : 20832
    },
    {
      "buffer" : 0,
      "byteOffset" : 54684,
      "byteLength" : 10416
    }
  ],
  "accessors" : [
    {
      "bufferView" : 0,
      "componentType" : 5123,
      "count" : 1302,
      "type" : "SCALAR"
    },
    {
      "bufferView" : 1,
      "min" : [ -0.251215, -0.108124, -7.41188 ],
      "max" : [ 4.90755, 1.00594, 0.86373 ],
      "componentType" : 5126,
      "count" : 1302,
      "type" : "VEC3"
    },
    {
      "bufferView" : 2,
      "componentType" : 5126,
      "count" : 1302,
      "type" : "VEC3"
    },
    {
      "bufferView" : 3,
      "componentType" : 5126,
      "count" : 1302,
      "type" : "VEC4"
    },
    {
      "bufferView" : 4,
      "componentType" : 5126,
      "count" : 1302,
      "type" : "VEC2"
    }
  ]
}
