{
  "asset" : {
    "generator" : "UE Viewer (umodel) build 1590",
    "version" : "2.0"
  },
  "scene" : 0,
  "scenes" : [
    {
      "nodes" : [ 0 ]
    }
  ],
  "nodes" : [
    {
      "name" : "SM_hammer",
      "mesh" : 0
    }
  ],
  "materials" : [
    {
      "name" : "dummy_material_0",
      "pbrMetallicRoughness" : {
        "baseColorFactor" : [ 0.3, 0.3, 0.3, 1.0 ],
        "metallicFactor" : 0.1,
        "roughnessFactor" : 0.5
      }
    }
  ],
  "meshes" : [
    {
      "primitives" : [
        {
          "attributes" : {
            "POSITION" : 1,
            "NORMAL" : 2,
            "TANGENT" : 3,
            "TEXCOORD_0" : 4,
            "TEXCOORD_1" : 5
          },
          "indices" : 0,
          "material" : 0
        }
      ],
      "name" : "SM_hammer"
    }
  ],
  "buffers" : [
    {
      "uri" : "SM_hammer.bin",
      "byteLength" : 30276
    }
  ],
  "bufferViews" : [
    {
      "buffer" : 0,
      "byteOffset" : 0,
      "byteLength" : 1044
    },
    {
      "buffer" : 0,
      "byteOffset" : 1044,
      "byteLength" : 6264
    },
    {
      "buffer" : 0,
      "byteOffset" : 7308,
      "byteLength" : 6264
    },
    {
      "buffer" : 0,
      "byteOffset" : 13572,
      "byteLength" : 8352
    },
    {
      "buffer" : 0,
      "byteOffset" : 21924,
      "byteLength" : 4176
    },
    {
      "buffer" : 0,
      "byteOffset" : 26100,
      "byteLength" : 4176
    }
  ],
  "accessors" : [
    {
      "bufferView" : 0,
      "componentType" : 5123,
      "count" : 522,
      "type" : "SCALAR"
    },
    {
      "bufferView" : 1,
      "min" : [ -0.315011, -0.0391737, -0.151126 ],
      "max" : [ 0.315011, 0.0391735, 0.151126 ],
      "componentType" : 5126,
      "count" : 522,
      "type" : "VEC3"
    },
    {
      "bufferView" : 2,
      "componentType" : 5126,
      "count" : 522,
      "type" : "VEC3"
    },
    {
      "bufferView" : 3,
      "componentType" : 5126,
      "count" : 522,
      "type" : "VEC4"
    },
    {
      "bufferView" : 4,
      "componentType" : 5126,
      "count" : 522,
      "type" : "VEC2"
    },
    {
      "bufferView" : 5,
      "componentType" : 5126,
      "count" : 522,
      "type" : "VEC2"
    }
  ]
}
