{
  "asset" : {
    "generator" : "UE Viewer (umodel) build 1590",
    "version" : "2.0"
  },
  "scene" : 0,
  "scenes" : [
    {
      "nodes" : [ 0 ]
    }
  ],
  "nodes" : [
    {
      "name" : "SM_ice_machine",
      "mesh" : 0
    }
  ],
  "materials" : [
    {
      "name" : "dummy_material_0",
      "pbrMetallicRoughness" : {
        "baseColorFactor" : [ 0.3, 0.3, 0.3, 1.0 ],
        "metallicFactor" : 0.1,
        "roughnessFactor" : 0.5
      }
    }
  ],
  "meshes" : [
    {
      "primitives" : [
        {
          "attributes" : {
            "POSITION" : 1,
            "NORMAL" : 2,
            "TANGENT" : 3,
            "TEXCOORD_0" : 4,
            "TEXCOORD_1" : 5
          },
          "indices" : 0,
          "material" : 0
        }
      ],
      "name" : "SM_ice_machine"
    }
  ],
  "buffers" : [
    {
      "uri" : "SM_ice_machine.bin",
      "byteLength" : 115884
    }
  ],
  "bufferViews" : [
    {
      "buffer" : 0,
      "byteOffset" : 0,
      "byteLength" : 3996
    },
    {
      "buffer" : 0,
      "byteOffset" : 3996,
      "byteLength" : 23976
    },
    {
      "buffer" : 0,
      "byteOffset" : 27972,
      "byteLength" : 23976
    },
    {
      "buffer" : 0,
      "byteOffset" : 51948,
      "byteLength" : 31968
    },
    {
      "buffer" : 0,
      "byteOffset" : 83916,
      "byteLength" : 15984
    },
    {
      "buffer" : 0,
      "byteOffset" : 99900,
      "byteLength" : 15984
    }
  ],
  "accessors" : [
    {
      "bufferView" : 0,
      "componentType" : 5123,
      "count" : 1998,
      "type" : "SCALAR"
    },
    {
      "bufferView" : 1,
      "min" : [ -0.73357, -0.00155388, -1.171 ],
      "max" : [ 0.670539, 1.96353, 1.171 ],
      "componentType" : 5126,
      "count" : 1998,
      "type" : "VEC3"
    },
    {
      "bufferView" : 2,
      "componentType" : 5126,
      "count" : 1998,
      "type" : "VEC3"
    },
    {
      "bufferView" : 3,
      "componentType" : 5126,
      "count" : 1998,
      "type" : "VEC4"
    },
    {
      "bufferView" : 4,
      "componentType" : 5126,
      "count" : 1998,
      "type" : "VEC2"
    },
    {
      "bufferView" : 5,
      "componentType" : 5126,
      "count" : 1998,
      "type" : "VEC2"
    }
  ]
}
