{
  "asset" : {
    "generator" : "UE Viewer (umodel) build 1590",
    "version" : "2.0"
  },
  "scene" : 0,
  "scenes" : [
    {
      "nodes" : [ 0 ]
    }
  ],
  "nodes" : [
    {
      "name" : "SM_mailbox_1",
      "mesh" : 0
    }
  ],
  "materials" : [
    {
      "name" : "dummy_material_0",
      "pbrMetallicRoughness" : {
        "baseColorFactor" : [ 0.3, 0.3, 0.3, 1.0 ],
        "metallicFactor" : 0.1,
        "roughnessFactor" : 0.5
      }
    }
  ],
  "meshes" : [
    {
      "primitives" : [
        {
          "attributes" : {
            "POSITION" : 1,
            "NORMAL" : 2,
            "TANGENT" : 3,
            "TEXCOORD_0" : 4,
            "TEXCOORD_1" : 5
          },
          "indices" : 0,
          "material" : 0
        }
      ],
      "name" : "SM_mailbox_1"
    }
  ],
  "buffers" : [
    {
      "uri" : "SM_mailbox_1.bin",
      "byteLength" : 160256
    }
  ],
  "bufferViews" : [
    {
      "buffer" : 0,
      "byteOffset" : 0,
      "byteLength" : 5528
    },
    {
      "buffer" : 0,
      "byteOffset" : 5528,
      "byteLength" : 33156
    },
    {
      "buffer" : 0,
      "byteOffset" : 38684,
      "byteLength" : 33156
    },
    {
      "buffer" : 0,
      "byteOffset" : 71840,
      "byteLength" : 44208
    },
    {
      "buffer" : 0,
      "byteOffset" : 116048,
      "byteLength" : 22104
    },
    {
      "buffer" : 0,
      "byteOffset" : 138152,
      "byteLength" : 22104
    }
  ],
  "accessors" : [
    {
      "bufferView" : 0,
      "componentType" : 5123,
      "count" : 2763,
      "type" : "SCALAR"
    },
    {
      "bufferView" : 1,
      "min" : [ -0.334716, -0.00099061, -0.367806 ],
      "max" : [ 0.334896, 1.41978, 0.367806 ],
      "componentType" : 5126,
      "count" : 2763,
      "type" : "VEC3"
    },
    {
      "bufferView" : 2,
      "componentType" : 5126,
      "count" : 2763,
      "type" : "VEC3"
    },
    {
      "bufferView" : 3,
      "componentType" : 5126,
      "count" : 2763,
      "type" : "VEC4"
    },
    {
      "bufferView" : 4,
      "componentType" : 5126,
      "count" : 2763,
      "type" : "VEC2"
    },
    {
      "bufferView" : 5,
      "componentType" : 5126,
      "count" : 2763,
      "type" : "VEC2"
    }
  ]
}
