{
  "asset" : {
    "generator" : "UE Viewer (umodel) build 1590",
    "version" : "2.0"
  },
  "scene" : 0,
  "scenes" : [
    {
      "nodes" : [ 0 ]
    }
  ],
  "nodes" : [
    {
      "name" : "SM_mailbox_2",
      "mesh" : 0
    }
  ],
  "materials" : [
    {
      "name" : "dummy_material_0",
      "pbrMetallicRoughness" : {
        "baseColorFactor" : [ 0.3, 0.3, 0.3, 1.0 ],
        "metallicFactor" : 0.1,
        "roughnessFactor" : 0.5
      }
    }
  ],
  "meshes" : [
    {
      "primitives" : [
        {
          "attributes" : {
            "POSITION" : 1,
            "NORMAL" : 2,
            "TANGENT" : 3,
            "TEXCOORD_0" : 4,
            "TEXCOORD_1" : 5
          },
          "indices" : 0,
          "material" : 0
        }
      ],
      "name" : "SM_mailbox_2"
    }
  ],
  "buffers" : [
    {
      "uri" : "SM_mailbox_2.bin",
      "byteLength" : 53244
    }
  ],
  "bufferViews" : [
    {
      "buffer" : 0,
      "byteOffset" : 0,
      "byteLength" : 1836
    },
    {
      "buffer" : 0,
      "byteOffset" : 1836,
      "byteLength" : 11016
    },
    {
      "buffer" : 0,
      "byteOffset" : 12852,
      "byteLength" : 11016
    },
    {
      "buffer" : 0,
      "byteOffset" : 23868,
      "byteLength" : 14688
    },
    {
      "buffer" : 0,
      "byteOffset" : 38556,
      "byteLength" : 7344
    },
    {
      "buffer" : 0,
      "byteOffset" : 45900,
      "byteLength" : 7344
    }
  ],
  "accessors" : [
    {
      "bufferView" : 0,
      "componentType" : 5123,
      "count" : 918,
      "type" : "SCALAR"
    },
    {
      "bufferView" : 1,
      "min" : [ -0.048681, -2.98085e-18, -0.148255 ],
      "max" : [ 0.814006, 1.45035, 0.148255 ],
      "componentType" : 5126,
      "count" : 918,
      "type" : "VEC3"
    },
    {
      "bufferView" : 2,
      "componentType" : 5126,
      "count" : 918,
      "type" : "VEC3"
    },
    {
      "bufferView" : 3,
      "componentType" : 5126,
      "count" : 918,
      "type" : "VEC4"
    },
    {
      "bufferView" : 4,
      "componentType" : 5126,
      "count" : 918,
      "type" : "VEC2"
    },
    {
      "bufferView" : 5,
      "componentType" : 5126,
      "count" : 918,
      "type" : "VEC2"
    }
  ]
}
