{
  "asset" : {
    "generator" : "UE Viewer (umodel) build 1590",
    "version" : "2.0"
  },
  "scene" : 0,
  "scenes" : [
    {
      "nodes" : [ 0 ]
    }
  ],
  "nodes" : [
    {
      "name" : "SM_powerCables_1",
      "mesh" : 0
    }
  ],
  "materials" : [
    {
      "name" : "dummy_material_0",
      "pbrMetallicRoughness" : {
        "baseColorFactor" : [ 0.3, 0.3, 0.3, 1.0 ],
        "metallicFactor" : 0.1,
        "roughnessFactor" : 0.5
      }
    }
  ],
  "meshes" : [
    {
      "primitives" : [
        {
          "attributes" : {
            "POSITION" : 1,
            "NORMAL" : 2,
            "TANGENT" : 3,
            "TEXCOORD_0" : 4
          },
          "indices" : 0,
          "material" : 0
        }
      ],
      "name" : "SM_powerCables_1"
    }
  ],
  "buffers" : [
    {
      "uri" : "SM_powerCables_1.bin",
      "byteLength" : 19200
    }
  ],
  "bufferViews" : [
    {
      "buffer" : 0,
      "byteOffset" : 0,
      "byteLength" : 768
    },
    {
      "buffer" : 0,
      "byteOffset" : 768,
      "byteLength" : 4608
    },
    {
      "buffer" : 0,
      "byteOffset" : 5376,
      "byteLength" : 4608
    },
    {
      "buffer" : 0,
      "byteOffset" : 9984,
      "byteLength" : 6144
    },
    {
      "buffer" : 0,
      "byteOffset" : 16128,
      "byteLength" : 3072
    }
  ],
  "accessors" : [
    {
      "bufferView" : 0,
      "componentType" : 5123,
      "count" : 384,
      "type" : "SCALAR"
    },
    {
      "bufferView" : 1,
      "min" : [ -0.0121765, -2.00025, -0.0394047 ],
      "max" : [ 24, 0.0609552, 0.0394032 ],
      "componentType" : 5126,
      "count" : 384,
      "type" : "VEC3"
    },
    {
      "bufferView" : 2,
      "componentType" : 5126,
      "count" : 384,
      "type" : "VEC3"
    },
    {
      "bufferView" : 3,
      "componentType" : 5126,
      "count" : 384,
      "type" : "VEC4"
    },
    {
      "bufferView" : 4,
      "componentType" : 5126,
      "count" : 384,
      "type" : "VEC2"
    }
  ]
}
