{
  "asset" : {
    "generator" : "UE Viewer (umodel) build 1590",
    "version" : "2.0"
  },
  "scene" : 0,
  "scenes" : [
    {
      "nodes" : [ 0 ]
    }
  ],
  "nodes" : [
    {
      "name" : "SM_press_box_1",
      "mesh" : 0
    }
  ],
  "materials" : [
    {
      "name" : "dummy_material_0",
      "pbrMetallicRoughness" : {
        "baseColorFactor" : [ 0.3, 0.3, 0.3, 1.0 ],
        "metallicFactor" : 0.1,
        "roughnessFactor" : 0.5
      }
    },
    {
      "name" : "dummy_material_1",
      "pbrMetallicRoughness" : {
        "baseColorFactor" : [ 0.9, 0.3, 0.3, 1.0 ],
        "metallicFactor" : 0.1,
        "roughnessFactor" : 0.5
      }
    },
    {
      "name" : "dummy_material_2",
      "pbrMetallicRoughness" : {
        "baseColorFactor" : [ 0.3, 0.9, 0.3, 1.0 ],
        "metallicFactor" : 0.1,
        "roughnessFactor" : 0.5
      }
    },
    {
      "name" : "dummy_material_3",
      "pbrMetallicRoughness" : {
        "baseColorFactor" : [ 0.3, 0.3, 0.9, 1.0 ],
        "metallicFactor" : 0.1,
        "roughnessFactor" : 0.5
      }
    },
    {
      "name" : "dummy_material_4",
      "pbrMetallicRoughness" : {
        "baseColorFactor" : [ 0.9, 0.9, 0.9, 1.0 ],
        "metallicFactor" : 0.1,
        "roughnessFactor" : 0.5
      }
    },
    {
      "name" : "dummy_material_5",
      "pbrMetallicRoughness" : {
        "baseColorFactor" : [ 0.9, 0.9, 0.3, 1.0 ],
        "metallicFactor" : 0.1,
        "roughnessFactor" : 0.5
      }
    },
    {
      "name" : "dummy_material_6",
      "pbrMetallicRoughness" : {
        "baseColorFactor" : [ 0.9, 0.3, 0.9, 1.0 ],
        "metallicFactor" : 0.1,
        "roughnessFactor" : 0.5
      }
    }
  ],
  "meshes" : [
    {
      "primitives" : [
        {
          "attributes" : {
            "POSITION" : 1,
            "NORMAL" : 2,
            "TANGENT" : 3,
            "TEXCOORD_0" : 4,
            "TEXCOORD_1" : 5
          },
          "indices" : 0,
          "material" : 0
        },
        {
          "attributes" : {
            "POSITION" : 7,
            "NORMAL" : 8,
            "TANGENT" : 9,
            "TEXCOORD_0" : 10,
            "TEXCOORD_1" : 11
          },
          "indices" : 6,
          "material" : 1
        },
        {
          "attributes" : {
            "POSITION" : 13,
            "NORMAL" : 14,
            "TANGENT" : 15,
            "TEXCOORD_0" : 16,
            "TEXCOORD_1" : 17
          },
          "indices" : 12,
          "material" : 2
        },
        {
          "attributes" : {
            "POSITION" : 19,
            "NORMAL" : 20,
            "TANGENT" : 21,
            "TEXCOORD_0" : 22,
            "TEXCOORD_1" : 23
          },
          "indices" : 18,
          "material" : 3
        },
        {
          "attributes" : {
            "POSITION" : 25,
            "NORMAL" : 26,
            "TANGENT" : 27,
            "TEXCOORD_0" : 28,
            "TEXCOORD_1" : 29
          },
          "indices" : 24,
          "material" : 4
        },
        {
          "attributes" : {
            "POSITION" : 31,
            "NORMAL" : 32,
            "TANGENT" : 33,
            "TEXCOORD_0" : 34,
            "TEXCOORD_1" : 35
          },
          "indices" : 30,
          "material" : 5
        },
        {
          "attributes" : {
            "POSITION" : 37,
            "NORMAL" : 38,
            "TANGENT" : 39,
            "TEXCOORD_0" : 40,
            "TEXCOORD_1" : 41
          },
          "indices" : 36,
          "material" : 6
        }
      ],
      "name" : "SM_press_box_1"
    }
  ],
  "buffers" : [
    {
      "uri" : "SM_press_box_1.bin",
      "byteLength" : 106840
    }
  ],
  "bufferViews" : [
    {
      "buffer" : 0,
      "byteOffset" : 0,
      "byteLength" : 1280
    },
    {
      "buffer" : 0,
      "byteOffset" : 1280,
      "byteLength" : 7668
    },
    {
      "buffer" : 0,
      "byteOffset" : 8948,
      "byteLength" : 7668
    },
    {
      "buffer" : 0,
      "byteOffset" : 16616,
      "byteLength" : 10224
    },
    {
      "buffer" : 0,
      "byteOffset" : 26840,
      "byteLength" : 5112
    },
    {
      "buffer" : 0,
      "byteOffset" : 31952,
      "byteLength" : 5112
    },
    {
      "buffer" : 0,
      "byteOffset" : 37064,
      "byteLength" : 12
    },
    {
      "buffer" : 0,
      "byteOffset" : 37076,
      "byteLength" : 72
    },
    {
      "buffer" : 0,
      "byteOffset" : 37148,
      "byteLength" : 72
    },
    {
      "buffer" : 0,
      "byteOffset" : 37220,
      "byteLength" : 96
    },
    {
      "buffer" : 0,
      "byteOffset" : 37316,
      "byteLength" : 48
    },
    {
      "buffer" : 0,
      "byteOffset" : 37364,
      "byteLength" : 48
    },
    {
      "buffer" : 0,
      "byteOffset" : 37412,
      "byteLength" : 1416
    },
    {
      "buffer" : 0,
      "byteOffset" : 38828,
      "byteLength" : 8496
    },
    {
      "buffer" : 0,
      "byteOffset" : 47324,
      "byteLength" : 8496
    },
    {
      "buffer" : 0,
      "byteOffset" : 55820,
      "byteLength" : 11328
    },
    {
      "buffer" : 0,
      "byteOffset" : 67148,
      "byteLength" : 5664
    },
    {
      "buffer" : 0,
      "byteOffset" : 72812,
      "byteLength" : 5664
    },
    {
      "buffer" : 0,
      "byteOffset" : 78476,
      "byteLength" : 12
    },
    {
      "buffer" : 0,
      "byteOffset" : 78488,
      "byteLength" : 72
    },
    {
      "buffer" : 0,
      "byteOffset" : 78560,
      "byteLength" : 72
    },
    {
      "buffer" : 0,
      "byteOffset" : 78632,
      "byteLength" : 96
    },
    {
      "buffer" : 0,
      "byteOffset" : 78728,
      "byteLength" : 48
    },
    {
      "buffer" : 0,
      "byteOffset" : 78776,
      "byteLength" : 48
    },
    {
      "buffer" : 0,
      "byteOffset" : 78824,
      "byteLength" : 516
    },
    {
      "buffer" : 0,
      "byteOffset" : 79340,
      "byteLength" : 3096
    },
    {
      "buffer" : 0,
      "byteOffset" : 82436,
      "byteLength" : 3096
    },
    {
      "buffer" : 0,
      "byteOffset" : 85532,
      "byteLength" : 4128
    },
    {
      "buffer" : 0,
      "byteOffset" : 89660,
      "byteLength" : 2064
    },
    {
      "buffer" : 0,
      "byteOffset" : 91724,
      "byteLength" : 2064
    },
    {
      "buffer" : 0,
      "byteOffset" : 93788,
      "byteLength" : 12
    },
    {
      "buffer" : 0,
      "byteOffset" : 93800,
      "byteLength" : 72
    },
    {
      "buffer" : 0,
      "byteOffset" : 93872,
      "byteLength" : 72
    },
    {
      "buffer" : 0,
      "byteOffset" : 93944,
      "byteLength" : 96
    },
    {
      "buffer" : 0,
      "byteOffset" : 94040,
      "byteLength" : 48
    },
    {
      "buffer" : 0,
      "byteOffset" : 94088,
      "byteLength" : 48
    },
    {
      "buffer" : 0,
      "byteOffset" : 94136,
      "byteLength" : 440
    },
    {
      "buffer" : 0,
      "byteOffset" : 94576,
      "byteLength" : 2628
    },
    {
      "buffer" : 0,
      "byteOffset" : 97204,
      "byteLength" : 2628
    },
    {
      "buffer" : 0,
      "byteOffset" : 99832,
      "byteLength" : 3504
    },
    {
      "buffer" : 0,
      "byteOffset" : 103336,
      "byteLength" : 1752
    },
    {
      "buffer" : 0,
      "byteOffset" : 105088,
      "byteLength" : 1752
    }
  ],
  "accessors" : [
    {
      "bufferView" : 0,
      "componentType" : 5123,
      "count" : 639,
      "type" : "SCALAR"
    },
    {
      "bufferView" : 1,
      "min" : [ -0.393935, 0.0191504, -0.502237 ],
      "max" : [ 0.318581, 1.5622, 0.502237 ],
      "componentType" : 5126,
      "count" : 639,
      "type" : "VEC3"
    },
    {
      "bufferView" : 2,
      "componentType" : 5126,
      "count" : 639,
      "type" : "VEC3"
    },
    {
      "bufferView" : 3,
      "componentType" : 5126,
      "count" : 639,
      "type" : "VEC4"
    },
    {
      "bufferView" : 4,
      "componentType" : 5126,
      "count" : 639,
      "type" : "VEC2"
    },
    {
      "bufferView" : 5,
      "componentType" : 5126,
      "count" : 639,
      "type" : "VEC2"
    },
    {
      "bufferView" : 6,
      "componentType" : 5123,
      "count" : 6,
      "type" : "SCALAR"
    },
    {
      "bufferView" : 7,
      "min" : [ 0.144396, 0.918286, -0.254927 ],
      "max" : [ 0.258107, 1.28267, 0.413295 ],
      "componentType" : 5126,
      "count" : 6,
      "type" : "VEC3"
    },
    {
      "bufferView" : 8,
      "componentType" : 5126,
      "count" : 6,
      "type" : "VEC3"
    },
    {
      "bufferView" : 9,
      "componentType" : 5126,
      "count" : 6,
      "type" : "VEC4"
    },
    {
      "bufferView" : 10,
      "componentType" : 5126,
      "count" : 6,
      "type" : "VEC2"
    },
    {
      "bufferView" : 11,
      "componentType" : 5126,
      "count" : 6,
      "type" : "VEC2"
    },
    {
      "bufferView" : 12,
      "componentType" : 5123,
      "count" : 708,
      "type" : "SCALAR"
    },
    {
      "bufferView" : 13,
      "min" : [ -0.393935, -4.3088e-08, -0.502237 ],
      "max" : [ 0.3232, 1.5622, 0.468686 ],
      "componentType" : 5126,
      "count" : 708,
      "type" : "VEC3"
    },
    {
      "bufferView" : 14,
      "componentType" : 5126,
      "count" : 708,
      "type" : "VEC3"
    },
    {
      "bufferView" : 15,
      "componentType" : 5126,
      "count" : 708,
      "type" : "VEC4"
    },
    {
      "bufferView" : 16,
      "componentType" : 5126,
      "count" : 708,
      "type" : "VEC2"
    },
    {
      "bufferView" : 17,
      "componentType" : 5126,
      "count" : 708,
      "type" : "VEC2"
    },
    {
      "bufferView" : 18,
      "componentType" : 5123,
      "count" : 6,
      "type" : "SCALAR"
    },
    {
      "bufferView" : 19,
      "min" : [ -0.25511, 0.916922, 0.459454 ],
      "max" : [ 0.21664, 1.28711, 0.459454 ],
      "componentType" : 5126,
      "count" : 6,
      "type" : "VEC3"
    },
    {
      "bufferView" : 20,
      "componentType" : 5126,
      "count" : 6,
      "type" : "VEC3"
    },
    {
      "bufferView" : 21,
      "componentType" : 5126,
      "count" : 6,
      "type" : "VEC4"
    },
    {
      "bufferView" : 22,
      "componentType" : 5126,
      "count" : 6,
      "type" : "VEC2"
    },
    {
      "bufferView" : 23,
      "componentType" : 5126,
      "count" : 6,
      "type" : "VEC2"
    },
    {
      "bufferView" : 24,
      "componentType" : 5123,
      "count" : 258,
      "type" : "SCALAR"
    },
    {
      "bufferView" : 25,
      "min" : [ -0.295928, -4.3088e-08, -0.451172 ],
      "max" : [ 0.264472, 1.30334, 0.459454 ],
      "componentType" : 5126,
      "count" : 258,
      "type" : "VEC3"
    },
    {
      "bufferView" : 26,
      "componentType" : 5126,
      "count" : 258,
      "type" : "VEC3"
    },
    {
      "bufferView" : 27,
      "componentType" : 5126,
      "count" : 258,
      "type" : "VEC4"
    },
    {
      "bufferView" : 28,
      "componentType" : 5126,
      "count" : 258,
      "type" : "VEC2"
    },
    {
      "bufferView" : 29,
      "componentType" : 5126,
      "count" : 258,
      "type" : "VEC2"
    },
    {
      "bufferView" : 30,
      "componentType" : 5123,
      "count" : 6,
      "type" : "SCALAR"
    },
    {
      "bufferView" : 31,
      "min" : [ -0.295928, 0.916922, -0.260268 ],
      "max" : [ -0.295928, 1.28711, 0.418636 ],
      "componentType" : 5126,
      "count" : 6,
      "type" : "VEC3"
    },
    {
      "bufferView" : 32,
      "componentType" : 5126,
      "count" : 6,
      "type" : "VEC3"
    },
    {
      "bufferView" : 33,
      "componentType" : 5126,
      "count" : 6,
      "type" : "VEC4"
    },
    {
      "bufferView" : 34,
      "componentType" : 5126,
      "count" : 6,
      "type" : "VEC2"
    },
    {
      "bufferView" : 35,
      "componentType" : 5126,
      "count" : 6,
      "type" : "VEC2"
    },
    {
      "bufferView" : 36,
      "componentType" : 5123,
      "count" : 219,
      "type" : "SCALAR"
    },
    {
      "bufferView" : 37,
      "min" : [ -0.393935, 0.0191504, -0.468856 ],
      "max" : [ 0.3232, 1.50336, 0.468686 ],
      "componentType" : 5126,
      "count" : 219,
      "type" : "VEC3"
    },
    {
      "bufferView" : 38,
      "componentType" : 5126,
      "count" : 219,
      "type" : "VEC3"
    },
    {
      "bufferView" : 39,
      "componentType" : 5126,
      "count" : 219,
      "type" : "VEC4"
    },
    {
      "bufferView" : 40,
      "componentType" : 5126,
      "count" : 219,
      "type" : "VEC2"
    },
    {
      "bufferView" : 41,
      "componentType" : 5126,
      "count" : 219,
      "type" : "VEC2"
    }
  ]
}
