{
  "asset" : {
    "generator" : "UE Viewer (umodel) build 1590",
    "version" : "2.0"
  },
  "scene" : 0,
  "scenes" : [
    {
      "nodes" : [ 0 ]
    }
  ],
  "nodes" : [
    {
      "name" : "SM_pipesStock_01",
      "mesh" : 0
    }
  ],
  "materials" : [
    {
      "name" : "dummy_material_0",
      "pbrMetallicRoughness" : {
        "baseColorFactor" : [ 0.3, 0.3, 0.3, 1.0 ],
        "metallicFactor" : 0.1,
        "roughnessFactor" : 0.5
      }
    }
  ],
  "meshes" : [
    {
      "primitives" : [
        {
          "attributes" : {
            "POSITION" : 1,
            "NORMAL" : 2,
            "TANGENT" : 3,
            "TEXCOORD_0" : 4
          },
          "indices" : 0,
          "material" : 0
        }
      ],
      "name" : "SM_pipesStock_01"
    }
  ],
  "buffers" : [
    {
      "uri" : "SM_pipesStock_01.bin",
      "byteLength" : 97200
    }
  ],
  "bufferViews" : [
    {
      "buffer" : 0,
      "byteOffset" : 0,
      "byteLength" : 3888
    },
    {
      "buffer" : 0,
      "byteOffset" : 3888,
      "byteLength" : 23328
    },
    {
      "buffer" : 0,
      "byteOffset" : 27216,
      "byteLength" : 23328
    },
    {
      "buffer" : 0,
      "byteOffset" : 50544,
      "byteLength" : 31104
    },
    {
      "buffer" : 0,
      "byteOffset" : 81648,
      "byteLength" : 15552
    }
  ],
  "accessors" : [
    {
      "bufferView" : 0,
      "componentType" : 5123,
      "count" : 1944,
      "type" : "SCALAR"
    },
    {
      "bufferView" : 1,
      "min" : [ -0.421284, 0.0110888, -2.05001 ],
      "max" : [ 0.421284, 0.749321, 2.05001 ],
      "componentType" : 5126,
      "count" : 1944,
      "type" : "VEC3"
    },
    {
      "bufferView" : 2,
      "componentType" : 5126,
      "count" : 1944,
      "type" : "VEC3"
    },
    {
      "bufferView" : 3,
      "componentType" : 5126,
      "count" : 1944,
      "type" : "VEC4"
    },
    {
      "bufferView" : 4,
      "componentType" : 5126,
      "count" : 1944,
      "type" : "VEC2"
    }
  ]
}
