{
  "asset" : {
    "generator" : "UE Viewer (umodel) build 1590",
    "version" : "2.0"
  },
  "scene" : 0,
  "scenes" : [
    {
      "nodes" : [ 0 ]
    }
  ],
  "nodes" : [
    {
      "name" : "SM_parking_meter",
      "mesh" : 0
    }
  ],
  "materials" : [
    {
      "name" : "dummy_material_0",
      "pbrMetallicRoughness" : {
        "baseColorFactor" : [ 0.3, 0.3, 0.3, 1.0 ],
        "metallicFactor" : 0.1,
        "roughnessFactor" : 0.5
      }
    }
  ],
  "meshes" : [
    {
      "primitives" : [
        {
          "attributes" : {
            "POSITION" : 1,
            "NORMAL" : 2,
            "TANGENT" : 3,
            "TEXCOORD_0" : 4,
            "TEXCOORD_1" : 5
          },
          "indices" : 0,
          "material" : 0
        }
      ],
      "name" : "SM_parking_meter"
    }
  ],
  "buffers" : [
    {
      "uri" : "SM_parking_meter.bin",
      "byteLength" : 74472
    }
  ],
  "bufferViews" : [
    {
      "buffer" : 0,
      "byteOffset" : 0,
      "byteLength" : 2568
    },
    {
      "buffer" : 0,
      "byteOffset" : 2568,
      "byteLength" : 15408
    },
    {
      "buffer" : 0,
      "byteOffset" : 17976,
      "byteLength" : 15408
    },
    {
      "buffer" : 0,
      "byteOffset" : 33384,
      "byteLength" : 20544
    },
    {
      "buffer" : 0,
      "byteOffset" : 53928,
      "byteLength" : 10272
    },
    {
      "buffer" : 0,
      "byteOffset" : 64200,
      "byteLength" : 10272
    }
  ],
  "accessors" : [
    {
      "bufferView" : 0,
      "componentType" : 5123,
      "count" : 1284,
      "type" : "SCALAR"
    },
    {
      "bufferView" : 1,
      "min" : [ -0.104264, -6.38431e-18, -0.129413 ],
      "max" : [ 0.104264, 1.69823, 0.129413 ],
      "componentType" : 5126,
      "count" : 1284,
      "type" : "VEC3"
    },
    {
      "bufferView" : 2,
      "componentType" : 5126,
      "count" : 1284,
      "type" : "VEC3"
    },
    {
      "bufferView" : 3,
      "componentType" : 5126,
      "count" : 1284,
      "type" : "VEC4"
    },
    {
      "bufferView" : 4,
      "componentType" : 5126,
      "count" : 1284,
      "type" : "VEC2"
    },
    {
      "bufferView" : 5,
      "componentType" : 5126,
      "count" : 1284,
      "type" : "VEC2"
    }
  ]
}
