{
  "asset" : {
    "generator" : "UE Viewer (umodel) build 1590",
    "version" : "2.0"
  },
  "scene" : 0,
  "scenes" : [
    {
      "nodes" : [ 0 ]
    }
  ],
  "nodes" : [
    {
      "name" : "SM_powerCables_2",
      "mesh" : 0
    }
  ],
  "materials" : [
    {
      "name" : "dummy_material_0",
      "pbrMetallicRoughness" : {
        "baseColorFactor" : [ 0.3, 0.3, 0.3, 1.0 ],
        "metallicFactor" : 0.1,
        "roughnessFactor" : 0.5
      }
    }
  ],
  "meshes" : [
    {
      "primitives" : [
        {
          "attributes" : {
            "POSITION" : 1,
            "NORMAL" : 2,
            "TANGENT" : 3,
            "TEXCOORD_0" : 4
          },
          "indices" : 0,
          "material" : 0
        }
      ],
      "name" : "SM_powerCables_2"
    }
  ],
  "buffers" : [
    {
      "uri" : "SM_powerCables_2.bin",
      "byteLength" : 57600
    }
  ],
  "bufferViews" : [
    {
      "buffer" : 0,
      "byteOffset" : 0,
      "byteLength" : 2304
    },
    {
      "buffer" : 0,
      "byteOffset" : 2304,
      "byteLength" : 13824
    },
    {
      "buffer" : 0,
      "byteOffset" : 16128,
      "byteLength" : 13824
    },
    {
      "buffer" : 0,
      "byteOffset" : 29952,
      "byteLength" : 18432
    },
    {
      "buffer" : 0,
      "byteOffset" : 48384,
      "byteLength" : 9216
    }
  ],
  "accessors" : [
    {
      "bufferView" : 0,
      "componentType" : 5123,
      "count" : 1152,
      "type" : "SCALAR"
    },
    {
      "bufferView" : 1,
      "min" : [ -0.0121765, -2.0612, -0.922242 ],
      "max" : [ 24, 2.44141e-06, 0.75911 ],
      "componentType" : 5126,
      "count" : 1152,
      "type" : "VEC3"
    },
    {
      "bufferView" : 2,
      "componentType" : 5126,
      "count" : 1152,
      "type" : "VEC3"
    },
    {
      "bufferView" : 3,
      "componentType" : 5126,
      "count" : 1152,
      "type" : "VEC4"
    },
    {
      "bufferView" : 4,
      "componentType" : 5126,
      "count" : 1152,
      "type" : "VEC2"
    }
  ]
}
