{
  "asset" : {
    "generator" : "UE Viewer (umodel) build 1590",
    "version" : "2.0"
  },
  "scene" : 0,
  "scenes" : [
    {
      "nodes" : [ 0 ]
    }
  ],
  "nodes" : [
    {
      "name" : "SM_road_sign_4",
      "mesh" : 0
    }
  ],
  "materials" : [
    {
      "name" : "dummy_material_0",
      "pbrMetallicRoughness" : {
        "baseColorFactor" : [ 0.3, 0.3, 0.3, 1.0 ],
        "metallicFactor" : 0.1,
        "roughnessFactor" : 0.5
      }
    }
  ],
  "meshes" : [
    {
      "primitives" : [
        {
          "attributes" : {
            "POSITION" : 1,
            "NORMAL" : 2,
            "TANGENT" : 3,
            "TEXCOORD_0" : 4,
            "TEXCOORD_1" : 5
          },
          "indices" : 0,
          "material" : 0
        }
      ],
      "name" : "SM_road_sign_4"
    }
  ],
  "buffers" : [
    {
      "uri" : "SM_road_sign_4.bin",
      "byteLength" : 70124
    }
  ],
  "bufferViews" : [
    {
      "buffer" : 0,
      "byteOffset" : 0,
      "byteLength" : 2420
    },
    {
      "buffer" : 0,
      "byteOffset" : 2420,
      "byteLength" : 14508
    },
    {
      "buffer" : 0,
      "byteOffset" : 16928,
      "byteLength" : 14508
    },
    {
      "buffer" : 0,
      "byteOffset" : 31436,
      "byteLength" : 19344
    },
    {
      "buffer" : 0,
      "byteOffset" : 50780,
      "byteLength" : 9672
    },
    {
      "buffer" : 0,
      "byteOffset" : 60452,
      "byteLength" : 9672
    }
  ],
  "accessors" : [
    {
      "bufferView" : 0,
      "componentType" : 5123,
      "count" : 1209,
      "type" : "SCALAR"
    },
    {
      "bufferView" : 1,
      "min" : [ -0.0409374, -1.44303e-18, -0.29191 ],
      "max" : [ 0.038452, 2.0465, 0.303269 ],
      "componentType" : 5126,
      "count" : 1209,
      "type" : "VEC3"
    },
    {
      "bufferView" : 2,
      "componentType" : 5126,
      "count" : 1209,
      "type" : "VEC3"
    },
    {
      "bufferView" : 3,
      "componentType" : 5126,
      "count" : 1209,
      "type" : "VEC4"
    },
    {
      "bufferView" : 4,
      "componentType" : 5126,
      "count" : 1209,
      "type" : "VEC2"
    },
    {
      "bufferView" : 5,
      "componentType" : 5126,
      "count" : 1209,
      "type" : "VEC2"
    }
  ]
}
