{
  "asset" : {
    "generator" : "UE Viewer (umodel) build 1590",
    "version" : "2.0"
  },
  "scene" : 0,
  "scenes" : [
    {
      "nodes" : [ 0 ]
    }
  ],
  "nodes" : [
    {
      "name" : "SM_road_block_concrete",
      "mesh" : 0
    }
  ],
  "materials" : [
    {
      "name" : "dummy_material_0",
      "pbrMetallicRoughness" : {
        "baseColorFactor" : [ 0.3, 0.3, 0.3, 1.0 ],
        "metallicFactor" : 0.1,
        "roughnessFactor" : 0.5
      }
    }
  ],
  "meshes" : [
    {
      "primitives" : [
        {
          "attributes" : {
            "POSITION" : 1,
            "NORMAL" : 2,
            "TANGENT" : 3,
            "TEXCOORD_0" : 4,
            "TEXCOORD_1" : 5
          },
          "indices" : 0,
          "material" : 0
        }
      ],
      "name" : "SM_road_block_concrete"
    }
  ],
  "buffers" : [
    {
      "uri" : "SM_road_block_concrete.bin",
      "byteLength" : 47504
    }
  ],
  "bufferViews" : [
    {
      "buffer" : 0,
      "byteOffset" : 0,
      "byteLength" : 1640
    },
    {
      "buffer" : 0,
      "byteOffset" : 1640,
      "byteLength" : 9828
    },
    {
      "buffer" : 0,
      "byteOffset" : 11468,
      "byteLength" : 9828
    },
    {
      "buffer" : 0,
      "byteOffset" : 21296,
      "byteLength" : 13104
    },
    {
      "buffer" : 0,
      "byteOffset" : 34400,
      "byteLength" : 6552
    },
    {
      "buffer" : 0,
      "byteOffset" : 40952,
      "byteLength" : 6552
    }
  ],
  "accessors" : [
    {
      "bufferView" : 0,
      "componentType" : 5123,
      "count" : 819,
      "type" : "SCALAR"
    },
    {
      "bufferView" : 1,
      "min" : [ -0.375023, -6.31521e-17, -1.03135 ],
      "max" : [ 0.375023, 1.04147, 1.03135 ],
      "componentType" : 5126,
      "count" : 819,
      "type" : "VEC3"
    },
    {
      "bufferView" : 2,
      "componentType" : 5126,
      "count" : 819,
      "type" : "VEC3"
    },
    {
      "bufferView" : 3,
      "componentType" : 5126,
      "count" : 819,
      "type" : "VEC4"
    },
    {
      "bufferView" : 4,
      "componentType" : 5126,
      "count" : 819,
      "type" : "VEC2"
    },
    {
      "bufferView" : 5,
      "componentType" : 5126,
      "count" : 819,
      "type" : "VEC2"
    }
  ]
}
