{
  "asset" : {
    "generator" : "UE Viewer (umodel) build 1590",
    "version" : "2.0"
  },
  "scene" : 0,
  "scenes" : [
    {
      "nodes" : [ 0 ]
    }
  ],
  "nodes" : [
    {
      "name" : "SM_road_block",
      "mesh" : 0
    }
  ],
  "materials" : [
    {
      "name" : "dummy_material_0",
      "pbrMetallicRoughness" : {
        "baseColorFactor" : [ 0.3, 0.3, 0.3, 1.0 ],
        "metallicFactor" : 0.1,
        "roughnessFactor" : 0.5
      }
    }
  ],
  "meshes" : [
    {
      "primitives" : [
        {
          "attributes" : {
            "POSITION" : 1,
            "NORMAL" : 2,
            "TANGENT" : 3,
            "TEXCOORD_0" : 4,
            "TEXCOORD_1" : 5
          },
          "indices" : 0,
          "material" : 0
        }
      ],
      "name" : "SM_road_block"
    }
  ],
  "buffers" : [
    {
      "uri" : "SM_road_block.bin",
      "byteLength" : 201840
    }
  ],
  "bufferViews" : [
    {
      "buffer" : 0,
      "byteOffset" : 0,
      "byteLength" : 6960
    },
    {
      "buffer" : 0,
      "byteOffset" : 6960,
      "byteLength" : 41760
    },
    {
      "buffer" : 0,
      "byteOffset" : 48720,
      "byteLength" : 41760
    },
    {
      "buffer" : 0,
      "byteOffset" : 90480,
      "byteLength" : 55680
    },
    {
      "buffer" : 0,
      "byteOffset" : 146160,
      "byteLength" : 27840
    },
    {
      "buffer" : 0,
      "byteOffset" : 174000,
      "byteLength" : 27840
    }
  ],
  "accessors" : [
    {
      "bufferView" : 0,
      "componentType" : 5123,
      "count" : 3480,
      "type" : "SCALAR"
    },
    {
      "bufferView" : 1,
      "min" : [ -0.249318, 0.0121682, -0.282276 ],
      "max" : [ 0.249318, 0.986027, 0.282245 ],
      "componentType" : 5126,
      "count" : 3480,
      "type" : "VEC3"
    },
    {
      "bufferView" : 2,
      "componentType" : 5126,
      "count" : 3480,
      "type" : "VEC3"
    },
    {
      "bufferView" : 3,
      "componentType" : 5126,
      "count" : 3480,
      "type" : "VEC4"
    },
    {
      "bufferView" : 4,
      "componentType" : 5126,
      "count" : 3480,
      "type" : "VEC2"
    },
    {
      "bufferView" : 5,
      "componentType" : 5126,
      "count" : 3480,
      "type" : "VEC2"
    }
  ]
}
