{
  "asset" : {
    "generator" : "UE Viewer (umodel) build 1590",
    "version" : "2.0"
  },
  "scene" : 0,
  "scenes" : [
    {
      "nodes" : [ 0 ]
    }
  ],
  "nodes" : [
    {
      "name" : "SM_road_sign_9",
      "mesh" : 0
    }
  ],
  "materials" : [
    {
      "name" : "dummy_material_0",
      "pbrMetallicRoughness" : {
        "baseColorFactor" : [ 0.3, 0.3, 0.3, 1.0 ],
        "metallicFactor" : 0.1,
        "roughnessFactor" : 0.5
      }
    }
  ],
  "meshes" : [
    {
      "primitives" : [
        {
          "attributes" : {
            "POSITION" : 1,
            "NORMAL" : 2,
            "TANGENT" : 3,
            "TEXCOORD_0" : 4,
            "TEXCOORD_1" : 5
          },
          "indices" : 0,
          "material" : 0
        }
      ],
      "name" : "SM_road_sign_9"
    }
  ],
  "buffers" : [
    {
      "uri" : "SM_road_sign_9.bin",
      "byteLength" : 4872
    }
  ],
  "bufferViews" : [
    {
      "buffer" : 0,
      "byteOffset" : 0,
      "byteLength" : 168
    },
    {
      "buffer" : 0,
      "byteOffset" : 168,
      "byteLength" : 1008
    },
    {
      "buffer" : 0,
      "byteOffset" : 1176,
      "byteLength" : 1008
    },
    {
      "buffer" : 0,
      "byteOffset" : 2184,
      "byteLength" : 1344
    },
    {
      "buffer" : 0,
      "byteOffset" : 3528,
      "byteLength" : 672
    },
    {
      "buffer" : 0,
      "byteOffset" : 4200,
      "byteLength" : 672
    }
  ],
  "accessors" : [
    {
      "bufferView" : 0,
      "componentType" : 5123,
      "count" : 84,
      "type" : "SCALAR"
    },
    {
      "bufferView" : 1,
      "min" : [ -0.0642884, -3.93653e-18, -0.284437 ],
      "max" : [ 0.0925654, 1.75683, 0.260164 ],
      "componentType" : 5126,
      "count" : 84,
      "type" : "VEC3"
    },
    {
      "bufferView" : 2,
      "componentType" : 5126,
      "count" : 84,
      "type" : "VEC3"
    },
    {
      "bufferView" : 3,
      "componentType" : 5126,
      "count" : 84,
      "type" : "VEC4"
    },
    {
      "bufferView" : 4,
      "componentType" : 5126,
      "count" : 84,
      "type" : "VEC2"
    },
    {
      "bufferView" : 5,
      "componentType" : 5126,
      "count" : 84,
      "type" : "VEC2"
    }
  ]
}
