{
  "asset" : {
    "generator" : "UE Viewer (umodel) build 1590",
    "version" : "2.0"
  },
  "scene" : 0,
  "scenes" : [
    {
      "nodes" : [ 0 ]
    }
  ],
  "nodes" : [
    {
      "name" : "SM_road_cone",
      "mesh" : 0
    }
  ],
  "materials" : [
    {
      "name" : "dummy_material_0",
      "pbrMetallicRoughness" : {
        "baseColorFactor" : [ 0.3, 0.3, 0.3, 1.0 ],
        "metallicFactor" : 0.1,
        "roughnessFactor" : 0.5
      }
    }
  ],
  "meshes" : [
    {
      "primitives" : [
        {
          "attributes" : {
            "POSITION" : 1,
            "NORMAL" : 2,
            "TANGENT" : 3,
            "TEXCOORD_0" : 4,
            "TEXCOORD_1" : 5
          },
          "indices" : 0,
          "material" : 0
        }
      ],
      "name" : "SM_road_cone"
    }
  ],
  "buffers" : [
    {
      "uri" : "SM_road_cone.bin",
      "byteLength" : 17052
    }
  ],
  "bufferViews" : [
    {
      "buffer" : 0,
      "byteOffset" : 0,
      "byteLength" : 588
    },
    {
      "buffer" : 0,
      "byteOffset" : 588,
      "byteLength" : 3528
    },
    {
      "buffer" : 0,
      "byteOffset" : 4116,
      "byteLength" : 3528
    },
    {
      "buffer" : 0,
      "byteOffset" : 7644,
      "byteLength" : 4704
    },
    {
      "buffer" : 0,
      "byteOffset" : 12348,
      "byteLength" : 2352
    },
    {
      "buffer" : 0,
      "byteOffset" : 14700,
      "byteLength" : 2352
    }
  ],
  "accessors" : [
    {
      "bufferView" : 0,
      "componentType" : 5123,
      "count" : 294,
      "type" : "SCALAR"
    },
    {
      "bufferView" : 1,
      "min" : [ -0.171698, -1.05135e-17, -0.171698 ],
      "max" : [ 0.171698, 0.758867, 0.171698 ],
      "componentType" : 5126,
      "count" : 294,
      "type" : "VEC3"
    },
    {
      "bufferView" : 2,
      "componentType" : 5126,
      "count" : 294,
      "type" : "VEC3"
    },
    {
      "bufferView" : 3,
      "componentType" : 5126,
      "count" : 294,
      "type" : "VEC4"
    },
    {
      "bufferView" : 4,
      "componentType" : 5126,
      "count" : 294,
      "type" : "VEC2"
    },
    {
      "bufferView" : 5,
      "componentType" : 5126,
      "count" : 294,
      "type" : "VEC2"
    }
  ]
}
