{
  "asset" : {
    "generator" : "UE Viewer (umodel) build 1590",
    "version" : "2.0"
  },
  "scene" : 0,
  "scenes" : [
    {
      "nodes" : [ 0 ]
    }
  ],
  "nodes" : [
    {
      "name" : "SM_shed_01",
      "mesh" : 0
    }
  ],
  "materials" : [
    {
      "name" : "dummy_material_0",
      "pbrMetallicRoughness" : {
        "baseColorFactor" : [ 0.3, 0.3, 0.3, 1.0 ],
        "metallicFactor" : 0.1,
        "roughnessFactor" : 0.5
      }
    }
  ],
  "meshes" : [
    {
      "primitives" : [
        {
          "attributes" : {
            "POSITION" : 1,
            "NORMAL" : 2,
            "TANGENT" : 3,
            "TEXCOORD_0" : 4
          },
          "indices" : 0,
          "material" : 0
        }
      ],
      "name" : "SM_shed_01"
    }
  ],
  "buffers" : [
    {
      "uri" : "SM_shed_01.bin",
      "byteLength" : 33900
    }
  ],
  "bufferViews" : [
    {
      "buffer" : 0,
      "byteOffset" : 0,
      "byteLength" : 1356
    },
    {
      "buffer" : 0,
      "byteOffset" : 1356,
      "byteLength" : 8136
    },
    {
      "buffer" : 0,
      "byteOffset" : 9492,
      "byteLength" : 8136
    },
    {
      "buffer" : 0,
      "byteOffset" : 17628,
      "byteLength" : 10848
    },
    {
      "buffer" : 0,
      "byteOffset" : 28476,
      "byteLength" : 5424
    }
  ],
  "accessors" : [
    {
      "bufferView" : 0,
      "componentType" : 5123,
      "count" : 678,
      "type" : "SCALAR"
    },
    {
      "bufferView" : 1,
      "min" : [ -4.37996, -2.14556e-16, -3.88009 ],
      "max" : [ 4.37995, 3.76425, 3.88009 ],
      "componentType" : 5126,
      "count" : 678,
      "type" : "VEC3"
    },
    {
      "bufferView" : 2,
      "componentType" : 5126,
      "count" : 678,
      "type" : "VEC3"
    },
    {
      "bufferView" : 3,
      "componentType" : 5126,
      "count" : 678,
      "type" : "VEC4"
    },
    {
      "bufferView" : 4,
      "componentType" : 5126,
      "count" : 678,
      "type" : "VEC2"
    }
  ]
}
