{
  "asset" : {
    "generator" : "UE Viewer (umodel) build 1590",
    "version" : "2.0"
  },
  "scene" : 0,
  "scenes" : [
    {
      "nodes" : [ 0 ]
    }
  ],
  "nodes" : [
    {
      "name" : "SM_shopAwing_01",
      "mesh" : 0
    }
  ],
  "materials" : [
    {
      "name" : "dummy_material_0",
      "pbrMetallicRoughness" : {
        "baseColorFactor" : [ 0.3, 0.3, 0.3, 1.0 ],
        "metallicFactor" : 0.1,
        "roughnessFactor" : 0.5
      }
    }
  ],
  "meshes" : [
    {
      "primitives" : [
        {
          "attributes" : {
            "POSITION" : 1,
            "NORMAL" : 2,
            "TANGENT" : 3,
            "TEXCOORD_0" : 4,
            "TEXCOORD_1" : 5
          },
          "indices" : 0,
          "material" : 0
        }
      ],
      "name" : "SM_shopAwing_01"
    }
  ],
  "buffers" : [
    {
      "uri" : "SM_shopAwing_01.bin",
      "byteLength" : 84044
    }
  ],
  "bufferViews" : [
    {
      "buffer" : 0,
      "byteOffset" : 0,
      "byteLength" : 2900
    },
    {
      "buffer" : 0,
      "byteOffset" : 2900,
      "byteLength" : 17388
    },
    {
      "buffer" : 0,
      "byteOffset" : 20288,
      "byteLength" : 17388
    },
    {
      "buffer" : 0,
      "byteOffset" : 37676,
      "byteLength" : 23184
    },
    {
      "buffer" : 0,
      "byteOffset" : 60860,
      "byteLength" : 11592
    },
    {
      "buffer" : 0,
      "byteOffset" : 72452,
      "byteLength" : 11592
    }
  ],
  "accessors" : [
    {
      "bufferView" : 0,
      "componentType" : 5123,
      "count" : 1449,
      "type" : "SCALAR"
    },
    {
      "bufferView" : 1,
      "min" : [ 0.162245, -3.90799e-16, -7.00874 ],
      "max" : [ 3.09428, 3.24481, 7.00874 ],
      "componentType" : 5126,
      "count" : 1449,
      "type" : "VEC3"
    },
    {
      "bufferView" : 2,
      "componentType" : 5126,
      "count" : 1449,
      "type" : "VEC3"
    },
    {
      "bufferView" : 3,
      "componentType" : 5126,
      "count" : 1449,
      "type" : "VEC4"
    },
    {
      "bufferView" : 4,
      "componentType" : 5126,
      "count" : 1449,
      "type" : "VEC2"
    },
    {
      "bufferView" : 5,
      "componentType" : 5126,
      "count" : 1449,
      "type" : "VEC2"
    }
  ]
}
