{
  "asset" : {
    "generator" : "UE Viewer (umodel) build 1590",
    "version" : "2.0"
  },
  "scene" : 0,
  "scenes" : [
    {
      "nodes" : [ 0 ]
    }
  ],
  "nodes" : [
    {
      "name" : "SM_traffic_lights_1",
      "mesh" : 0
    }
  ],
  "materials" : [
    {
      "name" : "dummy_material_0",
      "pbrMetallicRoughness" : {
        "baseColorFactor" : [ 0.3, 0.3, 0.3, 1.0 ],
        "metallicFactor" : 0.1,
        "roughnessFactor" : 0.5
      }
    }
  ],
  "meshes" : [
    {
      "primitives" : [
        {
          "attributes" : {
            "POSITION" : 1,
            "NORMAL" : 2,
            "TANGENT" : 3,
            "TEXCOORD_0" : 4,
            "TEXCOORD_1" : 5
          },
          "indices" : 0,
          "material" : 0
        }
      ],
      "name" : "SM_traffic_lights_1"
    }
  ],
  "buffers" : [
    {
      "uri" : "SM_traffic_lights_1.bin",
      "byteLength" : 123192
    }
  ],
  "bufferViews" : [
    {
      "buffer" : 0,
      "byteOffset" : 0,
      "byteLength" : 4248
    },
    {
      "buffer" : 0,
      "byteOffset" : 4248,
      "byteLength" : 25488
    },
    {
      "buffer" : 0,
      "byteOffset" : 29736,
      "byteLength" : 25488
    },
    {
      "buffer" : 0,
      "byteOffset" : 55224,
      "byteLength" : 33984
    },
    {
      "buffer" : 0,
      "byteOffset" : 89208,
      "byteLength" : 16992
    },
    {
      "buffer" : 0,
      "byteOffset" : 106200,
      "byteLength" : 16992
    }
  ],
  "accessors" : [
    {
      "bufferView" : 0,
      "componentType" : 5123,
      "count" : 2124,
      "type" : "SCALAR"
    },
    {
      "bufferView" : 1,
      "min" : [ -0.312965, -2.74415e-08, -0.311124 ],
      "max" : [ 0.38385, 5.18311, 5.23667 ],
      "componentType" : 5126,
      "count" : 2124,
      "type" : "VEC3"
    },
    {
      "bufferView" : 2,
      "componentType" : 5126,
      "count" : 2124,
      "type" : "VEC3"
    },
    {
      "bufferView" : 3,
      "componentType" : 5126,
      "count" : 2124,
      "type" : "VEC4"
    },
    {
      "bufferView" : 4,
      "componentType" : 5126,
      "count" : 2124,
      "type" : "VEC2"
    },
    {
      "bufferView" : 5,
      "componentType" : 5126,
      "count" : 2124,
      "type" : "VEC2"
    }
  ]
}
