{
  "asset" : {
    "generator" : "UE Viewer (umodel) build 1590",
    "version" : "2.0"
  },
  "scene" : 0,
  "scenes" : [
    {
      "nodes" : [ 0 ]
    }
  ],
  "nodes" : [
    {
      "name" : "SM_trash",
      "mesh" : 0
    }
  ],
  "materials" : [
    {
      "name" : "dummy_material_0",
      "pbrMetallicRoughness" : {
        "baseColorFactor" : [ 0.3, 0.3, 0.3, 1.0 ],
        "metallicFactor" : 0.1,
        "roughnessFactor" : 0.5
      }
    }
  ],
  "meshes" : [
    {
      "primitives" : [
        {
          "attributes" : {
            "POSITION" : 1,
            "NORMAL" : 2,
            "TANGENT" : 3,
            "TEXCOORD_0" : 4,
            "TEXCOORD_1" : 5
          },
          "indices" : 0,
          "material" : 0
        }
      ],
      "name" : "SM_trash"
    }
  ],
  "buffers" : [
    {
      "uri" : "SM_trash.bin",
      "byteLength" : 203232
    }
  ],
  "bufferViews" : [
    {
      "buffer" : 0,
      "byteOffset" : 0,
      "byteLength" : 7008
    },
    {
      "buffer" : 0,
      "byteOffset" : 7008,
      "byteLength" : 42048
    },
    {
      "buffer" : 0,
      "byteOffset" : 49056,
      "byteLength" : 42048
    },
    {
      "buffer" : 0,
      "byteOffset" : 91104,
      "byteLength" : 56064
    },
    {
      "buffer" : 0,
      "byteOffset" : 147168,
      "byteLength" : 28032
    },
    {
      "buffer" : 0,
      "byteOffset" : 175200,
      "byteLength" : 28032
    }
  ],
  "accessors" : [
    {
      "bufferView" : 0,
      "componentType" : 5123,
      "count" : 3504,
      "type" : "SCALAR"
    },
    {
      "bufferView" : 1,
      "min" : [ -0.61805, -0.00192449, -0.773647 ],
      "max" : [ 0.740831, 0.727791, 0.699472 ],
      "componentType" : 5126,
      "count" : 3504,
      "type" : "VEC3"
    },
    {
      "bufferView" : 2,
      "componentType" : 5126,
      "count" : 3504,
      "type" : "VEC3"
    },
    {
      "bufferView" : 3,
      "componentType" : 5126,
      "count" : 3504,
      "type" : "VEC4"
    },
    {
      "bufferView" : 4,
      "componentType" : 5126,
      "count" : 3504,
      "type" : "VEC2"
    },
    {
      "bufferView" : 5,
      "componentType" : 5126,
      "count" : 3504,
      "type" : "VEC2"
    }
  ]
}
