{
  "asset" : {
    "generator" : "UE Viewer (umodel) build 1590",
    "version" : "2.0"
  },
  "scene" : 0,
  "scenes" : [
    {
      "nodes" : [ 0 ]
    }
  ],
  "nodes" : [
    {
      "name" : "SM_trash_bin_3",
      "mesh" : 0
    }
  ],
  "materials" : [
    {
      "name" : "dummy_material_0",
      "pbrMetallicRoughness" : {
        "baseColorFactor" : [ 0.3, 0.3, 0.3, 1.0 ],
        "metallicFactor" : 0.1,
        "roughnessFactor" : 0.5
      }
    }
  ],
  "meshes" : [
    {
      "primitives" : [
        {
          "attributes" : {
            "POSITION" : 1,
            "NORMAL" : 2,
            "TANGENT" : 3,
            "TEXCOORD_0" : 4,
            "TEXCOORD_1" : 5
          },
          "indices" : 0,
          "material" : 0
        }
      ],
      "name" : "SM_trash_bin_3"
    }
  ],
  "buffers" : [
    {
      "uri" : "SM_trash_bin_3.bin",
      "byteLength" : 145116
    }
  ],
  "bufferViews" : [
    {
      "buffer" : 0,
      "byteOffset" : 0,
      "byteLength" : 5004
    },
    {
      "buffer" : 0,
      "byteOffset" : 5004,
      "byteLength" : 30024
    },
    {
      "buffer" : 0,
      "byteOffset" : 35028,
      "byteLength" : 30024
    },
    {
      "buffer" : 0,
      "byteOffset" : 65052,
      "byteLength" : 40032
    },
    {
      "buffer" : 0,
      "byteOffset" : 105084,
      "byteLength" : 20016
    },
    {
      "buffer" : 0,
      "byteOffset" : 125100,
      "byteLength" : 20016
    }
  ],
  "accessors" : [
    {
      "bufferView" : 0,
      "componentType" : 5123,
      "count" : 2502,
      "type" : "SCALAR"
    },
    {
      "bufferView" : 1,
      "min" : [ -0.416364, -0.000584767, -0.375217 ],
      "max" : [ 0.380341, 1.25551, 0.375216 ],
      "componentType" : 5126,
      "count" : 2502,
      "type" : "VEC3"
    },
    {
      "bufferView" : 2,
      "componentType" : 5126,
      "count" : 2502,
      "type" : "VEC3"
    },
    {
      "bufferView" : 3,
      "componentType" : 5126,
      "count" : 2502,
      "type" : "VEC4"
    },
    {
      "bufferView" : 4,
      "componentType" : 5126,
      "count" : 2502,
      "type" : "VEC2"
    },
    {
      "bufferView" : 5,
      "componentType" : 5126,
      "count" : 2502,
      "type" : "VEC2"
    }
  ]
}
