{
  "asset" : {
    "generator" : "UE Viewer (umodel) build 1590",
    "version" : "2.0"
  },
  "scene" : 0,
  "scenes" : [
    {
      "nodes" : [ 0 ]
    }
  ],
  "nodes" : [
    {
      "name" : "SM_utility_pole_5_lineFlags",
      "mesh" : 0
    }
  ],
  "materials" : [
    {
      "name" : "dummy_material_0",
      "pbrMetallicRoughness" : {
        "baseColorFactor" : [ 0.3, 0.3, 0.3, 1.0 ],
        "metallicFactor" : 0.1,
        "roughnessFactor" : 0.5
      }
    }
  ],
  "meshes" : [
    {
      "primitives" : [
        {
          "attributes" : {
            "POSITION" : 1,
            "NORMAL" : 2,
            "TANGENT" : 3,
            "TEXCOORD_0" : 4,
            "TEXCOORD_1" : 5
          },
          "indices" : 0,
          "material" : 0
        }
      ],
      "name" : "SM_utility_pole_5_lineFlags"
    }
  ],
  "buffers" : [
    {
      "uri" : "SM_utility_pole_5_lineFlags.bin",
      "byteLength" : 56376
    }
  ],
  "bufferViews" : [
    {
      "buffer" : 0,
      "byteOffset" : 0,
      "byteLength" : 1944
    },
    {
      "buffer" : 0,
      "byteOffset" : 1944,
      "byteLength" : 11664
    },
    {
      "buffer" : 0,
      "byteOffset" : 13608,
      "byteLength" : 11664
    },
    {
      "buffer" : 0,
      "byteOffset" : 25272,
      "byteLength" : 15552
    },
    {
      "buffer" : 0,
      "byteOffset" : 40824,
      "byteLength" : 7776
    },
    {
      "buffer" : 0,
      "byteOffset" : 48600,
      "byteLength" : 7776
    }
  ],
  "accessors" : [
    {
      "bufferView" : 0,
      "componentType" : 5123,
      "count" : 972,
      "type" : "SCALAR"
    },
    {
      "bufferView" : 1,
      "min" : [ -0.0437109, -0.0060997, -0.115587 ],
      "max" : [ 16.1335, 8.0061, 0.115592 ],
      "componentType" : 5126,
      "count" : 972,
      "type" : "VEC3"
    },
    {
      "bufferView" : 2,
      "componentType" : 5126,
      "count" : 972,
      "type" : "VEC3"
    },
    {
      "bufferView" : 3,
      "componentType" : 5126,
      "count" : 972,
      "type" : "VEC4"
    },
    {
      "bufferView" : 4,
      "componentType" : 5126,
      "count" : 972,
      "type" : "VEC2"
    },
    {
      "bufferView" : 5,
      "componentType" : 5126,
      "count" : 972,
      "type" : "VEC2"
    }
  ]
}
