{
  "asset" : {
    "generator" : "UE Viewer (umodel) build 1590",
    "version" : "2.0"
  },
  "scene" : 0,
  "scenes" : [
    {
      "nodes" : [ 0 ]
    }
  ],
  "nodes" : [
    {
      "name" : "SM_utility_pole_3",
      "mesh" : 0
    }
  ],
  "materials" : [
    {
      "name" : "dummy_material_0",
      "pbrMetallicRoughness" : {
        "baseColorFactor" : [ 0.3, 0.3, 0.3, 1.0 ],
        "metallicFactor" : 0.1,
        "roughnessFactor" : 0.5
      }
    }
  ],
  "meshes" : [
    {
      "primitives" : [
        {
          "attributes" : {
            "POSITION" : 1,
            "NORMAL" : 2,
            "TANGENT" : 3,
            "TEXCOORD_0" : 4,
            "TEXCOORD_1" : 5
          },
          "indices" : 0,
          "material" : 0
        }
      ],
      "name" : "SM_utility_pole_3"
    }
  ],
  "buffers" : [
    {
      "uri" : "SM_utility_pole_3.bin",
      "byteLength" : 144072
    }
  ],
  "bufferViews" : [
    {
      "buffer" : 0,
      "byteOffset" : 0,
      "byteLength" : 4968
    },
    {
      "buffer" : 0,
      "byteOffset" : 4968,
      "byteLength" : 29808
    },
    {
      "buffer" : 0,
      "byteOffset" : 34776,
      "byteLength" : 29808
    },
    {
      "buffer" : 0,
      "byteOffset" : 64584,
      "byteLength" : 39744
    },
    {
      "buffer" : 0,
      "byteOffset" : 104328,
      "byteLength" : 19872
    },
    {
      "buffer" : 0,
      "byteOffset" : 124200,
      "byteLength" : 19872
    }
  ],
  "accessors" : [
    {
      "bufferView" : 0,
      "componentType" : 5123,
      "count" : 2484,
      "type" : "SCALAR"
    },
    {
      "bufferView" : 1,
      "min" : [ -0.298328, -8.30659e-18, -0.99418 ],
      "max" : [ 0.355665, 9.47549, 0.99418 ],
      "componentType" : 5126,
      "count" : 2484,
      "type" : "VEC3"
    },
    {
      "bufferView" : 2,
      "componentType" : 5126,
      "count" : 2484,
      "type" : "VEC3"
    },
    {
      "bufferView" : 3,
      "componentType" : 5126,
      "count" : 2484,
      "type" : "VEC4"
    },
    {
      "bufferView" : 4,
      "componentType" : 5126,
      "count" : 2484,
      "type" : "VEC2"
    },
    {
      "bufferView" : 5,
      "componentType" : 5126,
      "count" : 2484,
      "type" : "VEC2"
    }
  ]
}
