{
  "asset" : {
    "generator" : "UE Viewer (umodel) build 1590",
    "version" : "2.0"
  },
  "scene" : 0,
  "scenes" : [
    {
      "nodes" : [ 0 ]
    }
  ],
  "nodes" : [
    {
      "name" : "SM_utility_pole_4",
      "mesh" : 0
    }
  ],
  "materials" : [
    {
      "name" : "dummy_material_0",
      "pbrMetallicRoughness" : {
        "baseColorFactor" : [ 0.3, 0.3, 0.3, 1.0 ],
        "metallicFactor" : 0.1,
        "roughnessFactor" : 0.5
      }
    }
  ],
  "meshes" : [
    {
      "primitives" : [
        {
          "attributes" : {
            "POSITION" : 1,
            "NORMAL" : 2,
            "TANGENT" : 3,
            "TEXCOORD_0" : 4
          },
          "indices" : 0,
          "material" : 0
        }
      ],
      "name" : "SM_utility_pole_4"
    }
  ],
  "buffers" : [
    {
      "uri" : "SM_utility_pole_4.bin",
      "byteLength" : 154500
    }
  ],
  "bufferViews" : [
    {
      "buffer" : 0,
      "byteOffset" : 0,
      "byteLength" : 6180
    },
    {
      "buffer" : 0,
      "byteOffset" : 6180,
      "byteLength" : 37080
    },
    {
      "buffer" : 0,
      "byteOffset" : 43260,
      "byteLength" : 37080
    },
    {
      "buffer" : 0,
      "byteOffset" : 80340,
      "byteLength" : 49440
    },
    {
      "buffer" : 0,
      "byteOffset" : 129780,
      "byteLength" : 24720
    }
  ],
  "accessors" : [
    {
      "bufferView" : 0,
      "componentType" : 5123,
      "count" : 3090,
      "type" : "SCALAR"
    },
    {
      "bufferView" : 1,
      "min" : [ -0.298327, -8.30658e-18, -0.99418 ],
      "max" : [ 0.453818, 9.75463, 0.99418 ],
      "componentType" : 5126,
      "count" : 3090,
      "type" : "VEC3"
    },
    {
      "bufferView" : 2,
      "componentType" : 5126,
      "count" : 3090,
      "type" : "VEC3"
    },
    {
      "bufferView" : 3,
      "componentType" : 5126,
      "count" : 3090,
      "type" : "VEC4"
    },
    {
      "bufferView" : 4,
      "componentType" : 5126,
      "count" : 3090,
      "type" : "VEC2"
    }
  ]
}
