{
  "asset" : {
    "generator" : "UE Viewer (umodel) build 1590",
    "version" : "2.0"
  },
  "scene" : 0,
  "scenes" : [
    {
      "nodes" : [ 0 ]
    }
  ],
  "nodes" : [
    {
      "name" : "SM_wreck_02",
      "mesh" : 0
    }
  ],
  "materials" : [
    {
      "name" : "dummy_material_0",
      "pbrMetallicRoughness" : {
        "baseColorFactor" : [ 0.3, 0.3, 0.3, 1.0 ],
        "metallicFactor" : 0.1,
        "roughnessFactor" : 0.5
      }
    }
  ],
  "meshes" : [
    {
      "primitives" : [
        {
          "attributes" : {
            "POSITION" : 1,
            "NORMAL" : 2,
            "TANGENT" : 3,
            "TEXCOORD_0" : 4,
            "TEXCOORD_1" : 5
          },
          "indices" : 0,
          "material" : 0
        }
      ],
      "name" : "SM_wreck_02"
    }
  ],
  "buffers" : [
    {
      "uri" : "SM_wreck_02.bin",
      "byteLength" : 645888
    }
  ],
  "bufferViews" : [
    {
      "buffer" : 0,
      "byteOffset" : 0,
      "byteLength" : 22272
    },
    {
      "buffer" : 0,
      "byteOffset" : 22272,
      "byteLength" : 133632
    },
    {
      "buffer" : 0,
      "byteOffset" : 155904,
      "byteLength" : 133632
    },
    {
      "buffer" : 0,
      "byteOffset" : 289536,
      "byteLength" : 178176
    },
    {
      "buffer" : 0,
      "byteOffset" : 467712,
      "byteLength" : 89088
    },
    {
      "buffer" : 0,
      "byteOffset" : 556800,
      "byteLength" : 89088
    }
  ],
  "accessors" : [
    {
      "bufferView" : 0,
      "componentType" : 5123,
      "count" : 11136,
      "type" : "SCALAR"
    },
    {
      "bufferView" : 1,
      "min" : [ -2.46565, -0.0388103, -1.19468 ],
      "max" : [ 2.37593, 1.51418, 1.02105 ],
      "componentType" : 5126,
      "count" : 11136,
      "type" : "VEC3"
    },
    {
      "bufferView" : 2,
      "componentType" : 5126,
      "count" : 11136,
      "type" : "VEC3"
    },
    {
      "bufferView" : 3,
      "componentType" : 5126,
      "count" : 11136,
      "type" : "VEC4"
    },
    {
      "bufferView" : 4,
      "componentType" : 5126,
      "count" : 11136,
      "type" : "VEC2"
    },
    {
      "bufferView" : 5,
      "componentType" : 5126,
      "count" : 11136,
      "type" : "VEC2"
    }
  ]
}
