{
  "asset" : {
    "generator" : "UE Viewer (umodel) build 1590",
    "version" : "2.0"
  },
  "scene" : 0,
  "scenes" : [
    {
      "nodes" : [ 0 ]
    }
  ],
  "nodes" : [
    {
      "name" : "SM_wreck_01",
      "mesh" : 0
    }
  ],
  "materials" : [
    {
      "name" : "dummy_material_0",
      "pbrMetallicRoughness" : {
        "baseColorFactor" : [ 0.3, 0.3, 0.3, 1.0 ],
        "metallicFactor" : 0.1,
        "roughnessFactor" : 0.5
      }
    }
  ],
  "meshes" : [
    {
      "primitives" : [
        {
          "attributes" : {
            "POSITION" : 1,
            "NORMAL" : 2,
            "TANGENT" : 3,
            "TEXCOORD_0" : 4,
            "TEXCOORD_1" : 5
          },
          "indices" : 0,
          "material" : 0
        }
      ],
      "name" : "SM_wreck_01"
    }
  ],
  "buffers" : [
    {
      "uri" : "SM_wreck_01.bin",
      "byteLength" : 712356
    }
  ],
  "bufferViews" : [
    {
      "buffer" : 0,
      "byteOffset" : 0,
      "byteLength" : 24564
    },
    {
      "buffer" : 0,
      "byteOffset" : 24564,
      "byteLength" : 147384
    },
    {
      "buffer" : 0,
      "byteOffset" : 171948,
      "byteLength" : 147384
    },
    {
      "buffer" : 0,
      "byteOffset" : 319332,
      "byteLength" : 196512
    },
    {
      "buffer" : 0,
      "byteOffset" : 515844,
      "byteLength" : 98256
    },
    {
      "buffer" : 0,
      "byteOffset" : 614100,
      "byteLength" : 98256
    }
  ],
  "accessors" : [
    {
      "bufferView" : 0,
      "componentType" : 5123,
      "count" : 12282,
      "type" : "SCALAR"
    },
    {
      "bufferView" : 1,
      "min" : [ -2.42079, -0.0388103, -0.934229 ],
      "max" : [ 2.42079, 1.56626, 1.10786 ],
      "componentType" : 5126,
      "count" : 12282,
      "type" : "VEC3"
    },
    {
      "bufferView" : 2,
      "componentType" : 5126,
      "count" : 12282,
      "type" : "VEC3"
    },
    {
      "bufferView" : 3,
      "componentType" : 5126,
      "count" : 12282,
      "type" : "VEC4"
    },
    {
      "bufferView" : 4,
      "componentType" : 5126,
      "count" : 12282,
      "type" : "VEC2"
    },
    {
      "bufferView" : 5,
      "componentType" : 5126,
      "count" : 12282,
      "type" : "VEC2"
    }
  ]
}
