{
  "asset" : {
    "generator" : "UE Viewer (umodel) build 1590",
    "version" : "2.0"
  },
  "scene" : 0,
  "scenes" : [
    {
      "nodes" : [ 0 ]
    }
  ],
  "nodes" : [
    {
      "name" : "SM_wooden_blocks",
      "mesh" : 0
    }
  ],
  "materials" : [
    {
      "name" : "dummy_material_0",
      "pbrMetallicRoughness" : {
        "baseColorFactor" : [ 0.3, 0.3, 0.3, 1.0 ],
        "metallicFactor" : 0.1,
        "roughnessFactor" : 0.5
      }
    }
  ],
  "meshes" : [
    {
      "primitives" : [
        {
          "attributes" : {
            "POSITION" : 1,
            "NORMAL" : 2,
            "TANGENT" : 3,
            "TEXCOORD_0" : 4,
            "TEXCOORD_1" : 5
          },
          "indices" : 0,
          "material" : 0
        }
      ],
      "name" : "SM_wooden_blocks"
    }
  ],
  "buffers" : [
    {
      "uri" : "SM_wooden_blocks.bin",
      "byteLength" : 82128
    }
  ],
  "bufferViews" : [
    {
      "buffer" : 0,
      "byteOffset" : 0,
      "byteLength" : 2832
    },
    {
      "buffer" : 0,
      "byteOffset" : 2832,
      "byteLength" : 16992
    },
    {
      "buffer" : 0,
      "byteOffset" : 19824,
      "byteLength" : 16992
    },
    {
      "buffer" : 0,
      "byteOffset" : 36816,
      "byteLength" : 22656
    },
    {
      "buffer" : 0,
      "byteOffset" : 59472,
      "byteLength" : 11328
    },
    {
      "buffer" : 0,
      "byteOffset" : 70800,
      "byteLength" : 11328
    }
  ],
  "accessors" : [
    {
      "bufferView" : 0,
      "componentType" : 5123,
      "count" : 1416,
      "type" : "SCALAR"
    },
    {
      "bufferView" : 1,
      "min" : [ -1.13865, -9.38195e-17, -2.60782 ],
      "max" : [ 1.18026, 1.27463, 2.60782 ],
      "componentType" : 5126,
      "count" : 1416,
      "type" : "VEC3"
    },
    {
      "bufferView" : 2,
      "componentType" : 5126,
      "count" : 1416,
      "type" : "VEC3"
    },
    {
      "bufferView" : 3,
      "componentType" : 5126,
      "count" : 1416,
      "type" : "VEC4"
    },
    {
      "bufferView" : 4,
      "componentType" : 5126,
      "count" : 1416,
      "type" : "VEC2"
    },
    {
      "bufferView" : 5,
      "componentType" : 5126,
      "count" : 1416,
      "type" : "VEC2"
    }
  ]
}
