{
  "asset" : {
    "generator" : "UE Viewer (umodel) build 1590",
    "version" : "2.0"
  },
  "scene" : 0,
  "scenes" : [
    {
      "nodes" : [ 0 ]
    }
  ],
  "nodes" : [
    {
      "name" : "SM_bars_01",
      "mesh" : 0
    }
  ],
  "materials" : [
    {
      "name" : "dummy_material_0",
      "pbrMetallicRoughness" : {
        "baseColorFactor" : [ 0.3, 0.3, 0.3, 1.0 ],
        "metallicFactor" : 0.1,
        "roughnessFactor" : 0.5
      }
    }
  ],
  "meshes" : [
    {
      "primitives" : [
        {
          "attributes" : {
            "POSITION" : 1,
            "NORMAL" : 2,
            "TANGENT" : 3,
            "TEXCOORD_0" : 4
          },
          "indices" : 0,
          "material" : 0
        }
      ],
      "name" : "SM_bars_01"
    }
  ],
  "buffers" : [
    {
      "uri" : "SM_bars_01.bin",
      "byteLength" : 81000
    }
  ],
  "bufferViews" : [
    {
      "buffer" : 0,
      "byteOffset" : 0,
      "byteLength" : 3240
    },
    {
      "buffer" : 0,
      "byteOffset" : 3240,
      "byteLength" : 19440
    },
    {
      "buffer" : 0,
      "byteOffset" : 22680,
      "byteLength" : 19440
    },
    {
      "buffer" : 0,
      "byteOffset" : 42120,
      "byteLength" : 25920
    },
    {
      "buffer" : 0,
      "byteOffset" : 68040,
      "byteLength" : 12960
    }
  ],
  "accessors" : [
    {
      "bufferView" : 0,
      "componentType" : 5123,
      "count" : 1620,
      "type" : "SCALAR"
    },
    {
      "bufferView" : 1,
      "min" : [ -0.0485341, -7.62939e-07, -4 ],
      "max" : [ 0.0485657, 2.75, 7.32634e-06 ],
      "componentType" : 5126,
      "count" : 1620,
      "type" : "VEC3"
    },
    {
      "bufferView" : 2,
      "componentType" : 5126,
      "count" : 1620,
      "type" : "VEC3"
    },
    {
      "bufferView" : 3,
      "componentType" : 5126,
      "count" : 1620,
      "type" : "VEC4"
    },
    {
      "bufferView" : 4,
      "componentType" : 5126,
      "count" : 1620,
      "type" : "VEC2"
    }
  ]
}
