{
  "asset" : {
    "generator" : "UE Viewer (umodel) build 1590",
    "version" : "2.0"
  },
  "scene" : 0,
  "scenes" : [
    {
      "nodes" : [ 0 ]
    }
  ],
  "nodes" : [
    {
      "name" : "SM_cornice_01",
      "mesh" : 0
    }
  ],
  "materials" : [
    {
      "name" : "dummy_material_0",
      "pbrMetallicRoughness" : {
        "baseColorFactor" : [ 0.3, 0.3, 0.3, 1.0 ],
        "metallicFactor" : 0.1,
        "roughnessFactor" : 0.5
      }
    },
    {
      "name" : "dummy_material_1",
      "pbrMetallicRoughness" : {
        "baseColorFactor" : [ 0.9, 0.3, 0.3, 1.0 ],
        "metallicFactor" : 0.1,
        "roughnessFactor" : 0.5
      }
    },
    {
      "name" : "dummy_material_2",
      "pbrMetallicRoughness" : {
        "baseColorFactor" : [ 0.3, 0.9, 0.3, 1.0 ],
        "metallicFactor" : 0.1,
        "roughnessFactor" : 0.5
      }
    }
  ],
  "meshes" : [
    {
      "primitives" : [
        {
          "attributes" : {
            "POSITION" : 1,
            "NORMAL" : 2,
            "TANGENT" : 3,
            "TEXCOORD_0" : 4
          },
          "indices" : 0,
          "material" : 0
        },
        {
          "attributes" : {
            "POSITION" : 6,
            "NORMAL" : 7,
            "TANGENT" : 8,
            "TEXCOORD_0" : 9
          },
          "indices" : 5,
          "material" : 1
        },
        {
          "attributes" : {
            "POSITION" : 11,
            "NORMAL" : 12,
            "TANGENT" : 13,
            "TEXCOORD_0" : 14
          },
          "indices" : 10,
          "material" : 2
        }
      ],
      "name" : "SM_cornice_01"
    }
  ],
  "buffers" : [
    {
      "uri" : "SM_cornice_01.bin",
      "byteLength" : 54600
    }
  ],
  "bufferViews" : [
    {
      "buffer" : 0,
      "byteOffset" : 0,
      "byteLength" : 12
    },
    {
      "buffer" : 0,
      "byteOffset" : 12,
      "byteLength" : 72
    },
    {
      "buffer" : 0,
      "byteOffset" : 84,
      "byteLength" : 72
    },
    {
      "buffer" : 0,
      "byteOffset" : 156,
      "byteLength" : 96
    },
    {
      "buffer" : 0,
      "byteOffset" : 252,
      "byteLength" : 48
    },
    {
      "buffer" : 0,
      "byteOffset" : 300,
      "byteLength" : 2148
    },
    {
      "buffer" : 0,
      "byteOffset" : 2448,
      "byteLength" : 12888
    },
    {
      "buffer" : 0,
      "byteOffset" : 15336,
      "byteLength" : 12888
    },
    {
      "buffer" : 0,
      "byteOffset" : 28224,
      "byteLength" : 17184
    },
    {
      "buffer" : 0,
      "byteOffset" : 45408,
      "byteLength" : 8592
    },
    {
      "buffer" : 0,
      "byteOffset" : 54000,
      "byteLength" : 24
    },
    {
      "buffer" : 0,
      "byteOffset" : 54024,
      "byteLength" : 144
    },
    {
      "buffer" : 0,
      "byteOffset" : 54168,
      "byteLength" : 144
    },
    {
      "buffer" : 0,
      "byteOffset" : 54312,
      "byteLength" : 192
    },
    {
      "buffer" : 0,
      "byteOffset" : 54504,
      "byteLength" : 96
    }
  ],
  "accessors" : [
    {
      "bufferView" : 0,
      "componentType" : 5123,
      "count" : 6,
      "type" : "SCALAR"
    },
    {
      "bufferView" : 1,
      "min" : [ -0.15, 0, -8 ],
      "max" : [ -0.15, 1.025, 6.55671e-09 ],
      "componentType" : 5126,
      "count" : 6,
      "type" : "VEC3"
    },
    {
      "bufferView" : 2,
      "componentType" : 5126,
      "count" : 6,
      "type" : "VEC3"
    },
    {
      "bufferView" : 3,
      "componentType" : 5126,
      "count" : 6,
      "type" : "VEC4"
    },
    {
      "bufferView" : 4,
      "componentType" : 5126,
      "count" : 6,
      "type" : "VEC2"
    },
    {
      "bufferView" : 5,
      "componentType" : 5123,
      "count" : 1074,
      "type" : "SCALAR"
    },
    {
      "bufferView" : 6,
      "min" : [ -0.25, 0, -8 ],
      "max" : [ 0.714966, 1.125, 1.95187e-05 ],
      "componentType" : 5126,
      "count" : 1074,
      "type" : "VEC3"
    },
    {
      "bufferView" : 7,
      "componentType" : 5126,
      "count" : 1074,
      "type" : "VEC3"
    },
    {
      "bufferView" : 8,
      "componentType" : 5126,
      "count" : 1074,
      "type" : "VEC4"
    },
    {
      "bufferView" : 9,
      "componentType" : 5126,
      "count" : 1074,
      "type" : "VEC2"
    },
    {
      "bufferView" : 10,
      "componentType" : 5123,
      "count" : 12,
      "type" : "SCALAR"
    },
    {
      "bufferView" : 11,
      "min" : [ -0.15, 0, -8 ],
      "max" : [ 0.15, 1.025, 6.55671e-09 ],
      "componentType" : 5126,
      "count" : 12,
      "type" : "VEC3"
    },
    {
      "bufferView" : 12,
      "componentType" : 5126,
      "count" : 12,
      "type" : "VEC3"
    },
    {
      "bufferView" : 13,
      "componentType" : 5126,
      "count" : 12,
      "type" : "VEC4"
    },
    {
      "bufferView" : 14,
      "componentType" : 5126,
      "count" : 12,
      "type" : "VEC2"
    }
  ]
}
