{
  "asset" : {
    "generator" : "UE Viewer (umodel) build 1590",
    "version" : "2.0"
  },
  "scene" : 0,
  "scenes" : [
    {
      "nodes" : [ 0 ]
    }
  ],
  "nodes" : [
    {
      "name" : "SM_cornice_02",
      "mesh" : 0
    }
  ],
  "materials" : [
    {
      "name" : "dummy_material_0",
      "pbrMetallicRoughness" : {
        "baseColorFactor" : [ 0.3, 0.3, 0.3, 1.0 ],
        "metallicFactor" : 0.1,
        "roughnessFactor" : 0.5
      }
    },
    {
      "name" : "dummy_material_1",
      "pbrMetallicRoughness" : {
        "baseColorFactor" : [ 0.9, 0.3, 0.3, 1.0 ],
        "metallicFactor" : 0.1,
        "roughnessFactor" : 0.5
      }
    }
  ],
  "meshes" : [
    {
      "primitives" : [
        {
          "attributes" : {
            "POSITION" : 1,
            "NORMAL" : 2,
            "TANGENT" : 3,
            "TEXCOORD_0" : 4
          },
          "indices" : 0,
          "material" : 0
        },
        {
          "attributes" : {
            "POSITION" : 6,
            "NORMAL" : 7,
            "TANGENT" : 8,
            "TEXCOORD_0" : 9
          },
          "indices" : 5,
          "material" : 1
        }
      ],
      "name" : "SM_cornice_02"
    }
  ],
  "buffers" : [
    {
      "uri" : "SM_cornice_02.bin",
      "byteLength" : 65100
    }
  ],
  "bufferViews" : [
    {
      "buffer" : 0,
      "byteOffset" : 0,
      "byteLength" : 2592
    },
    {
      "buffer" : 0,
      "byteOffset" : 2592,
      "byteLength" : 15552
    },
    {
      "buffer" : 0,
      "byteOffset" : 18144,
      "byteLength" : 15552
    },
    {
      "buffer" : 0,
      "byteOffset" : 33696,
      "byteLength" : 20736
    },
    {
      "buffer" : 0,
      "byteOffset" : 54432,
      "byteLength" : 10368
    },
    {
      "buffer" : 0,
      "byteOffset" : 64800,
      "byteLength" : 12
    },
    {
      "buffer" : 0,
      "byteOffset" : 64812,
      "byteLength" : 72
    },
    {
      "buffer" : 0,
      "byteOffset" : 64884,
      "byteLength" : 72
    },
    {
      "buffer" : 0,
      "byteOffset" : 64956,
      "byteLength" : 96
    },
    {
      "buffer" : 0,
      "byteOffset" : 65052,
      "byteLength" : 48
    }
  ],
  "accessors" : [
    {
      "bufferView" : 0,
      "componentType" : 5123,
      "count" : 1296,
      "type" : "SCALAR"
    },
    {
      "bufferView" : 1,
      "min" : [ 0.15, 2.76566e-07, -7.99999 ],
      "max" : [ 0.450021, 0.999999, 6.59773e-07 ],
      "componentType" : 5126,
      "count" : 1296,
      "type" : "VEC3"
    },
    {
      "bufferView" : 2,
      "componentType" : 5126,
      "count" : 1296,
      "type" : "VEC3"
    },
    {
      "bufferView" : 3,
      "componentType" : 5126,
      "count" : 1296,
      "type" : "VEC4"
    },
    {
      "bufferView" : 4,
      "componentType" : 5126,
      "count" : 1296,
      "type" : "VEC2"
    },
    {
      "bufferView" : 5,
      "componentType" : 5123,
      "count" : 6,
      "type" : "SCALAR"
    },
    {
      "bufferView" : 6,
      "min" : [ -0.150002, 0, -7.99999 ],
      "max" : [ -0.150002, 1, 2.41876e-06 ],
      "componentType" : 5126,
      "count" : 6,
      "type" : "VEC3"
    },
    {
      "bufferView" : 7,
      "componentType" : 5126,
      "count" : 6,
      "type" : "VEC3"
    },
    {
      "bufferView" : 8,
      "componentType" : 5126,
      "count" : 6,
      "type" : "VEC4"
    },
    {
      "bufferView" : 9,
      "componentType" : 5126,
      "count" : 6,
      "type" : "VEC2"
    }
  ]
}
