{
  "asset" : {
    "generator" : "UE Viewer (umodel) build 1590",
    "version" : "2.0"
  },
  "scene" : 0,
  "scenes" : [
    {
      "nodes" : [ 0 ]
    }
  ],
  "nodes" : [
    {
      "name" : "SM_drainPipe_ending",
      "mesh" : 0
    }
  ],
  "materials" : [
    {
      "name" : "dummy_material_0",
      "pbrMetallicRoughness" : {
        "baseColorFactor" : [ 0.3, 0.3, 0.3, 1.0 ],
        "metallicFactor" : 0.1,
        "roughnessFactor" : 0.5
      }
    }
  ],
  "meshes" : [
    {
      "primitives" : [
        {
          "attributes" : {
            "POSITION" : 1,
            "NORMAL" : 2,
            "TANGENT" : 3,
            "TEXCOORD_0" : 4,
            "TEXCOORD_1" : 5
          },
          "indices" : 0,
          "material" : 0
        }
      ],
      "name" : "SM_drainPipe_ending"
    }
  ],
  "buffers" : [
    {
      "uri" : "SM_drainPipe_ending.bin",
      "byteLength" : 23664
    }
  ],
  "bufferViews" : [
    {
      "buffer" : 0,
      "byteOffset" : 0,
      "byteLength" : 816
    },
    {
      "buffer" : 0,
      "byteOffset" : 816,
      "byteLength" : 4896
    },
    {
      "buffer" : 0,
      "byteOffset" : 5712,
      "byteLength" : 4896
    },
    {
      "buffer" : 0,
      "byteOffset" : 10608,
      "byteLength" : 6528
    },
    {
      "buffer" : 0,
      "byteOffset" : 17136,
      "byteLength" : 3264
    },
    {
      "buffer" : 0,
      "byteOffset" : 20400,
      "byteLength" : 3264
    }
  ],
  "accessors" : [
    {
      "bufferView" : 0,
      "componentType" : 5123,
      "count" : 408,
      "type" : "SCALAR"
    },
    {
      "bufferView" : 1,
      "min" : [ -0.134767, -0.597734, -0.134767 ],
      "max" : [ 0.334667, 1.52588e-07, 0.134767 ],
      "componentType" : 5126,
      "count" : 408,
      "type" : "VEC3"
    },
    {
      "bufferView" : 2,
      "componentType" : 5126,
      "count" : 408,
      "type" : "VEC3"
    },
    {
      "bufferView" : 3,
      "componentType" : 5126,
      "count" : 408,
      "type" : "VEC4"
    },
    {
      "bufferView" : 4,
      "componentType" : 5126,
      "count" : 408,
      "type" : "VEC2"
    },
    {
      "bufferView" : 5,
      "componentType" : 5126,
      "count" : 408,
      "type" : "VEC2"
    }
  ]
}
