{
  "asset" : {
    "generator" : "UE Viewer (umodel) build 1590",
    "version" : "2.0"
  },
  "scene" : 0,
  "scenes" : [
    {
      "nodes" : [ 0 ]
    }
  ],
  "nodes" : [
    {
      "name" : "SM_doorHouse_01",
      "mesh" : 0
    }
  ],
  "materials" : [
    {
      "name" : "dummy_material_0",
      "pbrMetallicRoughness" : {
        "baseColorFactor" : [ 0.3, 0.3, 0.3, 1.0 ],
        "metallicFactor" : 0.1,
        "roughnessFactor" : 0.5
      }
    },
    {
      "name" : "dummy_material_1",
      "pbrMetallicRoughness" : {
        "baseColorFactor" : [ 0.9, 0.3, 0.3, 1.0 ],
        "metallicFactor" : 0.1,
        "roughnessFactor" : 0.5
      }
    },
    {
      "name" : "dummy_material_2",
      "pbrMetallicRoughness" : {
        "baseColorFactor" : [ 0.3, 0.9, 0.3, 1.0 ],
        "metallicFactor" : 0.1,
        "roughnessFactor" : 0.5
      }
    },
    {
      "name" : "dummy_material_3",
      "pbrMetallicRoughness" : {
        "baseColorFactor" : [ 0.3, 0.3, 0.9, 1.0 ],
        "metallicFactor" : 0.1,
        "roughnessFactor" : 0.5
      }
    }
  ],
  "meshes" : [
    {
      "primitives" : [
        {
          "attributes" : {
            "POSITION" : 1,
            "NORMAL" : 2,
            "TANGENT" : 3,
            "TEXCOORD_0" : 4,
            "TEXCOORD_1" : 5
          },
          "indices" : 0,
          "material" : 0
        },
        {
          "attributes" : {
            "POSITION" : 7,
            "NORMAL" : 8,
            "TANGENT" : 9,
            "TEXCOORD_0" : 10,
            "TEXCOORD_1" : 11
          },
          "indices" : 6,
          "material" : 1
        },
        {
          "attributes" : {
            "POSITION" : 13,
            "NORMAL" : 14,
            "TANGENT" : 15,
            "TEXCOORD_0" : 16,
            "TEXCOORD_1" : 17
          },
          "indices" : 12,
          "material" : 2
        },
        {
          "attributes" : {
            "POSITION" : 19,
            "NORMAL" : 20,
            "TANGENT" : 21,
            "TEXCOORD_0" : 22,
            "TEXCOORD_1" : 23
          },
          "indices" : 18,
          "material" : 3
        }
      ],
      "name" : "SM_doorHouse_01"
    }
  ],
  "buffers" : [
    {
      "uri" : "SM_doorHouse_01.bin",
      "byteLength" : 24012
    }
  ],
  "bufferViews" : [
    {
      "buffer" : 0,
      "byteOffset" : 0,
      "byteLength" : 72
    },
    {
      "buffer" : 0,
      "byteOffset" : 72,
      "byteLength" : 432
    },
    {
      "buffer" : 0,
      "byteOffset" : 504,
      "byteLength" : 432
    },
    {
      "buffer" : 0,
      "byteOffset" : 936,
      "byteLength" : 576
    },
    {
      "buffer" : 0,
      "byteOffset" : 1512,
      "byteLength" : 288
    },
    {
      "buffer" : 0,
      "byteOffset" : 1800,
      "byteLength" : 288
    },
    {
      "buffer" : 0,
      "byteOffset" : 2088,
      "byteLength" : 504
    },
    {
      "buffer" : 0,
      "byteOffset" : 2592,
      "byteLength" : 3024
    },
    {
      "buffer" : 0,
      "byteOffset" : 5616,
      "byteLength" : 3024
    },
    {
      "buffer" : 0,
      "byteOffset" : 8640,
      "byteLength" : 4032
    },
    {
      "buffer" : 0,
      "byteOffset" : 12672,
      "byteLength" : 2016
    },
    {
      "buffer" : 0,
      "byteOffset" : 14688,
      "byteLength" : 2016
    },
    {
      "buffer" : 0,
      "byteOffset" : 16704,
      "byteLength" : 192
    },
    {
      "buffer" : 0,
      "byteOffset" : 16896,
      "byteLength" : 1152
    },
    {
      "buffer" : 0,
      "byteOffset" : 18048,
      "byteLength" : 1152
    },
    {
      "buffer" : 0,
      "byteOffset" : 19200,
      "byteLength" : 1536
    },
    {
      "buffer" : 0,
      "byteOffset" : 20736,
      "byteLength" : 768
    },
    {
      "buffer" : 0,
      "byteOffset" : 21504,
      "byteLength" : 768
    },
    {
      "buffer" : 0,
      "byteOffset" : 22272,
      "byteLength" : 60
    },
    {
      "buffer" : 0,
      "byteOffset" : 22332,
      "byteLength" : 360
    },
    {
      "buffer" : 0,
      "byteOffset" : 22692,
      "byteLength" : 360
    },
    {
      "buffer" : 0,
      "byteOffset" : 23052,
      "byteLength" : 480
    },
    {
      "buffer" : 0,
      "byteOffset" : 23532,
      "byteLength" : 240
    },
    {
      "buffer" : 0,
      "byteOffset" : 23772,
      "byteLength" : 240
    }
  ],
  "accessors" : [
    {
      "bufferView" : 0,
      "componentType" : 5123,
      "count" : 36,
      "type" : "SCALAR"
    },
    {
      "bufferView" : 1,
      "min" : [ -0.025, 0.019998, -1.19929 ],
      "max" : [ 0.025, 2.2, 0.000708008 ],
      "componentType" : 5126,
      "count" : 36,
      "type" : "VEC3"
    },
    {
      "bufferView" : 2,
      "componentType" : 5126,
      "count" : 36,
      "type" : "VEC3"
    },
    {
      "bufferView" : 3,
      "componentType" : 5126,
      "count" : 36,
      "type" : "VEC4"
    },
    {
      "bufferView" : 4,
      "componentType" : 5126,
      "count" : 36,
      "type" : "VEC2"
    },
    {
      "bufferView" : 5,
      "componentType" : 5126,
      "count" : 36,
      "type" : "VEC2"
    },
    {
      "bufferView" : 6,
      "componentType" : 5123,
      "count" : 252,
      "type" : "SCALAR"
    },
    {
      "bufferView" : 7,
      "min" : [ -0.129698, 0.92461, -1.21074 ],
      "max" : [ 0.129808, 1.2125, -1.02926 ],
      "componentType" : 5126,
      "count" : 252,
      "type" : "VEC3"
    },
    {
      "bufferView" : 8,
      "componentType" : 5126,
      "count" : 252,
      "type" : "VEC3"
    },
    {
      "bufferView" : 9,
      "componentType" : 5126,
      "count" : 252,
      "type" : "VEC4"
    },
    {
      "bufferView" : 10,
      "componentType" : 5126,
      "count" : 252,
      "type" : "VEC2"
    },
    {
      "bufferView" : 11,
      "componentType" : 5126,
      "count" : 252,
      "type" : "VEC2"
    },
    {
      "bufferView" : 12,
      "componentType" : 5123,
      "count" : 96,
      "type" : "SCALAR"
    },
    {
      "bufferView" : 13,
      "min" : [ -0.025, 0.019998, -1.19929 ],
      "max" : [ 0.025, 2.2, 0.000708008 ],
      "componentType" : 5126,
      "count" : 96,
      "type" : "VEC3"
    },
    {
      "bufferView" : 14,
      "componentType" : 5126,
      "count" : 96,
      "type" : "VEC3"
    },
    {
      "bufferView" : 15,
      "componentType" : 5126,
      "count" : 96,
      "type" : "VEC4"
    },
    {
      "bufferView" : 16,
      "componentType" : 5126,
      "count" : 96,
      "type" : "VEC2"
    },
    {
      "bufferView" : 17,
      "componentType" : 5126,
      "count" : 96,
      "type" : "VEC2"
    },
    {
      "bufferView" : 18,
      "componentType" : 5123,
      "count" : 30,
      "type" : "SCALAR"
    },
    {
      "bufferView" : 19,
      "min" : [ -0.00986206, 0.975021, -1.21074 ],
      "max" : [ 0.00986084, 1.14889, -1.20636 ],
      "componentType" : 5126,
      "count" : 30,
      "type" : "VEC3"
    },
    {
      "bufferView" : 20,
      "componentType" : 5126,
      "count" : 30,
      "type" : "VEC3"
    },
    {
      "bufferView" : 21,
      "componentType" : 5126,
      "count" : 30,
      "type" : "VEC4"
    },
    {
      "bufferView" : 22,
      "componentType" : 5126,
      "count" : 30,
      "type" : "VEC2"
    },
    {
      "bufferView" : 23,
      "componentType" : 5126,
      "count" : 30,
      "type" : "VEC2"
    }
  ]
}
