{
  "asset" : {
    "generator" : "UE Viewer (umodel) build 1590",
    "version" : "2.0"
  },
  "scene" : 0,
  "scenes" : [
    {
      "nodes" : [ 0 ]
    }
  ],
  "nodes" : [
    {
      "name" : "SM_doorShop_01",
      "mesh" : 0
    }
  ],
  "materials" : [
    {
      "name" : "dummy_material_0",
      "pbrMetallicRoughness" : {
        "baseColorFactor" : [ 0.3, 0.3, 0.3, 1.0 ],
        "metallicFactor" : 0.1,
        "roughnessFactor" : 0.5
      }
    },
    {
      "name" : "dummy_material_1",
      "pbrMetallicRoughness" : {
        "baseColorFactor" : [ 0.9, 0.3, 0.3, 1.0 ],
        "metallicFactor" : 0.1,
        "roughnessFactor" : 0.5
      }
    },
    {
      "name" : "dummy_material_2",
      "pbrMetallicRoughness" : {
        "baseColorFactor" : [ 0.3, 0.9, 0.3, 1.0 ],
        "metallicFactor" : 0.1,
        "roughnessFactor" : 0.5
      }
    }
  ],
  "meshes" : [
    {
      "primitives" : [
        {
          "attributes" : {
            "POSITION" : 1,
            "NORMAL" : 2,
            "TANGENT" : 3,
            "TEXCOORD_0" : 4,
            "TEXCOORD_1" : 5
          },
          "indices" : 0,
          "material" : 0
        },
        {
          "attributes" : {
            "POSITION" : 7,
            "NORMAL" : 8,
            "TANGENT" : 9,
            "TEXCOORD_0" : 10,
            "TEXCOORD_1" : 11
          },
          "indices" : 6,
          "material" : 1
        },
        {
          "attributes" : {
            "POSITION" : 13,
            "NORMAL" : 14,
            "TANGENT" : 15,
            "TEXCOORD_0" : 16,
            "TEXCOORD_1" : 17
          },
          "indices" : 12,
          "material" : 2
        }
      ],
      "name" : "SM_doorShop_01"
    }
  ],
  "buffers" : [
    {
      "uri" : "SM_doorShop_01.bin",
      "byteLength" : 10092
    }
  ],
  "bufferViews" : [
    {
      "buffer" : 0,
      "byteOffset" : 0,
      "byteLength" : 192
    },
    {
      "buffer" : 0,
      "byteOffset" : 192,
      "byteLength" : 1152
    },
    {
      "buffer" : 0,
      "byteOffset" : 1344,
      "byteLength" : 1152
    },
    {
      "buffer" : 0,
      "byteOffset" : 2496,
      "byteLength" : 1536
    },
    {
      "buffer" : 0,
      "byteOffset" : 4032,
      "byteLength" : 768
    },
    {
      "buffer" : 0,
      "byteOffset" : 4800,
      "byteLength" : 768
    },
    {
      "buffer" : 0,
      "byteOffset" : 5568,
      "byteLength" : 144
    },
    {
      "buffer" : 0,
      "byteOffset" : 5712,
      "byteLength" : 864
    },
    {
      "buffer" : 0,
      "byteOffset" : 6576,
      "byteLength" : 864
    },
    {
      "buffer" : 0,
      "byteOffset" : 7440,
      "byteLength" : 1152
    },
    {
      "buffer" : 0,
      "byteOffset" : 8592,
      "byteLength" : 576
    },
    {
      "buffer" : 0,
      "byteOffset" : 9168,
      "byteLength" : 576
    },
    {
      "buffer" : 0,
      "byteOffset" : 9744,
      "byteLength" : 12
    },
    {
      "buffer" : 0,
      "byteOffset" : 9756,
      "byteLength" : 72
    },
    {
      "buffer" : 0,
      "byteOffset" : 9828,
      "byteLength" : 72
    },
    {
      "buffer" : 0,
      "byteOffset" : 9900,
      "byteLength" : 96
    },
    {
      "buffer" : 0,
      "byteOffset" : 9996,
      "byteLength" : 48
    },
    {
      "buffer" : 0,
      "byteOffset" : 10044,
      "byteLength" : 48
    }
  ],
  "accessors" : [
    {
      "bufferView" : 0,
      "componentType" : 5123,
      "count" : 96,
      "type" : "SCALAR"
    },
    {
      "bufferView" : 1,
      "min" : [ -0.0435627, 0.0199989, -1.19859 ],
      "max" : [ 0.044743, 2.2, -5.703e-07 ],
      "componentType" : 5126,
      "count" : 96,
      "type" : "VEC3"
    },
    {
      "bufferView" : 2,
      "componentType" : 5126,
      "count" : 96,
      "type" : "VEC3"
    },
    {
      "bufferView" : 3,
      "componentType" : 5126,
      "count" : 96,
      "type" : "VEC4"
    },
    {
      "bufferView" : 4,
      "componentType" : 5126,
      "count" : 96,
      "type" : "VEC2"
    },
    {
      "bufferView" : 5,
      "componentType" : 5126,
      "count" : 96,
      "type" : "VEC2"
    },
    {
      "bufferView" : 6,
      "componentType" : 5123,
      "count" : 72,
      "type" : "SCALAR"
    },
    {
      "bufferView" : 7,
      "min" : [ -0.0806843, 1.08488, -1.1737 ],
      "max" : [ 0.0806842, 1.26509, -0.937724 ],
      "componentType" : 5126,
      "count" : 72,
      "type" : "VEC3"
    },
    {
      "bufferView" : 8,
      "componentType" : 5126,
      "count" : 72,
      "type" : "VEC3"
    },
    {
      "bufferView" : 9,
      "componentType" : 5126,
      "count" : 72,
      "type" : "VEC4"
    },
    {
      "bufferView" : 10,
      "componentType" : 5126,
      "count" : 72,
      "type" : "VEC2"
    },
    {
      "bufferView" : 11,
      "componentType" : 5126,
      "count" : 72,
      "type" : "VEC2"
    },
    {
      "bufferView" : 12,
      "componentType" : 5123,
      "count" : 6,
      "type" : "SCALAR"
    },
    {
      "bufferView" : 13,
      "min" : [ 0.000588939, 0.704314, -1.13859 ],
      "max" : [ 0.000588987, 2.14, -0.060003 ],
      "componentType" : 5126,
      "count" : 6,
      "type" : "VEC3"
    },
    {
      "bufferView" : 14,
      "componentType" : 5126,
      "count" : 6,
      "type" : "VEC3"
    },
    {
      "bufferView" : 15,
      "componentType" : 5126,
      "count" : 6,
      "type" : "VEC4"
    },
    {
      "bufferView" : 16,
      "componentType" : 5126,
      "count" : 6,
      "type" : "VEC2"
    },
    {
      "bufferView" : 17,
      "componentType" : 5126,
      "count" : 6,
      "type" : "VEC2"
    }
  ]
}
