{
  "asset" : {
    "generator" : "UE Viewer (umodel) build 1590",
    "version" : "2.0"
  },
  "scene" : 0,
  "scenes" : [
    {
      "nodes" : [ 0 ]
    }
  ],
  "nodes" : [
    {
      "name" : "SM_doorShop_02",
      "mesh" : 0
    }
  ],
  "materials" : [
    {
      "name" : "dummy_material_0",
      "pbrMetallicRoughness" : {
        "baseColorFactor" : [ 0.3, 0.3, 0.3, 1.0 ],
        "metallicFactor" : 0.1,
        "roughnessFactor" : 0.5
      }
    },
    {
      "name" : "dummy_material_1",
      "pbrMetallicRoughness" : {
        "baseColorFactor" : [ 0.9, 0.3, 0.3, 1.0 ],
        "metallicFactor" : 0.1,
        "roughnessFactor" : 0.5
      }
    },
    {
      "name" : "dummy_material_2",
      "pbrMetallicRoughness" : {
        "baseColorFactor" : [ 0.3, 0.9, 0.3, 1.0 ],
        "metallicFactor" : 0.1,
        "roughnessFactor" : 0.5
      }
    }
  ],
  "meshes" : [
    {
      "primitives" : [
        {
          "attributes" : {
            "POSITION" : 1,
            "NORMAL" : 2,
            "TANGENT" : 3,
            "TEXCOORD_0" : 4,
            "TEXCOORD_1" : 5
          },
          "indices" : 0,
          "material" : 0
        },
        {
          "attributes" : {
            "POSITION" : 7,
            "NORMAL" : 8,
            "TANGENT" : 9,
            "TEXCOORD_0" : 10,
            "TEXCOORD_1" : 11
          },
          "indices" : 6,
          "material" : 1
        },
        {
          "attributes" : {
            "POSITION" : 13,
            "NORMAL" : 14,
            "TANGENT" : 15,
            "TEXCOORD_0" : 16,
            "TEXCOORD_1" : 17
          },
          "indices" : 12,
          "material" : 2
        }
      ],
      "name" : "SM_doorShop_02"
    }
  ],
  "buffers" : [
    {
      "uri" : "SM_doorShop_02.bin",
      "byteLength" : 24012
    }
  ],
  "bufferViews" : [
    {
      "buffer" : 0,
      "byteOffset" : 0,
      "byteLength" : 192
    },
    {
      "buffer" : 0,
      "byteOffset" : 192,
      "byteLength" : 1152
    },
    {
      "buffer" : 0,
      "byteOffset" : 1344,
      "byteLength" : 1152
    },
    {
      "buffer" : 0,
      "byteOffset" : 2496,
      "byteLength" : 1536
    },
    {
      "buffer" : 0,
      "byteOffset" : 4032,
      "byteLength" : 768
    },
    {
      "buffer" : 0,
      "byteOffset" : 4800,
      "byteLength" : 768
    },
    {
      "buffer" : 0,
      "byteOffset" : 5568,
      "byteLength" : 12
    },
    {
      "buffer" : 0,
      "byteOffset" : 5580,
      "byteLength" : 72
    },
    {
      "buffer" : 0,
      "byteOffset" : 5652,
      "byteLength" : 72
    },
    {
      "buffer" : 0,
      "byteOffset" : 5724,
      "byteLength" : 96
    },
    {
      "buffer" : 0,
      "byteOffset" : 5820,
      "byteLength" : 48
    },
    {
      "buffer" : 0,
      "byteOffset" : 5868,
      "byteLength" : 48
    },
    {
      "buffer" : 0,
      "byteOffset" : 5916,
      "byteLength" : 624
    },
    {
      "buffer" : 0,
      "byteOffset" : 6540,
      "byteLength" : 3744
    },
    {
      "buffer" : 0,
      "byteOffset" : 10284,
      "byteLength" : 3744
    },
    {
      "buffer" : 0,
      "byteOffset" : 14028,
      "byteLength" : 4992
    },
    {
      "buffer" : 0,
      "byteOffset" : 19020,
      "byteLength" : 2496
    },
    {
      "buffer" : 0,
      "byteOffset" : 21516,
      "byteLength" : 2496
    }
  ],
  "accessors" : [
    {
      "bufferView" : 0,
      "componentType" : 5123,
      "count" : 96,
      "type" : "SCALAR"
    },
    {
      "bufferView" : 1,
      "min" : [ -0.0435636, 0.0199996, -1.19859 ],
      "max" : [ 0.0447424, 2.2, 1.36752e-08 ],
      "componentType" : 5126,
      "count" : 96,
      "type" : "VEC3"
    },
    {
      "bufferView" : 2,
      "componentType" : 5126,
      "count" : 96,
      "type" : "VEC3"
    },
    {
      "bufferView" : 3,
      "componentType" : 5126,
      "count" : 96,
      "type" : "VEC4"
    },
    {
      "bufferView" : 4,
      "componentType" : 5126,
      "count" : 96,
      "type" : "VEC2"
    },
    {
      "bufferView" : 5,
      "componentType" : 5126,
      "count" : 96,
      "type" : "VEC2"
    },
    {
      "bufferView" : 6,
      "componentType" : 5123,
      "count" : 6,
      "type" : "SCALAR"
    },
    {
      "bufferView" : 7,
      "min" : [ 0.000588024, 0.22, -1.03859 ],
      "max" : [ 0.000588358, 2.06, -0.160002 ],
      "componentType" : 5126,
      "count" : 6,
      "type" : "VEC3"
    },
    {
      "bufferView" : 8,
      "componentType" : 5126,
      "count" : 6,
      "type" : "VEC3"
    },
    {
      "bufferView" : 9,
      "componentType" : 5126,
      "count" : 6,
      "type" : "VEC4"
    },
    {
      "bufferView" : 10,
      "componentType" : 5126,
      "count" : 6,
      "type" : "VEC2"
    },
    {
      "bufferView" : 11,
      "componentType" : 5126,
      "count" : 6,
      "type" : "VEC2"
    },
    {
      "bufferView" : 12,
      "componentType" : 5123,
      "count" : 312,
      "type" : "SCALAR"
    },
    {
      "bufferView" : 13,
      "min" : [ -0.159276, 0.652576, -1.17696 ],
      "max" : [ 0.159275, 1.33826, -1.06159 ],
      "componentType" : 5126,
      "count" : 312,
      "type" : "VEC3"
    },
    {
      "bufferView" : 14,
      "componentType" : 5126,
      "count" : 312,
      "type" : "VEC3"
    },
    {
      "bufferView" : 15,
      "componentType" : 5126,
      "count" : 312,
      "type" : "VEC4"
    },
    {
      "bufferView" : 16,
      "componentType" : 5126,
      "count" : 312,
      "type" : "VEC2"
    },
    {
      "bufferView" : 17,
      "componentType" : 5126,
      "count" : 312,
      "type" : "VEC2"
    }
  ]
}
