{
  "asset" : {
    "generator" : "UE Viewer (umodel) build 1590",
    "version" : "2.0"
  },
  "scene" : 0,
  "scenes" : [
    {
      "nodes" : [ 0 ]
    }
  ],
  "nodes" : [
    {
      "name" : "SM_depositBoxes",
      "mesh" : 0
    }
  ],
  "materials" : [
    {
      "name" : "dummy_material_0",
      "pbrMetallicRoughness" : {
        "baseColorFactor" : [ 0.3, 0.3, 0.3, 1.0 ],
        "metallicFactor" : 0.1,
        "roughnessFactor" : 0.5
      }
    }
  ],
  "meshes" : [
    {
      "primitives" : [
        {
          "attributes" : {
            "POSITION" : 1,
            "NORMAL" : 2,
            "TANGENT" : 3,
            "TEXCOORD_0" : 4,
            "TEXCOORD_1" : 5
          },
          "indices" : 0,
          "material" : 0
        }
      ],
      "name" : "SM_depositBoxes"
    }
  ],
  "buffers" : [
    {
      "uri" : "SM_depositBoxes.bin",
      "byteLength" : 377928
    }
  ],
  "bufferViews" : [
    {
      "buffer" : 0,
      "byteOffset" : 0,
      "byteLength" : 13032
    },
    {
      "buffer" : 0,
      "byteOffset" : 13032,
      "byteLength" : 78192
    },
    {
      "buffer" : 0,
      "byteOffset" : 91224,
      "byteLength" : 78192
    },
    {
      "buffer" : 0,
      "byteOffset" : 169416,
      "byteLength" : 104256
    },
    {
      "buffer" : 0,
      "byteOffset" : 273672,
      "byteLength" : 52128
    },
    {
      "buffer" : 0,
      "byteOffset" : 325800,
      "byteLength" : 52128
    }
  ],
  "accessors" : [
    {
      "bufferView" : 0,
      "componentType" : 5123,
      "count" : 6516,
      "type" : "SCALAR"
    },
    {
      "bufferView" : 1,
      "min" : [ 0.0275326, 0.0999995, -1.90003 ],
      "max" : [ 0.205082, 2.2, 1.90003 ],
      "componentType" : 5126,
      "count" : 6516,
      "type" : "VEC3"
    },
    {
      "bufferView" : 2,
      "componentType" : 5126,
      "count" : 6516,
      "type" : "VEC3"
    },
    {
      "bufferView" : 3,
      "componentType" : 5126,
      "count" : 6516,
      "type" : "VEC4"
    },
    {
      "bufferView" : 4,
      "componentType" : 5126,
      "count" : 6516,
      "type" : "VEC2"
    },
    {
      "bufferView" : 5,
      "componentType" : 5126,
      "count" : 6516,
      "type" : "VEC2"
    }
  ]
}
