{
  "asset" : {
    "generator" : "UE Viewer (umodel) build 1590",
    "version" : "2.0"
  },
  "scene" : 0,
  "scenes" : [
    {
      "nodes" : [ 0 ]
    }
  ],
  "nodes" : [
    {
      "name" : "SM_doorHouse_02",
      "mesh" : 0
    }
  ],
  "materials" : [
    {
      "name" : "dummy_material_0",
      "pbrMetallicRoughness" : {
        "baseColorFactor" : [ 0.3, 0.3, 0.3, 1.0 ],
        "metallicFactor" : 0.1,
        "roughnessFactor" : 0.5
      }
    },
    {
      "name" : "dummy_material_1",
      "pbrMetallicRoughness" : {
        "baseColorFactor" : [ 0.9, 0.3, 0.3, 1.0 ],
        "metallicFactor" : 0.1,
        "roughnessFactor" : 0.5
      }
    },
    {
      "name" : "dummy_material_2",
      "pbrMetallicRoughness" : {
        "baseColorFactor" : [ 0.3, 0.9, 0.3, 1.0 ],
        "metallicFactor" : 0.1,
        "roughnessFactor" : 0.5
      }
    },
    {
      "name" : "dummy_material_3",
      "pbrMetallicRoughness" : {
        "baseColorFactor" : [ 0.3, 0.3, 0.9, 1.0 ],
        "metallicFactor" : 0.1,
        "roughnessFactor" : 0.5
      }
    },
    {
      "name" : "dummy_material_4",
      "pbrMetallicRoughness" : {
        "baseColorFactor" : [ 0.9, 0.9, 0.9, 1.0 ],
        "metallicFactor" : 0.1,
        "roughnessFactor" : 0.5
      }
    },
    {
      "name" : "dummy_material_5",
      "pbrMetallicRoughness" : {
        "baseColorFactor" : [ 0.9, 0.9, 0.3, 1.0 ],
        "metallicFactor" : 0.1,
        "roughnessFactor" : 0.5
      }
    },
    {
      "name" : "dummy_material_6",
      "pbrMetallicRoughness" : {
        "baseColorFactor" : [ 0.9, 0.3, 0.9, 1.0 ],
        "metallicFactor" : 0.1,
        "roughnessFactor" : 0.5
      }
    },
    {
      "name" : "dummy_material_7",
      "pbrMetallicRoughness" : {
        "baseColorFactor" : [ 0.3, 0.9, 0.9, 1.0 ],
        "metallicFactor" : 0.1,
        "roughnessFactor" : 0.5
      }
    }
  ],
  "meshes" : [
    {
      "primitives" : [
        {
          "attributes" : {
            "POSITION" : 1,
            "NORMAL" : 2,
            "TANGENT" : 3,
            "TEXCOORD_0" : 4,
            "TEXCOORD_1" : 5
          },
          "indices" : 0,
          "material" : 0
        },
        {
          "attributes" : {
            "POSITION" : 7,
            "NORMAL" : 8,
            "TANGENT" : 9,
            "TEXCOORD_0" : 10,
            "TEXCOORD_1" : 11
          },
          "indices" : 6,
          "material" : 1
        },
        {
          "attributes" : {
            "POSITION" : 13,
            "NORMAL" : 14,
            "TANGENT" : 15,
            "TEXCOORD_0" : 16,
            "TEXCOORD_1" : 17
          },
          "indices" : 12,
          "material" : 2
        },
        {
          "attributes" : {
            "POSITION" : 19,
            "NORMAL" : 20,
            "TANGENT" : 21,
            "TEXCOORD_0" : 22,
            "TEXCOORD_1" : 23
          },
          "indices" : 18,
          "material" : 3
        },
        {
          "attributes" : {
            "POSITION" : 25,
            "NORMAL" : 26,
            "TANGENT" : 27,
            "TEXCOORD_0" : 28,
            "TEXCOORD_1" : 29
          },
          "indices" : 24,
          "material" : 4
        },
        {
          "attributes" : {
            "POSITION" : 31,
            "NORMAL" : 32,
            "TANGENT" : 33,
            "TEXCOORD_0" : 34,
            "TEXCOORD_1" : 35
          },
          "indices" : 30,
          "material" : 5
        },
        {
          "attributes" : {
            "POSITION" : 37,
            "NORMAL" : 38,
            "TANGENT" : 39,
            "TEXCOORD_0" : 40,
            "TEXCOORD_1" : 41
          },
          "indices" : 36,
          "material" : 6
        },
        {
          "attributes" : {
            "POSITION" : 43,
            "NORMAL" : 44,
            "TANGENT" : 45,
            "TEXCOORD_0" : 46,
            "TEXCOORD_1" : 47
          },
          "indices" : 42,
          "material" : 7
        }
      ],
      "name" : "SM_doorHouse_02"
    }
  ],
  "buffers" : [
    {
      "uri" : "SM_doorHouse_02.bin",
      "byteLength" : 57420
    }
  ],
  "bufferViews" : [
    {
      "buffer" : 0,
      "byteOffset" : 0,
      "byteLength" : 48
    },
    {
      "buffer" : 0,
      "byteOffset" : 48,
      "byteLength" : 288
    },
    {
      "buffer" : 0,
      "byteOffset" : 336,
      "byteLength" : 288
    },
    {
      "buffer" : 0,
      "byteOffset" : 624,
      "byteLength" : 384
    },
    {
      "buffer" : 0,
      "byteOffset" : 1008,
      "byteLength" : 192
    },
    {
      "buffer" : 0,
      "byteOffset" : 1200,
      "byteLength" : 192
    },
    {
      "buffer" : 0,
      "byteOffset" : 1392,
      "byteLength" : 504
    },
    {
      "buffer" : 0,
      "byteOffset" : 1896,
      "byteLength" : 3024
    },
    {
      "buffer" : 0,
      "byteOffset" : 4920,
      "byteLength" : 3024
    },
    {
      "buffer" : 0,
      "byteOffset" : 7944,
      "byteLength" : 4032
    },
    {
      "buffer" : 0,
      "byteOffset" : 11976,
      "byteLength" : 2016
    },
    {
      "buffer" : 0,
      "byteOffset" : 13992,
      "byteLength" : 2016
    },
    {
      "buffer" : 0,
      "byteOffset" : 16008,
      "byteLength" : 192
    },
    {
      "buffer" : 0,
      "byteOffset" : 16200,
      "byteLength" : 1152
    },
    {
      "buffer" : 0,
      "byteOffset" : 17352,
      "byteLength" : 1152
    },
    {
      "buffer" : 0,
      "byteOffset" : 18504,
      "byteLength" : 1536
    },
    {
      "buffer" : 0,
      "byteOffset" : 20040,
      "byteLength" : 768
    },
    {
      "buffer" : 0,
      "byteOffset" : 20808,
      "byteLength" : 768
    },
    {
      "buffer" : 0,
      "byteOffset" : 21576,
      "byteLength" : 60
    },
    {
      "buffer" : 0,
      "byteOffset" : 21636,
      "byteLength" : 360
    },
    {
      "buffer" : 0,
      "byteOffset" : 21996,
      "byteLength" : 360
    },
    {
      "buffer" : 0,
      "byteOffset" : 22356,
      "byteLength" : 480
    },
    {
      "buffer" : 0,
      "byteOffset" : 22836,
      "byteLength" : 240
    },
    {
      "buffer" : 0,
      "byteOffset" : 23076,
      "byteLength" : 240
    },
    {
      "buffer" : 0,
      "byteOffset" : 23316,
      "byteLength" : 96
    },
    {
      "buffer" : 0,
      "byteOffset" : 23412,
      "byteLength" : 576
    },
    {
      "buffer" : 0,
      "byteOffset" : 23988,
      "byteLength" : 576
    },
    {
      "buffer" : 0,
      "byteOffset" : 24564,
      "byteLength" : 768
    },
    {
      "buffer" : 0,
      "byteOffset" : 25332,
      "byteLength" : 384
    },
    {
      "buffer" : 0,
      "byteOffset" : 25716,
      "byteLength" : 384
    },
    {
      "buffer" : 0,
      "byteOffset" : 26100,
      "byteLength" : 492
    },
    {
      "buffer" : 0,
      "byteOffset" : 26592,
      "byteLength" : 2952
    },
    {
      "buffer" : 0,
      "byteOffset" : 29544,
      "byteLength" : 2952
    },
    {
      "buffer" : 0,
      "byteOffset" : 32496,
      "byteLength" : 3936
    },
    {
      "buffer" : 0,
      "byteOffset" : 36432,
      "byteLength" : 1968
    },
    {
      "buffer" : 0,
      "byteOffset" : 38400,
      "byteLength" : 1968
    },
    {
      "buffer" : 0,
      "byteOffset" : 40368,
      "byteLength" : 96
    },
    {
      "buffer" : 0,
      "byteOffset" : 40464,
      "byteLength" : 576
    },
    {
      "buffer" : 0,
      "byteOffset" : 41040,
      "byteLength" : 576
    },
    {
      "buffer" : 0,
      "byteOffset" : 41616,
      "byteLength" : 768
    },
    {
      "buffer" : 0,
      "byteOffset" : 42384,
      "byteLength" : 384
    },
    {
      "buffer" : 0,
      "byteOffset" : 42768,
      "byteLength" : 384
    },
    {
      "buffer" : 0,
      "byteOffset" : 43152,
      "byteLength" : 492
    },
    {
      "buffer" : 0,
      "byteOffset" : 43644,
      "byteLength" : 2952
    },
    {
      "buffer" : 0,
      "byteOffset" : 46596,
      "byteLength" : 2952
    },
    {
      "buffer" : 0,
      "byteOffset" : 49548,
      "byteLength" : 3936
    },
    {
      "buffer" : 0,
      "byteOffset" : 53484,
      "byteLength" : 1968
    },
    {
      "buffer" : 0,
      "byteOffset" : 55452,
      "byteLength" : 1968
    }
  ],
  "accessors" : [
    {
      "bufferView" : 0,
      "componentType" : 5123,
      "count" : 24,
      "type" : "SCALAR"
    },
    {
      "bufferView" : 1,
      "min" : [ -0.025, 0.019998, -1.19929 ],
      "max" : [ 0.025, 2.2, 0.000708008 ],
      "componentType" : 5126,
      "count" : 24,
      "type" : "VEC3"
    },
    {
      "bufferView" : 2,
      "componentType" : 5126,
      "count" : 24,
      "type" : "VEC3"
    },
    {
      "bufferView" : 3,
      "componentType" : 5126,
      "count" : 24,
      "type" : "VEC4"
    },
    {
      "bufferView" : 4,
      "componentType" : 5126,
      "count" : 24,
      "type" : "VEC2"
    },
    {
      "bufferView" : 5,
      "componentType" : 5126,
      "count" : 24,
      "type" : "VEC2"
    },
    {
      "bufferView" : 6,
      "componentType" : 5123,
      "count" : 252,
      "type" : "SCALAR"
    },
    {
      "bufferView" : 7,
      "min" : [ -0.129698, 0.92461, -1.21074 ],
      "max" : [ 0.129808, 1.2125, -1.02926 ],
      "componentType" : 5126,
      "count" : 252,
      "type" : "VEC3"
    },
    {
      "bufferView" : 8,
      "componentType" : 5126,
      "count" : 252,
      "type" : "VEC3"
    },
    {
      "bufferView" : 9,
      "componentType" : 5126,
      "count" : 252,
      "type" : "VEC4"
    },
    {
      "bufferView" : 10,
      "componentType" : 5126,
      "count" : 252,
      "type" : "VEC2"
    },
    {
      "bufferView" : 11,
      "componentType" : 5126,
      "count" : 252,
      "type" : "VEC2"
    },
    {
      "bufferView" : 12,
      "componentType" : 5123,
      "count" : 96,
      "type" : "SCALAR"
    },
    {
      "bufferView" : 13,
      "min" : [ -0.025, 0.019998, -1.19929 ],
      "max" : [ 0.025, 2.2, 0.000708008 ],
      "componentType" : 5126,
      "count" : 96,
      "type" : "VEC3"
    },
    {
      "bufferView" : 14,
      "componentType" : 5126,
      "count" : 96,
      "type" : "VEC3"
    },
    {
      "bufferView" : 15,
      "componentType" : 5126,
      "count" : 96,
      "type" : "VEC4"
    },
    {
      "bufferView" : 16,
      "componentType" : 5126,
      "count" : 96,
      "type" : "VEC2"
    },
    {
      "bufferView" : 17,
      "componentType" : 5126,
      "count" : 96,
      "type" : "VEC2"
    },
    {
      "bufferView" : 18,
      "componentType" : 5123,
      "count" : 30,
      "type" : "SCALAR"
    },
    {
      "bufferView" : 19,
      "min" : [ -0.00986206, 0.975021, -1.21074 ],
      "max" : [ 0.00986084, 1.14889, -1.20636 ],
      "componentType" : 5126,
      "count" : 30,
      "type" : "VEC3"
    },
    {
      "bufferView" : 20,
      "componentType" : 5126,
      "count" : 30,
      "type" : "VEC3"
    },
    {
      "bufferView" : 21,
      "componentType" : 5126,
      "count" : 30,
      "type" : "VEC4"
    },
    {
      "bufferView" : 22,
      "componentType" : 5126,
      "count" : 30,
      "type" : "VEC2"
    },
    {
      "bufferView" : 23,
      "componentType" : 5126,
      "count" : 30,
      "type" : "VEC2"
    },
    {
      "bufferView" : 24,
      "componentType" : 5123,
      "count" : 48,
      "type" : "SCALAR"
    },
    {
      "bufferView" : 25,
      "min" : [ -0.00500006, 0.219998, -0.999292 ],
      "max" : [ -0.00499994, 2, -0.199292 ],
      "componentType" : 5126,
      "count" : 48,
      "type" : "VEC3"
    },
    {
      "bufferView" : 26,
      "componentType" : 5126,
      "count" : 48,
      "type" : "VEC3"
    },
    {
      "bufferView" : 27,
      "componentType" : 5126,
      "count" : 48,
      "type" : "VEC4"
    },
    {
      "bufferView" : 28,
      "componentType" : 5126,
      "count" : 48,
      "type" : "VEC2"
    },
    {
      "bufferView" : 29,
      "componentType" : 5126,
      "count" : 48,
      "type" : "VEC2"
    },
    {
      "bufferView" : 30,
      "componentType" : 5123,
      "count" : 246,
      "type" : "SCALAR"
    },
    {
      "bufferView" : 31,
      "min" : [ -0.0150001, 0.219998, -0.999292 ],
      "max" : [ -0.00499994, 2, -0.199292 ],
      "componentType" : 5126,
      "count" : 246,
      "type" : "VEC3"
    },
    {
      "bufferView" : 32,
      "componentType" : 5126,
      "count" : 246,
      "type" : "VEC3"
    },
    {
      "bufferView" : 33,
      "componentType" : 5126,
      "count" : 246,
      "type" : "VEC4"
    },
    {
      "bufferView" : 34,
      "componentType" : 5126,
      "count" : 246,
      "type" : "VEC2"
    },
    {
      "bufferView" : 35,
      "componentType" : 5126,
      "count" : 246,
      "type" : "VEC2"
    },
    {
      "bufferView" : 36,
      "componentType" : 5123,
      "count" : 48,
      "type" : "SCALAR"
    },
    {
      "bufferView" : 37,
      "min" : [ 0.005, 0.219998, -0.999292 ],
      "max" : [ 0.005, 2, -0.199292 ],
      "componentType" : 5126,
      "count" : 48,
      "type" : "VEC3"
    },
    {
      "bufferView" : 38,
      "componentType" : 5126,
      "count" : 48,
      "type" : "VEC3"
    },
    {
      "bufferView" : 39,
      "componentType" : 5126,
      "count" : 48,
      "type" : "VEC4"
    },
    {
      "bufferView" : 40,
      "componentType" : 5126,
      "count" : 48,
      "type" : "VEC2"
    },
    {
      "bufferView" : 41,
      "componentType" : 5126,
      "count" : 48,
      "type" : "VEC2"
    },
    {
      "bufferView" : 42,
      "componentType" : 5123,
      "count" : 246,
      "type" : "SCALAR"
    },
    {
      "bufferView" : 43,
      "min" : [ 0.005, 0.219998, -0.999292 ],
      "max" : [ 0.015, 2, -0.199292 ],
      "componentType" : 5126,
      "count" : 246,
      "type" : "VEC3"
    },
    {
      "bufferView" : 44,
      "componentType" : 5126,
      "count" : 246,
      "type" : "VEC3"
    },
    {
      "bufferView" : 45,
      "componentType" : 5126,
      "count" : 246,
      "type" : "VEC4"
    },
    {
      "bufferView" : 46,
      "componentType" : 5126,
      "count" : 246,
      "type" : "VEC2"
    },
    {
      "bufferView" : 47,
      "componentType" : 5126,
      "count" : 246,
      "type" : "VEC2"
    }
  ]
}
