{
  "asset" : {
    "generator" : "UE Viewer (umodel) build 1590",
    "version" : "2.0"
  },
  "scene" : 0,
  "scenes" : [
    {
      "nodes" : [ 0 ]
    }
  ],
  "nodes" : [
    {
      "name" : "SM_doorBankSafe_01",
      "mesh" : 0
    }
  ],
  "materials" : [
    {
      "name" : "dummy_material_0",
      "pbrMetallicRoughness" : {
        "baseColorFactor" : [ 0.3, 0.3, 0.3, 1.0 ],
        "metallicFactor" : 0.1,
        "roughnessFactor" : 0.5
      }
    }
  ],
  "meshes" : [
    {
      "primitives" : [
        {
          "attributes" : {
            "POSITION" : 1,
            "NORMAL" : 2,
            "TANGENT" : 3,
            "TEXCOORD_0" : 4,
            "TEXCOORD_1" : 5
          },
          "indices" : 0,
          "material" : 0
        }
      ],
      "name" : "SM_doorBankSafe_01"
    }
  ],
  "buffers" : [
    {
      "uri" : "SM_doorBankSafe_01.bin",
      "byteLength" : 155208
    }
  ],
  "bufferViews" : [
    {
      "buffer" : 0,
      "byteOffset" : 0,
      "byteLength" : 5352
    },
    {
      "buffer" : 0,
      "byteOffset" : 5352,
      "byteLength" : 32112
    },
    {
      "buffer" : 0,
      "byteOffset" : 37464,
      "byteLength" : 32112
    },
    {
      "buffer" : 0,
      "byteOffset" : 69576,
      "byteLength" : 42816
    },
    {
      "buffer" : 0,
      "byteOffset" : 112392,
      "byteLength" : 21408
    },
    {
      "buffer" : 0,
      "byteOffset" : 133800,
      "byteLength" : 21408
    }
  ],
  "accessors" : [
    {
      "bufferView" : 0,
      "componentType" : 5123,
      "count" : 2676,
      "type" : "SCALAR"
    },
    {
      "bufferView" : 1,
      "min" : [ -0.193257, 0.0171729, -2.199 ],
      "max" : [ 0.287114, 2.28324, 0.196238 ],
      "componentType" : 5126,
      "count" : 2676,
      "type" : "VEC3"
    },
    {
      "bufferView" : 2,
      "componentType" : 5126,
      "count" : 2676,
      "type" : "VEC3"
    },
    {
      "bufferView" : 3,
      "componentType" : 5126,
      "count" : 2676,
      "type" : "VEC4"
    },
    {
      "bufferView" : 4,
      "componentType" : 5126,
      "count" : 2676,
      "type" : "VEC2"
    },
    {
      "bufferView" : 5,
      "componentType" : 5126,
      "count" : 2676,
      "type" : "VEC2"
    }
  ]
}
