{
  "asset" : {
    "generator" : "UE Viewer (umodel) build 1590",
    "version" : "2.0"
  },
  "scene" : 0,
  "scenes" : [
    {
      "nodes" : [ 0 ]
    }
  ],
  "nodes" : [
    {
      "name" : "SM_floor_01_quarter",
      "mesh" : 0
    }
  ],
  "materials" : [
    {
      "name" : "dummy_material_0",
      "pbrMetallicRoughness" : {
        "baseColorFactor" : [ 0.3, 0.3, 0.3, 1.0 ],
        "metallicFactor" : 0.1,
        "roughnessFactor" : 0.5
      }
    },
    {
      "name" : "dummy_material_1",
      "pbrMetallicRoughness" : {
        "baseColorFactor" : [ 0.9, 0.3, 0.3, 1.0 ],
        "metallicFactor" : 0.1,
        "roughnessFactor" : 0.5
      }
    },
    {
      "name" : "dummy_material_2",
      "pbrMetallicRoughness" : {
        "baseColorFactor" : [ 0.3, 0.9, 0.3, 1.0 ],
        "metallicFactor" : 0.1,
        "roughnessFactor" : 0.5
      }
    },
    {
      "name" : "dummy_material_3",
      "pbrMetallicRoughness" : {
        "baseColorFactor" : [ 0.3, 0.3, 0.9, 1.0 ],
        "metallicFactor" : 0.1,
        "roughnessFactor" : 0.5
      }
    },
    {
      "name" : "dummy_material_4",
      "pbrMetallicRoughness" : {
        "baseColorFactor" : [ 0.9, 0.9, 0.9, 1.0 ],
        "metallicFactor" : 0.1,
        "roughnessFactor" : 0.5
      }
    },
    {
      "name" : "dummy_material_5",
      "pbrMetallicRoughness" : {
        "baseColorFactor" : [ 0.9, 0.9, 0.3, 1.0 ],
        "metallicFactor" : 0.1,
        "roughnessFactor" : 0.5
      }
    },
    {
      "name" : "dummy_material_6",
      "pbrMetallicRoughness" : {
        "baseColorFactor" : [ 0.9, 0.3, 0.9, 1.0 ],
        "metallicFactor" : 0.1,
        "roughnessFactor" : 0.5
      }
    },
    {
      "name" : "dummy_material_7",
      "pbrMetallicRoughness" : {
        "baseColorFactor" : [ 0.3, 0.9, 0.9, 1.0 ],
        "metallicFactor" : 0.1,
        "roughnessFactor" : 0.5
      }
    },
    {
      "name" : "dummy_material_8",
      "pbrMetallicRoughness" : {
        "baseColorFactor" : [ 1, 0.3, 0.3, 1.0 ],
        "metallicFactor" : 0.1,
        "roughnessFactor" : 0.5
      }
    },
    {
      "name" : "dummy_material_9",
      "pbrMetallicRoughness" : {
        "baseColorFactor" : [ 0.6, 0.3, 0.3, 1.0 ],
        "metallicFactor" : 0.1,
        "roughnessFactor" : 0.5
      }
    }
  ],
  "meshes" : [
    {
      "primitives" : [
        {
          "attributes" : {
            "POSITION" : 1,
            "NORMAL" : 2,
            "TANGENT" : 3,
            "TEXCOORD_0" : 4,
            "TEXCOORD_1" : 5
          },
          "indices" : 0,
          "material" : 0
        },
        {
          "attributes" : {
            "POSITION" : 7,
            "NORMAL" : 8,
            "TANGENT" : 9,
            "TEXCOORD_0" : 10,
            "TEXCOORD_1" : 11
          },
          "indices" : 6,
          "material" : 1
        },
        {
          "attributes" : {
            "POSITION" : 13,
            "NORMAL" : 14,
            "TANGENT" : 15,
            "TEXCOORD_0" : 16,
            "TEXCOORD_1" : 17
          },
          "indices" : 12,
          "material" : 2
        },
        {
          "attributes" : {
            "POSITION" : 19,
            "NORMAL" : 20,
            "TANGENT" : 21,
            "TEXCOORD_0" : 22,
            "TEXCOORD_1" : 23
          },
          "indices" : 18,
          "material" : 3
        },
        {
          "attributes" : {
            "POSITION" : 25,
            "NORMAL" : 26,
            "TANGENT" : 27,
            "TEXCOORD_0" : 28,
            "TEXCOORD_1" : 29
          },
          "indices" : 24,
          "material" : 4
        },
        {
          "attributes" : {
            "POSITION" : 31,
            "NORMAL" : 32,
            "TANGENT" : 33,
            "TEXCOORD_0" : 34,
            "TEXCOORD_1" : 35
          },
          "indices" : 30,
          "material" : 5
        },
        {
          "attributes" : {
            "POSITION" : 37,
            "NORMAL" : 38,
            "TANGENT" : 39,
            "TEXCOORD_0" : 40,
            "TEXCOORD_1" : 41
          },
          "indices" : 36,
          "material" : 6
        },
        {
          "attributes" : {
            "POSITION" : 43,
            "NORMAL" : 44,
            "TANGENT" : 45,
            "TEXCOORD_0" : 46,
            "TEXCOORD_1" : 47
          },
          "indices" : 42,
          "material" : 7
        },
        {
          "attributes" : {
            "POSITION" : 49,
            "NORMAL" : 50,
            "TANGENT" : 51,
            "TEXCOORD_0" : 52,
            "TEXCOORD_1" : 53
          },
          "indices" : 48,
          "material" : 8
        },
        {
          "attributes" : {
            "POSITION" : 55,
            "NORMAL" : 56,
            "TANGENT" : 57,
            "TEXCOORD_0" : 58,
            "TEXCOORD_1" : 59
          },
          "indices" : 54,
          "material" : 9
        }
      ],
      "name" : "SM_floor_01_quarter"
    }
  ],
  "buffers" : [
    {
      "uri" : "SM_floor_01_quarter.bin",
      "byteLength" : 3480
    }
  ],
  "bufferViews" : [
    {
      "buffer" : 0,
      "byteOffset" : 0,
      "byteLength" : 12
    },
    {
      "buffer" : 0,
      "byteOffset" : 12,
      "byteLength" : 72
    },
    {
      "buffer" : 0,
      "byteOffset" : 84,
      "byteLength" : 72
    },
    {
      "buffer" : 0,
      "byteOffset" : 156,
      "byteLength" : 96
    },
    {
      "buffer" : 0,
      "byteOffset" : 252,
      "byteLength" : 48
    },
    {
      "buffer" : 0,
      "byteOffset" : 300,
      "byteLength" : 48
    },
    {
      "buffer" : 0,
      "byteOffset" : 348,
      "byteLength" : 12
    },
    {
      "buffer" : 0,
      "byteOffset" : 360,
      "byteLength" : 72
    },
    {
      "buffer" : 0,
      "byteOffset" : 432,
      "byteLength" : 72
    },
    {
      "buffer" : 0,
      "byteOffset" : 504,
      "byteLength" : 96
    },
    {
      "buffer" : 0,
      "byteOffset" : 600,
      "byteLength" : 48
    },
    {
      "buffer" : 0,
      "byteOffset" : 648,
      "byteLength" : 48
    },
    {
      "buffer" : 0,
      "byteOffset" : 696,
      "byteLength" : 12
    },
    {
      "buffer" : 0,
      "byteOffset" : 708,
      "byteLength" : 72
    },
    {
      "buffer" : 0,
      "byteOffset" : 780,
      "byteLength" : 72
    },
    {
      "buffer" : 0,
      "byteOffset" : 852,
      "byteLength" : 96
    },
    {
      "buffer" : 0,
      "byteOffset" : 948,
      "byteLength" : 48
    },
    {
      "buffer" : 0,
      "byteOffset" : 996,
      "byteLength" : 48
    },
    {
      "buffer" : 0,
      "byteOffset" : 1044,
      "byteLength" : 12
    },
    {
      "buffer" : 0,
      "byteOffset" : 1056,
      "byteLength" : 72
    },
    {
      "buffer" : 0,
      "byteOffset" : 1128,
      "byteLength" : 72
    },
    {
      "buffer" : 0,
      "byteOffset" : 1200,
      "byteLength" : 96
    },
    {
      "buffer" : 0,
      "byteOffset" : 1296,
      "byteLength" : 48
    },
    {
      "buffer" : 0,
      "byteOffset" : 1344,
      "byteLength" : 48
    },
    {
      "buffer" : 0,
      "byteOffset" : 1392,
      "byteLength" : 12
    },
    {
      "buffer" : 0,
      "byteOffset" : 1404,
      "byteLength" : 72
    },
    {
      "buffer" : 0,
      "byteOffset" : 1476,
      "byteLength" : 72
    },
    {
      "buffer" : 0,
      "byteOffset" : 1548,
      "byteLength" : 96
    },
    {
      "buffer" : 0,
      "byteOffset" : 1644,
      "byteLength" : 48
    },
    {
      "buffer" : 0,
      "byteOffset" : 1692,
      "byteLength" : 48
    },
    {
      "buffer" : 0,
      "byteOffset" : 1740,
      "byteLength" : 12
    },
    {
      "buffer" : 0,
      "byteOffset" : 1752,
      "byteLength" : 72
    },
    {
      "buffer" : 0,
      "byteOffset" : 1824,
      "byteLength" : 72
    },
    {
      "buffer" : 0,
      "byteOffset" : 1896,
      "byteLength" : 96
    },
    {
      "buffer" : 0,
      "byteOffset" : 1992,
      "byteLength" : 48
    },
    {
      "buffer" : 0,
      "byteOffset" : 2040,
      "byteLength" : 48
    },
    {
      "buffer" : 0,
      "byteOffset" : 2088,
      "byteLength" : 12
    },
    {
      "buffer" : 0,
      "byteOffset" : 2100,
      "byteLength" : 72
    },
    {
      "buffer" : 0,
      "byteOffset" : 2172,
      "byteLength" : 72
    },
    {
      "buffer" : 0,
      "byteOffset" : 2244,
      "byteLength" : 96
    },
    {
      "buffer" : 0,
      "byteOffset" : 2340,
      "byteLength" : 48
    },
    {
      "buffer" : 0,
      "byteOffset" : 2388,
      "byteLength" : 48
    },
    {
      "buffer" : 0,
      "byteOffset" : 2436,
      "byteLength" : 12
    },
    {
      "buffer" : 0,
      "byteOffset" : 2448,
      "byteLength" : 72
    },
    {
      "buffer" : 0,
      "byteOffset" : 2520,
      "byteLength" : 72
    },
    {
      "buffer" : 0,
      "byteOffset" : 2592,
      "byteLength" : 96
    },
    {
      "buffer" : 0,
      "byteOffset" : 2688,
      "byteLength" : 48
    },
    {
      "buffer" : 0,
      "byteOffset" : 2736,
      "byteLength" : 48
    },
    {
      "buffer" : 0,
      "byteOffset" : 2784,
      "byteLength" : 12
    },
    {
      "buffer" : 0,
      "byteOffset" : 2796,
      "byteLength" : 72
    },
    {
      "buffer" : 0,
      "byteOffset" : 2868,
      "byteLength" : 72
    },
    {
      "buffer" : 0,
      "byteOffset" : 2940,
      "byteLength" : 96
    },
    {
      "buffer" : 0,
      "byteOffset" : 3036,
      "byteLength" : 48
    },
    {
      "buffer" : 0,
      "byteOffset" : 3084,
      "byteLength" : 48
    },
    {
      "buffer" : 0,
      "byteOffset" : 3132,
      "byteLength" : 12
    },
    {
      "buffer" : 0,
      "byteOffset" : 3144,
      "byteLength" : 72
    },
    {
      "buffer" : 0,
      "byteOffset" : 3216,
      "byteLength" : 72
    },
    {
      "buffer" : 0,
      "byteOffset" : 3288,
      "byteLength" : 96
    },
    {
      "buffer" : 0,
      "byteOffset" : 3384,
      "byteLength" : 48
    },
    {
      "buffer" : 0,
      "byteOffset" : 3432,
      "byteLength" : 48
    }
  ],
  "accessors" : [
    {
      "bufferView" : 0,
      "componentType" : 5123,
      "count" : 6,
      "type" : "SCALAR"
    },
    {
      "bufferView" : 1,
      "min" : [ -0.999999, -6.12324e-17, -1 ],
      "max" : [ 1, 6.12323e-17, 1 ],
      "componentType" : 5126,
      "count" : 6,
      "type" : "VEC3"
    },
    {
      "bufferView" : 2,
      "componentType" : 5126,
      "count" : 6,
      "type" : "VEC3"
    },
    {
      "bufferView" : 3,
      "componentType" : 5126,
      "count" : 6,
      "type" : "VEC4"
    },
    {
      "bufferView" : 4,
      "componentType" : 5126,
      "count" : 6,
      "type" : "VEC2"
    },
    {
      "bufferView" : 5,
      "componentType" : 5126,
      "count" : 6,
      "type" : "VEC2"
    },
    {
      "bufferView" : 6,
      "componentType" : 5123,
      "count" : 6,
      "type" : "SCALAR"
    },
    {
      "bufferView" : 7,
      "min" : [ -0.999999, -0.25, -1 ],
      "max" : [ 1, -0.25, 1 ],
      "componentType" : 5126,
      "count" : 6,
      "type" : "VEC3"
    },
    {
      "bufferView" : 8,
      "componentType" : 5126,
      "count" : 6,
      "type" : "VEC3"
    },
    {
      "bufferView" : 9,
      "componentType" : 5126,
      "count" : 6,
      "type" : "VEC4"
    },
    {
      "bufferView" : 10,
      "componentType" : 5126,
      "count" : 6,
      "type" : "VEC2"
    },
    {
      "bufferView" : 11,
      "componentType" : 5126,
      "count" : 6,
      "type" : "VEC2"
    },
    {
      "bufferView" : 12,
      "componentType" : 5123,
      "count" : 6,
      "type" : "SCALAR"
    },
    {
      "bufferView" : 13,
      "min" : [ -0.999999, -0.0500003, 1 ],
      "max" : [ 1, -6.12324e-17, 1 ],
      "componentType" : 5126,
      "count" : 6,
      "type" : "VEC3"
    },
    {
      "bufferView" : 14,
      "componentType" : 5126,
      "count" : 6,
      "type" : "VEC3"
    },
    {
      "bufferView" : 15,
      "componentType" : 5126,
      "count" : 6,
      "type" : "VEC4"
    },
    {
      "bufferView" : 16,
      "componentType" : 5126,
      "count" : 6,
      "type" : "VEC2"
    },
    {
      "bufferView" : 17,
      "componentType" : 5126,
      "count" : 6,
      "type" : "VEC2"
    },
    {
      "bufferView" : 18,
      "componentType" : 5123,
      "count" : 6,
      "type" : "SCALAR"
    },
    {
      "bufferView" : 19,
      "min" : [ -0.999999, -0.25, 1 ],
      "max" : [ 1, -0.0500003, 1 ],
      "componentType" : 5126,
      "count" : 6,
      "type" : "VEC3"
    },
    {
      "bufferView" : 20,
      "componentType" : 5126,
      "count" : 6,
      "type" : "VEC3"
    },
    {
      "bufferView" : 21,
      "componentType" : 5126,
      "count" : 6,
      "type" : "VEC4"
    },
    {
      "bufferView" : 22,
      "componentType" : 5126,
      "count" : 6,
      "type" : "VEC2"
    },
    {
      "bufferView" : 23,
      "componentType" : 5126,
      "count" : 6,
      "type" : "VEC2"
    },
    {
      "bufferView" : 24,
      "componentType" : 5123,
      "count" : 6,
      "type" : "SCALAR"
    },
    {
      "bufferView" : 25,
      "min" : [ -0.999999, -0.0500003, -1 ],
      "max" : [ -0.999999, 6.12323e-17, 1 ],
      "componentType" : 5126,
      "count" : 6,
      "type" : "VEC3"
    },
    {
      "bufferView" : 26,
      "componentType" : 5126,
      "count" : 6,
      "type" : "VEC3"
    },
    {
      "bufferView" : 27,
      "componentType" : 5126,
      "count" : 6,
      "type" : "VEC4"
    },
    {
      "bufferView" : 28,
      "componentType" : 5126,
      "count" : 6,
      "type" : "VEC2"
    },
    {
      "bufferView" : 29,
      "componentType" : 5126,
      "count" : 6,
      "type" : "VEC2"
    },
    {
      "bufferView" : 30,
      "componentType" : 5123,
      "count" : 6,
      "type" : "SCALAR"
    },
    {
      "bufferView" : 31,
      "min" : [ -0.999999, -0.25, -1 ],
      "max" : [ -0.999999, -0.0500003, 1 ],
      "componentType" : 5126,
      "count" : 6,
      "type" : "VEC3"
    },
    {
      "bufferView" : 32,
      "componentType" : 5126,
      "count" : 6,
      "type" : "VEC3"
    },
    {
      "bufferView" : 33,
      "componentType" : 5126,
      "count" : 6,
      "type" : "VEC4"
    },
    {
      "bufferView" : 34,
      "componentType" : 5126,
      "count" : 6,
      "type" : "VEC2"
    },
    {
      "bufferView" : 35,
      "componentType" : 5126,
      "count" : 6,
      "type" : "VEC2"
    },
    {
      "bufferView" : 36,
      "componentType" : 5123,
      "count" : 6,
      "type" : "SCALAR"
    },
    {
      "bufferView" : 37,
      "min" : [ -0.999999, -0.0500003, -1 ],
      "max" : [ 1, 6.12323e-17, -1 ],
      "componentType" : 5126,
      "count" : 6,
      "type" : "VEC3"
    },
    {
      "bufferView" : 38,
      "componentType" : 5126,
      "count" : 6,
      "type" : "VEC3"
    },
    {
      "bufferView" : 39,
      "componentType" : 5126,
      "count" : 6,
      "type" : "VEC4"
    },
    {
      "bufferView" : 40,
      "componentType" : 5126,
      "count" : 6,
      "type" : "VEC2"
    },
    {
      "bufferView" : 41,
      "componentType" : 5126,
      "count" : 6,
      "type" : "VEC2"
    },
    {
      "bufferView" : 42,
      "componentType" : 5123,
      "count" : 6,
      "type" : "SCALAR"
    },
    {
      "bufferView" : 43,
      "min" : [ -0.999999, -0.25, -1 ],
      "max" : [ 1, -0.0500003, -1 ],
      "componentType" : 5126,
      "count" : 6,
      "type" : "VEC3"
    },
    {
      "bufferView" : 44,
      "componentType" : 5126,
      "count" : 6,
      "type" : "VEC3"
    },
    {
      "bufferView" : 45,
      "componentType" : 5126,
      "count" : 6,
      "type" : "VEC4"
    },
    {
      "bufferView" : 46,
      "componentType" : 5126,
      "count" : 6,
      "type" : "VEC2"
    },
    {
      "bufferView" : 47,
      "componentType" : 5126,
      "count" : 6,
      "type" : "VEC2"
    },
    {
      "bufferView" : 48,
      "componentType" : 5123,
      "count" : 6,
      "type" : "SCALAR"
    },
    {
      "bufferView" : 49,
      "min" : [ 1, -0.0500003, -1 ],
      "max" : [ 1, 6.12323e-17, 1 ],
      "componentType" : 5126,
      "count" : 6,
      "type" : "VEC3"
    },
    {
      "bufferView" : 50,
      "componentType" : 5126,
      "count" : 6,
      "type" : "VEC3"
    },
    {
      "bufferView" : 51,
      "componentType" : 5126,
      "count" : 6,
      "type" : "VEC4"
    },
    {
      "bufferView" : 52,
      "componentType" : 5126,
      "count" : 6,
      "type" : "VEC2"
    },
    {
      "bufferView" : 53,
      "componentType" : 5126,
      "count" : 6,
      "type" : "VEC2"
    },
    {
      "bufferView" : 54,
      "componentType" : 5123,
      "count" : 6,
      "type" : "SCALAR"
    },
    {
      "bufferView" : 55,
      "min" : [ 1, -0.25, -1 ],
      "max" : [ 1, -0.0500003, 1 ],
      "componentType" : 5126,
      "count" : 6,
      "type" : "VEC3"
    },
    {
      "bufferView" : 56,
      "componentType" : 5126,
      "count" : 6,
      "type" : "VEC3"
    },
    {
      "bufferView" : 57,
      "componentType" : 5126,
      "count" : 6,
      "type" : "VEC4"
    },
    {
      "bufferView" : 58,
      "componentType" : 5126,
      "count" : 6,
      "type" : "VEC2"
    },
    {
      "bufferView" : 59,
      "componentType" : 5126,
      "count" : 6,
      "type" : "VEC2"
    }
  ]
}
