{
  "asset" : {
    "generator" : "UE Viewer (umodel) build 1590",
    "version" : "2.0"
  },
  "scene" : 0,
  "scenes" : [
    {
      "nodes" : [ 0 ]
    }
  ],
  "nodes" : [
    {
      "name" : "SM_foundWood_01_corner",
      "mesh" : 0
    }
  ],
  "materials" : [
    {
      "name" : "dummy_material_0",
      "pbrMetallicRoughness" : {
        "baseColorFactor" : [ 0.3, 0.3, 0.3, 1.0 ],
        "metallicFactor" : 0.1,
        "roughnessFactor" : 0.5
      }
    }
  ],
  "meshes" : [
    {
      "primitives" : [
        {
          "attributes" : {
            "POSITION" : 1,
            "NORMAL" : 2,
            "TANGENT" : 3,
            "TEXCOORD_0" : 4,
            "TEXCOORD_1" : 5
          },
          "indices" : 0,
          "material" : 0
        }
      ],
      "name" : "SM_foundWood_01_corner"
    }
  ],
  "buffers" : [
    {
      "uri" : "SM_foundWood_01_corner.bin",
      "byteLength" : 9744
    }
  ],
  "bufferViews" : [
    {
      "buffer" : 0,
      "byteOffset" : 0,
      "byteLength" : 336
    },
    {
      "buffer" : 0,
      "byteOffset" : 336,
      "byteLength" : 2016
    },
    {
      "buffer" : 0,
      "byteOffset" : 2352,
      "byteLength" : 2016
    },
    {
      "buffer" : 0,
      "byteOffset" : 4368,
      "byteLength" : 2688
    },
    {
      "buffer" : 0,
      "byteOffset" : 7056,
      "byteLength" : 1344
    },
    {
      "buffer" : 0,
      "byteOffset" : 8400,
      "byteLength" : 1344
    }
  ],
  "accessors" : [
    {
      "bufferView" : 0,
      "componentType" : 5123,
      "count" : 168,
      "type" : "SCALAR"
    },
    {
      "bufferView" : 1,
      "min" : [ -4, -2.13163e-16, -0.25 ],
      "max" : [ 0.250002, 0.5, 4 ],
      "componentType" : 5126,
      "count" : 168,
      "type" : "VEC3"
    },
    {
      "bufferView" : 2,
      "componentType" : 5126,
      "count" : 168,
      "type" : "VEC3"
    },
    {
      "bufferView" : 3,
      "componentType" : 5126,
      "count" : 168,
      "type" : "VEC4"
    },
    {
      "bufferView" : 4,
      "componentType" : 5126,
      "count" : 168,
      "type" : "VEC2"
    },
    {
      "bufferView" : 5,
      "componentType" : 5126,
      "count" : 168,
      "type" : "VEC2"
    }
  ]
}
