{
  "asset" : {
    "generator" : "UE Viewer (umodel) build 1590",
    "version" : "2.0"
  },
  "scene" : 0,
  "scenes" : [
    {
      "nodes" : [ 0 ]
    }
  ],
  "nodes" : [
    {
      "name" : "SM_floor_02",
      "mesh" : 0
    }
  ],
  "materials" : [
    {
      "name" : "dummy_material_0",
      "pbrMetallicRoughness" : {
        "baseColorFactor" : [ 0.3, 0.3, 0.3, 1.0 ],
        "metallicFactor" : 0.1,
        "roughnessFactor" : 0.5
      }
    },
    {
      "name" : "dummy_material_1",
      "pbrMetallicRoughness" : {
        "baseColorFactor" : [ 0.9, 0.3, 0.3, 1.0 ],
        "metallicFactor" : 0.1,
        "roughnessFactor" : 0.5
      }
    },
    {
      "name" : "dummy_material_2",
      "pbrMetallicRoughness" : {
        "baseColorFactor" : [ 0.3, 0.9, 0.3, 1.0 ],
        "metallicFactor" : 0.1,
        "roughnessFactor" : 0.5
      }
    },
    {
      "name" : "dummy_material_3",
      "pbrMetallicRoughness" : {
        "baseColorFactor" : [ 0.3, 0.3, 0.9, 1.0 ],
        "metallicFactor" : 0.1,
        "roughnessFactor" : 0.5
      }
    }
  ],
  "meshes" : [
    {
      "primitives" : [
        {
          "attributes" : {
            "POSITION" : 1,
            "NORMAL" : 2,
            "TANGENT" : 3,
            "TEXCOORD_0" : 4,
            "TEXCOORD_1" : 5
          },
          "indices" : 0,
          "material" : 0
        },
        {
          "attributes" : {
            "POSITION" : 7,
            "NORMAL" : 8,
            "TANGENT" : 9,
            "TEXCOORD_0" : 10,
            "TEXCOORD_1" : 11
          },
          "indices" : 6,
          "material" : 1
        },
        {
          "attributes" : {
            "POSITION" : 13,
            "NORMAL" : 14,
            "TANGENT" : 15,
            "TEXCOORD_0" : 16,
            "TEXCOORD_1" : 17
          },
          "indices" : 12,
          "material" : 2
        },
        {
          "attributes" : {
            "POSITION" : 19,
            "NORMAL" : 20,
            "TANGENT" : 21,
            "TEXCOORD_0" : 22,
            "TEXCOORD_1" : 23
          },
          "indices" : 18,
          "material" : 3
        }
      ],
      "name" : "SM_floor_02"
    }
  ],
  "buffers" : [
    {
      "uri" : "SM_floor_02.bin",
      "byteLength" : 3480
    }
  ],
  "bufferViews" : [
    {
      "buffer" : 0,
      "byteOffset" : 0,
      "byteLength" : 12
    },
    {
      "buffer" : 0,
      "byteOffset" : 12,
      "byteLength" : 72
    },
    {
      "buffer" : 0,
      "byteOffset" : 84,
      "byteLength" : 72
    },
    {
      "buffer" : 0,
      "byteOffset" : 156,
      "byteLength" : 96
    },
    {
      "buffer" : 0,
      "byteOffset" : 252,
      "byteLength" : 48
    },
    {
      "buffer" : 0,
      "byteOffset" : 300,
      "byteLength" : 48
    },
    {
      "buffer" : 0,
      "byteOffset" : 348,
      "byteLength" : 12
    },
    {
      "buffer" : 0,
      "byteOffset" : 360,
      "byteLength" : 72
    },
    {
      "buffer" : 0,
      "byteOffset" : 432,
      "byteLength" : 72
    },
    {
      "buffer" : 0,
      "byteOffset" : 504,
      "byteLength" : 96
    },
    {
      "buffer" : 0,
      "byteOffset" : 600,
      "byteLength" : 48
    },
    {
      "buffer" : 0,
      "byteOffset" : 648,
      "byteLength" : 48
    },
    {
      "buffer" : 0,
      "byteOffset" : 696,
      "byteLength" : 48
    },
    {
      "buffer" : 0,
      "byteOffset" : 744,
      "byteLength" : 288
    },
    {
      "buffer" : 0,
      "byteOffset" : 1032,
      "byteLength" : 288
    },
    {
      "buffer" : 0,
      "byteOffset" : 1320,
      "byteLength" : 384
    },
    {
      "buffer" : 0,
      "byteOffset" : 1704,
      "byteLength" : 192
    },
    {
      "buffer" : 0,
      "byteOffset" : 1896,
      "byteLength" : 192
    },
    {
      "buffer" : 0,
      "byteOffset" : 2088,
      "byteLength" : 48
    },
    {
      "buffer" : 0,
      "byteOffset" : 2136,
      "byteLength" : 288
    },
    {
      "buffer" : 0,
      "byteOffset" : 2424,
      "byteLength" : 288
    },
    {
      "buffer" : 0,
      "byteOffset" : 2712,
      "byteLength" : 384
    },
    {
      "buffer" : 0,
      "byteOffset" : 3096,
      "byteLength" : 192
    },
    {
      "buffer" : 0,
      "byteOffset" : 3288,
      "byteLength" : 192
    }
  ],
  "accessors" : [
    {
      "bufferView" : 0,
      "componentType" : 5123,
      "count" : 6,
      "type" : "SCALAR"
    },
    {
      "bufferView" : 1,
      "min" : [ -2, -1.22465e-16, -2 ],
      "max" : [ 2, 1.22465e-16, 2 ],
      "componentType" : 5126,
      "count" : 6,
      "type" : "VEC3"
    },
    {
      "bufferView" : 2,
      "componentType" : 5126,
      "count" : 6,
      "type" : "VEC3"
    },
    {
      "bufferView" : 3,
      "componentType" : 5126,
      "count" : 6,
      "type" : "VEC4"
    },
    {
      "bufferView" : 4,
      "componentType" : 5126,
      "count" : 6,
      "type" : "VEC2"
    },
    {
      "bufferView" : 5,
      "componentType" : 5126,
      "count" : 6,
      "type" : "VEC2"
    },
    {
      "bufferView" : 6,
      "componentType" : 5123,
      "count" : 6,
      "type" : "SCALAR"
    },
    {
      "bufferView" : 7,
      "min" : [ -2, -1.25, -2 ],
      "max" : [ 2, -1.25, 2 ],
      "componentType" : 5126,
      "count" : 6,
      "type" : "VEC3"
    },
    {
      "bufferView" : 8,
      "componentType" : 5126,
      "count" : 6,
      "type" : "VEC3"
    },
    {
      "bufferView" : 9,
      "componentType" : 5126,
      "count" : 6,
      "type" : "VEC4"
    },
    {
      "bufferView" : 10,
      "componentType" : 5126,
      "count" : 6,
      "type" : "VEC2"
    },
    {
      "bufferView" : 11,
      "componentType" : 5126,
      "count" : 6,
      "type" : "VEC2"
    },
    {
      "bufferView" : 12,
      "componentType" : 5123,
      "count" : 24,
      "type" : "SCALAR"
    },
    {
      "bufferView" : 13,
      "min" : [ -2, -0.0500003, -2 ],
      "max" : [ 2, 1.22465e-16, 2 ],
      "componentType" : 5126,
      "count" : 24,
      "type" : "VEC3"
    },
    {
      "bufferView" : 14,
      "componentType" : 5126,
      "count" : 24,
      "type" : "VEC3"
    },
    {
      "bufferView" : 15,
      "componentType" : 5126,
      "count" : 24,
      "type" : "VEC4"
    },
    {
      "bufferView" : 16,
      "componentType" : 5126,
      "count" : 24,
      "type" : "VEC2"
    },
    {
      "bufferView" : 17,
      "componentType" : 5126,
      "count" : 24,
      "type" : "VEC2"
    },
    {
      "bufferView" : 18,
      "componentType" : 5123,
      "count" : 24,
      "type" : "SCALAR"
    },
    {
      "bufferView" : 19,
      "min" : [ -2, -1.25, -2 ],
      "max" : [ 2, -0.0500003, 2 ],
      "componentType" : 5126,
      "count" : 24,
      "type" : "VEC3"
    },
    {
      "bufferView" : 20,
      "componentType" : 5126,
      "count" : 24,
      "type" : "VEC3"
    },
    {
      "bufferView" : 21,
      "componentType" : 5126,
      "count" : 24,
      "type" : "VEC4"
    },
    {
      "bufferView" : 22,
      "componentType" : 5126,
      "count" : 24,
      "type" : "VEC2"
    },
    {
      "bufferView" : 23,
      "componentType" : 5126,
      "count" : 24,
      "type" : "VEC2"
    }
  ]
}
