{
  "asset" : {
    "generator" : "UE Viewer (umodel) build 1590",
    "version" : "2.0"
  },
  "scene" : 0,
  "scenes" : [
    {
      "nodes" : [ 0 ]
    }
  ],
  "nodes" : [
    {
      "name" : "SM_ladder_01_ending",
      "mesh" : 0
    }
  ],
  "materials" : [
    {
      "name" : "dummy_material_0",
      "pbrMetallicRoughness" : {
        "baseColorFactor" : [ 0.3, 0.3, 0.3, 1.0 ],
        "metallicFactor" : 0.1,
        "roughnessFactor" : 0.5
      }
    }
  ],
  "meshes" : [
    {
      "primitives" : [
        {
          "attributes" : {
            "POSITION" : 1,
            "NORMAL" : 2,
            "TANGENT" : 3,
            "TEXCOORD_0" : 4,
            "TEXCOORD_1" : 5
          },
          "indices" : 0,
          "material" : 0
        }
      ],
      "name" : "SM_ladder_01_ending"
    }
  ],
  "buffers" : [
    {
      "uri" : "SM_ladder_01_ending.bin",
      "byteLength" : 11832
    }
  ],
  "bufferViews" : [
    {
      "buffer" : 0,
      "byteOffset" : 0,
      "byteLength" : 408
    },
    {
      "buffer" : 0,
      "byteOffset" : 408,
      "byteLength" : 2448
    },
    {
      "buffer" : 0,
      "byteOffset" : 2856,
      "byteLength" : 2448
    },
    {
      "buffer" : 0,
      "byteOffset" : 5304,
      "byteLength" : 3264
    },
    {
      "buffer" : 0,
      "byteOffset" : 8568,
      "byteLength" : 1632
    },
    {
      "buffer" : 0,
      "byteOffset" : 10200,
      "byteLength" : 1632
    }
  ],
  "accessors" : [
    {
      "bufferView" : 0,
      "componentType" : 5123,
      "count" : 204,
      "type" : "SCALAR"
    },
    {
      "bufferView" : 1,
      "min" : [ -0.43125, -3.8147e-08, -0.43125 ],
      "max" : [ 0.05625, 1.05625, 0.43125 ],
      "componentType" : 5126,
      "count" : 204,
      "type" : "VEC3"
    },
    {
      "bufferView" : 2,
      "componentType" : 5126,
      "count" : 204,
      "type" : "VEC3"
    },
    {
      "bufferView" : 3,
      "componentType" : 5126,
      "count" : 204,
      "type" : "VEC4"
    },
    {
      "bufferView" : 4,
      "componentType" : 5126,
      "count" : 204,
      "type" : "VEC2"
    },
    {
      "bufferView" : 5,
      "componentType" : 5126,
      "count" : 204,
      "type" : "VEC2"
    }
  ]
}
