{
  "asset" : {
    "generator" : "UE Viewer (umodel) build 1590",
    "version" : "2.0"
  },
  "scene" : 0,
  "scenes" : [
    {
      "nodes" : [ 0 ]
    }
  ],
  "nodes" : [
    {
      "name" : "SM_roof_01",
      "mesh" : 0
    }
  ],
  "materials" : [
    {
      "name" : "dummy_material_0",
      "pbrMetallicRoughness" : {
        "baseColorFactor" : [ 0.3, 0.3, 0.3, 1.0 ],
        "metallicFactor" : 0.1,
        "roughnessFactor" : 0.5
      }
    }
  ],
  "meshes" : [
    {
      "primitives" : [
        {
          "attributes" : {
            "POSITION" : 1,
            "NORMAL" : 2,
            "TANGENT" : 3,
            "TEXCOORD_0" : 4
          },
          "indices" : 0,
          "material" : 0
        }
      ],
      "name" : "SM_roof_01"
    }
  ],
  "buffers" : [
    {
      "uri" : "SM_roof_01.bin",
      "byteLength" : 6300
    }
  ],
  "bufferViews" : [
    {
      "buffer" : 0,
      "byteOffset" : 0,
      "byteLength" : 252
    },
    {
      "buffer" : 0,
      "byteOffset" : 252,
      "byteLength" : 1512
    },
    {
      "buffer" : 0,
      "byteOffset" : 1764,
      "byteLength" : 1512
    },
    {
      "buffer" : 0,
      "byteOffset" : 3276,
      "byteLength" : 2016
    },
    {
      "buffer" : 0,
      "byteOffset" : 5292,
      "byteLength" : 1008
    }
  ],
  "accessors" : [
    {
      "bufferView" : 0,
      "componentType" : 5123,
      "count" : 126,
      "type" : "SCALAR"
    },
    {
      "bufferView" : 1,
      "min" : [ -2, 3.05176e-07, -1.99999 ],
      "max" : [ 2, 0.3, 2 ],
      "componentType" : 5126,
      "count" : 126,
      "type" : "VEC3"
    },
    {
      "bufferView" : 2,
      "componentType" : 5126,
      "count" : 126,
      "type" : "VEC3"
    },
    {
      "bufferView" : 3,
      "componentType" : 5126,
      "count" : 126,
      "type" : "VEC4"
    },
    {
      "bufferView" : 4,
      "componentType" : 5126,
      "count" : 126,
      "type" : "VEC2"
    }
  ]
}
