{
  "asset" : {
    "generator" : "UE Viewer (umodel) build 1590",
    "version" : "2.0"
  },
  "scene" : 0,
  "scenes" : [
    {
      "nodes" : [ 0 ]
    }
  ],
  "nodes" : [
    {
      "name" : "SM_roof_02_end",
      "mesh" : 0
    }
  ],
  "materials" : [
    {
      "name" : "dummy_material_0",
      "pbrMetallicRoughness" : {
        "baseColorFactor" : [ 0.3, 0.3, 0.3, 1.0 ],
        "metallicFactor" : 0.1,
        "roughnessFactor" : 0.5
      }
    },
    {
      "name" : "dummy_material_1",
      "pbrMetallicRoughness" : {
        "baseColorFactor" : [ 0.9, 0.3, 0.3, 1.0 ],
        "metallicFactor" : 0.1,
        "roughnessFactor" : 0.5
      }
    },
    {
      "name" : "dummy_material_2",
      "pbrMetallicRoughness" : {
        "baseColorFactor" : [ 0.3, 0.9, 0.3, 1.0 ],
        "metallicFactor" : 0.1,
        "roughnessFactor" : 0.5
      }
    }
  ],
  "meshes" : [
    {
      "primitives" : [
        {
          "attributes" : {
            "POSITION" : 1,
            "NORMAL" : 2,
            "TANGENT" : 3,
            "TEXCOORD_0" : 4,
            "TEXCOORD_1" : 5
          },
          "indices" : 0,
          "material" : 0
        },
        {
          "attributes" : {
            "POSITION" : 7,
            "NORMAL" : 8,
            "TANGENT" : 9,
            "TEXCOORD_0" : 10,
            "TEXCOORD_1" : 11
          },
          "indices" : 6,
          "material" : 1
        },
        {
          "attributes" : {
            "POSITION" : 13,
            "NORMAL" : 14,
            "TANGENT" : 15,
            "TEXCOORD_0" : 16,
            "TEXCOORD_1" : 17
          },
          "indices" : 12,
          "material" : 2
        }
      ],
      "name" : "SM_roof_02_end"
    }
  ],
  "buffers" : [
    {
      "uri" : "SM_roof_02_end.bin",
      "byteLength" : 6788
    }
  ],
  "bufferViews" : [
    {
      "buffer" : 0,
      "byteOffset" : 0,
      "byteLength" : 216
    },
    {
      "buffer" : 0,
      "byteOffset" : 216,
      "byteLength" : 1296
    },
    {
      "buffer" : 0,
      "byteOffset" : 1512,
      "byteLength" : 1296
    },
    {
      "buffer" : 0,
      "byteOffset" : 2808,
      "byteLength" : 1728
    },
    {
      "buffer" : 0,
      "byteOffset" : 4536,
      "byteLength" : 864
    },
    {
      "buffer" : 0,
      "byteOffset" : 5400,
      "byteLength" : 864
    },
    {
      "buffer" : 0,
      "byteOffset" : 6264,
      "byteLength" : 8
    },
    {
      "buffer" : 0,
      "byteOffset" : 6272,
      "byteLength" : 36
    },
    {
      "buffer" : 0,
      "byteOffset" : 6308,
      "byteLength" : 36
    },
    {
      "buffer" : 0,
      "byteOffset" : 6344,
      "byteLength" : 48
    },
    {
      "buffer" : 0,
      "byteOffset" : 6392,
      "byteLength" : 24
    },
    {
      "buffer" : 0,
      "byteOffset" : 6416,
      "byteLength" : 24
    },
    {
      "buffer" : 0,
      "byteOffset" : 6440,
      "byteLength" : 12
    },
    {
      "buffer" : 0,
      "byteOffset" : 6452,
      "byteLength" : 72
    },
    {
      "buffer" : 0,
      "byteOffset" : 6524,
      "byteLength" : 72
    },
    {
      "buffer" : 0,
      "byteOffset" : 6596,
      "byteLength" : 96
    },
    {
      "buffer" : 0,
      "byteOffset" : 6692,
      "byteLength" : 48
    },
    {
      "buffer" : 0,
      "byteOffset" : 6740,
      "byteLength" : 48
    }
  ],
  "accessors" : [
    {
      "bufferView" : 0,
      "componentType" : 5123,
      "count" : 108,
      "type" : "SCALAR"
    },
    {
      "bufferView" : 1,
      "min" : [ 0, -0.147949, 4.27693e-06 ],
      "max" : [ 5.11368, 1.01406, 0.85 ],
      "componentType" : 5126,
      "count" : 108,
      "type" : "VEC3"
    },
    {
      "bufferView" : 2,
      "componentType" : 5126,
      "count" : 108,
      "type" : "VEC3"
    },
    {
      "bufferView" : 3,
      "componentType" : 5126,
      "count" : 108,
      "type" : "VEC4"
    },
    {
      "bufferView" : 4,
      "componentType" : 5126,
      "count" : 108,
      "type" : "VEC2"
    },
    {
      "bufferView" : 5,
      "componentType" : 5126,
      "count" : 108,
      "type" : "VEC2"
    },
    {
      "bufferView" : 6,
      "componentType" : 5123,
      "count" : 3,
      "type" : "SCALAR"
    },
    {
      "bufferView" : 7,
      "min" : [ 3.66211e-06, 6.36578e-07, 0.149998 ],
      "max" : [ 4, 0.702835, 0.149998 ],
      "componentType" : 5126,
      "count" : 3,
      "type" : "VEC3"
    },
    {
      "bufferView" : 8,
      "componentType" : 5126,
      "count" : 3,
      "type" : "VEC3"
    },
    {
      "bufferView" : 9,
      "componentType" : 5126,
      "count" : 3,
      "type" : "VEC4"
    },
    {
      "bufferView" : 10,
      "componentType" : 5126,
      "count" : 3,
      "type" : "VEC2"
    },
    {
      "bufferView" : 11,
      "componentType" : 5126,
      "count" : 3,
      "type" : "VEC2"
    },
    {
      "bufferView" : 12,
      "componentType" : 5123,
      "count" : 6,
      "type" : "SCALAR"
    },
    {
      "bufferView" : 13,
      "min" : [ 3.66211e-06, 5.84124e-07, -0.150002 ],
      "max" : [ 4, 0.702835, -0.150002 ],
      "componentType" : 5126,
      "count" : 6,
      "type" : "VEC3"
    },
    {
      "bufferView" : 14,
      "componentType" : 5126,
      "count" : 6,
      "type" : "VEC3"
    },
    {
      "bufferView" : 15,
      "componentType" : 5126,
      "count" : 6,
      "type" : "VEC4"
    },
    {
      "bufferView" : 16,
      "componentType" : 5126,
      "count" : 6,
      "type" : "VEC2"
    },
    {
      "bufferView" : 17,
      "componentType" : 5126,
      "count" : 6,
      "type" : "VEC2"
    }
  ]
}
