{
  "asset" : {
    "generator" : "UE Viewer (umodel) build 1590",
    "version" : "2.0"
  },
  "scene" : 0,
  "scenes" : [
    {
      "nodes" : [ 0 ]
    }
  ],
  "nodes" : [
    {
      "name" : "SM_roof_03_ending",
      "mesh" : 0
    }
  ],
  "materials" : [
    {
      "name" : "dummy_material_0",
      "pbrMetallicRoughness" : {
        "baseColorFactor" : [ 0.3, 0.3, 0.3, 1.0 ],
        "metallicFactor" : 0.1,
        "roughnessFactor" : 0.5
      }
    },
    {
      "name" : "dummy_material_1",
      "pbrMetallicRoughness" : {
        "baseColorFactor" : [ 0.9, 0.3, 0.3, 1.0 ],
        "metallicFactor" : 0.1,
        "roughnessFactor" : 0.5
      }
    },
    {
      "name" : "dummy_material_2",
      "pbrMetallicRoughness" : {
        "baseColorFactor" : [ 0.3, 0.9, 0.3, 1.0 ],
        "metallicFactor" : 0.1,
        "roughnessFactor" : 0.5
      }
    }
  ],
  "meshes" : [
    {
      "primitives" : [
        {
          "attributes" : {
            "POSITION" : 1,
            "NORMAL" : 2,
            "TANGENT" : 3,
            "TEXCOORD_0" : 4,
            "TEXCOORD_1" : 5
          },
          "indices" : 0,
          "material" : 0
        },
        {
          "attributes" : {
            "POSITION" : 7,
            "NORMAL" : 8,
            "TANGENT" : 9,
            "TEXCOORD_0" : 10,
            "TEXCOORD_1" : 11
          },
          "indices" : 6,
          "material" : 1
        },
        {
          "attributes" : {
            "POSITION" : 13,
            "NORMAL" : 14,
            "TANGENT" : 15,
            "TEXCOORD_0" : 16,
            "TEXCOORD_1" : 17
          },
          "indices" : 12,
          "material" : 2
        }
      ],
      "name" : "SM_roof_03_ending"
    }
  ],
  "buffers" : [
    {
      "uri" : "SM_roof_03_ending.bin",
      "byteLength" : 6616
    }
  ],
  "bufferViews" : [
    {
      "buffer" : 0,
      "byteOffset" : 0,
      "byteLength" : 8
    },
    {
      "buffer" : 0,
      "byteOffset" : 8,
      "byteLength" : 36
    },
    {
      "buffer" : 0,
      "byteOffset" : 44,
      "byteLength" : 36
    },
    {
      "buffer" : 0,
      "byteOffset" : 80,
      "byteLength" : 48
    },
    {
      "buffer" : 0,
      "byteOffset" : 128,
      "byteLength" : 24
    },
    {
      "buffer" : 0,
      "byteOffset" : 152,
      "byteLength" : 24
    },
    {
      "buffer" : 0,
      "byteOffset" : 176,
      "byteLength" : 8
    },
    {
      "buffer" : 0,
      "byteOffset" : 184,
      "byteLength" : 36
    },
    {
      "buffer" : 0,
      "byteOffset" : 220,
      "byteLength" : 36
    },
    {
      "buffer" : 0,
      "byteOffset" : 256,
      "byteLength" : 48
    },
    {
      "buffer" : 0,
      "byteOffset" : 304,
      "byteLength" : 24
    },
    {
      "buffer" : 0,
      "byteOffset" : 328,
      "byteLength" : 24
    },
    {
      "buffer" : 0,
      "byteOffset" : 352,
      "byteLength" : 216
    },
    {
      "buffer" : 0,
      "byteOffset" : 568,
      "byteLength" : 1296
    },
    {
      "buffer" : 0,
      "byteOffset" : 1864,
      "byteLength" : 1296
    },
    {
      "buffer" : 0,
      "byteOffset" : 3160,
      "byteLength" : 1728
    },
    {
      "buffer" : 0,
      "byteOffset" : 4888,
      "byteLength" : 864
    },
    {
      "buffer" : 0,
      "byteOffset" : 5752,
      "byteLength" : 864
    }
  ],
  "accessors" : [
    {
      "bufferView" : 0,
      "componentType" : 5123,
      "count" : 3,
      "type" : "SCALAR"
    },
    {
      "bufferView" : 1,
      "min" : [ 0, -6.10352e-07, 0.15 ],
      "max" : [ 6, 3.50748, 0.15 ],
      "componentType" : 5126,
      "count" : 3,
      "type" : "VEC3"
    },
    {
      "bufferView" : 2,
      "componentType" : 5126,
      "count" : 3,
      "type" : "VEC3"
    },
    {
      "bufferView" : 3,
      "componentType" : 5126,
      "count" : 3,
      "type" : "VEC4"
    },
    {
      "bufferView" : 4,
      "componentType" : 5126,
      "count" : 3,
      "type" : "VEC2"
    },
    {
      "bufferView" : 5,
      "componentType" : 5126,
      "count" : 3,
      "type" : "VEC2"
    },
    {
      "bufferView" : 6,
      "componentType" : 5123,
      "count" : 3,
      "type" : "SCALAR"
    },
    {
      "bufferView" : 7,
      "min" : [ 0, -6.10352e-07, -0.15 ],
      "max" : [ 6, 3.50748, -0.15 ],
      "componentType" : 5126,
      "count" : 3,
      "type" : "VEC3"
    },
    {
      "bufferView" : 8,
      "componentType" : 5126,
      "count" : 3,
      "type" : "VEC3"
    },
    {
      "bufferView" : 9,
      "componentType" : 5126,
      "count" : 3,
      "type" : "VEC4"
    },
    {
      "bufferView" : 10,
      "componentType" : 5126,
      "count" : 3,
      "type" : "VEC2"
    },
    {
      "bufferView" : 11,
      "componentType" : 5126,
      "count" : 3,
      "type" : "VEC2"
    },
    {
      "bufferView" : 12,
      "componentType" : 5123,
      "count" : 108,
      "type" : "SCALAR"
    },
    {
      "bufferView" : 13,
      "min" : [ -1.2207e-06, -1.52588e-06, 4.57764e-06 ],
      "max" : [ 6.6, 4, 0.700001 ],
      "componentType" : 5126,
      "count" : 108,
      "type" : "VEC3"
    },
    {
      "bufferView" : 14,
      "componentType" : 5126,
      "count" : 108,
      "type" : "VEC3"
    },
    {
      "bufferView" : 15,
      "componentType" : 5126,
      "count" : 108,
      "type" : "VEC4"
    },
    {
      "bufferView" : 16,
      "componentType" : 5126,
      "count" : 108,
      "type" : "VEC2"
    },
    {
      "bufferView" : 17,
      "componentType" : 5126,
      "count" : 108,
      "type" : "VEC2"
    }
  ]
}
