{
  "asset" : {
    "generator" : "UE Viewer (umodel) build 1590",
    "version" : "2.0"
  },
  "scene" : 0,
  "scenes" : [
    {
      "nodes" : [ 0 ]
    }
  ],
  "nodes" : [
    {
      "name" : "SM_roof_03_corner",
      "mesh" : 0
    }
  ],
  "materials" : [
    {
      "name" : "dummy_material_0",
      "pbrMetallicRoughness" : {
        "baseColorFactor" : [ 0.3, 0.3, 0.3, 1.0 ],
        "metallicFactor" : 0.1,
        "roughnessFactor" : 0.5
      }
    }
  ],
  "meshes" : [
    {
      "primitives" : [
        {
          "attributes" : {
            "POSITION" : 1,
            "NORMAL" : 2,
            "TANGENT" : 3,
            "TEXCOORD_0" : 4
          },
          "indices" : 0,
          "material" : 0
        }
      ],
      "name" : "SM_roof_03_corner"
    }
  ],
  "buffers" : [
    {
      "uri" : "SM_roof_03_corner.bin",
      "byteLength" : 2552
    }
  ],
  "bufferViews" : [
    {
      "buffer" : 0,
      "byteOffset" : 0,
      "byteLength" : 104
    },
    {
      "buffer" : 0,
      "byteOffset" : 104,
      "byteLength" : 612
    },
    {
      "buffer" : 0,
      "byteOffset" : 716,
      "byteLength" : 612
    },
    {
      "buffer" : 0,
      "byteOffset" : 1328,
      "byteLength" : 816
    },
    {
      "buffer" : 0,
      "byteOffset" : 2144,
      "byteLength" : 408
    }
  ],
  "accessors" : [
    {
      "bufferView" : 0,
      "componentType" : 5123,
      "count" : 51,
      "type" : "SCALAR"
    },
    {
      "bufferView" : 1,
      "min" : [ -1.15967e-05, -4.04133e-16, -2.88495e-07 ],
      "max" : [ 6.6, 4, 6.59999 ],
      "componentType" : 5126,
      "count" : 51,
      "type" : "VEC3"
    },
    {
      "bufferView" : 2,
      "componentType" : 5126,
      "count" : 51,
      "type" : "VEC3"
    },
    {
      "bufferView" : 3,
      "componentType" : 5126,
      "count" : 51,
      "type" : "VEC4"
    },
    {
      "bufferView" : 4,
      "componentType" : 5126,
      "count" : 51,
      "type" : "VEC2"
    }
  ]
}
