{
  "asset" : {
    "generator" : "UE Viewer (umodel) build 1590",
    "version" : "2.0"
  },
  "scene" : 0,
  "scenes" : [
    {
      "nodes" : [ 0 ]
    }
  ],
  "nodes" : [
    {
      "name" : "SM_StairsU_01_blind",
      "mesh" : 0
    }
  ],
  "materials" : [
    {
      "name" : "dummy_material_0",
      "pbrMetallicRoughness" : {
        "baseColorFactor" : [ 0.3, 0.3, 0.3, 1.0 ],
        "metallicFactor" : 0.1,
        "roughnessFactor" : 0.5
      }
    }
  ],
  "meshes" : [
    {
      "primitives" : [
        {
          "attributes" : {
            "POSITION" : 1,
            "NORMAL" : 2,
            "TANGENT" : 3,
            "TEXCOORD_0" : 4
          },
          "indices" : 0,
          "material" : 0
        }
      ],
      "name" : "SM_StairsU_01_blind"
    }
  ],
  "buffers" : [
    {
      "uri" : "SM_StairsU_01_blind.bin",
      "byteLength" : 2252
    }
  ],
  "bufferViews" : [
    {
      "buffer" : 0,
      "byteOffset" : 0,
      "byteLength" : 92
    },
    {
      "buffer" : 0,
      "byteOffset" : 92,
      "byteLength" : 540
    },
    {
      "buffer" : 0,
      "byteOffset" : 632,
      "byteLength" : 540
    },
    {
      "buffer" : 0,
      "byteOffset" : 1172,
      "byteLength" : 720
    },
    {
      "buffer" : 0,
      "byteOffset" : 1892,
      "byteLength" : 360
    }
  ],
  "accessors" : [
    {
      "bufferView" : 0,
      "componentType" : 5123,
      "count" : 45,
      "type" : "SCALAR"
    },
    {
      "bufferView" : 1,
      "min" : [ -4, -2.44929e-16, 6.76437e-14 ],
      "max" : [ -4.48227e-07, 2.75, 4 ],
      "componentType" : 5126,
      "count" : 45,
      "type" : "VEC3"
    },
    {
      "bufferView" : 2,
      "componentType" : 5126,
      "count" : 45,
      "type" : "VEC3"
    },
    {
      "bufferView" : 3,
      "componentType" : 5126,
      "count" : 45,
      "type" : "VEC4"
    },
    {
      "bufferView" : 4,
      "componentType" : 5126,
      "count" : 45,
      "type" : "VEC2"
    }
  ]
}
