{
  "asset" : {
    "generator" : "UE Viewer (umodel) build 1590",
    "version" : "2.0"
  },
  "scene" : 0,
  "scenes" : [
    {
      "nodes" : [ 0 ]
    }
  ],
  "nodes" : [
    {
      "name" : "SM_shopFront_03",
      "mesh" : 0
    }
  ],
  "materials" : [
    {
      "name" : "dummy_material_0",
      "pbrMetallicRoughness" : {
        "baseColorFactor" : [ 0.3, 0.3, 0.3, 1.0 ],
        "metallicFactor" : 0.1,
        "roughnessFactor" : 0.5
      }
    },
    {
      "name" : "dummy_material_1",
      "pbrMetallicRoughness" : {
        "baseColorFactor" : [ 0.9, 0.3, 0.3, 1.0 ],
        "metallicFactor" : 0.1,
        "roughnessFactor" : 0.5
      }
    },
    {
      "name" : "dummy_material_2",
      "pbrMetallicRoughness" : {
        "baseColorFactor" : [ 0.3, 0.9, 0.3, 1.0 ],
        "metallicFactor" : 0.1,
        "roughnessFactor" : 0.5
      }
    },
    {
      "name" : "dummy_material_3",
      "pbrMetallicRoughness" : {
        "baseColorFactor" : [ 0.3, 0.3, 0.9, 1.0 ],
        "metallicFactor" : 0.1,
        "roughnessFactor" : 0.5
      }
    }
  ],
  "meshes" : [
    {
      "primitives" : [
        {
          "attributes" : {
            "POSITION" : 1,
            "NORMAL" : 2,
            "TANGENT" : 3,
            "TEXCOORD_0" : 4,
            "TEXCOORD_1" : 5
          },
          "indices" : 0,
          "material" : 0
        },
        {
          "attributes" : {
            "POSITION" : 7,
            "NORMAL" : 8,
            "TANGENT" : 9,
            "TEXCOORD_0" : 10,
            "TEXCOORD_1" : 11
          },
          "indices" : 6,
          "material" : 1
        },
        {
          "attributes" : {
            "POSITION" : 13,
            "NORMAL" : 14,
            "TANGENT" : 15,
            "TEXCOORD_0" : 16,
            "TEXCOORD_1" : 17
          },
          "indices" : 12,
          "material" : 2
        },
        {
          "attributes" : {
            "POSITION" : 19,
            "NORMAL" : 20,
            "TANGENT" : 21,
            "TEXCOORD_0" : 22,
            "TEXCOORD_1" : 23
          },
          "indices" : 18,
          "material" : 3
        }
      ],
      "name" : "SM_shopFront_03"
    }
  ],
  "buffers" : [
    {
      "uri" : "SM_shopFront_03.bin",
      "byteLength" : 90132
    }
  ],
  "bufferViews" : [
    {
      "buffer" : 0,
      "byteOffset" : 0,
      "byteLength" : 24
    },
    {
      "buffer" : 0,
      "byteOffset" : 24,
      "byteLength" : 144
    },
    {
      "buffer" : 0,
      "byteOffset" : 168,
      "byteLength" : 144
    },
    {
      "buffer" : 0,
      "byteOffset" : 312,
      "byteLength" : 192
    },
    {
      "buffer" : 0,
      "byteOffset" : 504,
      "byteLength" : 96
    },
    {
      "buffer" : 0,
      "byteOffset" : 600,
      "byteLength" : 96
    },
    {
      "buffer" : 0,
      "byteOffset" : 696,
      "byteLength" : 24
    },
    {
      "buffer" : 0,
      "byteOffset" : 720,
      "byteLength" : 144
    },
    {
      "buffer" : 0,
      "byteOffset" : 864,
      "byteLength" : 144
    },
    {
      "buffer" : 0,
      "byteOffset" : 1008,
      "byteLength" : 192
    },
    {
      "buffer" : 0,
      "byteOffset" : 1200,
      "byteLength" : 96
    },
    {
      "buffer" : 0,
      "byteOffset" : 1296,
      "byteLength" : 96
    },
    {
      "buffer" : 0,
      "byteOffset" : 1392,
      "byteLength" : 24
    },
    {
      "buffer" : 0,
      "byteOffset" : 1416,
      "byteLength" : 144
    },
    {
      "buffer" : 0,
      "byteOffset" : 1560,
      "byteLength" : 144
    },
    {
      "buffer" : 0,
      "byteOffset" : 1704,
      "byteLength" : 192
    },
    {
      "buffer" : 0,
      "byteOffset" : 1896,
      "byteLength" : 96
    },
    {
      "buffer" : 0,
      "byteOffset" : 1992,
      "byteLength" : 96
    },
    {
      "buffer" : 0,
      "byteOffset" : 2088,
      "byteLength" : 3036
    },
    {
      "buffer" : 0,
      "byteOffset" : 5124,
      "byteLength" : 18216
    },
    {
      "buffer" : 0,
      "byteOffset" : 23340,
      "byteLength" : 18216
    },
    {
      "buffer" : 0,
      "byteOffset" : 41556,
      "byteLength" : 24288
    },
    {
      "buffer" : 0,
      "byteOffset" : 65844,
      "byteLength" : 12144
    },
    {
      "buffer" : 0,
      "byteOffset" : 77988,
      "byteLength" : 12144
    }
  ],
  "accessors" : [
    {
      "bufferView" : 0,
      "componentType" : 5123,
      "count" : 12,
      "type" : "SCALAR"
    },
    {
      "bufferView" : 1,
      "min" : [ 0.149999, -1.11831e-21, -8 ],
      "max" : [ 0.150001, 3, 1.82635e-05 ],
      "componentType" : 5126,
      "count" : 12,
      "type" : "VEC3"
    },
    {
      "bufferView" : 2,
      "componentType" : 5126,
      "count" : 12,
      "type" : "VEC3"
    },
    {
      "bufferView" : 3,
      "componentType" : 5126,
      "count" : 12,
      "type" : "VEC4"
    },
    {
      "bufferView" : 4,
      "componentType" : 5126,
      "count" : 12,
      "type" : "VEC2"
    },
    {
      "bufferView" : 5,
      "componentType" : 5126,
      "count" : 12,
      "type" : "VEC2"
    },
    {
      "bufferView" : 6,
      "componentType" : 5123,
      "count" : 12,
      "type" : "SCALAR"
    },
    {
      "bufferView" : 7,
      "min" : [ -0.150001, -5.26109e-22, -8.00001 ],
      "max" : [ -0.149999, 3, 8.59201e-06 ],
      "componentType" : 5126,
      "count" : 12,
      "type" : "VEC3"
    },
    {
      "bufferView" : 8,
      "componentType" : 5126,
      "count" : 12,
      "type" : "VEC3"
    },
    {
      "bufferView" : 9,
      "componentType" : 5126,
      "count" : 12,
      "type" : "VEC4"
    },
    {
      "bufferView" : 10,
      "componentType" : 5126,
      "count" : 12,
      "type" : "VEC2"
    },
    {
      "bufferView" : 11,
      "componentType" : 5126,
      "count" : 12,
      "type" : "VEC2"
    },
    {
      "bufferView" : 12,
      "componentType" : 5123,
      "count" : 12,
      "type" : "SCALAR"
    },
    {
      "bufferView" : 13,
      "min" : [ -0.00999729, 0.84, -6.89999 ],
      "max" : [ -0.00999667, 2.3, -1.1 ],
      "componentType" : 5126,
      "count" : 12,
      "type" : "VEC3"
    },
    {
      "bufferView" : 14,
      "componentType" : 5126,
      "count" : 12,
      "type" : "VEC3"
    },
    {
      "bufferView" : 15,
      "componentType" : 5126,
      "count" : 12,
      "type" : "VEC4"
    },
    {
      "bufferView" : 16,
      "componentType" : 5126,
      "count" : 12,
      "type" : "VEC2"
    },
    {
      "bufferView" : 17,
      "componentType" : 5126,
      "count" : 12,
      "type" : "VEC2"
    },
    {
      "bufferView" : 18,
      "componentType" : 5123,
      "count" : 1518,
      "type" : "SCALAR"
    },
    {
      "bufferView" : 19,
      "min" : [ -0.159997, 4.89859e-17, -7.2 ],
      "max" : [ 0.239985, 3, -0.8 ],
      "componentType" : 5126,
      "count" : 1518,
      "type" : "VEC3"
    },
    {
      "bufferView" : 20,
      "componentType" : 5126,
      "count" : 1518,
      "type" : "VEC3"
    },
    {
      "bufferView" : 21,
      "componentType" : 5126,
      "count" : 1518,
      "type" : "VEC4"
    },
    {
      "bufferView" : 22,
      "componentType" : 5126,
      "count" : 1518,
      "type" : "VEC2"
    },
    {
      "bufferView" : 23,
      "componentType" : 5126,
      "count" : 1518,
      "type" : "VEC2"
    }
  ]
}
