{
  "asset" : {
    "generator" : "UE Viewer (umodel) build 1590",
    "version" : "2.0"
  },
  "scene" : 0,
  "scenes" : [
    {
      "nodes" : [ 0 ]
    }
  ],
  "nodes" : [
    {
      "name" : "SM_stairsRamp_01",
      "mesh" : 0
    }
  ],
  "materials" : [
    {
      "name" : "dummy_material_0",
      "pbrMetallicRoughness" : {
        "baseColorFactor" : [ 0.3, 0.3, 0.3, 1.0 ],
        "metallicFactor" : 0.1,
        "roughnessFactor" : 0.5
      }
    }
  ],
  "meshes" : [
    {
      "primitives" : [
        {
          "attributes" : {
            "POSITION" : 1,
            "NORMAL" : 2,
            "TANGENT" : 3,
            "TEXCOORD_0" : 4,
            "TEXCOORD_1" : 5
          },
          "indices" : 0,
          "material" : 0
        }
      ],
      "name" : "SM_stairsRamp_01"
    }
  ],
  "buffers" : [
    {
      "uri" : "SM_stairsRamp_01.bin",
      "byteLength" : 32016
    }
  ],
  "bufferViews" : [
    {
      "buffer" : 0,
      "byteOffset" : 0,
      "byteLength" : 1104
    },
    {
      "buffer" : 0,
      "byteOffset" : 1104,
      "byteLength" : 6624
    },
    {
      "buffer" : 0,
      "byteOffset" : 7728,
      "byteLength" : 6624
    },
    {
      "buffer" : 0,
      "byteOffset" : 14352,
      "byteLength" : 8832
    },
    {
      "buffer" : 0,
      "byteOffset" : 23184,
      "byteLength" : 4416
    },
    {
      "buffer" : 0,
      "byteOffset" : 27600,
      "byteLength" : 4416
    }
  ],
  "accessors" : [
    {
      "bufferView" : 0,
      "componentType" : 5123,
      "count" : 552,
      "type" : "SCALAR"
    },
    {
      "bufferView" : 1,
      "min" : [ -0.903725, -0.00803679, -2.48777 ],
      "max" : [ 0.903719, 1.54607, -0.11817 ],
      "componentType" : 5126,
      "count" : 552,
      "type" : "VEC3"
    },
    {
      "bufferView" : 2,
      "componentType" : 5126,
      "count" : 552,
      "type" : "VEC3"
    },
    {
      "bufferView" : 3,
      "componentType" : 5126,
      "count" : 552,
      "type" : "VEC4"
    },
    {
      "bufferView" : 4,
      "componentType" : 5126,
      "count" : 552,
      "type" : "VEC2"
    },
    {
      "bufferView" : 5,
      "componentType" : 5126,
      "count" : 552,
      "type" : "VEC2"
    }
  ]
}
