{
  "asset" : {
    "generator" : "UE Viewer (umodel) build 1590",
    "version" : "2.0"
  },
  "scene" : 0,
  "scenes" : [
    {
      "nodes" : [ 0 ]
    }
  ],
  "nodes" : [
    {
      "name" : "SM_StairsU_01_railEnd",
      "mesh" : 0
    }
  ],
  "materials" : [
    {
      "name" : "dummy_material_0",
      "pbrMetallicRoughness" : {
        "baseColorFactor" : [ 0.3, 0.3, 0.3, 1.0 ],
        "metallicFactor" : 0.1,
        "roughnessFactor" : 0.5
      }
    }
  ],
  "meshes" : [
    {
      "primitives" : [
        {
          "attributes" : {
            "POSITION" : 1,
            "NORMAL" : 2,
            "TANGENT" : 3,
            "TEXCOORD_0" : 4,
            "TEXCOORD_1" : 5
          },
          "indices" : 0,
          "material" : 0
        }
      ],
      "name" : "SM_StairsU_01_railEnd"
    }
  ],
  "buffers" : [
    {
      "uri" : "SM_StairsU_01_railEnd.bin",
      "byteLength" : 19488
    }
  ],
  "bufferViews" : [
    {
      "buffer" : 0,
      "byteOffset" : 0,
      "byteLength" : 672
    },
    {
      "buffer" : 0,
      "byteOffset" : 672,
      "byteLength" : 4032
    },
    {
      "buffer" : 0,
      "byteOffset" : 4704,
      "byteLength" : 4032
    },
    {
      "buffer" : 0,
      "byteOffset" : 8736,
      "byteLength" : 5376
    },
    {
      "buffer" : 0,
      "byteOffset" : 14112,
      "byteLength" : 2688
    },
    {
      "buffer" : 0,
      "byteOffset" : 16800,
      "byteLength" : 2688
    }
  ],
  "accessors" : [
    {
      "bufferView" : 0,
      "componentType" : 5123,
      "count" : 336,
      "type" : "SCALAR"
    },
    {
      "bufferView" : 1,
      "min" : [ -1.06812e-06, -3.39796e-06, -2.15 ],
      "max" : [ 0.150001, 1.03449, -2.29426e-06 ],
      "componentType" : 5126,
      "count" : 336,
      "type" : "VEC3"
    },
    {
      "bufferView" : 2,
      "componentType" : 5126,
      "count" : 336,
      "type" : "VEC3"
    },
    {
      "bufferView" : 3,
      "componentType" : 5126,
      "count" : 336,
      "type" : "VEC4"
    },
    {
      "bufferView" : 4,
      "componentType" : 5126,
      "count" : 336,
      "type" : "VEC2"
    },
    {
      "bufferView" : 5,
      "componentType" : 5126,
      "count" : 336,
      "type" : "VEC2"
    }
  ]
}
