{
  "asset" : {
    "generator" : "UE Viewer (umodel) build 1590",
    "version" : "2.0"
  },
  "scene" : 0,
  "scenes" : [
    {
      "nodes" : [ 0 ]
    }
  ],
  "nodes" : [
    {
      "name" : "SM_shopFront_Entrance",
      "mesh" : 0
    }
  ],
  "materials" : [
    {
      "name" : "dummy_material_0",
      "pbrMetallicRoughness" : {
        "baseColorFactor" : [ 0.3, 0.3, 0.3, 1.0 ],
        "metallicFactor" : 0.1,
        "roughnessFactor" : 0.5
      }
    },
    {
      "name" : "dummy_material_1",
      "pbrMetallicRoughness" : {
        "baseColorFactor" : [ 0.9, 0.3, 0.3, 1.0 ],
        "metallicFactor" : 0.1,
        "roughnessFactor" : 0.5
      }
    },
    {
      "name" : "dummy_material_2",
      "pbrMetallicRoughness" : {
        "baseColorFactor" : [ 0.3, 0.9, 0.3, 1.0 ],
        "metallicFactor" : 0.1,
        "roughnessFactor" : 0.5
      }
    },
    {
      "name" : "dummy_material_3",
      "pbrMetallicRoughness" : {
        "baseColorFactor" : [ 0.3, 0.3, 0.9, 1.0 ],
        "metallicFactor" : 0.1,
        "roughnessFactor" : 0.5
      }
    },
    {
      "name" : "dummy_material_4",
      "pbrMetallicRoughness" : {
        "baseColorFactor" : [ 0.9, 0.9, 0.9, 1.0 ],
        "metallicFactor" : 0.1,
        "roughnessFactor" : 0.5
      }
    },
    {
      "name" : "dummy_material_5",
      "pbrMetallicRoughness" : {
        "baseColorFactor" : [ 0.9, 0.9, 0.3, 1.0 ],
        "metallicFactor" : 0.1,
        "roughnessFactor" : 0.5
      }
    },
    {
      "name" : "dummy_material_6",
      "pbrMetallicRoughness" : {
        "baseColorFactor" : [ 0.9, 0.3, 0.9, 1.0 ],
        "metallicFactor" : 0.1,
        "roughnessFactor" : 0.5
      }
    },
    {
      "name" : "dummy_material_7",
      "pbrMetallicRoughness" : {
        "baseColorFactor" : [ 0.3, 0.9, 0.9, 1.0 ],
        "metallicFactor" : 0.1,
        "roughnessFactor" : 0.5
      }
    },
    {
      "name" : "dummy_material_8",
      "pbrMetallicRoughness" : {
        "baseColorFactor" : [ 1, 0.3, 0.3, 1.0 ],
        "metallicFactor" : 0.1,
        "roughnessFactor" : 0.5
      }
    },
    {
      "name" : "dummy_material_9",
      "pbrMetallicRoughness" : {
        "baseColorFactor" : [ 0.6, 0.3, 0.3, 1.0 ],
        "metallicFactor" : 0.1,
        "roughnessFactor" : 0.5
      }
    },
    {
      "name" : "dummy_material_10",
      "pbrMetallicRoughness" : {
        "baseColorFactor" : [ 1, 0.9, 0.3, 1.0 ],
        "metallicFactor" : 0.1,
        "roughnessFactor" : 0.5
      }
    },
    {
      "name" : "dummy_material_11",
      "pbrMetallicRoughness" : {
        "baseColorFactor" : [ 1, 0.3, 0.9, 1.0 ],
        "metallicFactor" : 0.1,
        "roughnessFactor" : 0.5
      }
    }
  ],
  "meshes" : [
    {
      "primitives" : [
        {
          "attributes" : {
            "POSITION" : 1,
            "NORMAL" : 2,
            "TANGENT" : 3,
            "TEXCOORD_0" : 4,
            "TEXCOORD_1" : 5
          },
          "indices" : 0,
          "material" : 0
        },
        {
          "attributes" : {
            "POSITION" : 7,
            "NORMAL" : 8,
            "TANGENT" : 9,
            "TEXCOORD_0" : 10,
            "TEXCOORD_1" : 11
          },
          "indices" : 6,
          "material" : 1
        },
        {
          "attributes" : {
            "POSITION" : 13,
            "NORMAL" : 14,
            "TANGENT" : 15,
            "TEXCOORD_0" : 16,
            "TEXCOORD_1" : 17
          },
          "indices" : 12,
          "material" : 2
        },
        {
          "attributes" : {
            "POSITION" : 19,
            "NORMAL" : 20,
            "TANGENT" : 21,
            "TEXCOORD_0" : 22,
            "TEXCOORD_1" : 23
          },
          "indices" : 18,
          "material" : 3
        },
        {
          "attributes" : {
            "POSITION" : 25,
            "NORMAL" : 26,
            "TANGENT" : 27,
            "TEXCOORD_0" : 28,
            "TEXCOORD_1" : 29
          },
          "indices" : 24,
          "material" : 4
        },
        {
          "attributes" : {
            "POSITION" : 31,
            "NORMAL" : 32,
            "TANGENT" : 33,
            "TEXCOORD_0" : 34,
            "TEXCOORD_1" : 35
          },
          "indices" : 30,
          "material" : 5
        },
        {
          "attributes" : {
            "POSITION" : 37,
            "NORMAL" : 38,
            "TANGENT" : 39,
            "TEXCOORD_0" : 40,
            "TEXCOORD_1" : 41
          },
          "indices" : 36,
          "material" : 6
        },
        {
          "attributes" : {
            "POSITION" : 43,
            "NORMAL" : 44,
            "TANGENT" : 45,
            "TEXCOORD_0" : 46,
            "TEXCOORD_1" : 47
          },
          "indices" : 42,
          "material" : 7
        },
        {
          "attributes" : {
            "POSITION" : 49,
            "NORMAL" : 50,
            "TANGENT" : 51,
            "TEXCOORD_0" : 52,
            "TEXCOORD_1" : 53
          },
          "indices" : 48,
          "material" : 8
        },
        {
          "attributes" : {
            "POSITION" : 55,
            "NORMAL" : 56,
            "TANGENT" : 57,
            "TEXCOORD_0" : 58,
            "TEXCOORD_1" : 59
          },
          "indices" : 54,
          "material" : 9
        },
        {
          "attributes" : {
            "POSITION" : 61,
            "NORMAL" : 62,
            "TANGENT" : 63,
            "TEXCOORD_0" : 64,
            "TEXCOORD_1" : 65
          },
          "indices" : 60,
          "material" : 10
        },
        {
          "attributes" : {
            "POSITION" : 67,
            "NORMAL" : 68,
            "TANGENT" : 69,
            "TEXCOORD_0" : 70,
            "TEXCOORD_1" : 71
          },
          "indices" : 66,
          "material" : 11
        }
      ],
      "name" : "SM_shopFront_Entrance"
    }
  ],
  "buffers" : [
    {
      "uri" : "SM_shopFront_Entrance.bin",
      "byteLength" : 62988
    }
  ],
  "bufferViews" : [
    {
      "buffer" : 0,
      "byteOffset" : 0,
      "byteLength" : 12
    },
    {
      "buffer" : 0,
      "byteOffset" : 12,
      "byteLength" : 72
    },
    {
      "buffer" : 0,
      "byteOffset" : 84,
      "byteLength" : 72
    },
    {
      "buffer" : 0,
      "byteOffset" : 156,
      "byteLength" : 96
    },
    {
      "buffer" : 0,
      "byteOffset" : 252,
      "byteLength" : 48
    },
    {
      "buffer" : 0,
      "byteOffset" : 300,
      "byteLength" : 48
    },
    {
      "buffer" : 0,
      "byteOffset" : 348,
      "byteLength" : 24
    },
    {
      "buffer" : 0,
      "byteOffset" : 372,
      "byteLength" : 144
    },
    {
      "buffer" : 0,
      "byteOffset" : 516,
      "byteLength" : 144
    },
    {
      "buffer" : 0,
      "byteOffset" : 660,
      "byteLength" : 192
    },
    {
      "buffer" : 0,
      "byteOffset" : 852,
      "byteLength" : 96
    },
    {
      "buffer" : 0,
      "byteOffset" : 948,
      "byteLength" : 96
    },
    {
      "buffer" : 0,
      "byteOffset" : 1044,
      "byteLength" : 12
    },
    {
      "buffer" : 0,
      "byteOffset" : 1056,
      "byteLength" : 72
    },
    {
      "buffer" : 0,
      "byteOffset" : 1128,
      "byteLength" : 72
    },
    {
      "buffer" : 0,
      "byteOffset" : 1200,
      "byteLength" : 96
    },
    {
      "buffer" : 0,
      "byteOffset" : 1296,
      "byteLength" : 48
    },
    {
      "buffer" : 0,
      "byteOffset" : 1344,
      "byteLength" : 48
    },
    {
      "buffer" : 0,
      "byteOffset" : 1392,
      "byteLength" : 192
    },
    {
      "buffer" : 0,
      "byteOffset" : 1584,
      "byteLength" : 1152
    },
    {
      "buffer" : 0,
      "byteOffset" : 2736,
      "byteLength" : 1152
    },
    {
      "buffer" : 0,
      "byteOffset" : 3888,
      "byteLength" : 1536
    },
    {
      "buffer" : 0,
      "byteOffset" : 5424,
      "byteLength" : 768
    },
    {
      "buffer" : 0,
      "byteOffset" : 6192,
      "byteLength" : 768
    },
    {
      "buffer" : 0,
      "byteOffset" : 6960,
      "byteLength" : 180
    },
    {
      "buffer" : 0,
      "byteOffset" : 7140,
      "byteLength" : 1080
    },
    {
      "buffer" : 0,
      "byteOffset" : 8220,
      "byteLength" : 1080
    },
    {
      "buffer" : 0,
      "byteOffset" : 9300,
      "byteLength" : 1440
    },
    {
      "buffer" : 0,
      "byteOffset" : 10740,
      "byteLength" : 720
    },
    {
      "buffer" : 0,
      "byteOffset" : 11460,
      "byteLength" : 720
    },
    {
      "buffer" : 0,
      "byteOffset" : 12180,
      "byteLength" : 1464
    },
    {
      "buffer" : 0,
      "byteOffset" : 13644,
      "byteLength" : 8784
    },
    {
      "buffer" : 0,
      "byteOffset" : 22428,
      "byteLength" : 8784
    },
    {
      "buffer" : 0,
      "byteOffset" : 31212,
      "byteLength" : 11712
    },
    {
      "buffer" : 0,
      "byteOffset" : 42924,
      "byteLength" : 5856
    },
    {
      "buffer" : 0,
      "byteOffset" : 48780,
      "byteLength" : 5856
    },
    {
      "buffer" : 0,
      "byteOffset" : 54636,
      "byteLength" : 24
    },
    {
      "buffer" : 0,
      "byteOffset" : 54660,
      "byteLength" : 144
    },
    {
      "buffer" : 0,
      "byteOffset" : 54804,
      "byteLength" : 144
    },
    {
      "buffer" : 0,
      "byteOffset" : 54948,
      "byteLength" : 192
    },
    {
      "buffer" : 0,
      "byteOffset" : 55140,
      "byteLength" : 96
    },
    {
      "buffer" : 0,
      "byteOffset" : 55236,
      "byteLength" : 96
    },
    {
      "buffer" : 0,
      "byteOffset" : 55332,
      "byteLength" : 24
    },
    {
      "buffer" : 0,
      "byteOffset" : 55356,
      "byteLength" : 144
    },
    {
      "buffer" : 0,
      "byteOffset" : 55500,
      "byteLength" : 144
    },
    {
      "buffer" : 0,
      "byteOffset" : 55644,
      "byteLength" : 192
    },
    {
      "buffer" : 0,
      "byteOffset" : 55836,
      "byteLength" : 96
    },
    {
      "buffer" : 0,
      "byteOffset" : 55932,
      "byteLength" : 96
    },
    {
      "buffer" : 0,
      "byteOffset" : 56028,
      "byteLength" : 12
    },
    {
      "buffer" : 0,
      "byteOffset" : 56040,
      "byteLength" : 72
    },
    {
      "buffer" : 0,
      "byteOffset" : 56112,
      "byteLength" : 72
    },
    {
      "buffer" : 0,
      "byteOffset" : 56184,
      "byteLength" : 96
    },
    {
      "buffer" : 0,
      "byteOffset" : 56280,
      "byteLength" : 48
    },
    {
      "buffer" : 0,
      "byteOffset" : 56328,
      "byteLength" : 48
    },
    {
      "buffer" : 0,
      "byteOffset" : 56376,
      "byteLength" : 144
    },
    {
      "buffer" : 0,
      "byteOffset" : 56520,
      "byteLength" : 864
    },
    {
      "buffer" : 0,
      "byteOffset" : 57384,
      "byteLength" : 864
    },
    {
      "buffer" : 0,
      "byteOffset" : 58248,
      "byteLength" : 1152
    },
    {
      "buffer" : 0,
      "byteOffset" : 59400,
      "byteLength" : 576
    },
    {
      "buffer" : 0,
      "byteOffset" : 59976,
      "byteLength" : 576
    },
    {
      "buffer" : 0,
      "byteOffset" : 60552,
      "byteLength" : 60
    },
    {
      "buffer" : 0,
      "byteOffset" : 60612,
      "byteLength" : 360
    },
    {
      "buffer" : 0,
      "byteOffset" : 60972,
      "byteLength" : 360
    },
    {
      "buffer" : 0,
      "byteOffset" : 61332,
      "byteLength" : 480
    },
    {
      "buffer" : 0,
      "byteOffset" : 61812,
      "byteLength" : 240
    },
    {
      "buffer" : 0,
      "byteOffset" : 62052,
      "byteLength" : 240
    },
    {
      "buffer" : 0,
      "byteOffset" : 62292,
      "byteLength" : 24
    },
    {
      "buffer" : 0,
      "byteOffset" : 62316,
      "byteLength" : 144
    },
    {
      "buffer" : 0,
      "byteOffset" : 62460,
      "byteLength" : 144
    },
    {
      "buffer" : 0,
      "byteOffset" : 62604,
      "byteLength" : 192
    },
    {
      "buffer" : 0,
      "byteOffset" : 62796,
      "byteLength" : 96
    },
    {
      "buffer" : 0,
      "byteOffset" : 62892,
      "byteLength" : 96
    }
  ],
  "accessors" : [
    {
      "bufferView" : 0,
      "componentType" : 5123,
      "count" : 6,
      "type" : "SCALAR"
    },
    {
      "bufferView" : 1,
      "min" : [ 0.150001, -2.12739e-21, -0.899981 ],
      "max" : [ 0.150002, 3, 3.4743e-05 ],
      "componentType" : 5126,
      "count" : 6,
      "type" : "VEC3"
    },
    {
      "bufferView" : 2,
      "componentType" : 5126,
      "count" : 6,
      "type" : "VEC3"
    },
    {
      "bufferView" : 3,
      "componentType" : 5126,
      "count" : 6,
      "type" : "VEC4"
    },
    {
      "bufferView" : 4,
      "componentType" : 5126,
      "count" : 6,
      "type" : "VEC2"
    },
    {
      "bufferView" : 5,
      "componentType" : 5126,
      "count" : 6,
      "type" : "VEC2"
    },
    {
      "bufferView" : 6,
      "componentType" : 5123,
      "count" : 12,
      "type" : "SCALAR"
    },
    {
      "bufferView" : 7,
      "min" : [ -1.15, -1.83129e-21, -0.89999 ],
      "max" : [ 2.44142e-06, 3, 2.99072e-05 ],
      "componentType" : 5126,
      "count" : 12,
      "type" : "VEC3"
    },
    {
      "bufferView" : 8,
      "componentType" : 5126,
      "count" : 12,
      "type" : "VEC3"
    },
    {
      "bufferView" : 9,
      "componentType" : 5126,
      "count" : 12,
      "type" : "VEC4"
    },
    {
      "bufferView" : 10,
      "componentType" : 5126,
      "count" : 12,
      "type" : "VEC2"
    },
    {
      "bufferView" : 11,
      "componentType" : 5126,
      "count" : 12,
      "type" : "VEC2"
    },
    {
      "bufferView" : 12,
      "componentType" : 5123,
      "count" : 6,
      "type" : "SCALAR"
    },
    {
      "bufferView" : 13,
      "min" : [ -1.15, 5.5108e-17, -0.89999 ],
      "max" : [ 0.150002, 3, -0.899981 ],
      "componentType" : 5126,
      "count" : 6,
      "type" : "VEC3"
    },
    {
      "bufferView" : 14,
      "componentType" : 5126,
      "count" : 6,
      "type" : "VEC3"
    },
    {
      "bufferView" : 15,
      "componentType" : 5126,
      "count" : 6,
      "type" : "VEC4"
    },
    {
      "bufferView" : 16,
      "componentType" : 5126,
      "count" : 6,
      "type" : "VEC2"
    },
    {
      "bufferView" : 17,
      "componentType" : 5126,
      "count" : 6,
      "type" : "VEC2"
    },
    {
      "bufferView" : 18,
      "componentType" : 5123,
      "count" : 96,
      "type" : "SCALAR"
    },
    {
      "bufferView" : 19,
      "min" : [ -1.24002, 6.1231e-17, -3 ],
      "max" : [ -0.999995, 3, -0.999978 ],
      "componentType" : 5126,
      "count" : 96,
      "type" : "VEC3"
    },
    {
      "bufferView" : 20,
      "componentType" : 5126,
      "count" : 96,
      "type" : "VEC3"
    },
    {
      "bufferView" : 21,
      "componentType" : 5126,
      "count" : 96,
      "type" : "VEC4"
    },
    {
      "bufferView" : 22,
      "componentType" : 5126,
      "count" : 96,
      "type" : "VEC2"
    },
    {
      "bufferView" : 23,
      "componentType" : 5126,
      "count" : 96,
      "type" : "VEC2"
    },
    {
      "bufferView" : 24,
      "componentType" : 5123,
      "count" : 90,
      "type" : "SCALAR"
    },
    {
      "bufferView" : 25,
      "min" : [ -1.24, 8.13954e-17, -2.67071 ],
      "max" : [ -0.959995, 2.27071, -1.32929 ],
      "componentType" : 5126,
      "count" : 90,
      "type" : "VEC3"
    },
    {
      "bufferView" : 26,
      "componentType" : 5126,
      "count" : 90,
      "type" : "VEC3"
    },
    {
      "bufferView" : 27,
      "componentType" : 5126,
      "count" : 90,
      "type" : "VEC4"
    },
    {
      "bufferView" : 28,
      "componentType" : 5126,
      "count" : 90,
      "type" : "VEC2"
    },
    {
      "bufferView" : 29,
      "componentType" : 5126,
      "count" : 90,
      "type" : "VEC2"
    },
    {
      "bufferView" : 30,
      "componentType" : 5123,
      "count" : 732,
      "type" : "SCALAR"
    },
    {
      "bufferView" : 31,
      "min" : [ -1.3496, 5.20469e-17, -3.14999 ],
      "max" : [ 0.199569, 3, -0.84999 ],
      "componentType" : 5126,
      "count" : 732,
      "type" : "VEC3"
    },
    {
      "bufferView" : 32,
      "componentType" : 5126,
      "count" : 732,
      "type" : "VEC3"
    },
    {
      "bufferView" : 33,
      "componentType" : 5126,
      "count" : 732,
      "type" : "VEC4"
    },
    {
      "bufferView" : 34,
      "componentType" : 5126,
      "count" : 732,
      "type" : "VEC2"
    },
    {
      "bufferView" : 35,
      "componentType" : 5126,
      "count" : 732,
      "type" : "VEC2"
    },
    {
      "bufferView" : 36,
      "componentType" : 5123,
      "count" : 12,
      "type" : "SCALAR"
    },
    {
      "bufferView" : 37,
      "min" : [ -1.15004, 1.89819e-16, -3.99998 ],
      "max" : [ 0.150002, 3, -3.09999 ],
      "componentType" : 5126,
      "count" : 12,
      "type" : "VEC3"
    },
    {
      "bufferView" : 38,
      "componentType" : 5126,
      "count" : 12,
      "type" : "VEC3"
    },
    {
      "bufferView" : 39,
      "componentType" : 5126,
      "count" : 12,
      "type" : "VEC4"
    },
    {
      "bufferView" : 40,
      "componentType" : 5126,
      "count" : 12,
      "type" : "VEC2"
    },
    {
      "bufferView" : 41,
      "componentType" : 5126,
      "count" : 12,
      "type" : "VEC2"
    },
    {
      "bufferView" : 42,
      "componentType" : 5123,
      "count" : 12,
      "type" : "SCALAR"
    },
    {
      "bufferView" : 43,
      "min" : [ -1.15003, 1.8982e-16, -3.99999 ],
      "max" : [ -0.149999, 3, -3.09999 ],
      "componentType" : 5126,
      "count" : 12,
      "type" : "VEC3"
    },
    {
      "bufferView" : 44,
      "componentType" : 5126,
      "count" : 12,
      "type" : "VEC3"
    },
    {
      "bufferView" : 45,
      "componentType" : 5126,
      "count" : 12,
      "type" : "VEC4"
    },
    {
      "bufferView" : 46,
      "componentType" : 5126,
      "count" : 12,
      "type" : "VEC2"
    },
    {
      "bufferView" : 47,
      "componentType" : 5126,
      "count" : 12,
      "type" : "VEC2"
    },
    {
      "bufferView" : 48,
      "componentType" : 5123,
      "count" : 6,
      "type" : "SCALAR"
    },
    {
      "bufferView" : 49,
      "min" : [ 2.44142e-06, -2.12739e-21, 2.99072e-05 ],
      "max" : [ 0.150001, 3, 3.4743e-05 ],
      "componentType" : 5126,
      "count" : 6,
      "type" : "VEC3"
    },
    {
      "bufferView" : 50,
      "componentType" : 5126,
      "count" : 6,
      "type" : "VEC3"
    },
    {
      "bufferView" : 51,
      "componentType" : 5126,
      "count" : 6,
      "type" : "VEC4"
    },
    {
      "bufferView" : 52,
      "componentType" : 5126,
      "count" : 6,
      "type" : "VEC2"
    },
    {
      "bufferView" : 53,
      "componentType" : 5126,
      "count" : 6,
      "type" : "VEC2"
    },
    {
      "bufferView" : 54,
      "componentType" : 5123,
      "count" : 72,
      "type" : "SCALAR"
    },
    {
      "bufferView" : 55,
      "min" : [ -1.29962, 2.65816, -3.12384 ],
      "max" : [ 0.149566, 3, -0.876163 ],
      "componentType" : 5126,
      "count" : 72,
      "type" : "VEC3"
    },
    {
      "bufferView" : 56,
      "componentType" : 5126,
      "count" : 72,
      "type" : "VEC3"
    },
    {
      "bufferView" : 57,
      "componentType" : 5126,
      "count" : 72,
      "type" : "VEC4"
    },
    {
      "bufferView" : 58,
      "componentType" : 5126,
      "count" : 72,
      "type" : "VEC2"
    },
    {
      "bufferView" : 59,
      "componentType" : 5126,
      "count" : 72,
      "type" : "VEC2"
    },
    {
      "bufferView" : 60,
      "componentType" : 5123,
      "count" : 30,
      "type" : "SCALAR"
    },
    {
      "bufferView" : 61,
      "min" : [ -1, 6.12322e-17, -3 ],
      "max" : [ 0.199991, 0.02, -0.999998 ],
      "componentType" : 5126,
      "count" : 30,
      "type" : "VEC3"
    },
    {
      "bufferView" : 62,
      "componentType" : 5126,
      "count" : 30,
      "type" : "VEC3"
    },
    {
      "bufferView" : 63,
      "componentType" : 5126,
      "count" : 30,
      "type" : "VEC4"
    },
    {
      "bufferView" : 64,
      "componentType" : 5126,
      "count" : 30,
      "type" : "VEC2"
    },
    {
      "bufferView" : 65,
      "componentType" : 5126,
      "count" : 30,
      "type" : "VEC2"
    },
    {
      "bufferView" : 66,
      "componentType" : 5123,
      "count" : 12,
      "type" : "SCALAR"
    },
    {
      "bufferView" : 67,
      "min" : [ 0.149568, 3, -3.12399 ],
      "max" : [ 0.199569, 3, -0.875988 ],
      "componentType" : 5126,
      "count" : 12,
      "type" : "VEC3"
    },
    {
      "bufferView" : 68,
      "componentType" : 5126,
      "count" : 12,
      "type" : "VEC3"
    },
    {
      "bufferView" : 69,
      "componentType" : 5126,
      "count" : 12,
      "type" : "VEC4"
    },
    {
      "bufferView" : 70,
      "componentType" : 5126,
      "count" : 12,
      "type" : "VEC2"
    },
    {
      "bufferView" : 71,
      "componentType" : 5126,
      "count" : 12,
      "type" : "VEC2"
    }
  ]
}
