{
  "asset" : {
    "generator" : "UE Viewer (umodel) build 1590",
    "version" : "2.0"
  },
  "scene" : 0,
  "scenes" : [
    {
      "nodes" : [ 0 ]
    }
  ],
  "nodes" : [
    {
      "name" : "SM_shopFront_03a",
      "mesh" : 0
    }
  ],
  "materials" : [
    {
      "name" : "dummy_material_0",
      "pbrMetallicRoughness" : {
        "baseColorFactor" : [ 0.3, 0.3, 0.3, 1.0 ],
        "metallicFactor" : 0.1,
        "roughnessFactor" : 0.5
      }
    },
    {
      "name" : "dummy_material_1",
      "pbrMetallicRoughness" : {
        "baseColorFactor" : [ 0.9, 0.3, 0.3, 1.0 ],
        "metallicFactor" : 0.1,
        "roughnessFactor" : 0.5
      }
    },
    {
      "name" : "dummy_material_2",
      "pbrMetallicRoughness" : {
        "baseColorFactor" : [ 0.3, 0.9, 0.3, 1.0 ],
        "metallicFactor" : 0.1,
        "roughnessFactor" : 0.5
      }
    },
    {
      "name" : "dummy_material_3",
      "pbrMetallicRoughness" : {
        "baseColorFactor" : [ 0.3, 0.3, 0.9, 1.0 ],
        "metallicFactor" : 0.1,
        "roughnessFactor" : 0.5
      }
    },
    {
      "name" : "dummy_material_4",
      "pbrMetallicRoughness" : {
        "baseColorFactor" : [ 0.9, 0.9, 0.9, 1.0 ],
        "metallicFactor" : 0.1,
        "roughnessFactor" : 0.5
      }
    },
    {
      "name" : "dummy_material_5",
      "pbrMetallicRoughness" : {
        "baseColorFactor" : [ 0.9, 0.9, 0.3, 1.0 ],
        "metallicFactor" : 0.1,
        "roughnessFactor" : 0.5
      }
    },
    {
      "name" : "dummy_material_6",
      "pbrMetallicRoughness" : {
        "baseColorFactor" : [ 0.9, 0.3, 0.9, 1.0 ],
        "metallicFactor" : 0.1,
        "roughnessFactor" : 0.5
      }
    }
  ],
  "meshes" : [
    {
      "primitives" : [
        {
          "attributes" : {
            "POSITION" : 1,
            "NORMAL" : 2,
            "TANGENT" : 3,
            "TEXCOORD_0" : 4,
            "TEXCOORD_1" : 5
          },
          "indices" : 0,
          "material" : 0
        },
        {
          "attributes" : {
            "POSITION" : 7,
            "NORMAL" : 8,
            "TANGENT" : 9,
            "TEXCOORD_0" : 10,
            "TEXCOORD_1" : 11
          },
          "indices" : 6,
          "material" : 1
        },
        {
          "attributes" : {
            "POSITION" : 13,
            "NORMAL" : 14,
            "TANGENT" : 15,
            "TEXCOORD_0" : 16,
            "TEXCOORD_1" : 17
          },
          "indices" : 12,
          "material" : 2
        },
        {
          "attributes" : {
            "POSITION" : 19,
            "NORMAL" : 20,
            "TANGENT" : 21,
            "TEXCOORD_0" : 22,
            "TEXCOORD_1" : 23
          },
          "indices" : 18,
          "material" : 3
        },
        {
          "attributes" : {
            "POSITION" : 25,
            "NORMAL" : 26,
            "TANGENT" : 27,
            "TEXCOORD_0" : 28,
            "TEXCOORD_1" : 29
          },
          "indices" : 24,
          "material" : 4
        },
        {
          "attributes" : {
            "POSITION" : 31,
            "NORMAL" : 32,
            "TANGENT" : 33,
            "TEXCOORD_0" : 34,
            "TEXCOORD_1" : 35
          },
          "indices" : 30,
          "material" : 5
        },
        {
          "attributes" : {
            "POSITION" : 37,
            "NORMAL" : 38,
            "TANGENT" : 39,
            "TEXCOORD_0" : 40,
            "TEXCOORD_1" : 41
          },
          "indices" : 36,
          "material" : 6
        }
      ],
      "name" : "SM_shopFront_03a"
    }
  ],
  "buffers" : [
    {
      "uri" : "SM_shopFront_03a.bin",
      "byteLength" : 61248
    }
  ],
  "bufferViews" : [
    {
      "buffer" : 0,
      "byteOffset" : 0,
      "byteLength" : 24
    },
    {
      "buffer" : 0,
      "byteOffset" : 24,
      "byteLength" : 144
    },
    {
      "buffer" : 0,
      "byteOffset" : 168,
      "byteLength" : 144
    },
    {
      "buffer" : 0,
      "byteOffset" : 312,
      "byteLength" : 192
    },
    {
      "buffer" : 0,
      "byteOffset" : 504,
      "byteLength" : 96
    },
    {
      "buffer" : 0,
      "byteOffset" : 600,
      "byteLength" : 96
    },
    {
      "buffer" : 0,
      "byteOffset" : 696,
      "byteLength" : 24
    },
    {
      "buffer" : 0,
      "byteOffset" : 720,
      "byteLength" : 144
    },
    {
      "buffer" : 0,
      "byteOffset" : 864,
      "byteLength" : 144
    },
    {
      "buffer" : 0,
      "byteOffset" : 1008,
      "byteLength" : 192
    },
    {
      "buffer" : 0,
      "byteOffset" : 1200,
      "byteLength" : 96
    },
    {
      "buffer" : 0,
      "byteOffset" : 1296,
      "byteLength" : 96
    },
    {
      "buffer" : 0,
      "byteOffset" : 1392,
      "byteLength" : 96
    },
    {
      "buffer" : 0,
      "byteOffset" : 1488,
      "byteLength" : 576
    },
    {
      "buffer" : 0,
      "byteOffset" : 2064,
      "byteLength" : 576
    },
    {
      "buffer" : 0,
      "byteOffset" : 2640,
      "byteLength" : 768
    },
    {
      "buffer" : 0,
      "byteOffset" : 3408,
      "byteLength" : 384
    },
    {
      "buffer" : 0,
      "byteOffset" : 3792,
      "byteLength" : 384
    },
    {
      "buffer" : 0,
      "byteOffset" : 4176,
      "byteLength" : 12
    },
    {
      "buffer" : 0,
      "byteOffset" : 4188,
      "byteLength" : 72
    },
    {
      "buffer" : 0,
      "byteOffset" : 4260,
      "byteLength" : 72
    },
    {
      "buffer" : 0,
      "byteOffset" : 4332,
      "byteLength" : 96
    },
    {
      "buffer" : 0,
      "byteOffset" : 4428,
      "byteLength" : 48
    },
    {
      "buffer" : 0,
      "byteOffset" : 4476,
      "byteLength" : 48
    },
    {
      "buffer" : 0,
      "byteOffset" : 4524,
      "byteLength" : 96
    },
    {
      "buffer" : 0,
      "byteOffset" : 4620,
      "byteLength" : 576
    },
    {
      "buffer" : 0,
      "byteOffset" : 5196,
      "byteLength" : 576
    },
    {
      "buffer" : 0,
      "byteOffset" : 5772,
      "byteLength" : 768
    },
    {
      "buffer" : 0,
      "byteOffset" : 6540,
      "byteLength" : 384
    },
    {
      "buffer" : 0,
      "byteOffset" : 6924,
      "byteLength" : 384
    },
    {
      "buffer" : 0,
      "byteOffset" : 7308,
      "byteLength" : 12
    },
    {
      "buffer" : 0,
      "byteOffset" : 7320,
      "byteLength" : 72
    },
    {
      "buffer" : 0,
      "byteOffset" : 7392,
      "byteLength" : 72
    },
    {
      "buffer" : 0,
      "byteOffset" : 7464,
      "byteLength" : 96
    },
    {
      "buffer" : 0,
      "byteOffset" : 7560,
      "byteLength" : 48
    },
    {
      "buffer" : 0,
      "byteOffset" : 7608,
      "byteLength" : 48
    },
    {
      "buffer" : 0,
      "byteOffset" : 7656,
      "byteLength" : 1848
    },
    {
      "buffer" : 0,
      "byteOffset" : 9504,
      "byteLength" : 11088
    },
    {
      "buffer" : 0,
      "byteOffset" : 20592,
      "byteLength" : 11088
    },
    {
      "buffer" : 0,
      "byteOffset" : 31680,
      "byteLength" : 14784
    },
    {
      "buffer" : 0,
      "byteOffset" : 46464,
      "byteLength" : 7392
    },
    {
      "buffer" : 0,
      "byteOffset" : 53856,
      "byteLength" : 7392
    }
  ],
  "accessors" : [
    {
      "bufferView" : 0,
      "componentType" : 5123,
      "count" : 12,
      "type" : "SCALAR"
    },
    {
      "bufferView" : 1,
      "min" : [ 0.149999, -1.11831e-21, -8 ],
      "max" : [ 0.150001, 3, 1.82635e-05 ],
      "componentType" : 5126,
      "count" : 12,
      "type" : "VEC3"
    },
    {
      "bufferView" : 2,
      "componentType" : 5126,
      "count" : 12,
      "type" : "VEC3"
    },
    {
      "bufferView" : 3,
      "componentType" : 5126,
      "count" : 12,
      "type" : "VEC4"
    },
    {
      "bufferView" : 4,
      "componentType" : 5126,
      "count" : 12,
      "type" : "VEC2"
    },
    {
      "bufferView" : 5,
      "componentType" : 5126,
      "count" : 12,
      "type" : "VEC2"
    },
    {
      "bufferView" : 6,
      "componentType" : 5123,
      "count" : 12,
      "type" : "SCALAR"
    },
    {
      "bufferView" : 7,
      "min" : [ -0.150001, -5.26109e-22, -8.00001 ],
      "max" : [ -0.149999, 3, 8.59201e-06 ],
      "componentType" : 5126,
      "count" : 12,
      "type" : "VEC3"
    },
    {
      "bufferView" : 8,
      "componentType" : 5126,
      "count" : 12,
      "type" : "VEC3"
    },
    {
      "bufferView" : 9,
      "componentType" : 5126,
      "count" : 12,
      "type" : "VEC4"
    },
    {
      "bufferView" : 10,
      "componentType" : 5126,
      "count" : 12,
      "type" : "VEC2"
    },
    {
      "bufferView" : 11,
      "componentType" : 5126,
      "count" : 12,
      "type" : "VEC2"
    },
    {
      "bufferView" : 12,
      "componentType" : 5123,
      "count" : 48,
      "type" : "SCALAR"
    },
    {
      "bufferView" : 13,
      "min" : [ 0.0399835, 2.5, -3.94999 ],
      "max" : [ 0.239983, 2.8, -2.04999 ],
      "componentType" : 5126,
      "count" : 48,
      "type" : "VEC3"
    },
    {
      "bufferView" : 14,
      "componentType" : 5126,
      "count" : 48,
      "type" : "VEC3"
    },
    {
      "bufferView" : 15,
      "componentType" : 5126,
      "count" : 48,
      "type" : "VEC4"
    },
    {
      "bufferView" : 16,
      "componentType" : 5126,
      "count" : 48,
      "type" : "VEC2"
    },
    {
      "bufferView" : 17,
      "componentType" : 5126,
      "count" : 48,
      "type" : "VEC2"
    },
    {
      "bufferView" : 18,
      "componentType" : 5123,
      "count" : 6,
      "type" : "SCALAR"
    },
    {
      "bufferView" : 19,
      "min" : [ -0.009997, 0.84, -3.89999 ],
      "max" : [ -0.00999695, 2.3, -2.09999 ],
      "componentType" : 5126,
      "count" : 6,
      "type" : "VEC3"
    },
    {
      "bufferView" : 20,
      "componentType" : 5126,
      "count" : 6,
      "type" : "VEC3"
    },
    {
      "bufferView" : 21,
      "componentType" : 5126,
      "count" : 6,
      "type" : "VEC4"
    },
    {
      "bufferView" : 22,
      "componentType" : 5126,
      "count" : 6,
      "type" : "VEC2"
    },
    {
      "bufferView" : 23,
      "componentType" : 5126,
      "count" : 6,
      "type" : "VEC2"
    },
    {
      "bufferView" : 24,
      "componentType" : 5123,
      "count" : 48,
      "type" : "SCALAR"
    },
    {
      "bufferView" : 25,
      "min" : [ 0.0399841, 2.5, -5.94999 ],
      "max" : [ 0.239984, 2.8, -4.04999 ],
      "componentType" : 5126,
      "count" : 48,
      "type" : "VEC3"
    },
    {
      "bufferView" : 26,
      "componentType" : 5126,
      "count" : 48,
      "type" : "VEC3"
    },
    {
      "bufferView" : 27,
      "componentType" : 5126,
      "count" : 48,
      "type" : "VEC4"
    },
    {
      "bufferView" : 28,
      "componentType" : 5126,
      "count" : 48,
      "type" : "VEC2"
    },
    {
      "bufferView" : 29,
      "componentType" : 5126,
      "count" : 48,
      "type" : "VEC2"
    },
    {
      "bufferView" : 30,
      "componentType" : 5123,
      "count" : 6,
      "type" : "SCALAR"
    },
    {
      "bufferView" : 31,
      "min" : [ -0.00999701, 0.84, -5.89999 ],
      "max" : [ -0.00999636, 2.3, -4.09999 ],
      "componentType" : 5126,
      "count" : 6,
      "type" : "VEC3"
    },
    {
      "bufferView" : 32,
      "componentType" : 5126,
      "count" : 6,
      "type" : "VEC3"
    },
    {
      "bufferView" : 33,
      "componentType" : 5126,
      "count" : 6,
      "type" : "VEC4"
    },
    {
      "bufferView" : 34,
      "componentType" : 5126,
      "count" : 6,
      "type" : "VEC2"
    },
    {
      "bufferView" : 35,
      "componentType" : 5126,
      "count" : 6,
      "type" : "VEC2"
    },
    {
      "bufferView" : 36,
      "componentType" : 5123,
      "count" : 924,
      "type" : "SCALAR"
    },
    {
      "bufferView" : 37,
      "min" : [ -0.159997, 1.10218e-16, -6.2 ],
      "max" : [ 0.160023, 2.99999, -1.79999 ],
      "componentType" : 5126,
      "count" : 924,
      "type" : "VEC3"
    },
    {
      "bufferView" : 38,
      "componentType" : 5126,
      "count" : 924,
      "type" : "VEC3"
    },
    {
      "bufferView" : 39,
      "componentType" : 5126,
      "count" : 924,
      "type" : "VEC4"
    },
    {
      "bufferView" : 40,
      "componentType" : 5126,
      "count" : 924,
      "type" : "VEC2"
    },
    {
      "bufferView" : 41,
      "componentType" : 5126,
      "count" : 924,
      "type" : "VEC2"
    }
  ]
}
