{
  "asset" : {
    "generator" : "UE Viewer (umodel) build 1590",
    "version" : "2.0"
  },
  "scene" : 0,
  "scenes" : [
    {
      "nodes" : [ 0 ]
    }
  ],
  "nodes" : [
    {
      "name" : "SM_shopFront_03b",
      "mesh" : 0
    }
  ],
  "materials" : [
    {
      "name" : "dummy_material_0",
      "pbrMetallicRoughness" : {
        "baseColorFactor" : [ 0.3, 0.3, 0.3, 1.0 ],
        "metallicFactor" : 0.1,
        "roughnessFactor" : 0.5
      }
    },
    {
      "name" : "dummy_material_1",
      "pbrMetallicRoughness" : {
        "baseColorFactor" : [ 0.9, 0.3, 0.3, 1.0 ],
        "metallicFactor" : 0.1,
        "roughnessFactor" : 0.5
      }
    },
    {
      "name" : "dummy_material_2",
      "pbrMetallicRoughness" : {
        "baseColorFactor" : [ 0.3, 0.9, 0.3, 1.0 ],
        "metallicFactor" : 0.1,
        "roughnessFactor" : 0.5
      }
    },
    {
      "name" : "dummy_material_3",
      "pbrMetallicRoughness" : {
        "baseColorFactor" : [ 0.3, 0.3, 0.9, 1.0 ],
        "metallicFactor" : 0.1,
        "roughnessFactor" : 0.5
      }
    },
    {
      "name" : "dummy_material_4",
      "pbrMetallicRoughness" : {
        "baseColorFactor" : [ 0.9, 0.9, 0.9, 1.0 ],
        "metallicFactor" : 0.1,
        "roughnessFactor" : 0.5
      }
    },
    {
      "name" : "dummy_material_5",
      "pbrMetallicRoughness" : {
        "baseColorFactor" : [ 0.9, 0.9, 0.3, 1.0 ],
        "metallicFactor" : 0.1,
        "roughnessFactor" : 0.5
      }
    },
    {
      "name" : "dummy_material_6",
      "pbrMetallicRoughness" : {
        "baseColorFactor" : [ 0.9, 0.3, 0.9, 1.0 ],
        "metallicFactor" : 0.1,
        "roughnessFactor" : 0.5
      }
    },
    {
      "name" : "dummy_material_7",
      "pbrMetallicRoughness" : {
        "baseColorFactor" : [ 0.3, 0.9, 0.9, 1.0 ],
        "metallicFactor" : 0.1,
        "roughnessFactor" : 0.5
      }
    }
  ],
  "meshes" : [
    {
      "primitives" : [
        {
          "attributes" : {
            "POSITION" : 1,
            "NORMAL" : 2,
            "TANGENT" : 3,
            "TEXCOORD_0" : 4,
            "TEXCOORD_1" : 5
          },
          "indices" : 0,
          "material" : 0
        },
        {
          "attributes" : {
            "POSITION" : 7,
            "NORMAL" : 8,
            "TANGENT" : 9,
            "TEXCOORD_0" : 10,
            "TEXCOORD_1" : 11
          },
          "indices" : 6,
          "material" : 1
        },
        {
          "attributes" : {
            "POSITION" : 13,
            "NORMAL" : 14,
            "TANGENT" : 15,
            "TEXCOORD_0" : 16,
            "TEXCOORD_1" : 17
          },
          "indices" : 12,
          "material" : 2
        },
        {
          "attributes" : {
            "POSITION" : 19,
            "NORMAL" : 20,
            "TANGENT" : 21,
            "TEXCOORD_0" : 22,
            "TEXCOORD_1" : 23
          },
          "indices" : 18,
          "material" : 3
        },
        {
          "attributes" : {
            "POSITION" : 25,
            "NORMAL" : 26,
            "TANGENT" : 27,
            "TEXCOORD_0" : 28,
            "TEXCOORD_1" : 29
          },
          "indices" : 24,
          "material" : 4
        },
        {
          "attributes" : {
            "POSITION" : 31,
            "NORMAL" : 32,
            "TANGENT" : 33,
            "TEXCOORD_0" : 34,
            "TEXCOORD_1" : 35
          },
          "indices" : 30,
          "material" : 5
        },
        {
          "attributes" : {
            "POSITION" : 37,
            "NORMAL" : 38,
            "TANGENT" : 39,
            "TEXCOORD_0" : 40,
            "TEXCOORD_1" : 41
          },
          "indices" : 36,
          "material" : 6
        },
        {
          "attributes" : {
            "POSITION" : 43,
            "NORMAL" : 44,
            "TANGENT" : 45,
            "TEXCOORD_0" : 46,
            "TEXCOORD_1" : 47
          },
          "indices" : 42,
          "material" : 7
        }
      ],
      "name" : "SM_shopFront_03b"
    }
  ],
  "buffers" : [
    {
      "uri" : "SM_shopFront_03b.bin",
      "byteLength" : 87348
    }
  ],
  "bufferViews" : [
    {
      "buffer" : 0,
      "byteOffset" : 0,
      "byteLength" : 24
    },
    {
      "buffer" : 0,
      "byteOffset" : 24,
      "byteLength" : 144
    },
    {
      "buffer" : 0,
      "byteOffset" : 168,
      "byteLength" : 144
    },
    {
      "buffer" : 0,
      "byteOffset" : 312,
      "byteLength" : 192
    },
    {
      "buffer" : 0,
      "byteOffset" : 504,
      "byteLength" : 96
    },
    {
      "buffer" : 0,
      "byteOffset" : 600,
      "byteLength" : 96
    },
    {
      "buffer" : 0,
      "byteOffset" : 696,
      "byteLength" : 24
    },
    {
      "buffer" : 0,
      "byteOffset" : 720,
      "byteLength" : 144
    },
    {
      "buffer" : 0,
      "byteOffset" : 864,
      "byteLength" : 144
    },
    {
      "buffer" : 0,
      "byteOffset" : 1008,
      "byteLength" : 192
    },
    {
      "buffer" : 0,
      "byteOffset" : 1200,
      "byteLength" : 96
    },
    {
      "buffer" : 0,
      "byteOffset" : 1296,
      "byteLength" : 96
    },
    {
      "buffer" : 0,
      "byteOffset" : 1392,
      "byteLength" : 1200
    },
    {
      "buffer" : 0,
      "byteOffset" : 2592,
      "byteLength" : 7200
    },
    {
      "buffer" : 0,
      "byteOffset" : 9792,
      "byteLength" : 7200
    },
    {
      "buffer" : 0,
      "byteOffset" : 16992,
      "byteLength" : 9600
    },
    {
      "buffer" : 0,
      "byteOffset" : 26592,
      "byteLength" : 4800
    },
    {
      "buffer" : 0,
      "byteOffset" : 31392,
      "byteLength" : 4800
    },
    {
      "buffer" : 0,
      "byteOffset" : 36192,
      "byteLength" : 12
    },
    {
      "buffer" : 0,
      "byteOffset" : 36204,
      "byteLength" : 72
    },
    {
      "buffer" : 0,
      "byteOffset" : 36276,
      "byteLength" : 72
    },
    {
      "buffer" : 0,
      "byteOffset" : 36348,
      "byteLength" : 96
    },
    {
      "buffer" : 0,
      "byteOffset" : 36444,
      "byteLength" : 48
    },
    {
      "buffer" : 0,
      "byteOffset" : 36492,
      "byteLength" : 48
    },
    {
      "buffer" : 0,
      "byteOffset" : 36540,
      "byteLength" : 840
    },
    {
      "buffer" : 0,
      "byteOffset" : 37380,
      "byteLength" : 5040
    },
    {
      "buffer" : 0,
      "byteOffset" : 42420,
      "byteLength" : 5040
    },
    {
      "buffer" : 0,
      "byteOffset" : 47460,
      "byteLength" : 6720
    },
    {
      "buffer" : 0,
      "byteOffset" : 54180,
      "byteLength" : 3360
    },
    {
      "buffer" : 0,
      "byteOffset" : 57540,
      "byteLength" : 3360
    },
    {
      "buffer" : 0,
      "byteOffset" : 60900,
      "byteLength" : 12
    },
    {
      "buffer" : 0,
      "byteOffset" : 60912,
      "byteLength" : 72
    },
    {
      "buffer" : 0,
      "byteOffset" : 60984,
      "byteLength" : 72
    },
    {
      "buffer" : 0,
      "byteOffset" : 61056,
      "byteLength" : 96
    },
    {
      "buffer" : 0,
      "byteOffset" : 61152,
      "byteLength" : 48
    },
    {
      "buffer" : 0,
      "byteOffset" : 61200,
      "byteLength" : 48
    },
    {
      "buffer" : 0,
      "byteOffset" : 61248,
      "byteLength" : 888
    },
    {
      "buffer" : 0,
      "byteOffset" : 62136,
      "byteLength" : 5328
    },
    {
      "buffer" : 0,
      "byteOffset" : 67464,
      "byteLength" : 5328
    },
    {
      "buffer" : 0,
      "byteOffset" : 72792,
      "byteLength" : 7104
    },
    {
      "buffer" : 0,
      "byteOffset" : 79896,
      "byteLength" : 3552
    },
    {
      "buffer" : 0,
      "byteOffset" : 83448,
      "byteLength" : 3552
    },
    {
      "buffer" : 0,
      "byteOffset" : 87000,
      "byteLength" : 12
    },
    {
      "buffer" : 0,
      "byteOffset" : 87012,
      "byteLength" : 72
    },
    {
      "buffer" : 0,
      "byteOffset" : 87084,
      "byteLength" : 72
    },
    {
      "buffer" : 0,
      "byteOffset" : 87156,
      "byteLength" : 96
    },
    {
      "buffer" : 0,
      "byteOffset" : 87252,
      "byteLength" : 48
    },
    {
      "buffer" : 0,
      "byteOffset" : 87300,
      "byteLength" : 48
    }
  ],
  "accessors" : [
    {
      "bufferView" : 0,
      "componentType" : 5123,
      "count" : 12,
      "type" : "SCALAR"
    },
    {
      "bufferView" : 1,
      "min" : [ 0.149999, -1.11831e-21, -8 ],
      "max" : [ 0.150001, 3, 1.82635e-05 ],
      "componentType" : 5126,
      "count" : 12,
      "type" : "VEC3"
    },
    {
      "bufferView" : 2,
      "componentType" : 5126,
      "count" : 12,
      "type" : "VEC3"
    },
    {
      "bufferView" : 3,
      "componentType" : 5126,
      "count" : 12,
      "type" : "VEC4"
    },
    {
      "bufferView" : 4,
      "componentType" : 5126,
      "count" : 12,
      "type" : "VEC2"
    },
    {
      "bufferView" : 5,
      "componentType" : 5126,
      "count" : 12,
      "type" : "VEC2"
    },
    {
      "bufferView" : 6,
      "componentType" : 5123,
      "count" : 12,
      "type" : "SCALAR"
    },
    {
      "bufferView" : 7,
      "min" : [ -0.150001, -5.26109e-22, -8.00001 ],
      "max" : [ -0.149999, 3, 8.59201e-06 ],
      "componentType" : 5126,
      "count" : 12,
      "type" : "VEC3"
    },
    {
      "bufferView" : 8,
      "componentType" : 5126,
      "count" : 12,
      "type" : "VEC3"
    },
    {
      "bufferView" : 9,
      "componentType" : 5126,
      "count" : 12,
      "type" : "VEC4"
    },
    {
      "bufferView" : 10,
      "componentType" : 5126,
      "count" : 12,
      "type" : "VEC2"
    },
    {
      "bufferView" : 11,
      "componentType" : 5126,
      "count" : 12,
      "type" : "VEC2"
    },
    {
      "bufferView" : 12,
      "componentType" : 5123,
      "count" : 600,
      "type" : "SCALAR"
    },
    {
      "bufferView" : 13,
      "min" : [ -0.159997, 4.89853e-17, -7.19999 ],
      "max" : [ 0.239983, 2.99999, -0.79999 ],
      "componentType" : 5126,
      "count" : 600,
      "type" : "VEC3"
    },
    {
      "bufferView" : 14,
      "componentType" : 5126,
      "count" : 600,
      "type" : "VEC3"
    },
    {
      "bufferView" : 15,
      "componentType" : 5126,
      "count" : 600,
      "type" : "VEC4"
    },
    {
      "bufferView" : 16,
      "componentType" : 5126,
      "count" : 600,
      "type" : "VEC2"
    },
    {
      "bufferView" : 17,
      "componentType" : 5126,
      "count" : 600,
      "type" : "VEC2"
    },
    {
      "bufferView" : 18,
      "componentType" : 5123,
      "count" : 6,
      "type" : "SCALAR"
    },
    {
      "bufferView" : 19,
      "min" : [ -0.00999725, 0.84, -2.89998 ],
      "max" : [ -0.00999607, 2.2, -1.09999 ],
      "componentType" : 5126,
      "count" : 6,
      "type" : "VEC3"
    },
    {
      "bufferView" : 20,
      "componentType" : 5126,
      "count" : 6,
      "type" : "VEC3"
    },
    {
      "bufferView" : 21,
      "componentType" : 5126,
      "count" : 6,
      "type" : "VEC4"
    },
    {
      "bufferView" : 22,
      "componentType" : 5126,
      "count" : 6,
      "type" : "VEC2"
    },
    {
      "bufferView" : 23,
      "componentType" : 5126,
      "count" : 6,
      "type" : "VEC2"
    },
    {
      "bufferView" : 24,
      "componentType" : 5123,
      "count" : 420,
      "type" : "SCALAR"
    },
    {
      "bufferView" : 25,
      "min" : [ -0.0899967, 0.0200027, -4.94999 ],
      "max" : [ 0.239984, 2.7, -3.04999 ],
      "componentType" : 5126,
      "count" : 420,
      "type" : "VEC3"
    },
    {
      "bufferView" : 26,
      "componentType" : 5126,
      "count" : 420,
      "type" : "VEC3"
    },
    {
      "bufferView" : 27,
      "componentType" : 5126,
      "count" : 420,
      "type" : "VEC4"
    },
    {
      "bufferView" : 28,
      "componentType" : 5126,
      "count" : 420,
      "type" : "VEC2"
    },
    {
      "bufferView" : 29,
      "componentType" : 5126,
      "count" : 420,
      "type" : "VEC2"
    },
    {
      "bufferView" : 30,
      "componentType" : 5123,
      "count" : 6,
      "type" : "SCALAR"
    },
    {
      "bufferView" : 31,
      "min" : [ -0.0099967, 0.84, -4.89998 ],
      "max" : [ -0.00999609, 2.2, -3.09999 ],
      "componentType" : 5126,
      "count" : 6,
      "type" : "VEC3"
    },
    {
      "bufferView" : 32,
      "componentType" : 5126,
      "count" : 6,
      "type" : "VEC3"
    },
    {
      "bufferView" : 33,
      "componentType" : 5126,
      "count" : 6,
      "type" : "VEC4"
    },
    {
      "bufferView" : 34,
      "componentType" : 5126,
      "count" : 6,
      "type" : "VEC2"
    },
    {
      "bufferView" : 35,
      "componentType" : 5126,
      "count" : 6,
      "type" : "VEC2"
    },
    {
      "bufferView" : 36,
      "componentType" : 5123,
      "count" : 444,
      "type" : "SCALAR"
    },
    {
      "bufferView" : 37,
      "min" : [ -0.159978, 0.0200005, -6.95 ],
      "max" : [ 0.239986, 2.7, -4.95 ],
      "componentType" : 5126,
      "count" : 444,
      "type" : "VEC3"
    },
    {
      "bufferView" : 38,
      "componentType" : 5126,
      "count" : 444,
      "type" : "VEC3"
    },
    {
      "bufferView" : 39,
      "componentType" : 5126,
      "count" : 444,
      "type" : "VEC4"
    },
    {
      "bufferView" : 40,
      "componentType" : 5126,
      "count" : 444,
      "type" : "VEC2"
    },
    {
      "bufferView" : 41,
      "componentType" : 5126,
      "count" : 444,
      "type" : "VEC2"
    },
    {
      "bufferView" : 42,
      "componentType" : 5123,
      "count" : 6,
      "type" : "SCALAR"
    },
    {
      "bufferView" : 43,
      "min" : [ -0.00999667, 0.84, -6.89999 ],
      "max" : [ -0.00999611, 2.2, -5.1 ],
      "componentType" : 5126,
      "count" : 6,
      "type" : "VEC3"
    },
    {
      "bufferView" : 44,
      "componentType" : 5126,
      "count" : 6,
      "type" : "VEC3"
    },
    {
      "bufferView" : 45,
      "componentType" : 5126,
      "count" : 6,
      "type" : "VEC4"
    },
    {
      "bufferView" : 46,
      "componentType" : 5126,
      "count" : 6,
      "type" : "VEC2"
    },
    {
      "bufferView" : 47,
      "componentType" : 5126,
      "count" : 6,
      "type" : "VEC2"
    }
  ]
}
