{
  "asset" : {
    "generator" : "UE Viewer (umodel) build 1590",
    "version" : "2.0"
  },
  "scene" : 0,
  "scenes" : [
    {
      "nodes" : [ 0 ]
    }
  ],
  "nodes" : [
    {
      "name" : "SM_shopTop_01",
      "mesh" : 0
    }
  ],
  "materials" : [
    {
      "name" : "dummy_material_0",
      "pbrMetallicRoughness" : {
        "baseColorFactor" : [ 0.3, 0.3, 0.3, 1.0 ],
        "metallicFactor" : 0.1,
        "roughnessFactor" : 0.5
      }
    },
    {
      "name" : "dummy_material_1",
      "pbrMetallicRoughness" : {
        "baseColorFactor" : [ 0.9, 0.3, 0.3, 1.0 ],
        "metallicFactor" : 0.1,
        "roughnessFactor" : 0.5
      }
    },
    {
      "name" : "dummy_material_2",
      "pbrMetallicRoughness" : {
        "baseColorFactor" : [ 0.3, 0.9, 0.3, 1.0 ],
        "metallicFactor" : 0.1,
        "roughnessFactor" : 0.5
      }
    },
    {
      "name" : "dummy_material_3",
      "pbrMetallicRoughness" : {
        "baseColorFactor" : [ 0.3, 0.3, 0.9, 1.0 ],
        "metallicFactor" : 0.1,
        "roughnessFactor" : 0.5
      }
    },
    {
      "name" : "dummy_material_4",
      "pbrMetallicRoughness" : {
        "baseColorFactor" : [ 0.9, 0.9, 0.9, 1.0 ],
        "metallicFactor" : 0.1,
        "roughnessFactor" : 0.5
      }
    },
    {
      "name" : "dummy_material_5",
      "pbrMetallicRoughness" : {
        "baseColorFactor" : [ 0.9, 0.9, 0.3, 1.0 ],
        "metallicFactor" : 0.1,
        "roughnessFactor" : 0.5
      }
    },
    {
      "name" : "dummy_material_6",
      "pbrMetallicRoughness" : {
        "baseColorFactor" : [ 0.9, 0.3, 0.9, 1.0 ],
        "metallicFactor" : 0.1,
        "roughnessFactor" : 0.5
      }
    },
    {
      "name" : "dummy_material_7",
      "pbrMetallicRoughness" : {
        "baseColorFactor" : [ 0.3, 0.9, 0.9, 1.0 ],
        "metallicFactor" : 0.1,
        "roughnessFactor" : 0.5
      }
    }
  ],
  "meshes" : [
    {
      "primitives" : [
        {
          "attributes" : {
            "POSITION" : 1,
            "NORMAL" : 2,
            "TANGENT" : 3,
            "TEXCOORD_0" : 4
          },
          "indices" : 0,
          "material" : 0
        },
        {
          "attributes" : {
            "POSITION" : 6,
            "NORMAL" : 7,
            "TANGENT" : 8,
            "TEXCOORD_0" : 9
          },
          "indices" : 5,
          "material" : 1
        },
        {
          "attributes" : {
            "POSITION" : 11,
            "NORMAL" : 12,
            "TANGENT" : 13,
            "TEXCOORD_0" : 14
          },
          "indices" : 10,
          "material" : 2
        },
        {
          "attributes" : {
            "POSITION" : 16,
            "NORMAL" : 17,
            "TANGENT" : 18,
            "TEXCOORD_0" : 19
          },
          "indices" : 15,
          "material" : 3
        },
        {
          "attributes" : {
            "POSITION" : 21,
            "NORMAL" : 22,
            "TANGENT" : 23,
            "TEXCOORD_0" : 24
          },
          "indices" : 20,
          "material" : 4
        },
        {
          "attributes" : {
            "POSITION" : 26,
            "NORMAL" : 27,
            "TANGENT" : 28,
            "TEXCOORD_0" : 29
          },
          "indices" : 25,
          "material" : 5
        },
        {
          "attributes" : {
            "POSITION" : 31,
            "NORMAL" : 32,
            "TANGENT" : 33,
            "TEXCOORD_0" : 34
          },
          "indices" : 30,
          "material" : 6
        },
        {
          "attributes" : {
            "POSITION" : 36,
            "NORMAL" : 37,
            "TANGENT" : 38,
            "TEXCOORD_0" : 39
          },
          "indices" : 35,
          "material" : 7
        }
      ],
      "name" : "SM_shopTop_01"
    }
  ],
  "buffers" : [
    {
      "uri" : "SM_shopTop_01.bin",
      "byteLength" : 35100
    }
  ],
  "bufferViews" : [
    {
      "buffer" : 0,
      "byteOffset" : 0,
      "byteLength" : 72
    },
    {
      "buffer" : 0,
      "byteOffset" : 72,
      "byteLength" : 432
    },
    {
      "buffer" : 0,
      "byteOffset" : 504,
      "byteLength" : 432
    },
    {
      "buffer" : 0,
      "byteOffset" : 936,
      "byteLength" : 576
    },
    {
      "buffer" : 0,
      "byteOffset" : 1512,
      "byteLength" : 288
    },
    {
      "buffer" : 0,
      "byteOffset" : 1800,
      "byteLength" : 12
    },
    {
      "buffer" : 0,
      "byteOffset" : 1812,
      "byteLength" : 72
    },
    {
      "buffer" : 0,
      "byteOffset" : 1884,
      "byteLength" : 72
    },
    {
      "buffer" : 0,
      "byteOffset" : 1956,
      "byteLength" : 96
    },
    {
      "buffer" : 0,
      "byteOffset" : 2052,
      "byteLength" : 48
    },
    {
      "buffer" : 0,
      "byteOffset" : 2100,
      "byteLength" : 48
    },
    {
      "buffer" : 0,
      "byteOffset" : 2148,
      "byteLength" : 288
    },
    {
      "buffer" : 0,
      "byteOffset" : 2436,
      "byteLength" : 288
    },
    {
      "buffer" : 0,
      "byteOffset" : 2724,
      "byteLength" : 384
    },
    {
      "buffer" : 0,
      "byteOffset" : 3108,
      "byteLength" : 192
    },
    {
      "buffer" : 0,
      "byteOffset" : 3300,
      "byteLength" : 216
    },
    {
      "buffer" : 0,
      "byteOffset" : 3516,
      "byteLength" : 1296
    },
    {
      "buffer" : 0,
      "byteOffset" : 4812,
      "byteLength" : 1296
    },
    {
      "buffer" : 0,
      "byteOffset" : 6108,
      "byteLength" : 1728
    },
    {
      "buffer" : 0,
      "byteOffset" : 7836,
      "byteLength" : 864
    },
    {
      "buffer" : 0,
      "byteOffset" : 8700,
      "byteLength" : 12
    },
    {
      "buffer" : 0,
      "byteOffset" : 8712,
      "byteLength" : 72
    },
    {
      "buffer" : 0,
      "byteOffset" : 8784,
      "byteLength" : 72
    },
    {
      "buffer" : 0,
      "byteOffset" : 8856,
      "byteLength" : 96
    },
    {
      "buffer" : 0,
      "byteOffset" : 8952,
      "byteLength" : 48
    },
    {
      "buffer" : 0,
      "byteOffset" : 9000,
      "byteLength" : 312
    },
    {
      "buffer" : 0,
      "byteOffset" : 9312,
      "byteLength" : 1872
    },
    {
      "buffer" : 0,
      "byteOffset" : 11184,
      "byteLength" : 1872
    },
    {
      "buffer" : 0,
      "byteOffset" : 13056,
      "byteLength" : 2496
    },
    {
      "buffer" : 0,
      "byteOffset" : 15552,
      "byteLength" : 1248
    },
    {
      "buffer" : 0,
      "byteOffset" : 16800,
      "byteLength" : 12
    },
    {
      "buffer" : 0,
      "byteOffset" : 16812,
      "byteLength" : 72
    },
    {
      "buffer" : 0,
      "byteOffset" : 16884,
      "byteLength" : 72
    },
    {
      "buffer" : 0,
      "byteOffset" : 16956,
      "byteLength" : 96
    },
    {
      "buffer" : 0,
      "byteOffset" : 17052,
      "byteLength" : 48
    },
    {
      "buffer" : 0,
      "byteOffset" : 17100,
      "byteLength" : 720
    },
    {
      "buffer" : 0,
      "byteOffset" : 17820,
      "byteLength" : 4320
    },
    {
      "buffer" : 0,
      "byteOffset" : 22140,
      "byteLength" : 4320
    },
    {
      "buffer" : 0,
      "byteOffset" : 26460,
      "byteLength" : 5760
    },
    {
      "buffer" : 0,
      "byteOffset" : 32220,
      "byteLength" : 2880
    }
  ],
  "accessors" : [
    {
      "bufferView" : 0,
      "componentType" : 5123,
      "count" : 36,
      "type" : "SCALAR"
    },
    {
      "bufferView" : 1,
      "min" : [ -0.150002, 0, -8 ],
      "max" : [ 0.150003, 1.17499, -4.82917e-06 ],
      "componentType" : 5126,
      "count" : 36,
      "type" : "VEC3"
    },
    {
      "bufferView" : 2,
      "componentType" : 5126,
      "count" : 36,
      "type" : "VEC3"
    },
    {
      "bufferView" : 3,
      "componentType" : 5126,
      "count" : 36,
      "type" : "VEC4"
    },
    {
      "bufferView" : 4,
      "componentType" : 5126,
      "count" : 36,
      "type" : "VEC2"
    },
    {
      "bufferView" : 5,
      "componentType" : 5123,
      "count" : 6,
      "type" : "SCALAR"
    },
    {
      "bufferView" : 6,
      "min" : [ -0.220711, 1.77499, -6.04243 ],
      "max" : [ 0.220712, 1.77499, -1.95287 ],
      "componentType" : 5126,
      "count" : 6,
      "type" : "VEC3"
    },
    {
      "bufferView" : 7,
      "componentType" : 5126,
      "count" : 6,
      "type" : "VEC3"
    },
    {
      "bufferView" : 8,
      "componentType" : 5126,
      "count" : 6,
      "type" : "VEC4"
    },
    {
      "bufferView" : 9,
      "componentType" : 5126,
      "count" : 6,
      "type" : "VEC2"
    },
    {
      "bufferView" : 10,
      "componentType" : 5123,
      "count" : 24,
      "type" : "SCALAR"
    },
    {
      "bufferView" : 11,
      "min" : [ -0.15, 1.17498, -5.97172 ],
      "max" : [ 0.150002, 1.67499, -2.02358 ],
      "componentType" : 5126,
      "count" : 24,
      "type" : "VEC3"
    },
    {
      "bufferView" : 12,
      "componentType" : 5126,
      "count" : 24,
      "type" : "VEC3"
    },
    {
      "bufferView" : 13,
      "componentType" : 5126,
      "count" : 24,
      "type" : "VEC4"
    },
    {
      "bufferView" : 14,
      "componentType" : 5126,
      "count" : 24,
      "type" : "VEC2"
    },
    {
      "bufferView" : 15,
      "componentType" : 5123,
      "count" : 108,
      "type" : "SCALAR"
    },
    {
      "bufferView" : 16,
      "min" : [ -0.220713, 1.17499, -7.04716 ],
      "max" : [ 0.220712, 1.77499, -0.952866 ],
      "componentType" : 5126,
      "count" : 108,
      "type" : "VEC3"
    },
    {
      "bufferView" : 17,
      "componentType" : 5126,
      "count" : 108,
      "type" : "VEC3"
    },
    {
      "bufferView" : 18,
      "componentType" : 5126,
      "count" : 108,
      "type" : "VEC4"
    },
    {
      "bufferView" : 19,
      "componentType" : 5126,
      "count" : 108,
      "type" : "VEC2"
    },
    {
      "bufferView" : 20,
      "componentType" : 5123,
      "count" : 6,
      "type" : "SCALAR"
    },
    {
      "bufferView" : 21,
      "min" : [ -0.149999, 0.699987, -1.02358 ],
      "max" : [ 0.150001, 1.17499, -1.02358 ],
      "componentType" : 5126,
      "count" : 6,
      "type" : "VEC3"
    },
    {
      "bufferView" : 22,
      "componentType" : 5126,
      "count" : 6,
      "type" : "VEC3"
    },
    {
      "bufferView" : 23,
      "componentType" : 5126,
      "count" : 6,
      "type" : "VEC4"
    },
    {
      "bufferView" : 24,
      "componentType" : 5126,
      "count" : 6,
      "type" : "VEC2"
    },
    {
      "bufferView" : 25,
      "componentType" : 5123,
      "count" : 156,
      "type" : "SCALAR"
    },
    {
      "bufferView" : 26,
      "min" : [ -0.220713, 0.699999, -8.07068 ],
      "max" : [ 0.220713, 1.27499, 0.0706983 ],
      "componentType" : 5126,
      "count" : 156,
      "type" : "VEC3"
    },
    {
      "bufferView" : 27,
      "componentType" : 5126,
      "count" : 156,
      "type" : "VEC3"
    },
    {
      "bufferView" : 28,
      "componentType" : 5126,
      "count" : 156,
      "type" : "VEC4"
    },
    {
      "bufferView" : 29,
      "componentType" : 5126,
      "count" : 156,
      "type" : "VEC2"
    },
    {
      "bufferView" : 30,
      "componentType" : 5123,
      "count" : 6,
      "type" : "SCALAR"
    },
    {
      "bufferView" : 31,
      "min" : [ -0.149998, 0, -7.37786e-06 ],
      "max" : [ 0.150003, 0.699999, -4.82917e-06 ],
      "componentType" : 5126,
      "count" : 6,
      "type" : "VEC3"
    },
    {
      "bufferView" : 32,
      "componentType" : 5126,
      "count" : 6,
      "type" : "VEC3"
    },
    {
      "bufferView" : 33,
      "componentType" : 5126,
      "count" : 6,
      "type" : "VEC4"
    },
    {
      "bufferView" : 34,
      "componentType" : 5126,
      "count" : 6,
      "type" : "VEC2"
    },
    {
      "bufferView" : 35,
      "componentType" : 5123,
      "count" : 360,
      "type" : "SCALAR"
    },
    {
      "bufferView" : 36,
      "min" : [ 0.143818, 0.612869, -6.61805 ],
      "max" : [ 0.207279, 1.45389, -1.38195 ],
      "componentType" : 5126,
      "count" : 360,
      "type" : "VEC3"
    },
    {
      "bufferView" : 37,
      "componentType" : 5126,
      "count" : 360,
      "type" : "VEC3"
    },
    {
      "bufferView" : 38,
      "componentType" : 5126,
      "count" : 360,
      "type" : "VEC4"
    },
    {
      "bufferView" : 39,
      "componentType" : 5126,
      "count" : 360,
      "type" : "VEC2"
    }
  ]
}
