{
  "asset" : {
    "generator" : "UE Viewer (umodel) build 1590",
    "version" : "2.0"
  },
  "scene" : 0,
  "scenes" : [
    {
      "nodes" : [ 0 ]
    }
  ],
  "nodes" : [
    {
      "name" : "SM_StairsU_01_blindTall",
      "mesh" : 0
    }
  ],
  "materials" : [
    {
      "name" : "dummy_material_0",
      "pbrMetallicRoughness" : {
        "baseColorFactor" : [ 0.3, 0.3, 0.3, 1.0 ],
        "metallicFactor" : 0.1,
        "roughnessFactor" : 0.5
      }
    }
  ],
  "meshes" : [
    {
      "primitives" : [
        {
          "attributes" : {
            "POSITION" : 1,
            "NORMAL" : 2,
            "TANGENT" : 3,
            "TEXCOORD_0" : 4
          },
          "indices" : 0,
          "material" : 0
        }
      ],
      "name" : "SM_StairsU_01_blindTall"
    }
  ],
  "buffers" : [
    {
      "uri" : "SM_StairsU_01_blindTall.bin",
      "byteLength" : 4352
    }
  ],
  "bufferViews" : [
    {
      "buffer" : 0,
      "byteOffset" : 0,
      "byteLength" : 176
    },
    {
      "buffer" : 0,
      "byteOffset" : 176,
      "byteLength" : 1044
    },
    {
      "buffer" : 0,
      "byteOffset" : 1220,
      "byteLength" : 1044
    },
    {
      "buffer" : 0,
      "byteOffset" : 2264,
      "byteLength" : 1392
    },
    {
      "buffer" : 0,
      "byteOffset" : 3656,
      "byteLength" : 696
    }
  ],
  "accessors" : [
    {
      "bufferView" : 0,
      "componentType" : 5123,
      "count" : 87,
      "type" : "SCALAR"
    },
    {
      "bufferView" : 1,
      "min" : [ -4, -7.62939e-08, 6.76437e-14 ],
      "max" : [ -4.48227e-07, 3.75, 4 ],
      "componentType" : 5126,
      "count" : 87,
      "type" : "VEC3"
    },
    {
      "bufferView" : 2,
      "componentType" : 5126,
      "count" : 87,
      "type" : "VEC3"
    },
    {
      "bufferView" : 3,
      "componentType" : 5126,
      "count" : 87,
      "type" : "VEC4"
    },
    {
      "bufferView" : 4,
      "componentType" : 5126,
      "count" : 87,
      "type" : "VEC2"
    }
  ]
}
