{
  "asset" : {
    "generator" : "UE Viewer (umodel) build 1590",
    "version" : "2.0"
  },
  "scene" : 0,
  "scenes" : [
    {
      "nodes" : [ 0 ]
    }
  ],
  "nodes" : [
    {
      "name" : "SM_stairsU_01",
      "mesh" : 0
    }
  ],
  "materials" : [
    {
      "name" : "dummy_material_0",
      "pbrMetallicRoughness" : {
        "baseColorFactor" : [ 0.3, 0.3, 0.3, 1.0 ],
        "metallicFactor" : 0.1,
        "roughnessFactor" : 0.5
      }
    }
  ],
  "meshes" : [
    {
      "primitives" : [
        {
          "attributes" : {
            "POSITION" : 1,
            "NORMAL" : 2,
            "TANGENT" : 3,
            "TEXCOORD_0" : 4,
            "TEXCOORD_1" : 5
          },
          "indices" : 0,
          "material" : 0
        }
      ],
      "name" : "SM_stairsU_01"
    }
  ],
  "buffers" : [
    {
      "uri" : "SM_stairsU_01.bin",
      "byteLength" : 49592
    }
  ],
  "bufferViews" : [
    {
      "buffer" : 0,
      "byteOffset" : 0,
      "byteLength" : 1712
    },
    {
      "buffer" : 0,
      "byteOffset" : 1712,
      "byteLength" : 10260
    },
    {
      "buffer" : 0,
      "byteOffset" : 11972,
      "byteLength" : 10260
    },
    {
      "buffer" : 0,
      "byteOffset" : 22232,
      "byteLength" : 13680
    },
    {
      "buffer" : 0,
      "byteOffset" : 35912,
      "byteLength" : 6840
    },
    {
      "buffer" : 0,
      "byteOffset" : 42752,
      "byteLength" : 6840
    }
  ],
  "accessors" : [
    {
      "bufferView" : 0,
      "componentType" : 5123,
      "count" : 855,
      "type" : "SCALAR"
    },
    {
      "bufferView" : 1,
      "min" : [ -4.00001, -0.25, -4 ],
      "max" : [ 0.05, 3, 6.03984e-07 ],
      "componentType" : 5126,
      "count" : 855,
      "type" : "VEC3"
    },
    {
      "bufferView" : 2,
      "componentType" : 5126,
      "count" : 855,
      "type" : "VEC3"
    },
    {
      "bufferView" : 3,
      "componentType" : 5126,
      "count" : 855,
      "type" : "VEC4"
    },
    {
      "bufferView" : 4,
      "componentType" : 5126,
      "count" : 855,
      "type" : "VEC2"
    },
    {
      "bufferView" : 5,
      "componentType" : 5126,
      "count" : 855,
      "type" : "VEC2"
    }
  ]
}
