{
  "asset" : {
    "generator" : "UE Viewer (umodel) build 1590",
    "version" : "2.0"
  },
  "scene" : 0,
  "scenes" : [
    {
      "nodes" : [ 0 ]
    }
  ],
  "nodes" : [
    {
      "name" : "SM_stairsSmall_01",
      "mesh" : 0
    }
  ],
  "materials" : [
    {
      "name" : "dummy_material_0",
      "pbrMetallicRoughness" : {
        "baseColorFactor" : [ 0.3, 0.3, 0.3, 1.0 ],
        "metallicFactor" : 0.1,
        "roughnessFactor" : 0.5
      }
    }
  ],
  "meshes" : [
    {
      "primitives" : [
        {
          "attributes" : {
            "POSITION" : 1,
            "NORMAL" : 2,
            "TANGENT" : 3,
            "TEXCOORD_0" : 4,
            "TEXCOORD_1" : 5
          },
          "indices" : 0,
          "material" : 0
        }
      ],
      "name" : "SM_stairsSmall_01"
    }
  ],
  "buffers" : [
    {
      "uri" : "SM_stairsSmall_01.bin",
      "byteLength" : 15140
    }
  ],
  "bufferViews" : [
    {
      "buffer" : 0,
      "byteOffset" : 0,
      "byteLength" : 524
    },
    {
      "buffer" : 0,
      "byteOffset" : 524,
      "byteLength" : 3132
    },
    {
      "buffer" : 0,
      "byteOffset" : 3656,
      "byteLength" : 3132
    },
    {
      "buffer" : 0,
      "byteOffset" : 6788,
      "byteLength" : 4176
    },
    {
      "buffer" : 0,
      "byteOffset" : 10964,
      "byteLength" : 2088
    },
    {
      "buffer" : 0,
      "byteOffset" : 13052,
      "byteLength" : 2088
    }
  ],
  "accessors" : [
    {
      "bufferView" : 0,
      "componentType" : 5123,
      "count" : 261,
      "type" : "SCALAR"
    },
    {
      "bufferView" : 1,
      "min" : [ 1.98364e-06, -2.89917e-06, -2 ],
      "max" : [ 1.55, 1, 3.39389e-06 ],
      "componentType" : 5126,
      "count" : 261,
      "type" : "VEC3"
    },
    {
      "bufferView" : 2,
      "componentType" : 5126,
      "count" : 261,
      "type" : "VEC3"
    },
    {
      "bufferView" : 3,
      "componentType" : 5126,
      "count" : 261,
      "type" : "VEC4"
    },
    {
      "bufferView" : 4,
      "componentType" : 5126,
      "count" : 261,
      "type" : "VEC2"
    },
    {
      "bufferView" : 5,
      "componentType" : 5126,
      "count" : 261,
      "type" : "VEC2"
    }
  ]
}
