{
  "asset" : {
    "generator" : "UE Viewer (umodel) build 1590",
    "version" : "2.0"
  },
  "scene" : 0,
  "scenes" : [
    {
      "nodes" : [ 0 ]
    }
  ],
  "nodes" : [
    {
      "name" : "SM_shopFront_01",
      "mesh" : 0
    }
  ],
  "materials" : [
    {
      "name" : "dummy_material_0",
      "pbrMetallicRoughness" : {
        "baseColorFactor" : [ 0.3, 0.3, 0.3, 1.0 ],
        "metallicFactor" : 0.1,
        "roughnessFactor" : 0.5
      }
    },
    {
      "name" : "dummy_material_1",
      "pbrMetallicRoughness" : {
        "baseColorFactor" : [ 0.9, 0.3, 0.3, 1.0 ],
        "metallicFactor" : 0.1,
        "roughnessFactor" : 0.5
      }
    },
    {
      "name" : "dummy_material_2",
      "pbrMetallicRoughness" : {
        "baseColorFactor" : [ 0.3, 0.9, 0.3, 1.0 ],
        "metallicFactor" : 0.1,
        "roughnessFactor" : 0.5
      }
    },
    {
      "name" : "dummy_material_3",
      "pbrMetallicRoughness" : {
        "baseColorFactor" : [ 0.3, 0.3, 0.9, 1.0 ],
        "metallicFactor" : 0.1,
        "roughnessFactor" : 0.5
      }
    },
    {
      "name" : "dummy_material_4",
      "pbrMetallicRoughness" : {
        "baseColorFactor" : [ 0.9, 0.9, 0.9, 1.0 ],
        "metallicFactor" : 0.1,
        "roughnessFactor" : 0.5
      }
    },
    {
      "name" : "dummy_material_5",
      "pbrMetallicRoughness" : {
        "baseColorFactor" : [ 0.9, 0.9, 0.3, 1.0 ],
        "metallicFactor" : 0.1,
        "roughnessFactor" : 0.5
      }
    },
    {
      "name" : "dummy_material_6",
      "pbrMetallicRoughness" : {
        "baseColorFactor" : [ 0.9, 0.3, 0.9, 1.0 ],
        "metallicFactor" : 0.1,
        "roughnessFactor" : 0.5
      }
    },
    {
      "name" : "dummy_material_7",
      "pbrMetallicRoughness" : {
        "baseColorFactor" : [ 0.3, 0.9, 0.9, 1.0 ],
        "metallicFactor" : 0.1,
        "roughnessFactor" : 0.5
      }
    },
    {
      "name" : "dummy_material_8",
      "pbrMetallicRoughness" : {
        "baseColorFactor" : [ 1, 0.3, 0.3, 1.0 ],
        "metallicFactor" : 0.1,
        "roughnessFactor" : 0.5
      }
    }
  ],
  "meshes" : [
    {
      "primitives" : [
        {
          "attributes" : {
            "POSITION" : 1,
            "NORMAL" : 2,
            "TANGENT" : 3,
            "TEXCOORD_0" : 4,
            "TEXCOORD_1" : 5
          },
          "indices" : 0,
          "material" : 0
        },
        {
          "attributes" : {
            "POSITION" : 7,
            "NORMAL" : 8,
            "TANGENT" : 9,
            "TEXCOORD_0" : 10,
            "TEXCOORD_1" : 11
          },
          "indices" : 6,
          "material" : 1
        },
        {
          "attributes" : {
            "POSITION" : 13,
            "NORMAL" : 14,
            "TANGENT" : 15,
            "TEXCOORD_0" : 16,
            "TEXCOORD_1" : 17
          },
          "indices" : 12,
          "material" : 2
        },
        {
          "attributes" : {
            "POSITION" : 19,
            "NORMAL" : 20,
            "TANGENT" : 21,
            "TEXCOORD_0" : 22,
            "TEXCOORD_1" : 23
          },
          "indices" : 18,
          "material" : 3
        },
        {
          "attributes" : {
            "POSITION" : 25,
            "NORMAL" : 26,
            "TANGENT" : 27,
            "TEXCOORD_0" : 28,
            "TEXCOORD_1" : 29
          },
          "indices" : 24,
          "material" : 4
        },
        {
          "attributes" : {
            "POSITION" : 31,
            "NORMAL" : 32,
            "TANGENT" : 33,
            "TEXCOORD_0" : 34,
            "TEXCOORD_1" : 35
          },
          "indices" : 30,
          "material" : 5
        },
        {
          "attributes" : {
            "POSITION" : 37,
            "NORMAL" : 38,
            "TANGENT" : 39,
            "TEXCOORD_0" : 40,
            "TEXCOORD_1" : 41
          },
          "indices" : 36,
          "material" : 6
        },
        {
          "attributes" : {
            "POSITION" : 43,
            "NORMAL" : 44,
            "TANGENT" : 45,
            "TEXCOORD_0" : 46,
            "TEXCOORD_1" : 47
          },
          "indices" : 42,
          "material" : 7
        },
        {
          "attributes" : {
            "POSITION" : 49,
            "NORMAL" : 50,
            "TANGENT" : 51,
            "TEXCOORD_0" : 52,
            "TEXCOORD_1" : 53
          },
          "indices" : 48,
          "material" : 8
        }
      ],
      "name" : "SM_shopFront_01"
    }
  ],
  "buffers" : [
    {
      "uri" : "SM_shopFront_01.bin",
      "byteLength" : 60900
    }
  ],
  "bufferViews" : [
    {
      "buffer" : 0,
      "byteOffset" : 0,
      "byteLength" : 612
    },
    {
      "buffer" : 0,
      "byteOffset" : 612,
      "byteLength" : 3672
    },
    {
      "buffer" : 0,
      "byteOffset" : 4284,
      "byteLength" : 3672
    },
    {
      "buffer" : 0,
      "byteOffset" : 7956,
      "byteLength" : 4896
    },
    {
      "buffer" : 0,
      "byteOffset" : 12852,
      "byteLength" : 2448
    },
    {
      "buffer" : 0,
      "byteOffset" : 15300,
      "byteLength" : 2448
    },
    {
      "buffer" : 0,
      "byteOffset" : 17748,
      "byteLength" : 12
    },
    {
      "buffer" : 0,
      "byteOffset" : 17760,
      "byteLength" : 72
    },
    {
      "buffer" : 0,
      "byteOffset" : 17832,
      "byteLength" : 72
    },
    {
      "buffer" : 0,
      "byteOffset" : 17904,
      "byteLength" : 96
    },
    {
      "buffer" : 0,
      "byteOffset" : 18000,
      "byteLength" : 48
    },
    {
      "buffer" : 0,
      "byteOffset" : 18048,
      "byteLength" : 48
    },
    {
      "buffer" : 0,
      "byteOffset" : 18096,
      "byteLength" : 360
    },
    {
      "buffer" : 0,
      "byteOffset" : 18456,
      "byteLength" : 2160
    },
    {
      "buffer" : 0,
      "byteOffset" : 20616,
      "byteLength" : 2160
    },
    {
      "buffer" : 0,
      "byteOffset" : 22776,
      "byteLength" : 2880
    },
    {
      "buffer" : 0,
      "byteOffset" : 25656,
      "byteLength" : 1440
    },
    {
      "buffer" : 0,
      "byteOffset" : 27096,
      "byteLength" : 1440
    },
    {
      "buffer" : 0,
      "byteOffset" : 28536,
      "byteLength" : 12
    },
    {
      "buffer" : 0,
      "byteOffset" : 28548,
      "byteLength" : 72
    },
    {
      "buffer" : 0,
      "byteOffset" : 28620,
      "byteLength" : 72
    },
    {
      "buffer" : 0,
      "byteOffset" : 28692,
      "byteLength" : 96
    },
    {
      "buffer" : 0,
      "byteOffset" : 28788,
      "byteLength" : 48
    },
    {
      "buffer" : 0,
      "byteOffset" : 28836,
      "byteLength" : 48
    },
    {
      "buffer" : 0,
      "byteOffset" : 28884,
      "byteLength" : 624
    },
    {
      "buffer" : 0,
      "byteOffset" : 29508,
      "byteLength" : 3744
    },
    {
      "buffer" : 0,
      "byteOffset" : 33252,
      "byteLength" : 3744
    },
    {
      "buffer" : 0,
      "byteOffset" : 36996,
      "byteLength" : 4992
    },
    {
      "buffer" : 0,
      "byteOffset" : 41988,
      "byteLength" : 2496
    },
    {
      "buffer" : 0,
      "byteOffset" : 44484,
      "byteLength" : 2496
    },
    {
      "buffer" : 0,
      "byteOffset" : 46980,
      "byteLength" : 12
    },
    {
      "buffer" : 0,
      "byteOffset" : 46992,
      "byteLength" : 72
    },
    {
      "buffer" : 0,
      "byteOffset" : 47064,
      "byteLength" : 72
    },
    {
      "buffer" : 0,
      "byteOffset" : 47136,
      "byteLength" : 96
    },
    {
      "buffer" : 0,
      "byteOffset" : 47232,
      "byteLength" : 48
    },
    {
      "buffer" : 0,
      "byteOffset" : 47280,
      "byteLength" : 48
    },
    {
      "buffer" : 0,
      "byteOffset" : 47328,
      "byteLength" : 12
    },
    {
      "buffer" : 0,
      "byteOffset" : 47340,
      "byteLength" : 72
    },
    {
      "buffer" : 0,
      "byteOffset" : 47412,
      "byteLength" : 72
    },
    {
      "buffer" : 0,
      "byteOffset" : 47484,
      "byteLength" : 96
    },
    {
      "buffer" : 0,
      "byteOffset" : 47580,
      "byteLength" : 48
    },
    {
      "buffer" : 0,
      "byteOffset" : 47628,
      "byteLength" : 48
    },
    {
      "buffer" : 0,
      "byteOffset" : 47676,
      "byteLength" : 216
    },
    {
      "buffer" : 0,
      "byteOffset" : 47892,
      "byteLength" : 1296
    },
    {
      "buffer" : 0,
      "byteOffset" : 49188,
      "byteLength" : 1296
    },
    {
      "buffer" : 0,
      "byteOffset" : 50484,
      "byteLength" : 1728
    },
    {
      "buffer" : 0,
      "byteOffset" : 52212,
      "byteLength" : 864
    },
    {
      "buffer" : 0,
      "byteOffset" : 53076,
      "byteLength" : 864
    },
    {
      "buffer" : 0,
      "byteOffset" : 53940,
      "byteLength" : 240
    },
    {
      "buffer" : 0,
      "byteOffset" : 54180,
      "byteLength" : 1440
    },
    {
      "buffer" : 0,
      "byteOffset" : 55620,
      "byteLength" : 1440
    },
    {
      "buffer" : 0,
      "byteOffset" : 57060,
      "byteLength" : 1920
    },
    {
      "buffer" : 0,
      "byteOffset" : 58980,
      "byteLength" : 960
    },
    {
      "buffer" : 0,
      "byteOffset" : 59940,
      "byteLength" : 960
    }
  ],
  "accessors" : [
    {
      "bufferView" : 0,
      "componentType" : 5123,
      "count" : 306,
      "type" : "SCALAR"
    },
    {
      "bufferView" : 1,
      "min" : [ -0.5, 1.83697e-16, -7.00001 ],
      "max" : [ 0.200002, 2.6, -1 ],
      "componentType" : 5126,
      "count" : 306,
      "type" : "VEC3"
    },
    {
      "bufferView" : 2,
      "componentType" : 5126,
      "count" : 306,
      "type" : "VEC3"
    },
    {
      "bufferView" : 3,
      "componentType" : 5126,
      "count" : 306,
      "type" : "VEC4"
    },
    {
      "bufferView" : 4,
      "componentType" : 5126,
      "count" : 306,
      "type" : "VEC2"
    },
    {
      "bufferView" : 5,
      "componentType" : 5126,
      "count" : 306,
      "type" : "VEC2"
    },
    {
      "bufferView" : 6,
      "componentType" : 5123,
      "count" : 6,
      "type" : "SCALAR"
    },
    {
      "bufferView" : 7,
      "min" : [ -0.3, 0.55, -6.95001 ],
      "max" : [ -0.299999, 2.55, -5.05001 ],
      "componentType" : 5126,
      "count" : 6,
      "type" : "VEC3"
    },
    {
      "bufferView" : 8,
      "componentType" : 5126,
      "count" : 6,
      "type" : "VEC3"
    },
    {
      "bufferView" : 9,
      "componentType" : 5126,
      "count" : 6,
      "type" : "VEC4"
    },
    {
      "bufferView" : 10,
      "componentType" : 5126,
      "count" : 6,
      "type" : "VEC2"
    },
    {
      "bufferView" : 11,
      "componentType" : 5126,
      "count" : 6,
      "type" : "VEC2"
    },
    {
      "bufferView" : 12,
      "componentType" : 5123,
      "count" : 180,
      "type" : "SCALAR"
    },
    {
      "bufferView" : 13,
      "min" : [ -0.349999, 0.5, -3 ],
      "max" : [ -0.249998, 2.6, -1 ],
      "componentType" : 5126,
      "count" : 180,
      "type" : "VEC3"
    },
    {
      "bufferView" : 14,
      "componentType" : 5126,
      "count" : 180,
      "type" : "VEC3"
    },
    {
      "bufferView" : 15,
      "componentType" : 5126,
      "count" : 180,
      "type" : "VEC4"
    },
    {
      "bufferView" : 16,
      "componentType" : 5126,
      "count" : 180,
      "type" : "VEC2"
    },
    {
      "bufferView" : 17,
      "componentType" : 5126,
      "count" : 180,
      "type" : "VEC2"
    },
    {
      "bufferView" : 18,
      "componentType" : 5123,
      "count" : 6,
      "type" : "SCALAR"
    },
    {
      "bufferView" : 19,
      "min" : [ -0.299999, 0.55, -2.95 ],
      "max" : [ -0.299998, 2.55, -1.05 ],
      "componentType" : 5126,
      "count" : 6,
      "type" : "VEC3"
    },
    {
      "bufferView" : 20,
      "componentType" : 5126,
      "count" : 6,
      "type" : "VEC3"
    },
    {
      "bufferView" : 21,
      "componentType" : 5126,
      "count" : 6,
      "type" : "VEC4"
    },
    {
      "bufferView" : 22,
      "componentType" : 5126,
      "count" : 6,
      "type" : "VEC2"
    },
    {
      "bufferView" : 23,
      "componentType" : 5126,
      "count" : 6,
      "type" : "VEC2"
    },
    {
      "bufferView" : 24,
      "componentType" : 5123,
      "count" : 312,
      "type" : "SCALAR"
    },
    {
      "bufferView" : 25,
      "min" : [ -0.45, 1.83696e-16, -4.99999 ],
      "max" : [ 0.14002, 2.6, -2.99999 ],
      "componentType" : 5126,
      "count" : 312,
      "type" : "VEC3"
    },
    {
      "bufferView" : 26,
      "componentType" : 5126,
      "count" : 312,
      "type" : "VEC3"
    },
    {
      "bufferView" : 27,
      "componentType" : 5126,
      "count" : 312,
      "type" : "VEC4"
    },
    {
      "bufferView" : 28,
      "componentType" : 5126,
      "count" : 312,
      "type" : "VEC2"
    },
    {
      "bufferView" : 29,
      "componentType" : 5126,
      "count" : 312,
      "type" : "VEC2"
    },
    {
      "bufferView" : 30,
      "componentType" : 5123,
      "count" : 6,
      "type" : "SCALAR"
    },
    {
      "bufferView" : 31,
      "min" : [ -0.3, 2.24999, -4.54928 ],
      "max" : [ -0.3, 2.5, -3.44998 ],
      "componentType" : 5126,
      "count" : 6,
      "type" : "VEC3"
    },
    {
      "bufferView" : 32,
      "componentType" : 5126,
      "count" : 6,
      "type" : "VEC3"
    },
    {
      "bufferView" : 33,
      "componentType" : 5126,
      "count" : 6,
      "type" : "VEC4"
    },
    {
      "bufferView" : 34,
      "componentType" : 5126,
      "count" : 6,
      "type" : "VEC2"
    },
    {
      "bufferView" : 35,
      "componentType" : 5126,
      "count" : 6,
      "type" : "VEC2"
    },
    {
      "bufferView" : 36,
      "componentType" : 5123,
      "count" : 6,
      "type" : "SCALAR"
    },
    {
      "bufferView" : 37,
      "min" : [ -0.35, 2.2, -4.59928 ],
      "max" : [ -0.25, 2.2, -3.39998 ],
      "componentType" : 5126,
      "count" : 6,
      "type" : "VEC3"
    },
    {
      "bufferView" : 38,
      "componentType" : 5126,
      "count" : 6,
      "type" : "VEC3"
    },
    {
      "bufferView" : 39,
      "componentType" : 5126,
      "count" : 6,
      "type" : "VEC4"
    },
    {
      "bufferView" : 40,
      "componentType" : 5126,
      "count" : 6,
      "type" : "VEC2"
    },
    {
      "bufferView" : 41,
      "componentType" : 5126,
      "count" : 6,
      "type" : "VEC2"
    },
    {
      "bufferView" : 42,
      "componentType" : 5123,
      "count" : 108,
      "type" : "SCALAR"
    },
    {
      "bufferView" : 43,
      "min" : [ -0.25, 1.1212e-22, -8 ],
      "max" : [ 0.15, 3, -1.83105e-06 ],
      "componentType" : 5126,
      "count" : 108,
      "type" : "VEC3"
    },
    {
      "bufferView" : 44,
      "componentType" : 5126,
      "count" : 108,
      "type" : "VEC3"
    },
    {
      "bufferView" : 45,
      "componentType" : 5126,
      "count" : 108,
      "type" : "VEC4"
    },
    {
      "bufferView" : 46,
      "componentType" : 5126,
      "count" : 108,
      "type" : "VEC2"
    },
    {
      "bufferView" : 47,
      "componentType" : 5126,
      "count" : 108,
      "type" : "VEC2"
    },
    {
      "bufferView" : 48,
      "componentType" : 5123,
      "count" : 120,
      "type" : "SCALAR"
    },
    {
      "bufferView" : 49,
      "min" : [ -0.45, 1.1212e-22, -8 ],
      "max" : [ -0.25, 3, -1.83105e-06 ],
      "componentType" : 5126,
      "count" : 120,
      "type" : "VEC3"
    },
    {
      "bufferView" : 50,
      "componentType" : 5126,
      "count" : 120,
      "type" : "VEC3"
    },
    {
      "bufferView" : 51,
      "componentType" : 5126,
      "count" : 120,
      "type" : "VEC4"
    },
    {
      "bufferView" : 52,
      "componentType" : 5126,
      "count" : 120,
      "type" : "VEC2"
    },
    {
      "bufferView" : 53,
      "componentType" : 5126,
      "count" : 120,
      "type" : "VEC2"
    }
  ]
}
