{
  "asset" : {
    "generator" : "UE Viewer (umodel) build 1590",
    "version" : "2.0"
  },
  "scene" : 0,
  "scenes" : [
    {
      "nodes" : [ 0 ]
    }
  ],
  "nodes" : [
    {
      "name" : "SM_veranda_02",
      "mesh" : 0
    }
  ],
  "materials" : [
    {
      "name" : "dummy_material_0",
      "pbrMetallicRoughness" : {
        "baseColorFactor" : [ 0.3, 0.3, 0.3, 1.0 ],
        "metallicFactor" : 0.1,
        "roughnessFactor" : 0.5
      }
    },
    {
      "name" : "dummy_material_1",
      "pbrMetallicRoughness" : {
        "baseColorFactor" : [ 0.9, 0.3, 0.3, 1.0 ],
        "metallicFactor" : 0.1,
        "roughnessFactor" : 0.5
      }
    },
    {
      "name" : "dummy_material_2",
      "pbrMetallicRoughness" : {
        "baseColorFactor" : [ 0.3, 0.9, 0.3, 1.0 ],
        "metallicFactor" : 0.1,
        "roughnessFactor" : 0.5
      }
    }
  ],
  "meshes" : [
    {
      "primitives" : [
        {
          "attributes" : {
            "POSITION" : 1,
            "NORMAL" : 2,
            "TANGENT" : 3,
            "TEXCOORD_0" : 4,
            "TEXCOORD_1" : 5
          },
          "indices" : 0,
          "material" : 0
        },
        {
          "attributes" : {
            "POSITION" : 7,
            "NORMAL" : 8,
            "TANGENT" : 9,
            "TEXCOORD_0" : 10,
            "TEXCOORD_1" : 11
          },
          "indices" : 6,
          "material" : 1
        },
        {
          "attributes" : {
            "POSITION" : 13,
            "NORMAL" : 14,
            "TANGENT" : 15,
            "TEXCOORD_0" : 16,
            "TEXCOORD_1" : 17
          },
          "indices" : 12,
          "material" : 2
        }
      ],
      "name" : "SM_veranda_02"
    }
  ],
  "buffers" : [
    {
      "uri" : "SM_veranda_02.bin",
      "byteLength" : 113796
    }
  ],
  "bufferViews" : [
    {
      "buffer" : 0,
      "byteOffset" : 0,
      "byteLength" : 3108
    },
    {
      "buffer" : 0,
      "byteOffset" : 3108,
      "byteLength" : 18648
    },
    {
      "buffer" : 0,
      "byteOffset" : 21756,
      "byteLength" : 18648
    },
    {
      "buffer" : 0,
      "byteOffset" : 40404,
      "byteLength" : 24864
    },
    {
      "buffer" : 0,
      "byteOffset" : 65268,
      "byteLength" : 12432
    },
    {
      "buffer" : 0,
      "byteOffset" : 77700,
      "byteLength" : 12432
    },
    {
      "buffer" : 0,
      "byteOffset" : 90132,
      "byteLength" : 72
    },
    {
      "buffer" : 0,
      "byteOffset" : 90204,
      "byteLength" : 432
    },
    {
      "buffer" : 0,
      "byteOffset" : 90636,
      "byteLength" : 432
    },
    {
      "buffer" : 0,
      "byteOffset" : 91068,
      "byteLength" : 576
    },
    {
      "buffer" : 0,
      "byteOffset" : 91644,
      "byteLength" : 288
    },
    {
      "buffer" : 0,
      "byteOffset" : 91932,
      "byteLength" : 288
    },
    {
      "buffer" : 0,
      "byteOffset" : 92220,
      "byteLength" : 744
    },
    {
      "buffer" : 0,
      "byteOffset" : 92964,
      "byteLength" : 4464
    },
    {
      "buffer" : 0,
      "byteOffset" : 97428,
      "byteLength" : 4464
    },
    {
      "buffer" : 0,
      "byteOffset" : 101892,
      "byteLength" : 5952
    },
    {
      "buffer" : 0,
      "byteOffset" : 107844,
      "byteLength" : 2976
    },
    {
      "buffer" : 0,
      "byteOffset" : 110820,
      "byteLength" : 2976
    }
  ],
  "accessors" : [
    {
      "bufferView" : 0,
      "componentType" : 5123,
      "count" : 1554,
      "type" : "SCALAR"
    },
    {
      "bufferView" : 1,
      "min" : [ -0.05, -2.89917e-06, -2.2 ],
      "max" : [ 4.7, 5.33835, 2.2 ],
      "componentType" : 5126,
      "count" : 1554,
      "type" : "VEC3"
    },
    {
      "bufferView" : 2,
      "componentType" : 5126,
      "count" : 1554,
      "type" : "VEC3"
    },
    {
      "bufferView" : 3,
      "componentType" : 5126,
      "count" : 1554,
      "type" : "VEC4"
    },
    {
      "bufferView" : 4,
      "componentType" : 5126,
      "count" : 1554,
      "type" : "VEC2"
    },
    {
      "bufferView" : 5,
      "componentType" : 5126,
      "count" : 1554,
      "type" : "VEC2"
    },
    {
      "bufferView" : 6,
      "componentType" : 5123,
      "count" : 36,
      "type" : "SCALAR"
    },
    {
      "bufferView" : 7,
      "min" : [ -0.05, 0.85, -2 ],
      "max" : [ 3.15, 1, 2 ],
      "componentType" : 5126,
      "count" : 36,
      "type" : "VEC3"
    },
    {
      "bufferView" : 8,
      "componentType" : 5126,
      "count" : 36,
      "type" : "VEC3"
    },
    {
      "bufferView" : 9,
      "componentType" : 5126,
      "count" : 36,
      "type" : "VEC4"
    },
    {
      "bufferView" : 10,
      "componentType" : 5126,
      "count" : 36,
      "type" : "VEC2"
    },
    {
      "bufferView" : 11,
      "componentType" : 5126,
      "count" : 36,
      "type" : "VEC2"
    },
    {
      "bufferView" : 12,
      "componentType" : 5123,
      "count" : 372,
      "type" : "SCALAR"
    },
    {
      "bufferView" : 13,
      "min" : [ 0.0627449, 4.00336, -3.09125 ],
      "max" : [ 3.45, 5.43835, 3.09123 ],
      "componentType" : 5126,
      "count" : 372,
      "type" : "VEC3"
    },
    {
      "bufferView" : 14,
      "componentType" : 5126,
      "count" : 372,
      "type" : "VEC3"
    },
    {
      "bufferView" : 15,
      "componentType" : 5126,
      "count" : 372,
      "type" : "VEC4"
    },
    {
      "bufferView" : 16,
      "componentType" : 5126,
      "count" : 372,
      "type" : "VEC2"
    },
    {
      "bufferView" : 17,
      "componentType" : 5126,
      "count" : 372,
      "type" : "VEC2"
    }
  ]
}
