{
  "asset" : {
    "generator" : "UE Viewer (umodel) build 1590",
    "version" : "2.0"
  },
  "scene" : 0,
  "scenes" : [
    {
      "nodes" : [ 0 ]
    }
  ],
  "nodes" : [
    {
      "name" : "SM_veranda_01",
      "mesh" : 0
    }
  ],
  "materials" : [
    {
      "name" : "dummy_material_0",
      "pbrMetallicRoughness" : {
        "baseColorFactor" : [ 0.3, 0.3, 0.3, 1.0 ],
        "metallicFactor" : 0.1,
        "roughnessFactor" : 0.5
      }
    },
    {
      "name" : "dummy_material_1",
      "pbrMetallicRoughness" : {
        "baseColorFactor" : [ 0.9, 0.3, 0.3, 1.0 ],
        "metallicFactor" : 0.1,
        "roughnessFactor" : 0.5
      }
    }
  ],
  "meshes" : [
    {
      "primitives" : [
        {
          "attributes" : {
            "POSITION" : 1,
            "NORMAL" : 2,
            "TANGENT" : 3,
            "TEXCOORD_0" : 4,
            "TEXCOORD_1" : 5
          },
          "indices" : 0,
          "material" : 0
        },
        {
          "attributes" : {
            "POSITION" : 7,
            "NORMAL" : 8,
            "TANGENT" : 9,
            "TEXCOORD_0" : 10,
            "TEXCOORD_1" : 11
          },
          "indices" : 6,
          "material" : 1
        }
      ],
      "name" : "SM_veranda_01"
    }
  ],
  "buffers" : [
    {
      "uri" : "SM_veranda_01.bin",
      "byteLength" : 191576
    }
  ],
  "bufferViews" : [
    {
      "buffer" : 0,
      "byteOffset" : 0,
      "byteLength" : 72
    },
    {
      "buffer" : 0,
      "byteOffset" : 72,
      "byteLength" : 432
    },
    {
      "buffer" : 0,
      "byteOffset" : 504,
      "byteLength" : 432
    },
    {
      "buffer" : 0,
      "byteOffset" : 936,
      "byteLength" : 576
    },
    {
      "buffer" : 0,
      "byteOffset" : 1512,
      "byteLength" : 288
    },
    {
      "buffer" : 0,
      "byteOffset" : 1800,
      "byteLength" : 288
    },
    {
      "buffer" : 0,
      "byteOffset" : 2088,
      "byteLength" : 6536
    },
    {
      "buffer" : 0,
      "byteOffset" : 8624,
      "byteLength" : 39204
    },
    {
      "buffer" : 0,
      "byteOffset" : 47828,
      "byteLength" : 39204
    },
    {
      "buffer" : 0,
      "byteOffset" : 87032,
      "byteLength" : 52272
    },
    {
      "buffer" : 0,
      "byteOffset" : 139304,
      "byteLength" : 26136
    },
    {
      "buffer" : 0,
      "byteOffset" : 165440,
      "byteLength" : 26136
    }
  ],
  "accessors" : [
    {
      "bufferView" : 0,
      "componentType" : 5123,
      "count" : 36,
      "type" : "SCALAR"
    },
    {
      "bufferView" : 1,
      "min" : [ -0.05, 0.85, -5 ],
      "max" : [ 3.15, 1, 5 ],
      "componentType" : 5126,
      "count" : 36,
      "type" : "VEC3"
    },
    {
      "bufferView" : 2,
      "componentType" : 5126,
      "count" : 36,
      "type" : "VEC3"
    },
    {
      "bufferView" : 3,
      "componentType" : 5126,
      "count" : 36,
      "type" : "VEC4"
    },
    {
      "bufferView" : 4,
      "componentType" : 5126,
      "count" : 36,
      "type" : "VEC2"
    },
    {
      "bufferView" : 5,
      "componentType" : 5126,
      "count" : 36,
      "type" : "VEC2"
    },
    {
      "bufferView" : 6,
      "componentType" : 5123,
      "count" : 3267,
      "type" : "SCALAR"
    },
    {
      "bufferView" : 7,
      "min" : [ -0.05, -2.89917e-06, -5.55 ],
      "max" : [ 4.9829, 5.6, 5.55 ],
      "componentType" : 5126,
      "count" : 3267,
      "type" : "VEC3"
    },
    {
      "bufferView" : 8,
      "componentType" : 5126,
      "count" : 3267,
      "type" : "VEC3"
    },
    {
      "bufferView" : 9,
      "componentType" : 5126,
      "count" : 3267,
      "type" : "VEC4"
    },
    {
      "bufferView" : 10,
      "componentType" : 5126,
      "count" : 3267,
      "type" : "VEC2"
    },
    {
      "bufferView" : 11,
      "componentType" : 5126,
      "count" : 3267,
      "type" : "VEC2"
    }
  ]
}
