{
  "asset" : {
    "generator" : "UE Viewer (umodel) build 1590",
    "version" : "2.0"
  },
  "scene" : 0,
  "scenes" : [
    {
      "nodes" : [ 0 ]
    }
  ],
  "nodes" : [
    {
      "name" : "SM_veranda_02_short",
      "mesh" : 0
    }
  ],
  "materials" : [
    {
      "name" : "dummy_material_0",
      "pbrMetallicRoughness" : {
        "baseColorFactor" : [ 0.3, 0.3, 0.3, 1.0 ],
        "metallicFactor" : 0.1,
        "roughnessFactor" : 0.5
      }
    },
    {
      "name" : "dummy_material_1",
      "pbrMetallicRoughness" : {
        "baseColorFactor" : [ 0.9, 0.3, 0.3, 1.0 ],
        "metallicFactor" : 0.1,
        "roughnessFactor" : 0.5
      }
    },
    {
      "name" : "dummy_material_2",
      "pbrMetallicRoughness" : {
        "baseColorFactor" : [ 0.3, 0.9, 0.3, 1.0 ],
        "metallicFactor" : 0.1,
        "roughnessFactor" : 0.5
      }
    },
    {
      "name" : "dummy_material_3",
      "pbrMetallicRoughness" : {
        "baseColorFactor" : [ 0.3, 0.3, 0.9, 1.0 ],
        "metallicFactor" : 0.1,
        "roughnessFactor" : 0.5
      }
    },
    {
      "name" : "dummy_material_4",
      "pbrMetallicRoughness" : {
        "baseColorFactor" : [ 0.9, 0.9, 0.9, 1.0 ],
        "metallicFactor" : 0.1,
        "roughnessFactor" : 0.5
      }
    }
  ],
  "meshes" : [
    {
      "primitives" : [
        {
          "attributes" : {
            "POSITION" : 1,
            "NORMAL" : 2,
            "TANGENT" : 3,
            "TEXCOORD_0" : 4,
            "TEXCOORD_1" : 5
          },
          "indices" : 0,
          "material" : 0
        },
        {
          "attributes" : {
            "POSITION" : 7,
            "NORMAL" : 8,
            "TANGENT" : 9,
            "TEXCOORD_0" : 10,
            "TEXCOORD_1" : 11
          },
          "indices" : 6,
          "material" : 1
        },
        {
          "attributes" : {
            "POSITION" : 13,
            "NORMAL" : 14,
            "TANGENT" : 15,
            "TEXCOORD_0" : 16,
            "TEXCOORD_1" : 17
          },
          "indices" : 12,
          "material" : 2
        },
        {
          "attributes" : {
            "POSITION" : 19,
            "NORMAL" : 20,
            "TANGENT" : 21,
            "TEXCOORD_0" : 22,
            "TEXCOORD_1" : 23
          },
          "indices" : 18,
          "material" : 3
        },
        {
          "attributes" : {
            "POSITION" : 25,
            "NORMAL" : 26,
            "TANGENT" : 27,
            "TEXCOORD_0" : 28,
            "TEXCOORD_1" : 29
          },
          "indices" : 24,
          "material" : 4
        }
      ],
      "name" : "SM_veranda_02_short"
    }
  ],
  "buffers" : [
    {
      "uri" : "SM_veranda_02_short.bin",
      "byteLength" : 89436
    }
  ],
  "bufferViews" : [
    {
      "buffer" : 0,
      "byteOffset" : 0,
      "byteLength" : 1788
    },
    {
      "buffer" : 0,
      "byteOffset" : 1788,
      "byteLength" : 10728
    },
    {
      "buffer" : 0,
      "byteOffset" : 12516,
      "byteLength" : 10728
    },
    {
      "buffer" : 0,
      "byteOffset" : 23244,
      "byteLength" : 14304
    },
    {
      "buffer" : 0,
      "byteOffset" : 37548,
      "byteLength" : 7152
    },
    {
      "buffer" : 0,
      "byteOffset" : 44700,
      "byteLength" : 7152
    },
    {
      "buffer" : 0,
      "byteOffset" : 51852,
      "byteLength" : 48
    },
    {
      "buffer" : 0,
      "byteOffset" : 51900,
      "byteLength" : 288
    },
    {
      "buffer" : 0,
      "byteOffset" : 52188,
      "byteLength" : 288
    },
    {
      "buffer" : 0,
      "byteOffset" : 52476,
      "byteLength" : 384
    },
    {
      "buffer" : 0,
      "byteOffset" : 52860,
      "byteLength" : 192
    },
    {
      "buffer" : 0,
      "byteOffset" : 53052,
      "byteLength" : 192
    },
    {
      "buffer" : 0,
      "byteOffset" : 53244,
      "byteLength" : 1128
    },
    {
      "buffer" : 0,
      "byteOffset" : 54372,
      "byteLength" : 6768
    },
    {
      "buffer" : 0,
      "byteOffset" : 61140,
      "byteLength" : 6768
    },
    {
      "buffer" : 0,
      "byteOffset" : 67908,
      "byteLength" : 9024
    },
    {
      "buffer" : 0,
      "byteOffset" : 76932,
      "byteLength" : 4512
    },
    {
      "buffer" : 0,
      "byteOffset" : 81444,
      "byteLength" : 4512
    },
    {
      "buffer" : 0,
      "byteOffset" : 85956,
      "byteLength" : 12
    },
    {
      "buffer" : 0,
      "byteOffset" : 85968,
      "byteLength" : 72
    },
    {
      "buffer" : 0,
      "byteOffset" : 86040,
      "byteLength" : 72
    },
    {
      "buffer" : 0,
      "byteOffset" : 86112,
      "byteLength" : 96
    },
    {
      "buffer" : 0,
      "byteOffset" : 86208,
      "byteLength" : 48
    },
    {
      "buffer" : 0,
      "byteOffset" : 86256,
      "byteLength" : 48
    },
    {
      "buffer" : 0,
      "byteOffset" : 86304,
      "byteLength" : 108
    },
    {
      "buffer" : 0,
      "byteOffset" : 86412,
      "byteLength" : 648
    },
    {
      "buffer" : 0,
      "byteOffset" : 87060,
      "byteLength" : 648
    },
    {
      "buffer" : 0,
      "byteOffset" : 87708,
      "byteLength" : 864
    },
    {
      "buffer" : 0,
      "byteOffset" : 88572,
      "byteLength" : 432
    },
    {
      "buffer" : 0,
      "byteOffset" : 89004,
      "byteLength" : 432
    }
  ],
  "accessors" : [
    {
      "bufferView" : 0,
      "componentType" : 5123,
      "count" : 894,
      "type" : "SCALAR"
    },
    {
      "bufferView" : 1,
      "min" : [ -2.47955e-06, -2.89917e-06, -2.2 ],
      "max" : [ 3.55, 5.33835, 2.2 ],
      "componentType" : 5126,
      "count" : 894,
      "type" : "VEC3"
    },
    {
      "bufferView" : 2,
      "componentType" : 5126,
      "count" : 894,
      "type" : "VEC3"
    },
    {
      "bufferView" : 3,
      "componentType" : 5126,
      "count" : 894,
      "type" : "VEC4"
    },
    {
      "bufferView" : 4,
      "componentType" : 5126,
      "count" : 894,
      "type" : "VEC2"
    },
    {
      "bufferView" : 5,
      "componentType" : 5126,
      "count" : 894,
      "type" : "VEC2"
    },
    {
      "bufferView" : 6,
      "componentType" : 5123,
      "count" : 24,
      "type" : "SCALAR"
    },
    {
      "bufferView" : 7,
      "min" : [ -2.44141e-06, 0.85, -2 ],
      "max" : [ 2, 1, 2 ],
      "componentType" : 5126,
      "count" : 24,
      "type" : "VEC3"
    },
    {
      "bufferView" : 8,
      "componentType" : 5126,
      "count" : 24,
      "type" : "VEC3"
    },
    {
      "bufferView" : 9,
      "componentType" : 5126,
      "count" : 24,
      "type" : "VEC4"
    },
    {
      "bufferView" : 10,
      "componentType" : 5126,
      "count" : 24,
      "type" : "VEC2"
    },
    {
      "bufferView" : 11,
      "componentType" : 5126,
      "count" : 24,
      "type" : "VEC2"
    },
    {
      "bufferView" : 12,
      "componentType" : 5123,
      "count" : 564,
      "type" : "SCALAR"
    },
    {
      "bufferView" : 13,
      "min" : [ -2.55585e-06, -1.42109e-16, -3.09125 ],
      "max" : [ 2.3, 5.43835, 3.09123 ],
      "componentType" : 5126,
      "count" : 564,
      "type" : "VEC3"
    },
    {
      "bufferView" : 14,
      "componentType" : 5126,
      "count" : 564,
      "type" : "VEC3"
    },
    {
      "bufferView" : 15,
      "componentType" : 5126,
      "count" : 564,
      "type" : "VEC4"
    },
    {
      "bufferView" : 16,
      "componentType" : 5126,
      "count" : 564,
      "type" : "VEC2"
    },
    {
      "bufferView" : 17,
      "componentType" : 5126,
      "count" : 564,
      "type" : "VEC2"
    },
    {
      "bufferView" : 18,
      "componentType" : 5123,
      "count" : 6,
      "type" : "SCALAR"
    },
    {
      "bufferView" : 19,
      "min" : [ -2.44141e-06, 0.85, -2 ],
      "max" : [ 2, 1, -2 ],
      "componentType" : 5126,
      "count" : 6,
      "type" : "VEC3"
    },
    {
      "bufferView" : 20,
      "componentType" : 5126,
      "count" : 6,
      "type" : "VEC3"
    },
    {
      "bufferView" : 21,
      "componentType" : 5126,
      "count" : 6,
      "type" : "VEC4"
    },
    {
      "bufferView" : 22,
      "componentType" : 5126,
      "count" : 6,
      "type" : "VEC2"
    },
    {
      "bufferView" : 23,
      "componentType" : 5126,
      "count" : 6,
      "type" : "VEC2"
    },
    {
      "bufferView" : 24,
      "componentType" : 5123,
      "count" : 54,
      "type" : "SCALAR"
    },
    {
      "bufferView" : 25,
      "min" : [ -2.47955e-06, 4.00336, -3.09125 ],
      "max" : [ 2, 4.84583, 3.09123 ],
      "componentType" : 5126,
      "count" : 54,
      "type" : "VEC3"
    },
    {
      "bufferView" : 26,
      "componentType" : 5126,
      "count" : 54,
      "type" : "VEC3"
    },
    {
      "bufferView" : 27,
      "componentType" : 5126,
      "count" : 54,
      "type" : "VEC4"
    },
    {
      "bufferView" : 28,
      "componentType" : 5126,
      "count" : 54,
      "type" : "VEC2"
    },
    {
      "bufferView" : 29,
      "componentType" : 5126,
      "count" : 54,
      "type" : "VEC2"
    }
  ]
}
