{
  "asset" : {
    "generator" : "UE Viewer (umodel) build 1590",
    "version" : "2.0"
  },
  "scene" : 0,
  "scenes" : [
    {
      "nodes" : [ 0 ]
    }
  ],
  "nodes" : [
    {
      "name" : "SM_window_14",
      "mesh" : 0
    }
  ],
  "materials" : [
    {
      "name" : "dummy_material_0",
      "pbrMetallicRoughness" : {
        "baseColorFactor" : [ 0.3, 0.3, 0.3, 1.0 ],
        "metallicFactor" : 0.1,
        "roughnessFactor" : 0.5
      }
    },
    {
      "name" : "dummy_material_1",
      "pbrMetallicRoughness" : {
        "baseColorFactor" : [ 0.9, 0.3, 0.3, 1.0 ],
        "metallicFactor" : 0.1,
        "roughnessFactor" : 0.5
      }
    },
    {
      "name" : "dummy_material_2",
      "pbrMetallicRoughness" : {
        "baseColorFactor" : [ 0.3, 0.9, 0.3, 1.0 ],
        "metallicFactor" : 0.1,
        "roughnessFactor" : 0.5
      }
    },
    {
      "name" : "dummy_material_3",
      "pbrMetallicRoughness" : {
        "baseColorFactor" : [ 0.3, 0.3, 0.9, 1.0 ],
        "metallicFactor" : 0.1,
        "roughnessFactor" : 0.5
      }
    },
    {
      "name" : "dummy_material_4",
      "pbrMetallicRoughness" : {
        "baseColorFactor" : [ 0.9, 0.9, 0.9, 1.0 ],
        "metallicFactor" : 0.1,
        "roughnessFactor" : 0.5
      }
    },
    {
      "name" : "dummy_material_5",
      "pbrMetallicRoughness" : {
        "baseColorFactor" : [ 0.9, 0.9, 0.3, 1.0 ],
        "metallicFactor" : 0.1,
        "roughnessFactor" : 0.5
      }
    },
    {
      "name" : "dummy_material_6",
      "pbrMetallicRoughness" : {
        "baseColorFactor" : [ 0.9, 0.3, 0.9, 1.0 ],
        "metallicFactor" : 0.1,
        "roughnessFactor" : 0.5
      }
    },
    {
      "name" : "dummy_material_7",
      "pbrMetallicRoughness" : {
        "baseColorFactor" : [ 0.3, 0.9, 0.9, 1.0 ],
        "metallicFactor" : 0.1,
        "roughnessFactor" : 0.5
      }
    },
    {
      "name" : "dummy_material_8",
      "pbrMetallicRoughness" : {
        "baseColorFactor" : [ 1, 0.3, 0.3, 1.0 ],
        "metallicFactor" : 0.1,
        "roughnessFactor" : 0.5
      }
    }
  ],
  "meshes" : [
    {
      "primitives" : [
        {
          "attributes" : {
            "POSITION" : 1,
            "NORMAL" : 2,
            "TANGENT" : 3,
            "TEXCOORD_0" : 4
          },
          "indices" : 0,
          "material" : 0
        },
        {
          "attributes" : {
            "POSITION" : 6,
            "NORMAL" : 7,
            "TANGENT" : 8,
            "TEXCOORD_0" : 9
          },
          "indices" : 5,
          "material" : 1
        },
        {
          "attributes" : {
            "POSITION" : 11,
            "NORMAL" : 12,
            "TANGENT" : 13,
            "TEXCOORD_0" : 14
          },
          "indices" : 10,
          "material" : 2
        },
        {
          "attributes" : {
            "POSITION" : 16,
            "NORMAL" : 17,
            "TANGENT" : 18,
            "TEXCOORD_0" : 19
          },
          "indices" : 15,
          "material" : 3
        },
        {
          "attributes" : {
            "POSITION" : 21,
            "NORMAL" : 22,
            "TANGENT" : 23,
            "TEXCOORD_0" : 24
          },
          "indices" : 20,
          "material" : 4
        },
        {
          "attributes" : {
            "POSITION" : 26,
            "NORMAL" : 27,
            "TANGENT" : 28,
            "TEXCOORD_0" : 29
          },
          "indices" : 25,
          "material" : 5
        },
        {
          "attributes" : {
            "POSITION" : 31,
            "NORMAL" : 32,
            "TANGENT" : 33,
            "TEXCOORD_0" : 34
          },
          "indices" : 30,
          "material" : 6
        },
        {
          "attributes" : {
            "POSITION" : 36,
            "NORMAL" : 37,
            "TANGENT" : 38,
            "TEXCOORD_0" : 39
          },
          "indices" : 35,
          "material" : 7
        },
        {
          "attributes" : {
            "POSITION" : 41,
            "NORMAL" : 42,
            "TANGENT" : 43,
            "TEXCOORD_0" : 44
          },
          "indices" : 40,
          "material" : 8
        }
      ],
      "name" : "SM_window_14"
    }
  ],
  "buffers" : [
    {
      "uri" : "SM_window_14.bin",
      "byteLength" : 25500
    }
  ],
  "bufferViews" : [
    {
      "buffer" : 0,
      "byteOffset" : 0,
      "byteLength" : 96
    },
    {
      "buffer" : 0,
      "byteOffset" : 96,
      "byteLength" : 576
    },
    {
      "buffer" : 0,
      "byteOffset" : 672,
      "byteLength" : 576
    },
    {
      "buffer" : 0,
      "byteOffset" : 1248,
      "byteLength" : 768
    },
    {
      "buffer" : 0,
      "byteOffset" : 2016,
      "byteLength" : 384
    },
    {
      "buffer" : 0,
      "byteOffset" : 2400,
      "byteLength" : 96
    },
    {
      "buffer" : 0,
      "byteOffset" : 2496,
      "byteLength" : 576
    },
    {
      "buffer" : 0,
      "byteOffset" : 3072,
      "byteLength" : 576
    },
    {
      "buffer" : 0,
      "byteOffset" : 3648,
      "byteLength" : 768
    },
    {
      "buffer" : 0,
      "byteOffset" : 4416,
      "byteLength" : 384
    },
    {
      "buffer" : 0,
      "byteOffset" : 4800,
      "byteLength" : 192
    },
    {
      "buffer" : 0,
      "byteOffset" : 4992,
      "byteLength" : 1152
    },
    {
      "buffer" : 0,
      "byteOffset" : 6144,
      "byteLength" : 1152
    },
    {
      "buffer" : 0,
      "byteOffset" : 7296,
      "byteLength" : 1536
    },
    {
      "buffer" : 0,
      "byteOffset" : 8832,
      "byteLength" : 768
    },
    {
      "buffer" : 0,
      "byteOffset" : 9600,
      "byteLength" : 12
    },
    {
      "buffer" : 0,
      "byteOffset" : 9612,
      "byteLength" : 72
    },
    {
      "buffer" : 0,
      "byteOffset" : 9684,
      "byteLength" : 72
    },
    {
      "buffer" : 0,
      "byteOffset" : 9756,
      "byteLength" : 96
    },
    {
      "buffer" : 0,
      "byteOffset" : 9852,
      "byteLength" : 48
    },
    {
      "buffer" : 0,
      "byteOffset" : 9900,
      "byteLength" : 192
    },
    {
      "buffer" : 0,
      "byteOffset" : 10092,
      "byteLength" : 1152
    },
    {
      "buffer" : 0,
      "byteOffset" : 11244,
      "byteLength" : 1152
    },
    {
      "buffer" : 0,
      "byteOffset" : 12396,
      "byteLength" : 1536
    },
    {
      "buffer" : 0,
      "byteOffset" : 13932,
      "byteLength" : 768
    },
    {
      "buffer" : 0,
      "byteOffset" : 14700,
      "byteLength" : 12
    },
    {
      "buffer" : 0,
      "byteOffset" : 14712,
      "byteLength" : 72
    },
    {
      "buffer" : 0,
      "byteOffset" : 14784,
      "byteLength" : 72
    },
    {
      "buffer" : 0,
      "byteOffset" : 14856,
      "byteLength" : 96
    },
    {
      "buffer" : 0,
      "byteOffset" : 14952,
      "byteLength" : 48
    },
    {
      "buffer" : 0,
      "byteOffset" : 15000,
      "byteLength" : 192
    },
    {
      "buffer" : 0,
      "byteOffset" : 15192,
      "byteLength" : 1152
    },
    {
      "buffer" : 0,
      "byteOffset" : 16344,
      "byteLength" : 1152
    },
    {
      "buffer" : 0,
      "byteOffset" : 17496,
      "byteLength" : 1536
    },
    {
      "buffer" : 0,
      "byteOffset" : 19032,
      "byteLength" : 768
    },
    {
      "buffer" : 0,
      "byteOffset" : 19800,
      "byteLength" : 12
    },
    {
      "buffer" : 0,
      "byteOffset" : 19812,
      "byteLength" : 72
    },
    {
      "buffer" : 0,
      "byteOffset" : 19884,
      "byteLength" : 72
    },
    {
      "buffer" : 0,
      "byteOffset" : 19956,
      "byteLength" : 96
    },
    {
      "buffer" : 0,
      "byteOffset" : 20052,
      "byteLength" : 48
    },
    {
      "buffer" : 0,
      "byteOffset" : 20100,
      "byteLength" : 216
    },
    {
      "buffer" : 0,
      "byteOffset" : 20316,
      "byteLength" : 1296
    },
    {
      "buffer" : 0,
      "byteOffset" : 21612,
      "byteLength" : 1296
    },
    {
      "buffer" : 0,
      "byteOffset" : 22908,
      "byteLength" : 1728
    },
    {
      "buffer" : 0,
      "byteOffset" : 24636,
      "byteLength" : 864
    }
  ],
  "accessors" : [
    {
      "bufferView" : 0,
      "componentType" : 5123,
      "count" : 48,
      "type" : "SCALAR"
    },
    {
      "bufferView" : 1,
      "min" : [ 0.150002, 1.68581e-22, -4 ],
      "max" : [ 0.150002, 3, -2.75314e-06 ],
      "componentType" : 5126,
      "count" : 48,
      "type" : "VEC3"
    },
    {
      "bufferView" : 2,
      "componentType" : 5126,
      "count" : 48,
      "type" : "VEC3"
    },
    {
      "bufferView" : 3,
      "componentType" : 5126,
      "count" : 48,
      "type" : "VEC4"
    },
    {
      "bufferView" : 4,
      "componentType" : 5126,
      "count" : 48,
      "type" : "VEC2"
    },
    {
      "bufferView" : 5,
      "componentType" : 5123,
      "count" : 48,
      "type" : "SCALAR"
    },
    {
      "bufferView" : 6,
      "min" : [ -0.150003, 1.67778e-22, -4 ],
      "max" : [ -0.150002, 3, -2.74003e-06 ],
      "componentType" : 5126,
      "count" : 48,
      "type" : "VEC3"
    },
    {
      "bufferView" : 7,
      "componentType" : 5126,
      "count" : 48,
      "type" : "VEC3"
    },
    {
      "bufferView" : 8,
      "componentType" : 5126,
      "count" : 48,
      "type" : "VEC4"
    },
    {
      "bufferView" : 9,
      "componentType" : 5126,
      "count" : 48,
      "type" : "VEC2"
    },
    {
      "bufferView" : 10,
      "componentType" : 5123,
      "count" : 96,
      "type" : "SCALAR"
    },
    {
      "bufferView" : 11,
      "min" : [ 0.0078905, 0.717575, -2.81669 ],
      "max" : [ 0.0578906, 2.22929, -1.18335 ],
      "componentType" : 5126,
      "count" : 96,
      "type" : "VEC3"
    },
    {
      "bufferView" : 12,
      "componentType" : 5126,
      "count" : 96,
      "type" : "VEC3"
    },
    {
      "bufferView" : 13,
      "componentType" : 5126,
      "count" : 96,
      "type" : "VEC4"
    },
    {
      "bufferView" : 14,
      "componentType" : 5126,
      "count" : 96,
      "type" : "VEC2"
    },
    {
      "bufferView" : 15,
      "componentType" : 5123,
      "count" : 6,
      "type" : "SCALAR"
    },
    {
      "bufferView" : 16,
      "min" : [ 0.0328905, 0.767575, -2.76667 ],
      "max" : [ 0.0328906, 2.17929, -1.23343 ],
      "componentType" : 5126,
      "count" : 6,
      "type" : "VEC3"
    },
    {
      "bufferView" : 17,
      "componentType" : 5126,
      "count" : 6,
      "type" : "VEC3"
    },
    {
      "bufferView" : 18,
      "componentType" : 5126,
      "count" : 6,
      "type" : "VEC4"
    },
    {
      "bufferView" : 19,
      "componentType" : 5126,
      "count" : 6,
      "type" : "VEC2"
    },
    {
      "bufferView" : 20,
      "componentType" : 5123,
      "count" : 96,
      "type" : "SCALAR"
    },
    {
      "bufferView" : 21,
      "min" : [ -0.0421071, 0.717575, -3.6637 ],
      "max" : [ 0.00789294, 2.22929, -2.81669 ],
      "componentType" : 5126,
      "count" : 96,
      "type" : "VEC3"
    },
    {
      "bufferView" : 22,
      "componentType" : 5126,
      "count" : 96,
      "type" : "VEC3"
    },
    {
      "bufferView" : 23,
      "componentType" : 5126,
      "count" : 96,
      "type" : "VEC4"
    },
    {
      "bufferView" : 24,
      "componentType" : 5126,
      "count" : 96,
      "type" : "VEC2"
    },
    {
      "bufferView" : 25,
      "componentType" : 5123,
      "count" : 6,
      "type" : "SCALAR"
    },
    {
      "bufferView" : 26,
      "min" : [ -0.0171071, 0.767575, -3.6137 ],
      "max" : [ -0.0171071, 2.17929, -2.8667 ],
      "componentType" : 5126,
      "count" : 6,
      "type" : "VEC3"
    },
    {
      "bufferView" : 27,
      "componentType" : 5126,
      "count" : 6,
      "type" : "VEC3"
    },
    {
      "bufferView" : 28,
      "componentType" : 5126,
      "count" : 6,
      "type" : "VEC4"
    },
    {
      "bufferView" : 29,
      "componentType" : 5126,
      "count" : 6,
      "type" : "VEC2"
    },
    {
      "bufferView" : 30,
      "componentType" : 5123,
      "count" : 96,
      "type" : "SCALAR"
    },
    {
      "bufferView" : 31,
      "min" : [ -0.042107, 0.717575, -1.18335 ],
      "max" : [ 0.00789305, 2.22929, -0.336334 ],
      "componentType" : 5126,
      "count" : 96,
      "type" : "VEC3"
    },
    {
      "bufferView" : 32,
      "componentType" : 5126,
      "count" : 96,
      "type" : "VEC3"
    },
    {
      "bufferView" : 33,
      "componentType" : 5126,
      "count" : 96,
      "type" : "VEC4"
    },
    {
      "bufferView" : 34,
      "componentType" : 5126,
      "count" : 96,
      "type" : "VEC2"
    },
    {
      "bufferView" : 35,
      "componentType" : 5123,
      "count" : 6,
      "type" : "SCALAR"
    },
    {
      "bufferView" : 36,
      "min" : [ -0.017107, 0.767575, -1.13326 ],
      "max" : [ -0.017107, 2.17929, -0.386334 ],
      "componentType" : 5126,
      "count" : 6,
      "type" : "VEC3"
    },
    {
      "bufferView" : 37,
      "componentType" : 5126,
      "count" : 6,
      "type" : "VEC3"
    },
    {
      "bufferView" : 38,
      "componentType" : 5126,
      "count" : 6,
      "type" : "VEC4"
    },
    {
      "bufferView" : 39,
      "componentType" : 5126,
      "count" : 6,
      "type" : "VEC2"
    },
    {
      "bufferView" : 40,
      "componentType" : 5123,
      "count" : 108,
      "type" : "SCALAR"
    },
    {
      "bufferView" : 41,
      "min" : [ -0.23, 0.657576, -3.74903 ],
      "max" : [ 0.23, 2.26465, -0.250963 ],
      "componentType" : 5126,
      "count" : 108,
      "type" : "VEC3"
    },
    {
      "bufferView" : 42,
      "componentType" : 5126,
      "count" : 108,
      "type" : "VEC3"
    },
    {
      "bufferView" : 43,
      "componentType" : 5126,
      "count" : 108,
      "type" : "VEC4"
    },
    {
      "bufferView" : 44,
      "componentType" : 5126,
      "count" : 108,
      "type" : "VEC2"
    }
  ]
}
