{
  "asset" : {
    "generator" : "UE Viewer (umodel) build 1590",
    "version" : "2.0"
  },
  "scene" : 0,
  "scenes" : [
    {
      "nodes" : [ 0 ]
    }
  ],
  "nodes" : [
    {
      "name" : "SM_window_13",
      "mesh" : 0
    }
  ],
  "materials" : [
    {
      "name" : "dummy_material_0",
      "pbrMetallicRoughness" : {
        "baseColorFactor" : [ 0.3, 0.3, 0.3, 1.0 ],
        "metallicFactor" : 0.1,
        "roughnessFactor" : 0.5
      }
    },
    {
      "name" : "dummy_material_1",
      "pbrMetallicRoughness" : {
        "baseColorFactor" : [ 0.9, 0.3, 0.3, 1.0 ],
        "metallicFactor" : 0.1,
        "roughnessFactor" : 0.5
      }
    },
    {
      "name" : "dummy_material_2",
      "pbrMetallicRoughness" : {
        "baseColorFactor" : [ 0.3, 0.9, 0.3, 1.0 ],
        "metallicFactor" : 0.1,
        "roughnessFactor" : 0.5
      }
    },
    {
      "name" : "dummy_material_3",
      "pbrMetallicRoughness" : {
        "baseColorFactor" : [ 0.3, 0.3, 0.9, 1.0 ],
        "metallicFactor" : 0.1,
        "roughnessFactor" : 0.5
      }
    },
    {
      "name" : "dummy_material_4",
      "pbrMetallicRoughness" : {
        "baseColorFactor" : [ 0.9, 0.9, 0.9, 1.0 ],
        "metallicFactor" : 0.1,
        "roughnessFactor" : 0.5
      }
    },
    {
      "name" : "dummy_material_5",
      "pbrMetallicRoughness" : {
        "baseColorFactor" : [ 0.9, 0.9, 0.3, 1.0 ],
        "metallicFactor" : 0.1,
        "roughnessFactor" : 0.5
      }
    }
  ],
  "meshes" : [
    {
      "primitives" : [
        {
          "attributes" : {
            "POSITION" : 1,
            "NORMAL" : 2,
            "TANGENT" : 3,
            "TEXCOORD_0" : 4
          },
          "indices" : 0,
          "material" : 0
        },
        {
          "attributes" : {
            "POSITION" : 6,
            "NORMAL" : 7,
            "TANGENT" : 8,
            "TEXCOORD_0" : 9
          },
          "indices" : 5,
          "material" : 1
        },
        {
          "attributes" : {
            "POSITION" : 11,
            "NORMAL" : 12,
            "TANGENT" : 13,
            "TEXCOORD_0" : 14
          },
          "indices" : 10,
          "material" : 2
        },
        {
          "attributes" : {
            "POSITION" : 16,
            "NORMAL" : 17,
            "TANGENT" : 18,
            "TEXCOORD_0" : 19
          },
          "indices" : 15,
          "material" : 3
        },
        {
          "attributes" : {
            "POSITION" : 21,
            "NORMAL" : 22,
            "TANGENT" : 23,
            "TEXCOORD_0" : 24
          },
          "indices" : 20,
          "material" : 4
        },
        {
          "attributes" : {
            "POSITION" : 26,
            "NORMAL" : 27,
            "TANGENT" : 28,
            "TEXCOORD_0" : 29
          },
          "indices" : 25,
          "material" : 5
        }
      ],
      "name" : "SM_window_13"
    }
  ],
  "buffers" : [
    {
      "uri" : "SM_window_13.bin",
      "byteLength" : 126904
    }
  ],
  "bufferViews" : [
    {
      "buffer" : 0,
      "byteOffset" : 0,
      "byteLength" : 204
    },
    {
      "buffer" : 0,
      "byteOffset" : 204,
      "byteLength" : 1224
    },
    {
      "buffer" : 0,
      "byteOffset" : 1428,
      "byteLength" : 1224
    },
    {
      "buffer" : 0,
      "byteOffset" : 2652,
      "byteLength" : 1632
    },
    {
      "buffer" : 0,
      "byteOffset" : 4284,
      "byteLength" : 816
    },
    {
      "buffer" : 0,
      "byteOffset" : 5100,
      "byteLength" : 128
    },
    {
      "buffer" : 0,
      "byteOffset" : 5228,
      "byteLength" : 756
    },
    {
      "buffer" : 0,
      "byteOffset" : 5984,
      "byteLength" : 756
    },
    {
      "buffer" : 0,
      "byteOffset" : 6740,
      "byteLength" : 1008
    },
    {
      "buffer" : 0,
      "byteOffset" : 7748,
      "byteLength" : 504
    },
    {
      "buffer" : 0,
      "byteOffset" : 8252,
      "byteLength" : 128
    },
    {
      "buffer" : 0,
      "byteOffset" : 8380,
      "byteLength" : 756
    },
    {
      "buffer" : 0,
      "byteOffset" : 9136,
      "byteLength" : 756
    },
    {
      "buffer" : 0,
      "byteOffset" : 9892,
      "byteLength" : 1008
    },
    {
      "buffer" : 0,
      "byteOffset" : 10900,
      "byteLength" : 504
    },
    {
      "buffer" : 0,
      "byteOffset" : 11404,
      "byteLength" : 1152
    },
    {
      "buffer" : 0,
      "byteOffset" : 12556,
      "byteLength" : 6912
    },
    {
      "buffer" : 0,
      "byteOffset" : 19468,
      "byteLength" : 6912
    },
    {
      "buffer" : 0,
      "byteOffset" : 26380,
      "byteLength" : 9216
    },
    {
      "buffer" : 0,
      "byteOffset" : 35596,
      "byteLength" : 4608
    },
    {
      "buffer" : 0,
      "byteOffset" : 40204,
      "byteLength" : 132
    },
    {
      "buffer" : 0,
      "byteOffset" : 40336,
      "byteLength" : 792
    },
    {
      "buffer" : 0,
      "byteOffset" : 41128,
      "byteLength" : 792
    },
    {
      "buffer" : 0,
      "byteOffset" : 41920,
      "byteLength" : 1056
    },
    {
      "buffer" : 0,
      "byteOffset" : 42976,
      "byteLength" : 528
    },
    {
      "buffer" : 0,
      "byteOffset" : 43504,
      "byteLength" : 3336
    },
    {
      "buffer" : 0,
      "byteOffset" : 46840,
      "byteLength" : 20016
    },
    {
      "buffer" : 0,
      "byteOffset" : 66856,
      "byteLength" : 20016
    },
    {
      "buffer" : 0,
      "byteOffset" : 86872,
      "byteLength" : 26688
    },
    {
      "buffer" : 0,
      "byteOffset" : 113560,
      "byteLength" : 13344
    }
  ],
  "accessors" : [
    {
      "bufferView" : 0,
      "componentType" : 5123,
      "count" : 102,
      "type" : "SCALAR"
    },
    {
      "bufferView" : 1,
      "min" : [ -0.15, 0.501016, -2.50102 ],
      "max" : [ 0.15, 2.50508, -1.49899 ],
      "componentType" : 5126,
      "count" : 102,
      "type" : "VEC3"
    },
    {
      "bufferView" : 2,
      "componentType" : 5126,
      "count" : 102,
      "type" : "VEC3"
    },
    {
      "bufferView" : 3,
      "componentType" : 5126,
      "count" : 102,
      "type" : "VEC4"
    },
    {
      "bufferView" : 4,
      "componentType" : 5126,
      "count" : 102,
      "type" : "VEC2"
    },
    {
      "bufferView" : 5,
      "componentType" : 5123,
      "count" : 63,
      "type" : "SCALAR"
    },
    {
      "bufferView" : 6,
      "min" : [ -0.15, -6.11592e-07, -4 ],
      "max" : [ -0.15, 3.0061, 2.59399e-06 ],
      "componentType" : 5126,
      "count" : 63,
      "type" : "VEC3"
    },
    {
      "bufferView" : 7,
      "componentType" : 5126,
      "count" : 63,
      "type" : "VEC3"
    },
    {
      "bufferView" : 8,
      "componentType" : 5126,
      "count" : 63,
      "type" : "VEC4"
    },
    {
      "bufferView" : 9,
      "componentType" : 5126,
      "count" : 63,
      "type" : "VEC2"
    },
    {
      "bufferView" : 10,
      "componentType" : 5123,
      "count" : 63,
      "type" : "SCALAR"
    },
    {
      "bufferView" : 11,
      "min" : [ 0.15, -6.11592e-07, -4 ],
      "max" : [ 0.15, 3.0061, 2.59399e-06 ],
      "componentType" : 5126,
      "count" : 63,
      "type" : "VEC3"
    },
    {
      "bufferView" : 12,
      "componentType" : 5126,
      "count" : 63,
      "type" : "VEC3"
    },
    {
      "bufferView" : 13,
      "componentType" : 5126,
      "count" : 63,
      "type" : "VEC4"
    },
    {
      "bufferView" : 14,
      "componentType" : 5126,
      "count" : 63,
      "type" : "VEC2"
    },
    {
      "bufferView" : 15,
      "componentType" : 5123,
      "count" : 576,
      "type" : "SCALAR"
    },
    {
      "bufferView" : 16,
      "min" : [ -0.0845539, 0.458924, -2.53816 ],
      "max" : [ 0.0845539, 2.53737, -1.46185 ],
      "componentType" : 5126,
      "count" : 576,
      "type" : "VEC3"
    },
    {
      "bufferView" : 17,
      "componentType" : 5126,
      "count" : 576,
      "type" : "VEC3"
    },
    {
      "bufferView" : 18,
      "componentType" : 5126,
      "count" : 576,
      "type" : "VEC4"
    },
    {
      "bufferView" : 19,
      "componentType" : 5126,
      "count" : 576,
      "type" : "VEC2"
    },
    {
      "bufferView" : 20,
      "componentType" : 5123,
      "count" : 66,
      "type" : "SCALAR"
    },
    {
      "bufferView" : 21,
      "min" : [ -3.79463e-08, 0.501016, -2.49607 ],
      "max" : [ 4.8788e-08, 2.48527, -1.50395 ],
      "componentType" : 5126,
      "count" : 66,
      "type" : "VEC3"
    },
    {
      "bufferView" : 22,
      "componentType" : 5126,
      "count" : 66,
      "type" : "VEC3"
    },
    {
      "bufferView" : 23,
      "componentType" : 5126,
      "count" : 66,
      "type" : "VEC4"
    },
    {
      "bufferView" : 24,
      "componentType" : 5126,
      "count" : 66,
      "type" : "VEC2"
    },
    {
      "bufferView" : 25,
      "componentType" : 5123,
      "count" : 1668,
      "type" : "SCALAR"
    },
    {
      "bufferView" : 26,
      "min" : [ -0.0420923, 0.501016, -2.49607 ],
      "max" : [ 0.0420923, 2.46151, -1.50394 ],
      "componentType" : 5126,
      "count" : 1668,
      "type" : "VEC3"
    },
    {
      "bufferView" : 27,
      "componentType" : 5126,
      "count" : 1668,
      "type" : "VEC3"
    },
    {
      "bufferView" : 28,
      "componentType" : 5126,
      "count" : 1668,
      "type" : "VEC4"
    },
    {
      "bufferView" : 29,
      "componentType" : 5126,
      "count" : 1668,
      "type" : "VEC2"
    }
  ]
}
