{
  "asset" : {
    "generator" : "UE Viewer (umodel) build 1590",
    "version" : "2.0"
  },
  "scene" : 0,
  "scenes" : [
    {
      "nodes" : [ 0 ]
    }
  ],
  "nodes" : [
    {
      "name" : "SM_wallGarageDoor_01_double",
      "mesh" : 0
    }
  ],
  "materials" : [
    {
      "name" : "dummy_material_0",
      "pbrMetallicRoughness" : {
        "baseColorFactor" : [ 0.3, 0.3, 0.3, 1.0 ],
        "metallicFactor" : 0.1,
        "roughnessFactor" : 0.5
      }
    },
    {
      "name" : "dummy_material_1",
      "pbrMetallicRoughness" : {
        "baseColorFactor" : [ 0.9, 0.3, 0.3, 1.0 ],
        "metallicFactor" : 0.1,
        "roughnessFactor" : 0.5
      }
    },
    {
      "name" : "dummy_material_2",
      "pbrMetallicRoughness" : {
        "baseColorFactor" : [ 0.3, 0.9, 0.3, 1.0 ],
        "metallicFactor" : 0.1,
        "roughnessFactor" : 0.5
      }
    }
  ],
  "meshes" : [
    {
      "primitives" : [
        {
          "attributes" : {
            "POSITION" : 1,
            "NORMAL" : 2,
            "TANGENT" : 3,
            "TEXCOORD_0" : 4
          },
          "indices" : 0,
          "material" : 0
        },
        {
          "attributes" : {
            "POSITION" : 6,
            "NORMAL" : 7,
            "TANGENT" : 8,
            "TEXCOORD_0" : 9
          },
          "indices" : 5,
          "material" : 1
        },
        {
          "attributes" : {
            "POSITION" : 11,
            "NORMAL" : 12,
            "TANGENT" : 13,
            "TEXCOORD_0" : 14
          },
          "indices" : 10,
          "material" : 2
        }
      ],
      "name" : "SM_wallGarageDoor_01_double"
    }
  ],
  "buffers" : [
    {
      "uri" : "SM_wallGarageDoor_01_double.bin",
      "byteLength" : 10800
    }
  ],
  "bufferViews" : [
    {
      "buffer" : 0,
      "byteOffset" : 0,
      "byteLength" : 60
    },
    {
      "buffer" : 0,
      "byteOffset" : 60,
      "byteLength" : 360
    },
    {
      "buffer" : 0,
      "byteOffset" : 420,
      "byteLength" : 360
    },
    {
      "buffer" : 0,
      "byteOffset" : 780,
      "byteLength" : 480
    },
    {
      "buffer" : 0,
      "byteOffset" : 1260,
      "byteLength" : 240
    },
    {
      "buffer" : 0,
      "byteOffset" : 1500,
      "byteLength" : 60
    },
    {
      "buffer" : 0,
      "byteOffset" : 1560,
      "byteLength" : 360
    },
    {
      "buffer" : 0,
      "byteOffset" : 1920,
      "byteLength" : 360
    },
    {
      "buffer" : 0,
      "byteOffset" : 2280,
      "byteLength" : 480
    },
    {
      "buffer" : 0,
      "byteOffset" : 2760,
      "byteLength" : 240
    },
    {
      "buffer" : 0,
      "byteOffset" : 3000,
      "byteLength" : 312
    },
    {
      "buffer" : 0,
      "byteOffset" : 3312,
      "byteLength" : 1872
    },
    {
      "buffer" : 0,
      "byteOffset" : 5184,
      "byteLength" : 1872
    },
    {
      "buffer" : 0,
      "byteOffset" : 7056,
      "byteLength" : 2496
    },
    {
      "buffer" : 0,
      "byteOffset" : 9552,
      "byteLength" : 1248
    }
  ],
  "accessors" : [
    {
      "bufferView" : 0,
      "componentType" : 5123,
      "count" : 30,
      "type" : "SCALAR"
    },
    {
      "bufferView" : 1,
      "min" : [ 0.15, -1.15678e-21, -7.99998 ],
      "max" : [ 0.150001, 3, 1.88917e-05 ],
      "componentType" : 5126,
      "count" : 30,
      "type" : "VEC3"
    },
    {
      "bufferView" : 2,
      "componentType" : 5126,
      "count" : 30,
      "type" : "VEC3"
    },
    {
      "bufferView" : 3,
      "componentType" : 5126,
      "count" : 30,
      "type" : "VEC4"
    },
    {
      "bufferView" : 4,
      "componentType" : 5126,
      "count" : 30,
      "type" : "VEC2"
    },
    {
      "bufferView" : 5,
      "componentType" : 5123,
      "count" : 30,
      "type" : "SCALAR"
    },
    {
      "bufferView" : 6,
      "min" : [ -0.15, -5.62387e-22, -7.99999 ],
      "max" : [ -0.149999, 3, 9.18448e-06 ],
      "componentType" : 5126,
      "count" : 30,
      "type" : "VEC3"
    },
    {
      "bufferView" : 7,
      "componentType" : 5126,
      "count" : 30,
      "type" : "VEC3"
    },
    {
      "bufferView" : 8,
      "componentType" : 5126,
      "count" : 30,
      "type" : "VEC4"
    },
    {
      "bufferView" : 9,
      "componentType" : 5126,
      "count" : 30,
      "type" : "VEC2"
    },
    {
      "bufferView" : 10,
      "componentType" : 5123,
      "count" : 156,
      "type" : "SCALAR"
    },
    {
      "bufferView" : 11,
      "min" : [ -0.19, 5.69028e-17, -7.07071 ],
      "max" : [ 0.472559, 2.70607, -0.929293 ],
      "componentType" : 5126,
      "count" : 156,
      "type" : "VEC3"
    },
    {
      "bufferView" : 12,
      "componentType" : 5126,
      "count" : 156,
      "type" : "VEC3"
    },
    {
      "bufferView" : 13,
      "componentType" : 5126,
      "count" : 156,
      "type" : "VEC4"
    },
    {
      "bufferView" : 14,
      "componentType" : 5126,
      "count" : 156,
      "type" : "VEC2"
    }
  ]
}
