{
  "asset" : {
    "generator" : "UE Viewer (umodel) build 1590",
    "version" : "2.0"
  },
  "scene" : 0,
  "scenes" : [
    {
      "nodes" : [ 0 ]
    }
  ],
  "nodes" : [
    {
      "name" : "SM_window_11",
      "mesh" : 0
    }
  ],
  "materials" : [
    {
      "name" : "dummy_material_0",
      "pbrMetallicRoughness" : {
        "baseColorFactor" : [ 0.3, 0.3, 0.3, 1.0 ],
        "metallicFactor" : 0.1,
        "roughnessFactor" : 0.5
      }
    },
    {
      "name" : "dummy_material_1",
      "pbrMetallicRoughness" : {
        "baseColorFactor" : [ 0.9, 0.3, 0.3, 1.0 ],
        "metallicFactor" : 0.1,
        "roughnessFactor" : 0.5
      }
    },
    {
      "name" : "dummy_material_2",
      "pbrMetallicRoughness" : {
        "baseColorFactor" : [ 0.3, 0.9, 0.3, 1.0 ],
        "metallicFactor" : 0.1,
        "roughnessFactor" : 0.5
      }
    },
    {
      "name" : "dummy_material_3",
      "pbrMetallicRoughness" : {
        "baseColorFactor" : [ 0.3, 0.3, 0.9, 1.0 ],
        "metallicFactor" : 0.1,
        "roughnessFactor" : 0.5
      }
    },
    {
      "name" : "dummy_material_4",
      "pbrMetallicRoughness" : {
        "baseColorFactor" : [ 0.9, 0.9, 0.9, 1.0 ],
        "metallicFactor" : 0.1,
        "roughnessFactor" : 0.5
      }
    },
    {
      "name" : "dummy_material_5",
      "pbrMetallicRoughness" : {
        "baseColorFactor" : [ 0.9, 0.9, 0.3, 1.0 ],
        "metallicFactor" : 0.1,
        "roughnessFactor" : 0.5
      }
    },
    {
      "name" : "dummy_material_6",
      "pbrMetallicRoughness" : {
        "baseColorFactor" : [ 0.9, 0.3, 0.9, 1.0 ],
        "metallicFactor" : 0.1,
        "roughnessFactor" : 0.5
      }
    },
    {
      "name" : "dummy_material_7",
      "pbrMetallicRoughness" : {
        "baseColorFactor" : [ 0.3, 0.9, 0.9, 1.0 ],
        "metallicFactor" : 0.1,
        "roughnessFactor" : 0.5
      }
    },
    {
      "name" : "dummy_material_8",
      "pbrMetallicRoughness" : {
        "baseColorFactor" : [ 1, 0.3, 0.3, 1.0 ],
        "metallicFactor" : 0.1,
        "roughnessFactor" : 0.5
      }
    },
    {
      "name" : "dummy_material_9",
      "pbrMetallicRoughness" : {
        "baseColorFactor" : [ 0.6, 0.3, 0.3, 1.0 ],
        "metallicFactor" : 0.1,
        "roughnessFactor" : 0.5
      }
    },
    {
      "name" : "dummy_material_10",
      "pbrMetallicRoughness" : {
        "baseColorFactor" : [ 1, 0.9, 0.3, 1.0 ],
        "metallicFactor" : 0.1,
        "roughnessFactor" : 0.5
      }
    },
    {
      "name" : "dummy_material_11",
      "pbrMetallicRoughness" : {
        "baseColorFactor" : [ 1, 0.3, 0.9, 1.0 ],
        "metallicFactor" : 0.1,
        "roughnessFactor" : 0.5
      }
    },
    {
      "name" : "dummy_material_12",
      "pbrMetallicRoughness" : {
        "baseColorFactor" : [ 0.6, 0.9, 0.9, 1.0 ],
        "metallicFactor" : 0.1,
        "roughnessFactor" : 0.5
      }
    },
    {
      "name" : "dummy_material_13",
      "pbrMetallicRoughness" : {
        "baseColorFactor" : [ 0.6, 0.9, 0.3, 1.0 ],
        "metallicFactor" : 0.1,
        "roughnessFactor" : 0.5
      }
    }
  ],
  "meshes" : [
    {
      "primitives" : [
        {
          "attributes" : {
            "POSITION" : 1,
            "NORMAL" : 2,
            "TANGENT" : 3,
            "TEXCOORD_0" : 4
          },
          "indices" : 0,
          "material" : 0
        },
        {
          "attributes" : {
            "POSITION" : 6,
            "NORMAL" : 7,
            "TANGENT" : 8,
            "TEXCOORD_0" : 9
          },
          "indices" : 5,
          "material" : 1
        },
        {
          "attributes" : {
            "POSITION" : 11,
            "NORMAL" : 12,
            "TANGENT" : 13,
            "TEXCOORD_0" : 14
          },
          "indices" : 10,
          "material" : 2
        },
        {
          "attributes" : {
            "POSITION" : 16,
            "NORMAL" : 17,
            "TANGENT" : 18,
            "TEXCOORD_0" : 19
          },
          "indices" : 15,
          "material" : 3
        },
        {
          "attributes" : {
            "POSITION" : 21,
            "NORMAL" : 22,
            "TANGENT" : 23,
            "TEXCOORD_0" : 24
          },
          "indices" : 20,
          "material" : 4
        },
        {
          "attributes" : {
            "POSITION" : 26,
            "NORMAL" : 27,
            "TANGENT" : 28,
            "TEXCOORD_0" : 29
          },
          "indices" : 25,
          "material" : 5
        },
        {
          "attributes" : {
            "POSITION" : 31,
            "NORMAL" : 32,
            "TANGENT" : 33,
            "TEXCOORD_0" : 34
          },
          "indices" : 30,
          "material" : 6
        },
        {
          "attributes" : {
            "POSITION" : 36,
            "NORMAL" : 37,
            "TANGENT" : 38,
            "TEXCOORD_0" : 39
          },
          "indices" : 35,
          "material" : 7
        },
        {
          "attributes" : {
            "POSITION" : 41,
            "NORMAL" : 42,
            "TANGENT" : 43,
            "TEXCOORD_0" : 44
          },
          "indices" : 40,
          "material" : 8
        },
        {
          "attributes" : {
            "POSITION" : 46,
            "NORMAL" : 47,
            "TANGENT" : 48,
            "TEXCOORD_0" : 49
          },
          "indices" : 45,
          "material" : 9
        },
        {
          "attributes" : {
            "POSITION" : 51,
            "NORMAL" : 52,
            "TANGENT" : 53,
            "TEXCOORD_0" : 54
          },
          "indices" : 50,
          "material" : 10
        },
        {
          "attributes" : {
            "POSITION" : 56,
            "NORMAL" : 57,
            "TANGENT" : 58,
            "TEXCOORD_0" : 59
          },
          "indices" : 55,
          "material" : 11
        },
        {
          "attributes" : {
            "POSITION" : 61,
            "NORMAL" : 62,
            "TANGENT" : 63,
            "TEXCOORD_0" : 64
          },
          "indices" : 60,
          "material" : 12
        },
        {
          "attributes" : {
            "POSITION" : 66,
            "NORMAL" : 67,
            "TANGENT" : 68,
            "TEXCOORD_0" : 69
          },
          "indices" : 65,
          "material" : 13
        }
      ],
      "name" : "SM_window_11"
    }
  ],
  "buffers" : [
    {
      "uri" : "SM_window_11.bin",
      "byteLength" : 46200
    }
  ],
  "bufferViews" : [
    {
      "buffer" : 0,
      "byteOffset" : 0,
      "byteLength" : 24
    },
    {
      "buffer" : 0,
      "byteOffset" : 24,
      "byteLength" : 144
    },
    {
      "buffer" : 0,
      "byteOffset" : 168,
      "byteLength" : 144
    },
    {
      "buffer" : 0,
      "byteOffset" : 312,
      "byteLength" : 192
    },
    {
      "buffer" : 0,
      "byteOffset" : 504,
      "byteLength" : 96
    },
    {
      "buffer" : 0,
      "byteOffset" : 600,
      "byteLength" : 24
    },
    {
      "buffer" : 0,
      "byteOffset" : 624,
      "byteLength" : 144
    },
    {
      "buffer" : 0,
      "byteOffset" : 768,
      "byteLength" : 144
    },
    {
      "buffer" : 0,
      "byteOffset" : 912,
      "byteLength" : 192
    },
    {
      "buffer" : 0,
      "byteOffset" : 1104,
      "byteLength" : 96
    },
    {
      "buffer" : 0,
      "byteOffset" : 1200,
      "byteLength" : 12
    },
    {
      "buffer" : 0,
      "byteOffset" : 1212,
      "byteLength" : 72
    },
    {
      "buffer" : 0,
      "byteOffset" : 1284,
      "byteLength" : 72
    },
    {
      "buffer" : 0,
      "byteOffset" : 1356,
      "byteLength" : 96
    },
    {
      "buffer" : 0,
      "byteOffset" : 1452,
      "byteLength" : 48
    },
    {
      "buffer" : 0,
      "byteOffset" : 1500,
      "byteLength" : 12
    },
    {
      "buffer" : 0,
      "byteOffset" : 1512,
      "byteLength" : 72
    },
    {
      "buffer" : 0,
      "byteOffset" : 1584,
      "byteLength" : 72
    },
    {
      "buffer" : 0,
      "byteOffset" : 1656,
      "byteLength" : 96
    },
    {
      "buffer" : 0,
      "byteOffset" : 1752,
      "byteLength" : 48
    },
    {
      "buffer" : 0,
      "byteOffset" : 1800,
      "byteLength" : 24
    },
    {
      "buffer" : 0,
      "byteOffset" : 1824,
      "byteLength" : 144
    },
    {
      "buffer" : 0,
      "byteOffset" : 1968,
      "byteLength" : 144
    },
    {
      "buffer" : 0,
      "byteOffset" : 2112,
      "byteLength" : 192
    },
    {
      "buffer" : 0,
      "byteOffset" : 2304,
      "byteLength" : 96
    },
    {
      "buffer" : 0,
      "byteOffset" : 2400,
      "byteLength" : 24
    },
    {
      "buffer" : 0,
      "byteOffset" : 2424,
      "byteLength" : 144
    },
    {
      "buffer" : 0,
      "byteOffset" : 2568,
      "byteLength" : 144
    },
    {
      "buffer" : 0,
      "byteOffset" : 2712,
      "byteLength" : 192
    },
    {
      "buffer" : 0,
      "byteOffset" : 2904,
      "byteLength" : 96
    },
    {
      "buffer" : 0,
      "byteOffset" : 3000,
      "byteLength" : 12
    },
    {
      "buffer" : 0,
      "byteOffset" : 3012,
      "byteLength" : 72
    },
    {
      "buffer" : 0,
      "byteOffset" : 3084,
      "byteLength" : 72
    },
    {
      "buffer" : 0,
      "byteOffset" : 3156,
      "byteLength" : 96
    },
    {
      "buffer" : 0,
      "byteOffset" : 3252,
      "byteLength" : 48
    },
    {
      "buffer" : 0,
      "byteOffset" : 3300,
      "byteLength" : 12
    },
    {
      "buffer" : 0,
      "byteOffset" : 3312,
      "byteLength" : 72
    },
    {
      "buffer" : 0,
      "byteOffset" : 3384,
      "byteLength" : 72
    },
    {
      "buffer" : 0,
      "byteOffset" : 3456,
      "byteLength" : 96
    },
    {
      "buffer" : 0,
      "byteOffset" : 3552,
      "byteLength" : 48
    },
    {
      "buffer" : 0,
      "byteOffset" : 3600,
      "byteLength" : 12
    },
    {
      "buffer" : 0,
      "byteOffset" : 3612,
      "byteLength" : 72
    },
    {
      "buffer" : 0,
      "byteOffset" : 3684,
      "byteLength" : 72
    },
    {
      "buffer" : 0,
      "byteOffset" : 3756,
      "byteLength" : 96
    },
    {
      "buffer" : 0,
      "byteOffset" : 3852,
      "byteLength" : 48
    },
    {
      "buffer" : 0,
      "byteOffset" : 3900,
      "byteLength" : 12
    },
    {
      "buffer" : 0,
      "byteOffset" : 3912,
      "byteLength" : 72
    },
    {
      "buffer" : 0,
      "byteOffset" : 3984,
      "byteLength" : 72
    },
    {
      "buffer" : 0,
      "byteOffset" : 4056,
      "byteLength" : 96
    },
    {
      "buffer" : 0,
      "byteOffset" : 4152,
      "byteLength" : 48
    },
    {
      "buffer" : 0,
      "byteOffset" : 4200,
      "byteLength" : 12
    },
    {
      "buffer" : 0,
      "byteOffset" : 4212,
      "byteLength" : 72
    },
    {
      "buffer" : 0,
      "byteOffset" : 4284,
      "byteLength" : 72
    },
    {
      "buffer" : 0,
      "byteOffset" : 4356,
      "byteLength" : 96
    },
    {
      "buffer" : 0,
      "byteOffset" : 4452,
      "byteLength" : 48
    },
    {
      "buffer" : 0,
      "byteOffset" : 4500,
      "byteLength" : 12
    },
    {
      "buffer" : 0,
      "byteOffset" : 4512,
      "byteLength" : 72
    },
    {
      "buffer" : 0,
      "byteOffset" : 4584,
      "byteLength" : 72
    },
    {
      "buffer" : 0,
      "byteOffset" : 4656,
      "byteLength" : 96
    },
    {
      "buffer" : 0,
      "byteOffset" : 4752,
      "byteLength" : 48
    },
    {
      "buffer" : 0,
      "byteOffset" : 4800,
      "byteLength" : 72
    },
    {
      "buffer" : 0,
      "byteOffset" : 4872,
      "byteLength" : 432
    },
    {
      "buffer" : 0,
      "byteOffset" : 5304,
      "byteLength" : 432
    },
    {
      "buffer" : 0,
      "byteOffset" : 5736,
      "byteLength" : 576
    },
    {
      "buffer" : 0,
      "byteOffset" : 6312,
      "byteLength" : 288
    },
    {
      "buffer" : 0,
      "byteOffset" : 6600,
      "byteLength" : 1584
    },
    {
      "buffer" : 0,
      "byteOffset" : 8184,
      "byteLength" : 9504
    },
    {
      "buffer" : 0,
      "byteOffset" : 17688,
      "byteLength" : 9504
    },
    {
      "buffer" : 0,
      "byteOffset" : 27192,
      "byteLength" : 12672
    },
    {
      "buffer" : 0,
      "byteOffset" : 39864,
      "byteLength" : 6336
    }
  ],
  "accessors" : [
    {
      "bufferView" : 0,
      "componentType" : 5123,
      "count" : 12,
      "type" : "SCALAR"
    },
    {
      "bufferView" : 1,
      "min" : [ 0.14998, 1.49603e-22, -1.49998 ],
      "max" : [ 0.14998, 2.4125, -2.44319e-06 ],
      "componentType" : 5126,
      "count" : 12,
      "type" : "VEC3"
    },
    {
      "bufferView" : 2,
      "componentType" : 5126,
      "count" : 12,
      "type" : "VEC3"
    },
    {
      "bufferView" : 3,
      "componentType" : 5126,
      "count" : 12,
      "type" : "VEC4"
    },
    {
      "bufferView" : 4,
      "componentType" : 5126,
      "count" : 12,
      "type" : "VEC2"
    },
    {
      "bufferView" : 5,
      "componentType" : 5123,
      "count" : 12,
      "type" : "SCALAR"
    },
    {
      "bufferView" : 6,
      "min" : [ -0.15002, 1.5308e-16, -4 ],
      "max" : [ -0.15002, 2.3875, -2.49999 ],
      "componentType" : 5126,
      "count" : 12,
      "type" : "VEC3"
    },
    {
      "bufferView" : 7,
      "componentType" : 5126,
      "count" : 12,
      "type" : "VEC3"
    },
    {
      "bufferView" : 8,
      "componentType" : 5126,
      "count" : 12,
      "type" : "VEC4"
    },
    {
      "bufferView" : 9,
      "componentType" : 5126,
      "count" : 12,
      "type" : "VEC2"
    },
    {
      "bufferView" : 10,
      "componentType" : 5123,
      "count" : 6,
      "type" : "SCALAR"
    },
    {
      "bufferView" : 11,
      "min" : [ 0.14998, 2.4125, -3.99999 ],
      "max" : [ 0.14998, 3, -2.49998 ],
      "componentType" : 5126,
      "count" : 6,
      "type" : "VEC3"
    },
    {
      "bufferView" : 12,
      "componentType" : 5126,
      "count" : 6,
      "type" : "VEC3"
    },
    {
      "bufferView" : 13,
      "componentType" : 5126,
      "count" : 6,
      "type" : "VEC4"
    },
    {
      "bufferView" : 14,
      "componentType" : 5126,
      "count" : 6,
      "type" : "VEC2"
    },
    {
      "bufferView" : 15,
      "componentType" : 5123,
      "count" : 6,
      "type" : "SCALAR"
    },
    {
      "bufferView" : 16,
      "min" : [ -0.15002, 2.3875, -1.49999 ],
      "max" : [ -0.15002, 3, -2.43962e-06 ],
      "componentType" : 5126,
      "count" : 6,
      "type" : "VEC3"
    },
    {
      "bufferView" : 17,
      "componentType" : 5126,
      "count" : 6,
      "type" : "VEC3"
    },
    {
      "bufferView" : 18,
      "componentType" : 5126,
      "count" : 6,
      "type" : "VEC4"
    },
    {
      "bufferView" : 19,
      "componentType" : 5126,
      "count" : 6,
      "type" : "VEC2"
    },
    {
      "bufferView" : 20,
      "componentType" : 5123,
      "count" : 12,
      "type" : "SCALAR"
    },
    {
      "bufferView" : 21,
      "min" : [ 0.14998, 1.5308e-16, -3.99999 ],
      "max" : [ 0.14998, 2.4125, -2.49998 ],
      "componentType" : 5126,
      "count" : 12,
      "type" : "VEC3"
    },
    {
      "bufferView" : 22,
      "componentType" : 5126,
      "count" : 12,
      "type" : "VEC3"
    },
    {
      "bufferView" : 23,
      "componentType" : 5126,
      "count" : 12,
      "type" : "VEC4"
    },
    {
      "bufferView" : 24,
      "componentType" : 5126,
      "count" : 12,
      "type" : "VEC2"
    },
    {
      "bufferView" : 25,
      "componentType" : 5123,
      "count" : 12,
      "type" : "SCALAR"
    },
    {
      "bufferView" : 26,
      "min" : [ -0.15002, 1.49383e-22, -1.49999 ],
      "max" : [ -0.15002, 2.3875, -2.43962e-06 ],
      "componentType" : 5126,
      "count" : 12,
      "type" : "VEC3"
    },
    {
      "bufferView" : 27,
      "componentType" : 5126,
      "count" : 12,
      "type" : "VEC3"
    },
    {
      "bufferView" : 28,
      "componentType" : 5126,
      "count" : 12,
      "type" : "VEC4"
    },
    {
      "bufferView" : 29,
      "componentType" : 5126,
      "count" : 12,
      "type" : "VEC2"
    },
    {
      "bufferView" : 30,
      "componentType" : 5123,
      "count" : 6,
      "type" : "SCALAR"
    },
    {
      "bufferView" : 31,
      "min" : [ 0.14998, 2.4125, -1.49998 ],
      "max" : [ 0.14998, 3, -2.44319e-06 ],
      "componentType" : 5126,
      "count" : 6,
      "type" : "VEC3"
    },
    {
      "bufferView" : 32,
      "componentType" : 5126,
      "count" : 6,
      "type" : "VEC3"
    },
    {
      "bufferView" : 33,
      "componentType" : 5126,
      "count" : 6,
      "type" : "VEC4"
    },
    {
      "bufferView" : 34,
      "componentType" : 5126,
      "count" : 6,
      "type" : "VEC2"
    },
    {
      "bufferView" : 35,
      "componentType" : 5123,
      "count" : 6,
      "type" : "SCALAR"
    },
    {
      "bufferView" : 36,
      "min" : [ -0.15002, 2.3875, -4 ],
      "max" : [ -0.15002, 3, -2.49999 ],
      "componentType" : 5126,
      "count" : 6,
      "type" : "VEC3"
    },
    {
      "bufferView" : 37,
      "componentType" : 5126,
      "count" : 6,
      "type" : "VEC3"
    },
    {
      "bufferView" : 38,
      "componentType" : 5126,
      "count" : 6,
      "type" : "VEC4"
    },
    {
      "bufferView" : 39,
      "componentType" : 5126,
      "count" : 6,
      "type" : "VEC2"
    },
    {
      "bufferView" : 40,
      "componentType" : 5123,
      "count" : 6,
      "type" : "SCALAR"
    },
    {
      "bufferView" : 41,
      "min" : [ 0.14998, 9.18474e-17, -2.49998 ],
      "max" : [ 0.14998, 1.2, -1.49998 ],
      "componentType" : 5126,
      "count" : 6,
      "type" : "VEC3"
    },
    {
      "bufferView" : 42,
      "componentType" : 5126,
      "count" : 6,
      "type" : "VEC3"
    },
    {
      "bufferView" : 43,
      "componentType" : 5126,
      "count" : 6,
      "type" : "VEC4"
    },
    {
      "bufferView" : 44,
      "componentType" : 5126,
      "count" : 6,
      "type" : "VEC2"
    },
    {
      "bufferView" : 45,
      "componentType" : 5123,
      "count" : 6,
      "type" : "SCALAR"
    },
    {
      "bufferView" : 46,
      "min" : [ -0.15002, 9.18477e-17, -2.49999 ],
      "max" : [ -0.15002, 1.2, -1.49999 ],
      "componentType" : 5126,
      "count" : 6,
      "type" : "VEC3"
    },
    {
      "bufferView" : 47,
      "componentType" : 5126,
      "count" : 6,
      "type" : "VEC3"
    },
    {
      "bufferView" : 48,
      "componentType" : 5126,
      "count" : 6,
      "type" : "VEC4"
    },
    {
      "bufferView" : 49,
      "componentType" : 5126,
      "count" : 6,
      "type" : "VEC2"
    },
    {
      "bufferView" : 50,
      "componentType" : 5123,
      "count" : 6,
      "type" : "SCALAR"
    },
    {
      "bufferView" : 51,
      "min" : [ 0.14998, 2.4125, -2.49998 ],
      "max" : [ 0.14998, 3, -1.49998 ],
      "componentType" : 5126,
      "count" : 6,
      "type" : "VEC3"
    },
    {
      "bufferView" : 52,
      "componentType" : 5126,
      "count" : 6,
      "type" : "VEC3"
    },
    {
      "bufferView" : 53,
      "componentType" : 5126,
      "count" : 6,
      "type" : "VEC4"
    },
    {
      "bufferView" : 54,
      "componentType" : 5126,
      "count" : 6,
      "type" : "VEC2"
    },
    {
      "bufferView" : 55,
      "componentType" : 5123,
      "count" : 6,
      "type" : "SCALAR"
    },
    {
      "bufferView" : 56,
      "min" : [ -0.15002, 2.3875, -2.49999 ],
      "max" : [ -0.15002, 3, -1.49999 ],
      "componentType" : 5126,
      "count" : 6,
      "type" : "VEC3"
    },
    {
      "bufferView" : 57,
      "componentType" : 5126,
      "count" : 6,
      "type" : "VEC3"
    },
    {
      "bufferView" : 58,
      "componentType" : 5126,
      "count" : 6,
      "type" : "VEC4"
    },
    {
      "bufferView" : 59,
      "componentType" : 5126,
      "count" : 6,
      "type" : "VEC2"
    },
    {
      "bufferView" : 60,
      "componentType" : 5123,
      "count" : 36,
      "type" : "SCALAR"
    },
    {
      "bufferView" : 61,
      "min" : [ -0.0249899, 1.28624, -2.41462 ],
      "max" : [ 0.0250004, 2.32626, -1.58532 ],
      "componentType" : 5126,
      "count" : 36,
      "type" : "VEC3"
    },
    {
      "bufferView" : 62,
      "componentType" : 5126,
      "count" : 36,
      "type" : "VEC3"
    },
    {
      "bufferView" : 63,
      "componentType" : 5126,
      "count" : 36,
      "type" : "VEC4"
    },
    {
      "bufferView" : 64,
      "componentType" : 5126,
      "count" : 36,
      "type" : "VEC2"
    },
    {
      "bufferView" : 65,
      "componentType" : 5123,
      "count" : 792,
      "type" : "SCALAR"
    },
    {
      "bufferView" : 66,
      "min" : [ -0.180009, 1.10953, -2.59761 ],
      "max" : [ 0.305076, 2.50299, -1.40237 ],
      "componentType" : 5126,
      "count" : 792,
      "type" : "VEC3"
    },
    {
      "bufferView" : 67,
      "componentType" : 5126,
      "count" : 792,
      "type" : "VEC3"
    },
    {
      "bufferView" : 68,
      "componentType" : 5126,
      "count" : 792,
      "type" : "VEC4"
    },
    {
      "bufferView" : 69,
      "componentType" : 5126,
      "count" : 792,
      "type" : "VEC2"
    }
  ]
}
