{
  "asset" : {
    "generator" : "UE Viewer (umodel) build 1590",
    "version" : "2.0"
  },
  "scene" : 0,
  "scenes" : [
    {
      "nodes" : [ 0 ]
    }
  ],
  "nodes" : [
    {
      "name" : "SM_wallDecor_01",
      "mesh" : 0
    }
  ],
  "materials" : [
    {
      "name" : "dummy_material_0",
      "pbrMetallicRoughness" : {
        "baseColorFactor" : [ 0.3, 0.3, 0.3, 1.0 ],
        "metallicFactor" : 0.1,
        "roughnessFactor" : 0.5
      }
    }
  ],
  "meshes" : [
    {
      "primitives" : [
        {
          "attributes" : {
            "POSITION" : 1,
            "NORMAL" : 2,
            "TANGENT" : 3,
            "TEXCOORD_0" : 4,
            "TEXCOORD_1" : 5
          },
          "indices" : 0,
          "material" : 0
        }
      ],
      "name" : "SM_wallDecor_01"
    }
  ],
  "buffers" : [
    {
      "uri" : "SM_wallDecor_01.bin",
      "byteLength" : 120756
    }
  ],
  "bufferViews" : [
    {
      "buffer" : 0,
      "byteOffset" : 0,
      "byteLength" : 4164
    },
    {
      "buffer" : 0,
      "byteOffset" : 4164,
      "byteLength" : 24984
    },
    {
      "buffer" : 0,
      "byteOffset" : 29148,
      "byteLength" : 24984
    },
    {
      "buffer" : 0,
      "byteOffset" : 54132,
      "byteLength" : 33312
    },
    {
      "buffer" : 0,
      "byteOffset" : 87444,
      "byteLength" : 16656
    },
    {
      "buffer" : 0,
      "byteOffset" : 104100,
      "byteLength" : 16656
    }
  ],
  "accessors" : [
    {
      "bufferView" : 0,
      "componentType" : 5123,
      "count" : 2082,
      "type" : "SCALAR"
    },
    {
      "bufferView" : 1,
      "min" : [ 0.14998, 0.0614755, -2.69165 ],
      "max" : [ 0.229981, 0.823857, 2.69164 ],
      "componentType" : 5126,
      "count" : 2082,
      "type" : "VEC3"
    },
    {
      "bufferView" : 2,
      "componentType" : 5126,
      "count" : 2082,
      "type" : "VEC3"
    },
    {
      "bufferView" : 3,
      "componentType" : 5126,
      "count" : 2082,
      "type" : "VEC4"
    },
    {
      "bufferView" : 4,
      "componentType" : 5126,
      "count" : 2082,
      "type" : "VEC2"
    },
    {
      "bufferView" : 5,
      "componentType" : 5126,
      "count" : 2082,
      "type" : "VEC2"
    }
  ]
}
