{
  "asset" : {
    "generator" : "UE Viewer (umodel) build 1590",
    "version" : "2.0"
  },
  "scene" : 0,
  "scenes" : [
    {
      "nodes" : [ 0 ]
    }
  ],
  "nodes" : [
    {
      "name" : "SM_wallAttic_02_half",
      "mesh" : 0
    }
  ],
  "materials" : [
    {
      "name" : "dummy_material_0",
      "pbrMetallicRoughness" : {
        "baseColorFactor" : [ 0.3, 0.3, 0.3, 1.0 ],
        "metallicFactor" : 0.1,
        "roughnessFactor" : 0.5
      }
    },
    {
      "name" : "dummy_material_1",
      "pbrMetallicRoughness" : {
        "baseColorFactor" : [ 0.9, 0.3, 0.3, 1.0 ],
        "metallicFactor" : 0.1,
        "roughnessFactor" : 0.5
      }
    }
  ],
  "meshes" : [
    {
      "primitives" : [
        {
          "attributes" : {
            "POSITION" : 1,
            "NORMAL" : 2,
            "TANGENT" : 3,
            "TEXCOORD_0" : 4
          },
          "indices" : 0,
          "material" : 0
        },
        {
          "attributes" : {
            "POSITION" : 6,
            "NORMAL" : 7,
            "TANGENT" : 8,
            "TEXCOORD_0" : 9
          },
          "indices" : 5,
          "material" : 1
        }
      ],
      "name" : "SM_wallAttic_02_half"
    }
  ],
  "buffers" : [
    {
      "uri" : "SM_wallAttic_02_half.bin",
      "byteLength" : 2700
    }
  ],
  "bufferViews" : [
    {
      "buffer" : 0,
      "byteOffset" : 0,
      "byteLength" : 24
    },
    {
      "buffer" : 0,
      "byteOffset" : 24,
      "byteLength" : 144
    },
    {
      "buffer" : 0,
      "byteOffset" : 168,
      "byteLength" : 144
    },
    {
      "buffer" : 0,
      "byteOffset" : 312,
      "byteLength" : 192
    },
    {
      "buffer" : 0,
      "byteOffset" : 504,
      "byteLength" : 96
    },
    {
      "buffer" : 0,
      "byteOffset" : 600,
      "byteLength" : 84
    },
    {
      "buffer" : 0,
      "byteOffset" : 684,
      "byteLength" : 504
    },
    {
      "buffer" : 0,
      "byteOffset" : 1188,
      "byteLength" : 504
    },
    {
      "buffer" : 0,
      "byteOffset" : 1692,
      "byteLength" : 672
    },
    {
      "buffer" : 0,
      "byteOffset" : 2364,
      "byteLength" : 336
    }
  ],
  "accessors" : [
    {
      "bufferView" : 0,
      "componentType" : 5123,
      "count" : 12,
      "type" : "SCALAR"
    },
    {
      "bufferView" : 1,
      "min" : [ -0.15, -4.01483e-25, -2 ],
      "max" : [ 0.15, 0.7, 6.55671e-09 ],
      "componentType" : 5126,
      "count" : 12,
      "type" : "VEC3"
    },
    {
      "bufferView" : 2,
      "componentType" : 5126,
      "count" : 12,
      "type" : "VEC3"
    },
    {
      "bufferView" : 3,
      "componentType" : 5126,
      "count" : 12,
      "type" : "VEC4"
    },
    {
      "bufferView" : 4,
      "componentType" : 5126,
      "count" : 12,
      "type" : "VEC2"
    },
    {
      "bufferView" : 5,
      "componentType" : 5123,
      "count" : 42,
      "type" : "SCALAR"
    },
    {
      "bufferView" : 6,
      "min" : [ -0.25, 0.7, -2 ],
      "max" : [ 0.25, 0.8, 1.23163e-06 ],
      "componentType" : 5126,
      "count" : 42,
      "type" : "VEC3"
    },
    {
      "bufferView" : 7,
      "componentType" : 5126,
      "count" : 42,
      "type" : "VEC3"
    },
    {
      "bufferView" : 8,
      "componentType" : 5126,
      "count" : 42,
      "type" : "VEC4"
    },
    {
      "bufferView" : 9,
      "componentType" : 5126,
      "count" : 42,
      "type" : "VEC2"
    }
  ]
}
