{
  "asset" : {
    "generator" : "UE Viewer (umodel) build 1590",
    "version" : "2.0"
  },
  "scene" : 0,
  "scenes" : [
    {
      "nodes" : [ 0 ]
    }
  ],
  "nodes" : [
    {
      "name" : "SM_wallDoor_02",
      "mesh" : 0
    }
  ],
  "materials" : [
    {
      "name" : "dummy_material_0",
      "pbrMetallicRoughness" : {
        "baseColorFactor" : [ 0.3, 0.3, 0.3, 1.0 ],
        "metallicFactor" : 0.1,
        "roughnessFactor" : 0.5
      }
    },
    {
      "name" : "dummy_material_1",
      "pbrMetallicRoughness" : {
        "baseColorFactor" : [ 0.9, 0.3, 0.3, 1.0 ],
        "metallicFactor" : 0.1,
        "roughnessFactor" : 0.5
      }
    },
    {
      "name" : "dummy_material_2",
      "pbrMetallicRoughness" : {
        "baseColorFactor" : [ 0.3, 0.9, 0.3, 1.0 ],
        "metallicFactor" : 0.1,
        "roughnessFactor" : 0.5
      }
    },
    {
      "name" : "dummy_material_3",
      "pbrMetallicRoughness" : {
        "baseColorFactor" : [ 0.3, 0.3, 0.9, 1.0 ],
        "metallicFactor" : 0.1,
        "roughnessFactor" : 0.5
      }
    },
    {
      "name" : "dummy_material_4",
      "pbrMetallicRoughness" : {
        "baseColorFactor" : [ 0.9, 0.9, 0.9, 1.0 ],
        "metallicFactor" : 0.1,
        "roughnessFactor" : 0.5
      }
    },
    {
      "name" : "dummy_material_5",
      "pbrMetallicRoughness" : {
        "baseColorFactor" : [ 0.9, 0.9, 0.3, 1.0 ],
        "metallicFactor" : 0.1,
        "roughnessFactor" : 0.5
      }
    },
    {
      "name" : "dummy_material_6",
      "pbrMetallicRoughness" : {
        "baseColorFactor" : [ 0.9, 0.3, 0.9, 1.0 ],
        "metallicFactor" : 0.1,
        "roughnessFactor" : 0.5
      }
    },
    {
      "name" : "dummy_material_7",
      "pbrMetallicRoughness" : {
        "baseColorFactor" : [ 0.3, 0.9, 0.9, 1.0 ],
        "metallicFactor" : 0.1,
        "roughnessFactor" : 0.5
      }
    },
    {
      "name" : "dummy_material_8",
      "pbrMetallicRoughness" : {
        "baseColorFactor" : [ 1, 0.3, 0.3, 1.0 ],
        "metallicFactor" : 0.1,
        "roughnessFactor" : 0.5
      }
    },
    {
      "name" : "dummy_material_9",
      "pbrMetallicRoughness" : {
        "baseColorFactor" : [ 0.6, 0.3, 0.3, 1.0 ],
        "metallicFactor" : 0.1,
        "roughnessFactor" : 0.5
      }
    },
    {
      "name" : "dummy_material_10",
      "pbrMetallicRoughness" : {
        "baseColorFactor" : [ 1, 0.9, 0.3, 1.0 ],
        "metallicFactor" : 0.1,
        "roughnessFactor" : 0.5
      }
    }
  ],
  "meshes" : [
    {
      "primitives" : [
        {
          "attributes" : {
            "POSITION" : 1,
            "NORMAL" : 2,
            "TANGENT" : 3,
            "TEXCOORD_0" : 4
          },
          "indices" : 0,
          "material" : 0
        },
        {
          "attributes" : {
            "POSITION" : 6,
            "NORMAL" : 7,
            "TANGENT" : 8,
            "TEXCOORD_0" : 9
          },
          "indices" : 5,
          "material" : 1
        },
        {
          "attributes" : {
            "POSITION" : 11,
            "NORMAL" : 12,
            "TANGENT" : 13,
            "TEXCOORD_0" : 14
          },
          "indices" : 10,
          "material" : 2
        },
        {
          "attributes" : {
            "POSITION" : 16,
            "NORMAL" : 17,
            "TANGENT" : 18,
            "TEXCOORD_0" : 19
          },
          "indices" : 15,
          "material" : 3
        },
        {
          "attributes" : {
            "POSITION" : 21,
            "NORMAL" : 22,
            "TANGENT" : 23,
            "TEXCOORD_0" : 24
          },
          "indices" : 20,
          "material" : 4
        },
        {
          "attributes" : {
            "POSITION" : 26,
            "NORMAL" : 27,
            "TANGENT" : 28,
            "TEXCOORD_0" : 29
          },
          "indices" : 25,
          "material" : 5
        },
        {
          "attributes" : {
            "POSITION" : 31,
            "NORMAL" : 32,
            "TANGENT" : 33,
            "TEXCOORD_0" : 34
          },
          "indices" : 30,
          "material" : 6
        },
        {
          "attributes" : {
            "POSITION" : 36,
            "NORMAL" : 37,
            "TANGENT" : 38,
            "TEXCOORD_0" : 39
          },
          "indices" : 35,
          "material" : 7
        },
        {
          "attributes" : {
            "POSITION" : 41,
            "NORMAL" : 42,
            "TANGENT" : 43,
            "TEXCOORD_0" : 44
          },
          "indices" : 40,
          "material" : 8
        },
        {
          "attributes" : {
            "POSITION" : 46,
            "NORMAL" : 47,
            "TANGENT" : 48,
            "TEXCOORD_0" : 49
          },
          "indices" : 45,
          "material" : 9
        },
        {
          "attributes" : {
            "POSITION" : 51,
            "NORMAL" : 52,
            "TANGENT" : 53,
            "TEXCOORD_0" : 54
          },
          "indices" : 50,
          "material" : 10
        }
      ],
      "name" : "SM_wallDoor_02"
    }
  ],
  "buffers" : [
    {
      "uri" : "SM_wallDoor_02.bin",
      "byteLength" : 4800
    }
  ],
  "bufferViews" : [
    {
      "buffer" : 0,
      "byteOffset" : 0,
      "byteLength" : 12
    },
    {
      "buffer" : 0,
      "byteOffset" : 12,
      "byteLength" : 72
    },
    {
      "buffer" : 0,
      "byteOffset" : 84,
      "byteLength" : 72
    },
    {
      "buffer" : 0,
      "byteOffset" : 156,
      "byteLength" : 96
    },
    {
      "buffer" : 0,
      "byteOffset" : 252,
      "byteLength" : 48
    },
    {
      "buffer" : 0,
      "byteOffset" : 300,
      "byteLength" : 12
    },
    {
      "buffer" : 0,
      "byteOffset" : 312,
      "byteLength" : 72
    },
    {
      "buffer" : 0,
      "byteOffset" : 384,
      "byteLength" : 72
    },
    {
      "buffer" : 0,
      "byteOffset" : 456,
      "byteLength" : 96
    },
    {
      "buffer" : 0,
      "byteOffset" : 552,
      "byteLength" : 48
    },
    {
      "buffer" : 0,
      "byteOffset" : 600,
      "byteLength" : 12
    },
    {
      "buffer" : 0,
      "byteOffset" : 612,
      "byteLength" : 72
    },
    {
      "buffer" : 0,
      "byteOffset" : 684,
      "byteLength" : 72
    },
    {
      "buffer" : 0,
      "byteOffset" : 756,
      "byteLength" : 96
    },
    {
      "buffer" : 0,
      "byteOffset" : 852,
      "byteLength" : 48
    },
    {
      "buffer" : 0,
      "byteOffset" : 900,
      "byteLength" : 12
    },
    {
      "buffer" : 0,
      "byteOffset" : 912,
      "byteLength" : 72
    },
    {
      "buffer" : 0,
      "byteOffset" : 984,
      "byteLength" : 72
    },
    {
      "buffer" : 0,
      "byteOffset" : 1056,
      "byteLength" : 96
    },
    {
      "buffer" : 0,
      "byteOffset" : 1152,
      "byteLength" : 48
    },
    {
      "buffer" : 0,
      "byteOffset" : 1200,
      "byteLength" : 12
    },
    {
      "buffer" : 0,
      "byteOffset" : 1212,
      "byteLength" : 72
    },
    {
      "buffer" : 0,
      "byteOffset" : 1284,
      "byteLength" : 72
    },
    {
      "buffer" : 0,
      "byteOffset" : 1356,
      "byteLength" : 96
    },
    {
      "buffer" : 0,
      "byteOffset" : 1452,
      "byteLength" : 48
    },
    {
      "buffer" : 0,
      "byteOffset" : 1500,
      "byteLength" : 12
    },
    {
      "buffer" : 0,
      "byteOffset" : 1512,
      "byteLength" : 72
    },
    {
      "buffer" : 0,
      "byteOffset" : 1584,
      "byteLength" : 72
    },
    {
      "buffer" : 0,
      "byteOffset" : 1656,
      "byteLength" : 96
    },
    {
      "buffer" : 0,
      "byteOffset" : 1752,
      "byteLength" : 48
    },
    {
      "buffer" : 0,
      "byteOffset" : 1800,
      "byteLength" : 12
    },
    {
      "buffer" : 0,
      "byteOffset" : 1812,
      "byteLength" : 72
    },
    {
      "buffer" : 0,
      "byteOffset" : 1884,
      "byteLength" : 72
    },
    {
      "buffer" : 0,
      "byteOffset" : 1956,
      "byteLength" : 96
    },
    {
      "buffer" : 0,
      "byteOffset" : 2052,
      "byteLength" : 48
    },
    {
      "buffer" : 0,
      "byteOffset" : 2100,
      "byteLength" : 12
    },
    {
      "buffer" : 0,
      "byteOffset" : 2112,
      "byteLength" : 72
    },
    {
      "buffer" : 0,
      "byteOffset" : 2184,
      "byteLength" : 72
    },
    {
      "buffer" : 0,
      "byteOffset" : 2256,
      "byteLength" : 96
    },
    {
      "buffer" : 0,
      "byteOffset" : 2352,
      "byteLength" : 48
    },
    {
      "buffer" : 0,
      "byteOffset" : 2400,
      "byteLength" : 12
    },
    {
      "buffer" : 0,
      "byteOffset" : 2412,
      "byteLength" : 72
    },
    {
      "buffer" : 0,
      "byteOffset" : 2484,
      "byteLength" : 72
    },
    {
      "buffer" : 0,
      "byteOffset" : 2556,
      "byteLength" : 96
    },
    {
      "buffer" : 0,
      "byteOffset" : 2652,
      "byteLength" : 48
    },
    {
      "buffer" : 0,
      "byteOffset" : 2700,
      "byteLength" : 48
    },
    {
      "buffer" : 0,
      "byteOffset" : 2748,
      "byteLength" : 288
    },
    {
      "buffer" : 0,
      "byteOffset" : 3036,
      "byteLength" : 288
    },
    {
      "buffer" : 0,
      "byteOffset" : 3324,
      "byteLength" : 384
    },
    {
      "buffer" : 0,
      "byteOffset" : 3708,
      "byteLength" : 192
    },
    {
      "buffer" : 0,
      "byteOffset" : 3900,
      "byteLength" : 36
    },
    {
      "buffer" : 0,
      "byteOffset" : 3936,
      "byteLength" : 216
    },
    {
      "buffer" : 0,
      "byteOffset" : 4152,
      "byteLength" : 216
    },
    {
      "buffer" : 0,
      "byteOffset" : 4368,
      "byteLength" : 288
    },
    {
      "buffer" : 0,
      "byteOffset" : 4656,
      "byteLength" : 144
    }
  ],
  "accessors" : [
    {
      "bufferView" : 0,
      "componentType" : 5123,
      "count" : 6,
      "type" : "SCALAR"
    },
    {
      "bufferView" : 1,
      "min" : [ 0.15, 4.01483e-25, -0.72929 ],
      "max" : [ 0.15, 2.27071, -6.55671e-09 ],
      "componentType" : 5126,
      "count" : 6,
      "type" : "VEC3"
    },
    {
      "bufferView" : 2,
      "componentType" : 5126,
      "count" : 6,
      "type" : "VEC3"
    },
    {
      "bufferView" : 3,
      "componentType" : 5126,
      "count" : 6,
      "type" : "VEC4"
    },
    {
      "bufferView" : 4,
      "componentType" : 5126,
      "count" : 6,
      "type" : "VEC2"
    },
    {
      "bufferView" : 5,
      "componentType" : 5123,
      "count" : 6,
      "type" : "SCALAR"
    },
    {
      "bufferView" : 6,
      "min" : [ -0.15, 2.00273e-16, -4 ],
      "max" : [ -0.15, 2.27071, -3.27071 ],
      "componentType" : 5126,
      "count" : 6,
      "type" : "VEC3"
    },
    {
      "bufferView" : 7,
      "componentType" : 5126,
      "count" : 6,
      "type" : "VEC3"
    },
    {
      "bufferView" : 8,
      "componentType" : 5126,
      "count" : 6,
      "type" : "VEC4"
    },
    {
      "bufferView" : 9,
      "componentType" : 5126,
      "count" : 6,
      "type" : "VEC2"
    },
    {
      "bufferView" : 10,
      "componentType" : 5123,
      "count" : 6,
      "type" : "SCALAR"
    },
    {
      "bufferView" : 11,
      "min" : [ 0.15, 2.00273e-16, -4 ],
      "max" : [ 0.15, 2.27071, -3.27071 ],
      "componentType" : 5126,
      "count" : 6,
      "type" : "VEC3"
    },
    {
      "bufferView" : 12,
      "componentType" : 5126,
      "count" : 6,
      "type" : "VEC3"
    },
    {
      "bufferView" : 13,
      "componentType" : 5126,
      "count" : 6,
      "type" : "VEC4"
    },
    {
      "bufferView" : 14,
      "componentType" : 5126,
      "count" : 6,
      "type" : "VEC2"
    },
    {
      "bufferView" : 15,
      "componentType" : 5123,
      "count" : 6,
      "type" : "SCALAR"
    },
    {
      "bufferView" : 16,
      "min" : [ -0.15, -4.01483e-25, -0.72929 ],
      "max" : [ -0.15, 2.27071, 6.55671e-09 ],
      "componentType" : 5126,
      "count" : 6,
      "type" : "VEC3"
    },
    {
      "bufferView" : 17,
      "componentType" : 5126,
      "count" : 6,
      "type" : "VEC3"
    },
    {
      "bufferView" : 18,
      "componentType" : 5126,
      "count" : 6,
      "type" : "VEC4"
    },
    {
      "bufferView" : 19,
      "componentType" : 5126,
      "count" : 6,
      "type" : "VEC2"
    },
    {
      "bufferView" : 20,
      "componentType" : 5123,
      "count" : 6,
      "type" : "SCALAR"
    },
    {
      "bufferView" : 21,
      "min" : [ 0.15, 2.27071, -0.72929 ],
      "max" : [ 0.15, 3, -6.55671e-09 ],
      "componentType" : 5126,
      "count" : 6,
      "type" : "VEC3"
    },
    {
      "bufferView" : 22,
      "componentType" : 5126,
      "count" : 6,
      "type" : "VEC3"
    },
    {
      "bufferView" : 23,
      "componentType" : 5126,
      "count" : 6,
      "type" : "VEC4"
    },
    {
      "bufferView" : 24,
      "componentType" : 5126,
      "count" : 6,
      "type" : "VEC2"
    },
    {
      "bufferView" : 25,
      "componentType" : 5123,
      "count" : 6,
      "type" : "SCALAR"
    },
    {
      "bufferView" : 26,
      "min" : [ -0.15, 2.27071, -4 ],
      "max" : [ -0.15, 3, -3.27071 ],
      "componentType" : 5126,
      "count" : 6,
      "type" : "VEC3"
    },
    {
      "bufferView" : 27,
      "componentType" : 5126,
      "count" : 6,
      "type" : "VEC3"
    },
    {
      "bufferView" : 28,
      "componentType" : 5126,
      "count" : 6,
      "type" : "VEC4"
    },
    {
      "bufferView" : 29,
      "componentType" : 5126,
      "count" : 6,
      "type" : "VEC2"
    },
    {
      "bufferView" : 30,
      "componentType" : 5123,
      "count" : 6,
      "type" : "SCALAR"
    },
    {
      "bufferView" : 31,
      "min" : [ 0.15, 2.27071, -4 ],
      "max" : [ 0.15, 3, -3.27071 ],
      "componentType" : 5126,
      "count" : 6,
      "type" : "VEC3"
    },
    {
      "bufferView" : 32,
      "componentType" : 5126,
      "count" : 6,
      "type" : "VEC3"
    },
    {
      "bufferView" : 33,
      "componentType" : 5126,
      "count" : 6,
      "type" : "VEC4"
    },
    {
      "bufferView" : 34,
      "componentType" : 5126,
      "count" : 6,
      "type" : "VEC2"
    },
    {
      "bufferView" : 35,
      "componentType" : 5123,
      "count" : 6,
      "type" : "SCALAR"
    },
    {
      "bufferView" : 36,
      "min" : [ -0.15, 2.27071, -3.27071 ],
      "max" : [ -0.15, 3, -0.72929 ],
      "componentType" : 5126,
      "count" : 6,
      "type" : "VEC3"
    },
    {
      "bufferView" : 37,
      "componentType" : 5126,
      "count" : 6,
      "type" : "VEC3"
    },
    {
      "bufferView" : 38,
      "componentType" : 5126,
      "count" : 6,
      "type" : "VEC4"
    },
    {
      "bufferView" : 39,
      "componentType" : 5126,
      "count" : 6,
      "type" : "VEC2"
    },
    {
      "bufferView" : 40,
      "componentType" : 5123,
      "count" : 6,
      "type" : "SCALAR"
    },
    {
      "bufferView" : 41,
      "min" : [ 0.15, 2.27071, -3.27071 ],
      "max" : [ 0.15, 3, -0.72929 ],
      "componentType" : 5126,
      "count" : 6,
      "type" : "VEC3"
    },
    {
      "bufferView" : 42,
      "componentType" : 5126,
      "count" : 6,
      "type" : "VEC3"
    },
    {
      "bufferView" : 43,
      "componentType" : 5126,
      "count" : 6,
      "type" : "VEC4"
    },
    {
      "bufferView" : 44,
      "componentType" : 5126,
      "count" : 6,
      "type" : "VEC2"
    },
    {
      "bufferView" : 45,
      "componentType" : 5123,
      "count" : 24,
      "type" : "SCALAR"
    },
    {
      "bufferView" : 46,
      "min" : [ -0.15, 4.46561e-17, -3.27071 ],
      "max" : [ -7.71786e-08, 3, 6.55671e-09 ],
      "componentType" : 5126,
      "count" : 24,
      "type" : "VEC3"
    },
    {
      "bufferView" : 47,
      "componentType" : 5126,
      "count" : 24,
      "type" : "VEC3"
    },
    {
      "bufferView" : 48,
      "componentType" : 5126,
      "count" : 24,
      "type" : "VEC4"
    },
    {
      "bufferView" : 49,
      "componentType" : 5126,
      "count" : 24,
      "type" : "VEC2"
    },
    {
      "bufferView" : 50,
      "componentType" : 5123,
      "count" : 18,
      "type" : "SCALAR"
    },
    {
      "bufferView" : 51,
      "min" : [ -1.54887e-07, 4.46561e-17, -3.27071 ],
      "max" : [ 0.15, 2.27071, -0.72929 ],
      "componentType" : 5126,
      "count" : 18,
      "type" : "VEC3"
    },
    {
      "bufferView" : 52,
      "componentType" : 5126,
      "count" : 18,
      "type" : "VEC3"
    },
    {
      "bufferView" : 53,
      "componentType" : 5126,
      "count" : 18,
      "type" : "VEC4"
    },
    {
      "bufferView" : 54,
      "componentType" : 5126,
      "count" : 18,
      "type" : "VEC2"
    }
  ]
}
