{
  "asset" : {
    "generator" : "UE Viewer (umodel) build 1590",
    "version" : "2.0"
  },
  "scene" : 0,
  "scenes" : [
    {
      "nodes" : [ 0 ]
    }
  ],
  "nodes" : [
    {
      "name" : "SM_parcel_12",
      "mesh" : 0
    }
  ],
  "materials" : [
    {
      "name" : "dummy_material_0",
      "pbrMetallicRoughness" : {
        "baseColorFactor" : [ 0.3, 0.3, 0.3, 1.0 ],
        "metallicFactor" : 0.1,
        "roughnessFactor" : 0.5
      }
    }
  ],
  "meshes" : [
    {
      "primitives" : [
        {
          "attributes" : {
            "POSITION" : 1,
            "NORMAL" : 2,
            "TANGENT" : 3,
            "TEXCOORD_0" : 4,
            "TEXCOORD_1" : 5
          },
          "indices" : 0,
          "material" : 0
        }
      ],
      "name" : "SM_parcel_12"
    }
  ],
  "buffers" : [
    {
      "uri" : "SM_parcel_12.bin",
      "byteLength" : 31668
    }
  ],
  "bufferViews" : [
    {
      "buffer" : 0,
      "byteOffset" : 0,
      "byteLength" : 1092
    },
    {
      "buffer" : 0,
      "byteOffset" : 1092,
      "byteLength" : 6552
    },
    {
      "buffer" : 0,
      "byteOffset" : 7644,
      "byteLength" : 6552
    },
    {
      "buffer" : 0,
      "byteOffset" : 14196,
      "byteLength" : 8736
    },
    {
      "buffer" : 0,
      "byteOffset" : 22932,
      "byteLength" : 4368
    },
    {
      "buffer" : 0,
      "byteOffset" : 27300,
      "byteLength" : 4368
    }
  ],
  "accessors" : [
    {
      "bufferView" : 0,
      "componentType" : 5123,
      "count" : 546,
      "type" : "SCALAR"
    },
    {
      "bufferView" : 1,
      "min" : [ -1.46484e-05, 2.38419e-09, -16 ],
      "max" : [ 31.9999, 3.57628e-09, -0 ],
      "componentType" : 5126,
      "count" : 546,
      "type" : "VEC3"
    },
    {
      "bufferView" : 2,
      "componentType" : 5126,
      "count" : 546,
      "type" : "VEC3"
    },
    {
      "bufferView" : 3,
      "componentType" : 5126,
      "count" : 546,
      "type" : "VEC4"
    },
    {
      "bufferView" : 4,
      "componentType" : 5126,
      "count" : 546,
      "type" : "VEC2"
    },
    {
      "bufferView" : 5,
      "componentType" : 5126,
      "count" : 546,
      "type" : "VEC2"
    }
  ]
}
