{
  "asset" : {
    "generator" : "UE Viewer (umodel) build 1590",
    "version" : "2.0"
  },
  "scene" : 0,
  "scenes" : [
    {
      "nodes" : [ 0 ]
    }
  ],
  "nodes" : [
    {
      "name" : "SM_parkingSpot_02",
      "mesh" : 0
    }
  ],
  "materials" : [
    {
      "name" : "dummy_material_0",
      "pbrMetallicRoughness" : {
        "baseColorFactor" : [ 0.3, 0.3, 0.3, 1.0 ],
        "metallicFactor" : 0.1,
        "roughnessFactor" : 0.5
      }
    }
  ],
  "meshes" : [
    {
      "primitives" : [
        {
          "attributes" : {
            "POSITION" : 1,
            "NORMAL" : 2,
            "TANGENT" : 3,
            "TEXCOORD_0" : 4
          },
          "indices" : 0,
          "material" : 0
        }
      ],
      "name" : "SM_parkingSpot_02"
    }
  ],
  "buffers" : [
    {
      "uri" : "SM_parkingSpot_02.bin",
      "byteLength" : 1352
    }
  ],
  "bufferViews" : [
    {
      "buffer" : 0,
      "byteOffset" : 0,
      "byteLength" : 56
    },
    {
      "buffer" : 0,
      "byteOffset" : 56,
      "byteLength" : 324
    },
    {
      "buffer" : 0,
      "byteOffset" : 380,
      "byteLength" : 324
    },
    {
      "buffer" : 0,
      "byteOffset" : 704,
      "byteLength" : 432
    },
    {
      "buffer" : 0,
      "byteOffset" : 1136,
      "byteLength" : 216
    }
  ],
  "accessors" : [
    {
      "bufferView" : 0,
      "componentType" : 5123,
      "count" : 27,
      "type" : "SCALAR"
    },
    {
      "bufferView" : 1,
      "min" : [ -1.09863e-05, -2.4493e-16, -1.2207e-06 ],
      "max" : [ 8, 7.47465e-23, 4 ],
      "componentType" : 5126,
      "count" : 27,
      "type" : "VEC3"
    },
    {
      "bufferView" : 2,
      "componentType" : 5126,
      "count" : 27,
      "type" : "VEC3"
    },
    {
      "bufferView" : 3,
      "componentType" : 5126,
      "count" : 27,
      "type" : "VEC4"
    },
    {
      "bufferView" : 4,
      "componentType" : 5126,
      "count" : 27,
      "type" : "VEC2"
    }
  ]
}
