{
  "asset" : {
    "generator" : "UE Viewer (umodel) build 1590",
    "version" : "2.0"
  },
  "scene" : 0,
  "scenes" : [
    {
      "nodes" : [ 0 ]
    }
  ],
  "nodes" : [
    {
      "name" : "SM_sidewalk_01",
      "mesh" : 0
    }
  ],
  "materials" : [
    {
      "name" : "dummy_material_0",
      "pbrMetallicRoughness" : {
        "baseColorFactor" : [ 0.3, 0.3, 0.3, 1.0 ],
        "metallicFactor" : 0.1,
        "roughnessFactor" : 0.5
      }
    }
  ],
  "meshes" : [
    {
      "primitives" : [
        {
          "attributes" : {
            "POSITION" : 1,
            "NORMAL" : 2,
            "TANGENT" : 3,
            "TEXCOORD_0" : 4,
            "TEXCOORD_1" : 5
          },
          "indices" : 0,
          "material" : 0
        }
      ],
      "name" : "SM_sidewalk_01"
    }
  ],
  "buffers" : [
    {
      "uri" : "SM_sidewalk_01.bin",
      "byteLength" : 35844
    }
  ],
  "bufferViews" : [
    {
      "buffer" : 0,
      "byteOffset" : 0,
      "byteLength" : 1236
    },
    {
      "buffer" : 0,
      "byteOffset" : 1236,
      "byteLength" : 7416
    },
    {
      "buffer" : 0,
      "byteOffset" : 8652,
      "byteLength" : 7416
    },
    {
      "buffer" : 0,
      "byteOffset" : 16068,
      "byteLength" : 9888
    },
    {
      "buffer" : 0,
      "byteOffset" : 25956,
      "byteLength" : 4944
    },
    {
      "buffer" : 0,
      "byteOffset" : 30900,
      "byteLength" : 4944
    }
  ],
  "accessors" : [
    {
      "bufferView" : 0,
      "componentType" : 5123,
      "count" : 618,
      "type" : "SCALAR"
    },
    {
      "bufferView" : 1,
      "min" : [ -3.95675e-06, -0.13, -4.91778e-06 ],
      "max" : [ 4.00001, 0.035078, 4.00001 ],
      "componentType" : 5126,
      "count" : 618,
      "type" : "VEC3"
    },
    {
      "bufferView" : 2,
      "componentType" : 5126,
      "count" : 618,
      "type" : "VEC3"
    },
    {
      "bufferView" : 3,
      "componentType" : 5126,
      "count" : 618,
      "type" : "VEC4"
    },
    {
      "bufferView" : 4,
      "componentType" : 5126,
      "count" : 618,
      "type" : "VEC2"
    },
    {
      "bufferView" : 5,
      "componentType" : 5126,
      "count" : 618,
      "type" : "VEC2"
    }
  ]
}
