{
  "asset" : {
    "generator" : "UE Viewer (umodel) build 1590",
    "version" : "2.0"
  },
  "scene" : 0,
  "scenes" : [
    {
      "nodes" : [ 0 ]
    }
  ],
  "nodes" : [
    {
      "name" : "SM_sidewalk_01_rainDrain",
      "mesh" : 0
    }
  ],
  "materials" : [
    {
      "name" : "dummy_material_0",
      "pbrMetallicRoughness" : {
        "baseColorFactor" : [ 0.3, 0.3, 0.3, 1.0 ],
        "metallicFactor" : 0.1,
        "roughnessFactor" : 0.5
      }
    }
  ],
  "meshes" : [
    {
      "primitives" : [
        {
          "attributes" : {
            "POSITION" : 1,
            "NORMAL" : 2,
            "TANGENT" : 3,
            "TEXCOORD_0" : 4,
            "TEXCOORD_1" : 5
          },
          "indices" : 0,
          "material" : 0
        }
      ],
      "name" : "SM_sidewalk_01_rainDrain"
    }
  ],
  "buffers" : [
    {
      "uri" : "SM_sidewalk_01_rainDrain.bin",
      "byteLength" : 54984
    }
  ],
  "bufferViews" : [
    {
      "buffer" : 0,
      "byteOffset" : 0,
      "byteLength" : 1896
    },
    {
      "buffer" : 0,
      "byteOffset" : 1896,
      "byteLength" : 11376
    },
    {
      "buffer" : 0,
      "byteOffset" : 13272,
      "byteLength" : 11376
    },
    {
      "buffer" : 0,
      "byteOffset" : 24648,
      "byteLength" : 15168
    },
    {
      "buffer" : 0,
      "byteOffset" : 39816,
      "byteLength" : 7584
    },
    {
      "buffer" : 0,
      "byteOffset" : 47400,
      "byteLength" : 7584
    }
  ],
  "accessors" : [
    {
      "bufferView" : 0,
      "componentType" : 5123,
      "count" : 948,
      "type" : "SCALAR"
    },
    {
      "bufferView" : 1,
      "min" : [ -3.88498e-06, -0.241094, -4.91778e-06 ],
      "max" : [ 4, 0.035078, 4.00001 ],
      "componentType" : 5126,
      "count" : 948,
      "type" : "VEC3"
    },
    {
      "bufferView" : 2,
      "componentType" : 5126,
      "count" : 948,
      "type" : "VEC3"
    },
    {
      "bufferView" : 3,
      "componentType" : 5126,
      "count" : 948,
      "type" : "VEC4"
    },
    {
      "bufferView" : 4,
      "componentType" : 5126,
      "count" : 948,
      "type" : "VEC2"
    },
    {
      "bufferView" : 5,
      "componentType" : 5126,
      "count" : 948,
      "type" : "VEC2"
    }
  ]
}
