{
  "asset" : {
    "generator" : "UE Viewer (umodel) build 1590",
    "version" : "2.0"
  },
  "scene" : 0,
  "scenes" : [
    {
      "nodes" : [ 0 ]
    }
  ],
  "nodes" : [
    {
      "name" : "SM_sidewalk_01_corner",
      "mesh" : 0
    }
  ],
  "materials" : [
    {
      "name" : "dummy_material_0",
      "pbrMetallicRoughness" : {
        "baseColorFactor" : [ 0.3, 0.3, 0.3, 1.0 ],
        "metallicFactor" : 0.1,
        "roughnessFactor" : 0.5
      }
    }
  ],
  "meshes" : [
    {
      "primitives" : [
        {
          "attributes" : {
            "POSITION" : 1,
            "NORMAL" : 2,
            "TANGENT" : 3,
            "TEXCOORD_0" : 4,
            "TEXCOORD_1" : 5
          },
          "indices" : 0,
          "material" : 0
        }
      ],
      "name" : "SM_sidewalk_01_corner"
    }
  ],
  "buffers" : [
    {
      "uri" : "SM_sidewalk_01_corner.bin",
      "byteLength" : 88044
    }
  ],
  "bufferViews" : [
    {
      "buffer" : 0,
      "byteOffset" : 0,
      "byteLength" : 3036
    },
    {
      "buffer" : 0,
      "byteOffset" : 3036,
      "byteLength" : 18216
    },
    {
      "buffer" : 0,
      "byteOffset" : 21252,
      "byteLength" : 18216
    },
    {
      "buffer" : 0,
      "byteOffset" : 39468,
      "byteLength" : 24288
    },
    {
      "buffer" : 0,
      "byteOffset" : 63756,
      "byteLength" : 12144
    },
    {
      "buffer" : 0,
      "byteOffset" : 75900,
      "byteLength" : 12144
    }
  ],
  "accessors" : [
    {
      "bufferView" : 0,
      "componentType" : 5123,
      "count" : 1518,
      "type" : "SCALAR"
    },
    {
      "bufferView" : 1,
      "min" : [ -5.12695e-05, -0.13, -5.15137e-07 ],
      "max" : [ 4, 0.0350784, 4 ],
      "componentType" : 5126,
      "count" : 1518,
      "type" : "VEC3"
    },
    {
      "bufferView" : 2,
      "componentType" : 5126,
      "count" : 1518,
      "type" : "VEC3"
    },
    {
      "bufferView" : 3,
      "componentType" : 5126,
      "count" : 1518,
      "type" : "VEC4"
    },
    {
      "bufferView" : 4,
      "componentType" : 5126,
      "count" : 1518,
      "type" : "VEC2"
    },
    {
      "bufferView" : 5,
      "componentType" : 5126,
      "count" : 1518,
      "type" : "VEC2"
    }
  ]
}
